<svg version="1.1" xmlns="http://www.w3.org/2000/svg" style="display: block;" viewBox="0 0 2048 2048" width="801" height="801" preserveAspectRatio="none">
<path transform="translate(0,0)" fill="rgb(243,84,0)" d="M 1686.44 532.453 C 1711.38 532.099 1729.16 534.662 1750.84 547.94 C 1756.23 551.246 1766.33 558.569 1771.94 559.452 C 1787.8 561.713 1801.23 559.929 1816.75 565.378 C 1855.71 579.063 1882.74 612.238 1885.17 653.936 C 1886.22 671.733 1883 682.673 1876.77 699.319 C 1885.49 706.847 1898.16 713.737 1908.04 720.218 C 1921.08 728.915 1933.58 738.405 1945.46 748.633 C 1981.38 779.612 2014.04 821.921 2019.92 870.781 C 2029.93 953.854 1937.21 994.976 1866.04 998.556 C 1866.94 1020.91 1855.07 1044.7 1844.89 1063.66 C 1847.18 1106.54 1848.58 1116.09 1831.98 1155.15 C 1852.14 1168.64 1909.52 1197.82 1919.63 1216.65 C 1934.45 1244.28 1956.06 1294.99 1966.77 1326.1 C 1968.72 1331.75 1968.6 1342.09 1967.18 1348.08 C 1964.62 1358.59 1957.91 1367.62 1948.58 1373.11 C 1937.97 1379.49 1924.66 1381.99 1912.6 1378.64 C 1892 1372.93 1883.5 1352.47 1874.39 1335.12 L 1858.41 1304.68 C 1855.17 1298.61 1848.16 1285.25 1842.96 1281.91 C 1817.92 1265.82 1765.31 1247.03 1736.83 1238.36 C 1726.08 1268.05 1720.6 1275.4 1700.97 1299.42 C 1703.74 1310.6 1708.05 1326.22 1709.07 1337.28 C 1710.38 1351.68 1709.69 1367.91 1709.48 1382.4 C 1709.36 1403.11 1708.85 1423.81 1707.95 1444.5 C 1707.39 1457.07 1707.73 1473.26 1706.07 1485.36 C 1700.24 1528 1640.13 1533.61 1623.97 1494.42 C 1621.49 1488.4 1620.97 1480.22 1620.24 1473.78 C 1618.19 1444.96 1616.18 1416.01 1613.14 1387.28 C 1611.55 1372.26 1606.12 1355.21 1602.57 1340.25 C 1589.23 1337.46 1576.75 1336.69 1562.14 1333.33 C 1514.41 1387.11 1449.12 1400.79 1385.44 1365.94 C 1384.58 1365.33 1379.96 1362.39 1379.28 1362.76 C 1362.68 1371.91 1345.47 1376.3 1328.16 1382.84 L 1331.51 1449.35 C 1333.4 1483.47 1340.87 1517.12 1295.67 1528.41 C 1278.42 1532.72 1256.36 1521.23 1249.53 1505.17 C 1247.22 1499.74 1245.56 1492.83 1244.26 1487.06 C 1235.33 1441.21 1225.04 1395.65 1217.95 1349.47 C 1207.01 1359.34 1194.32 1376.21 1183.59 1387.18 C 1176.38 1395.31 1170.15 1406.98 1162.74 1414.66 C 1135.49 1442.89 1109.39 1472.97 1081.67 1500.61 C 1071.51 1510.74 1046.73 1512.62 1034.53 1504.9 C 1023.74 1498.08 1015.29 1488.32 1012.71 1475.24 C 1010.56 1464.43 1012.13 1453.21 1017.16 1443.41 C 1022.14 1433.85 1028.44 1427.95 1034.56 1419.7 C 1048.1 1400.51 1064.97 1382.87 1078.27 1363.64 C 1089.59 1347.28 1098.59 1326.71 1109.6 1309.82 C 1114.15 1302.85 1118.59 1295.94 1123.18 1289.04 C 1111.37 1279.28 1102.14 1275.42 1090.47 1262.5 C 1060.02 1228.78 1052.83 1200.64 1053.99 1157.26 C 1047.52 1149.05 1038.89 1142.31 1031.95 1134.41 C 990.42 1087.16 992.274 1011.29 1032.22 963.74 C 1036.67 958.438 1042.75 953.214 1048.07 948.482 C 1047.49 944.139 1047.13 940.307 1047.15 935.912 C 1046.95 900.439 1061.19 866.41 1086.58 841.643 C 1114.64 813.766 1146.17 803.284 1184.92 803.433 C 1188.86 798.791 1191.99 792.484 1195.48 787.387 C 1229.63 737.61 1285.17 724.029 1341.25 735.974 C 1349.83 729.672 1357.38 720.934 1367.08 714.549 C 1405.62 689.193 1438.27 687.287 1481.68 694.886 C 1482.24 684.338 1482.61 674.137 1485.59 663.9 C 1495.4 630.252 1523.91 601.745 1556.82 590.135 C 1567.23 586.464 1579.91 587 1588.98 582.345 C 1593.79 579.875 1600.22 570.015 1604.48 566.139 C 1629.11 543.734 1653.83 533.181 1686.44 532.453 z"/>
<path transform="translate(0,0)" fill="rgb(254,254,254)" d="M 1684.97 580.358 C 1719.81 576.679 1733.89 596.29 1755.4 612.996 C 1758.88 615.695 1784.59 606.254 1802.2 612.412 C 1815.21 617.026 1825.88 626.589 1831.89 639.024 C 1837.13 650.057 1839.07 664.991 1834.34 675.58 C 1817.28 713.774 1785.65 692.149 1764.4 701.871 C 1757.1 705.211 1746.33 736.737 1725.55 743.278 C 1703.01 750.373 1693.86 746.845 1672.82 738.182 C 1669.1 740.489 1663.23 745.579 1659.46 748.355 C 1640.15 762.593 1627.35 761.07 1605.55 757.971 C 1585.22 769.735 1567.28 808.052 1554.39 829.734 C 1529.45 871.675 1510.97 962.446 1593.82 936.868 C 1630.4 925.577 1657.36 892.209 1673.78 857.29 C 1679.05 887.606 1693.4 928.748 1712.72 952.538 C 1741.4 987.854 1773.13 995.41 1815.57 1000.17 C 1814.52 1011.21 1812.82 1020.54 1807.54 1030.41 C 1798.64 1047.02 1787.93 1051.13 1794.91 1071.75 C 1810.68 1118.18 1775.95 1170.45 1729.41 1180.11 C 1707.45 1184.67 1694.04 1178.5 1692.62 1206.69 C 1692.32 1212.57 1690.76 1221.36 1689.1 1227.02 C 1682.16 1250.17 1666.2 1269.56 1644.82 1280.83 C 1624.58 1291.66 1598.46 1294.22 1576.71 1286.29 C 1568.5 1283.3 1561.04 1278.34 1552.61 1275.85 C 1550.07 1275.1 1546.88 1274.97 1544.26 1275.65 C 1536.08 1283.31 1529.28 1298.07 1522.17 1305.98 C 1513.2 1315.99 1507.07 1320.3 1496.44 1326.78 C 1462.96 1345.66 1418.49 1338.16 1392.45 1310.59 C 1381.76 1299.27 1373.95 1302.35 1363.52 1311.9 C 1347.91 1326.19 1330.85 1334.06 1309.57 1335.52 C 1276.28 1337.89 1244.65 1320.7 1228.51 1291.49 C 1223.45 1282.11 1221.44 1264.12 1212.03 1258.73 C 1195.77 1249.43 1167.48 1268.56 1130.94 1235.94 C 1111.04 1218.18 1099.08 1192.26 1102.39 1165.31 C 1103.43 1156.85 1107.24 1147.58 1106.41 1139.1 C 1105.4 1128.63 1086.26 1121.13 1078.65 1114.81 C 1061.29 1100.31 1050.59 1079.37 1049 1056.81 C 1047.13 1032.32 1055.96 1005.08 1075.5 989.284 C 1081.85 984.161 1091.18 978.824 1096.31 972.846 C 1103.66 964.282 1096.13 952.52 1095.55 941.082 C 1093.96 918.944 1103.24 895.334 1117.28 879.573 C 1143.94 849.656 1173.18 849.36 1209.71 855.024 C 1220.28 856.663 1226.12 832.581 1230.56 823.534 C 1233.8 816.984 1237.9 810.899 1242.75 805.442 C 1263.03 782.924 1298.58 772.899 1327.55 782.248 C 1336.26 785.061 1347.47 793.088 1356.71 792.242 C 1367.06 791.294 1374.03 774.08 1380.16 766.618 C 1389.86 754.811 1402.73 746.786 1417.28 742.337 C 1471.29 725.812 1500.99 765.835 1516.7 762.511 C 1522.15 761.359 1528.35 756.683 1531.57 752.229 C 1541.99 737.811 1531.96 721.953 1530.05 706.747 C 1527.84 689.242 1532.01 671.959 1543.02 658.044 C 1554.04 644.104 1570.17 634.616 1588.21 634.126 C 1595.12 633.939 1602.28 635.35 1609.14 634.372 C 1622.59 632.456 1626.41 616.62 1633.58 607.176 C 1646.52 590.132 1664.37 583.211 1684.97 580.358 z"/>
<path transform="translate(0,0)" fill="rgb(254,254,254)" d="M 1811.27 779.829 C 1826.57 776.765 1841.45 786.663 1844.54 801.951 C 1847.64 817.24 1837.76 832.144 1822.48 835.262 C 1807.16 838.387 1792.21 828.485 1789.11 813.159 C 1786.01 797.833 1795.94 782.902 1811.27 779.829 z"/>
<path transform="translate(0,0)" fill="rgb(0,49,136)" d="M 0 679.731 C 29.5461 654.067 55.7139 644.089 95.5322 646.484 C 133.207 648.751 158.336 664.849 184.163 691.5 C 247.368 672.476 319.851 696.15 361.41 746.972 C 388.785 706.588 422.208 694.662 469.376 694.033 C 485.461 675.503 501.309 661.298 525.159 653.51 C 576.348 636.793 629.821 649.365 664.422 691.613 C 705.177 679.812 751.093 684.808 788.613 704.985 C 818.388 720.997 846.86 749.408 856.645 782.468 C 861.57 799.105 862.728 827.307 857.446 844.097 C 855.059 851.685 850.881 859.518 847.806 866.852 C 877.07 896.227 898.141 918.547 915.952 956.948 C 956.754 1044.92 903.357 1111.09 810.481 1109.63 C 806.694 1109.57 802.91 1109.36 799.139 1109 C 801.986 1174.13 773.084 1218.69 717.983 1250.78 C 710.168 1278.72 710.769 1307.26 709.41 1335.98 C 707.723 1371.65 706.403 1407.65 703.737 1443.23 C 702.832 1455.31 704.021 1469.44 700.385 1480.94 C 697.265 1490.81 689.417 1499 680.591 1504.1 C 671.276 1509.49 660.468 1511.23 650.077 1508.24 C 637.603 1504.65 627.732 1497.19 621.842 1485.51 C 615.15 1472.24 612.742 1384.22 611.146 1363.88 C 592.955 1367.31 585.312 1368.35 566.333 1367.84 C 567.125 1392.28 563.948 1418.16 562.59 1442.59 C 561.492 1462.34 564.034 1481.33 548.931 1497.15 C 528.853 1518.19 488.377 1510.56 478.831 1482.3 C 475.893 1473.6 475.837 1461.65 475.306 1452.41 C 474.357 1437.46 473.632 1422.5 473.131 1407.53 C 472.838 1395.26 473.256 1380.8 471.684 1368.86 C 453.811 1371.24 442.762 1369.61 426.491 1370.51 L 426.269 1372.13 C 423.031 1396.72 423.769 1461.34 416.592 1481.13 C 413.851 1488.7 409.099 1495.38 402.846 1500.45 C 393.651 1507.81 381.378 1510.52 369.821 1508.97 C 358.346 1507.42 348.011 1501.23 341.227 1491.84 C 337.627 1487.01 335.221 1481.39 334.205 1475.45 C 332.856 1467.53 332.989 1458.72 333.006 1450.67 C 333.092 1409.42 330.687 1368.21 330.056 1326.96 C 329.965 1320.98 329.724 1314.8 328.854 1308.89 C 287.477 1302.32 275.722 1298.13 245.397 1268.59 C 243.338 1280 244.848 1294.96 244.07 1307.07 C 240.935 1355.86 240.715 1404.85 237.849 1453.65 C 236.727 1473.3 238.856 1487.16 220.76 1500.78 C 211.239 1508 199.166 1510.97 187.383 1509.01 C 175.675 1507.13 165.307 1500.39 158.847 1490.45 C 156.569 1486.99 153.591 1480.95 153.151 1476.76 C 149.743 1444.21 147.957 1411 146.01 1378.29 C 145.726 1373.51 145.859 1368.98 145.433 1364.36 C 123.952 1368.47 119.669 1367.08 100.02 1368.28 C 99.4057 1387.53 98.7594 1407.04 97.187 1426.13 C 95.8207 1442.72 97.9508 1465.59 92.8949 1481.36 C 83.0102 1512.2 40.3683 1519.67 20.2376 1495.18 C 16.0962 1490.13 13.1655 1484.19 11.6695 1477.83 C 9.32099 1467.85 9.73584 1452.24 9.02063 1441.61 C 7.84255 1424.09 7.02328 1406.51 6.10604 1388.96 C 5.84337 1383.93 6.55675 1374.89 4.8863 1370.81 C 4.23921 1369.22 1.48384 1368.5 0 1368.09 L 0 1320.69 L 0 746.161 L 0 679.731 z"/>
<path transform="translate(0,0)" fill="rgb(254,254,254)" d="M 0 746.161 L 1.19055 746.688 C 4.51542 748.13 8.15104 749.913 11.8351 748.542 C 23.9885 744.018 23.1254 700.234 75.6213 694.187 C 87.0607 692.869 98.892 693.341 109.941 696.772 C 123.177 700.882 135.021 709.212 143.905 719.799 C 150.052 727.126 156.826 745.725 166.324 747.695 C 173.157 749.113 202.518 735.584 214.156 733.614 C 227.019 731.437 241.487 733.34 254.148 736.05 C 285.062 742.668 316.609 756.949 331.967 786.301 C 339.012 799.766 341.671 815.779 336.682 830.407 C 333.312 840.288 326.684 848.891 317.068 853.324 C 304.904 858.933 289.434 858.026 277.194 853.179 C 269.902 850.292 257.858 840.122 250.48 843.187 C 240.548 847.313 233.219 856.093 222.501 859.039 C 207.849 863.068 192.689 858.193 177.857 860.857 C 138.373 867.949 89.7212 916.353 76.6854 953.368 C 72.8659 964.214 71.2983 976.423 76.6241 987.061 C 80.5459 994.895 87.482 1000.33 95.8438 1002.76 C 116.029 1008.62 140.678 1000.04 158.132 990.022 C 170.507 982.918 180.658 973.963 190.801 964.054 C 197.155 1030.63 214.586 1079.25 282.946 1102.61 C 286.631 1144.75 273.019 1181.52 235.336 1204.57 C 226.886 1209.73 214.199 1210.13 207.149 1217.4 C 201.873 1224.57 202.606 1241.09 200.234 1251.11 C 191.08 1289.25 158.371 1317.13 119.263 1320.13 C 106.539 1321.2 93.7396 1319.33 81.8501 1314.67 C 68.9699 1309.61 58.677 1298.35 46.3425 1295.2 C 42.9517 1294.34 28.4251 1306.81 24.72 1309.45 C 16.8485 1315.06 9.05824 1317.96 0 1320.69 L 0 746.161 z"/>
<path transform="translate(0,0)" fill="rgb(254,254,254)" d="M 557.025 694.279 C 587.566 691.907 611.34 699.487 629.646 726.21 C 633.262 731.489 639.131 744.784 644.666 747.124 C 652.354 750.374 670.79 740.377 680.132 737.272 C 710.679 728.209 736.685 734.691 765.943 747.318 C 806.482 764.814 840.868 835.391 783.308 855.797 C 762.346 863.229 746.237 850.998 728.252 840.655 C 718.623 845.791 710.72 854.288 699.444 857.879 C 687.75 861.604 677.287 861.062 665.242 860.377 C 632.252 859.811 615.992 875.707 590.862 895.559 C 562.099 918.279 511.567 997.623 581.094 1004.28 C 609.166 1006.97 642.99 984.14 663.932 963.912 C 667.741 1029.02 687.128 1077.87 751.906 1101.81 C 753.494 1147.15 740.09 1184.79 697.306 1207.44 C 693.578 1209.38 674.046 1214.69 673.434 1219.75 C 670.123 1247.1 669.791 1258.24 654.591 1282.49 C 649.945 1288.72 644.555 1294.15 638.56 1299.09 C 611.488 1321.37 570.273 1327.9 539.004 1310.17 C 532.628 1306.56 522.436 1295.53 515.288 1295.26 C 504.633 1294.86 483.898 1327.37 434.777 1322.44 C 409.609 1319.92 384.366 1305.61 370.914 1283.86 C 366.809 1277.22 364.107 1268.64 358.973 1262.78 C 351.89 1254.69 333.63 1260.1 323.696 1259.28 C 304.005 1257.65 289.348 1248.46 276.77 1233.64 C 315.752 1198.48 330.609 1162.49 331.04 1109.68 C 336.095 1109.74 341.152 1109.65 346.202 1109.4 C 405.549 1106.74 460.567 1078.04 457.21 1009.76 C 454.491 954.468 412.67 902.883 373.023 866.835 C 384.072 847.363 385.88 833.773 387.046 811.516 C 389.184 770.706 426.552 735.05 468.447 742.988 C 476.704 744.553 484.841 748.032 493.211 748.742 C 500.833 743.926 502.966 730.634 508.82 722.431 C 521.433 704.757 536.557 698.01 557.025 694.279 z"/>
<path transform="translate(0,0)" fill="rgb(254,254,254)" d="M 768.407 921.351 C 781.655 917.573 795.441 925.326 799.094 938.609 C 802.748 951.892 794.866 965.604 781.549 969.133 C 768.408 972.615 754.916 964.859 751.311 951.752 C 747.706 938.644 755.334 925.08 768.407 921.351 z"/>
<path transform="translate(0,0)" fill="rgb(254,254,254)" d="M 295.786 921.405 C 308.759 918.422 321.727 926.394 324.921 939.317 C 328.115 952.24 320.354 965.335 307.485 968.739 C 298.972 970.99 289.907 968.477 283.769 962.163 C 277.631 955.85 275.374 946.718 277.864 938.272 C 280.354 929.826 287.205 923.379 295.786 921.405 z"/>
</svg>