<svg version="1.1" xmlns="http://www.w3.org/2000/svg" style="display: block;" viewBox="0 0 2000 2000" width="500" height="500" preserveAspectRatio="none">
<path transform="translate(0,0)" fill="rgb(3,45,127)" d="M 753.886 422.517 C 1174.38 403.299 1530.5 729.314 1548.4 1149.87 C 1566.31 1570.42 1239.18 1925.52 818.569 1942.1 C 399.82 1958.61 46.6324 1633.25 28.8101 1214.55 C 10.9879 795.856 335.248 441.651 753.886 422.517 z"/>
<path transform="translate(0,0)" fill="rgb(252,252,251)" d="M 790.037 470.973 C 1183.44 471.618 1501.58 791.529 1500.05 1184.93 C 1498.51 1578.33 1177.88 1895.75 784.487 1893.33 C 392.346 1890.91 76.1615 1571.53 77.6915 1179.38 C 79.2215 787.236 397.889 470.33 790.037 470.973 z"/>
<path transform="translate(0,0)" fill="rgb(3,45,127)" d="M 916.75 637.386 C 956.482 630.559 1019.46 649.409 1050.17 676.286 C 1089.64 710.832 1104.83 742.948 1107.17 795.995 C 1179.32 759.081 1257.39 799.197 1288.69 870.611 C 1292.24 878.724 1293.7 887.415 1295.98 895.904 C 1307.22 937.753 1302.6 978.564 1288.42 1019.56 C 1303.49 1025.53 1317.3 1032.74 1329.46 1043.58 C 1347.43 1059.62 1357.25 1089 1358.36 1112.55 C 1359.56 1138.05 1348.8 1173.08 1331.36 1191.9 C 1324.3 1199.52 1315.62 1206.11 1307.33 1212.32 C 1267 1242.51 1236.25 1241.15 1188.61 1243.32 C 1138.9 1245.58 1116.39 1260.72 1083.84 1296.37 C 1103.46 1286.58 1100.24 1280.93 1128.63 1274.02 C 1160.72 1265.12 1196.05 1269.83 1224.25 1289.42 C 1312.29 1350.57 1280.47 1492.7 1177.24 1513.85 C 1110.27 1527.56 1052.05 1485.71 1037.59 1421.92 C 1026.07 1433.8 1014.16 1438.71 998.744 1443.12 C 1020.1 1464.02 1036.08 1492.68 1038.01 1524.13 C 1045.32 1643.07 903.389 1704.61 819.131 1621.41 C 799.595 1602.12 788.39 1562.22 786.824 1534.28 C 775.026 1548.89 761.19 1567.37 747.807 1579.92 C 740.221 1586.8 730.029 1592.08 721.975 1598.04 C 655.263 1647.43 559.159 1642.06 493.868 1593.02 C 481.851 1583.99 473.901 1581.64 463.213 1569.2 C 451.318 1555.53 439.292 1543.29 427.177 1530.03 C 417.705 1519.66 409.689 1506.42 398.508 1497.21 C 367.702 1471.85 331.143 1447.97 301.977 1421.67 C 257.602 1381.66 227.865 1321.48 226.673 1261.42 C 225.54 1204.32 241.475 1148.18 263.586 1095.89 C 268.609 1084.05 272.004 1070.52 278.026 1059.17 C 293.729 1029.57 310.897 1000.26 328.775 971.934 C 335.963 960.207 347.549 950.261 355.588 939.558 C 369.112 921.548 381.624 908.059 399.679 894.494 C 409.845 886.855 418.981 876.607 430.109 869.372 C 470.98 842.801 520.021 823.183 569.257 822.793 C 606.218 821.39 636.029 831.503 668.46 847.012 C 698.382 861.322 712.412 876.283 735.75 899.262 C 748.801 912.113 753.765 920.878 763.692 936.156 C 778.361 958.735 790.861 981.377 800.96 1006.4 C 805.591 1017.87 808.322 1031.9 812.244 1043.95 C 833.735 1109.98 851.306 1182.58 852.259 1252.21 L 853.341 1251.04 C 913.357 1187.25 985.059 1186.05 1048.29 1245.22 C 1035.42 1217.12 1028.66 1208.61 1006.61 1188.39 C 971.378 1156.08 930.589 1142.17 894.853 1110.51 C 870.615 1089.04 863.102 1087.16 847.356 1057.96 C 821.65 1010.29 820.678 980.264 843.459 932.658 C 801.558 904.59 768.497 866.52 762.544 814.58 C 758.033 775.02 769.494 735.294 794.385 704.216 C 801.114 695.814 810.392 684.128 818.368 677.174 C 842.735 655.93 885.087 640.912 916.75 637.386 z"/>
<path transform="translate(0,0)" fill="rgb(239,90,16)" d="M 557.582 871.362 C 644.506 863.772 707.335 922.902 743.638 995.265 C 753.651 1015.22 759.31 1033.69 766.401 1054.56 C 812.713 1190.87 828.703 1346.41 762.88 1479.37 C 719.493 1567.01 634.968 1612.02 541.744 1566.16 C 492.821 1540.25 471.274 1502.67 433.749 1465.2 C 402.093 1433.59 357.244 1410 325.644 1378.58 C 215.683 1269.25 307.947 1085.44 381.752 982.385 C 421.628 926.703 488.521 879.454 557.582 871.362 z"/>
<path transform="translate(0,0)" fill="rgb(3,45,127)" d="M 435.269 1072.15 C 451.538 1071.44 455.631 1080.09 466.87 1089.47 C 485.399 1104.92 501.249 1122.66 518.525 1139.16 L 669.023 1283.44 C 684.181 1297.98 732.357 1328.61 713.374 1352.71 C 709.529 1357.6 705.628 1361.15 699.531 1362.68 C 694.965 1362.55 688.529 1362.11 684.885 1359.29 C 664.439 1343.45 645.508 1323.56 626.807 1305.78 L 519.449 1203.38 L 455.778 1142.13 C 446.539 1133.27 422.148 1112.64 416.756 1101.81 C 411.145 1090.54 422.785 1076.61 435.269 1072.15 z"/>
<path transform="translate(0,0)" fill="rgb(3,45,127)" d="M 363.457 1217.16 C 375.543 1217.24 382.267 1224.62 390.973 1231.9 C 408.256 1246.36 423.355 1263.22 439.691 1278.63 C 486.048 1321.86 531.834 1365.69 577.038 1410.12 C 597.961 1430.29 622.984 1451.97 641.192 1474.72 C 643.277 1477.33 642.659 1485.39 641.375 1488.62 C 638.05 1496.99 631.742 1501.37 623.791 1504.99 C 621.427 1505.28 615.632 1505.65 613.622 1504.45 C 602.733 1497.05 589.183 1487.19 579.727 1477.87 C 561.472 1459.89 544.109 1441.53 524.426 1424.96 C 515.907 1417.78 507.447 1405.79 498.913 1399.05 C 481.354 1385.18 467.452 1369.67 451.816 1354.16 L 403.241 1306.75 C 390.161 1293.92 374.883 1282.44 362.722 1268.56 C 353.803 1258.37 337.654 1245.91 345.698 1230.91 C 350.013 1222.87 355.107 1220.01 363.457 1217.16 z"/>
<path transform="translate(0,0)" fill="rgb(3,45,127)" d="M 540.041 965.143 C 543.578 964.88 547.345 964.685 550.8 965.676 C 560.387 968.427 660.763 1066.17 675.1 1079.58 C 686.122 1089.9 698.048 1099.32 708.606 1110.12 C 713.588 1115.21 719.133 1120.78 722.4 1127.18 C 724.831 1131.94 726.097 1137.39 724.199 1142.56 C 721.182 1150.78 712.841 1155.39 705.391 1158.97 C 686.081 1160.37 657.963 1124.55 644.565 1112.47 C 632.984 1102.19 621.223 1092.92 610.43 1081.71 C 587.26 1057.66 561.269 1036.41 537.857 1012.5 C 529.369 1003.83 516.618 994.843 522.39 981.19 C 526.137 972.328 531.732 968.852 540.041 965.143 z"/>
<path transform="translate(0,0)" fill="rgb(24,77,167)" d="M 916.883 682.378 C 1013.67 674.362 1080.96 739.173 1061.22 833.627 C 1056.4 856.727 1049.98 867.633 1076.49 873.499 C 1085.9 868.487 1097.59 853.73 1106.87 846.135 C 1124.79 831.337 1147.91 824.394 1171.01 826.882 C 1211.63 831.35 1238.15 858.558 1250.59 895.555 C 1263.59 934.227 1264.08 965.78 1246.79 1003.94 C 1241.87 1014.8 1229.96 1034.32 1228.79 1044.48 C 1233.5 1061.41 1265.18 1055.4 1277.45 1061.03 C 1318.94 1080.08 1324.79 1123.85 1299.68 1159.66 C 1263.22 1211.65 1208.03 1191.97 1154.6 1206.81 C 1128.35 1214.13 1109.21 1224.65 1088.79 1242.07 C 1092.45 1228.57 1095.29 1213.3 1099.61 1200.02 C 1110.83 1165.51 1131.03 1131.53 1151.68 1101.89 C 1157.86 1093.01 1170.45 1082.19 1177.98 1072.1 L 1178.82 1070.96 C 1180.12 1049.71 1172.71 1046.41 1152.84 1048.32 C 1134.21 1060.43 1111.83 1091 1099.77 1110.37 C 1098.08 1113.08 1094.58 1124.68 1093.43 1128.4 C 1096.26 1074.96 1109.95 1035.16 1136.84 989.134 C 1142.14 980.068 1146.77 970.175 1152.06 961.197 C 1155.11 956.026 1161.16 950.046 1163.69 944.26 C 1164.84 941.621 1165.24 938.718 1164.86 935.866 C 1163.85 928.302 1157.12 922.33 1151.31 918.163 C 1115.66 923.174 1090.38 997.455 1076.1 1027.56 C 1072.9 1012.68 1068.87 998.829 1064.56 984.251 C 1058 962.08 1051.84 939.189 1043.96 917.481 C 1033.96 889.913 976.889 769.63 955.001 760.15 C 951.298 758.546 947.527 757.901 943.754 759.672 C 937.658 762.534 932.711 767.392 930.559 773.837 C 928.979 778.567 929.07 783.041 931.146 787.591 C 934.964 795.961 942.534 802.059 947.221 809.864 C 963.351 836.908 978.23 864.679 991.812 893.088 C 974.352 878.654 951.628 859.964 929.306 853.928 C 923.966 852.484 916.608 851.291 911.607 854.438 C 907.947 856.74 906.333 860.245 905.315 864.304 C 903.981 869.62 902.814 877.403 906.693 881.971 C 915.63 892.494 933.79 897.9 945.705 904.671 C 970.791 918.926 1005.5 949.246 1019.83 974.678 C 1025.09 984.012 1041.39 1029.79 1038.68 1039.72 C 1034.46 1037.79 1011.68 1014.39 1004.32 1009.52 C 993.579 1000.79 979.695 991.997 965.511 991.26 C 954.739 990.7 949.917 999.516 950.824 1009.22 C 951.017 1011.28 951.118 1019.85 952.427 1020.97 C 963.45 1030.41 976.6 1037.23 988.402 1045.73 C 994.431 1050.1 1000.11 1054.92 1005.38 1060.18 C 1014.85 1069.55 1022.28 1078.92 1030.72 1088.29 C 1058.6 1119.21 1054.7 1143.76 1054.96 1183.32 C 1039.92 1159.78 1034.13 1156.92 1012.96 1140.44 C 986.252 1119.22 957.707 1103.87 929.827 1084.12 C 884.715 1052.17 845.311 992.185 889.859 942.461 C 897.423 934.018 898.029 929.39 896.63 919.066 C 886.686 903.103 872.897 904.243 860.757 894.031 C 842.848 878.966 817.656 855.243 811.138 832.575 C 788.578 754.116 842.28 693.036 916.883 682.378 z"/>
<path transform="translate(0,0)" fill="rgb(239,90,16)" d="M 949.216 1248 C 993.946 1246.12 1031.76 1280.79 1033.77 1325.51 C 1035.78 1370.24 1001.23 1408.16 956.51 1410.3 C 911.602 1412.45 873.487 1377.72 871.468 1332.81 C 869.45 1287.89 904.296 1249.88 949.216 1248 z"/>
<path transform="translate(0,0)" fill="rgb(3,45,127)" d="M 974.468 1275.43 C 985.839 1272.6 997.338 1279.56 1000.11 1290.94 C 1002.89 1302.33 995.88 1313.8 984.486 1316.52 C 973.16 1319.23 961.774 1312.28 959.016 1300.96 C 956.258 1289.65 963.166 1278.23 974.468 1275.43 z"/>
<path transform="translate(0,0)" fill="rgb(239,90,16)" d="M 900.915 1455.16 C 944.915 1448.82 985.704 1479.4 991.955 1523.41 C 998.206 1567.43 967.546 1608.16 923.522 1614.32 C 879.618 1620.47 839.026 1589.91 832.792 1546.02 C 826.558 1502.13 857.036 1461.48 900.915 1455.16 z"/>
<path transform="translate(0,0)" fill="rgb(3,45,127)" d="M 937.517 1481.54 C 945.157 1480.14 952.959 1482.96 957.943 1488.92 C 962.926 1494.87 964.321 1503.05 961.596 1510.32 C 958.87 1517.6 952.444 1522.84 944.772 1524.06 C 933.105 1525.91 922.123 1518.03 920.136 1506.38 C 918.149 1494.74 925.897 1483.66 937.517 1481.54 z"/>
<path transform="translate(0,0)" fill="rgb(239,90,16)" d="M 1152.56 1314.03 C 1195.86 1313.15 1231.65 1347.58 1232.46 1390.87 C 1233.26 1434.17 1198.78 1469.9 1155.48 1470.63 C 1112.28 1471.36 1076.66 1436.98 1075.85 1393.79 C 1075.05 1350.59 1109.37 1314.91 1152.56 1314.03 z"/>
<path transform="translate(0,0)" fill="rgb(3,45,127)" d="M 1180.96 1339.99 C 1192.26 1338.91 1202.34 1347.12 1203.56 1358.4 C 1204.79 1369.69 1196.71 1379.87 1185.43 1381.24 C 1178.02 1382.14 1170.69 1378.98 1166.25 1372.96 C 1161.81 1366.95 1160.95 1359.02 1163.99 1352.19 C 1167.04 1345.37 1173.52 1340.71 1180.96 1339.99 z"/>
<path transform="translate(0,0)" fill="rgb(252,252,251)" d="M 842.696 1391.31 C 846.669 1394.36 855.302 1412.45 862.957 1420.71 C 855.87 1424.58 848.751 1429.63 842.018 1434.18 C 838.615 1436.57 833.111 1439.8 829.454 1442.09 C 834.253 1430.01 840.446 1404.25 842.696 1391.31 z"/>
<path transform="translate(0,0)" fill="rgb(239,90,16)" d="M 1666.4 53.5 C 1708.5 50.2438 1771.86 63.9449 1809.33 83.4656 C 1943.14 153.177 2013.84 320.78 1951.78 462.224 C 1926.27 520.352 1893.66 565.704 1840.01 600.369 C 1775.64 642.792 1697 657.766 1621.54 641.968 C 1585.42 632.913 1566.95 624.667 1533.43 609.004 C 1506.24 612.063 1428.32 652.29 1412.58 649.69 C 1409.52 649.185 1406.84 647.509 1405.13 644.911 C 1403.18 641.95 1402.45 637.723 1402.83 634.231 C 1404.15 622.171 1409.6 609.201 1413.21 597.561 C 1421.14 571.98 1429.74 546.352 1435.95 520.286 C 1399.58 480.569 1381.42 415.396 1379.15 362.409 C 1375.65 282.32 1404.33 204.159 1458.81 145.348 C 1513.68 86.1515 1586.33 56.5934 1666.4 53.5 z"/>
<path transform="translate(0,0)" fill="rgb(252,252,251)" d="M 1708.27 160.305 C 1720.58 159.334 1732.76 162.436 1738.65 174.291 C 1756.07 209.327 1738.73 247.651 1729.82 281.119 C 1751.39 281.761 1808 279.452 1825.81 282.843 C 1853.11 304.247 1849.1 328.919 1830.32 354.094 C 1840.71 377.541 1833.27 406.917 1816.78 425.707 C 1823.9 458.102 1811.38 483.68 1775.32 484.093 C 1740.51 484.208 1704.76 484.712 1669.99 484.017 C 1643.53 483.489 1633.95 475.38 1617.41 456.834 C 1616.43 449.912 1615.95 442.598 1616.05 435.571 C 1617.29 397.1 1613.79 355.908 1617.11 317.735 C 1619.25 293.163 1667.29 249.59 1677.98 225.128 C 1687.1 204.288 1684.47 190.472 1691.98 170.348 C 1694.13 164.584 1702.94 161.617 1708.27 160.305 z"/>
<path transform="translate(0,0)" fill="rgb(252,252,251)" d="M 1535.88 299.233 C 1540.82 298.97 1548.43 299.085 1552.62 298.869 C 1592.13 296.833 1595.48 302.136 1594.19 340.686 C 1593.85 351.045 1594.16 369.553 1594.18 381.378 L 1594.27 436.738 C 1594.29 454.123 1599.33 479.468 1578.14 483.889 C 1563.69 484.131 1538.67 486.981 1525.71 480.879 C 1522.59 479.409 1521.41 478.289 1520.25 475.007 C 1518.55 470.199 1517.77 464.792 1517.45 459.71 C 1516.41 443.337 1515.68 314.237 1519.69 307.937 C 1523.53 301.908 1529.24 300.477 1535.88 299.233 z"/>
<path transform="translate(0,0)" fill="rgb(239,90,16)" d="M 1753.7 741.531 C 1753.98 741.574 1754.26 741.595 1754.54 741.66 C 1764.67 744.032 1775.35 793.063 1787.62 807.733 C 1797.7 819.79 1813.19 828.243 1827.5 834.195 C 1835.84 837.668 1854.11 839.95 1859.07 846.972 C 1859.12 848.292 1859.66 850.046 1858.56 850.619 C 1840.47 860.181 1818.7 863.147 1801.6 875.487 C 1784.33 887.96 1774.52 909.227 1768.51 929.034 C 1765.93 937.561 1764.12 946.084 1759.13 953.488 C 1757.89 953.727 1754.76 954.463 1754.13 953.747 C 1745.95 944.475 1743.16 921.176 1736.56 908.8 C 1725.25 884.059 1706.38 869.51 1681.06 860.575 C 1674.79 858.362 1655.94 855.484 1653.06 849.154 C 1654.68 842.315 1669.56 838.525 1676.19 836.423 C 1691.96 831.42 1701.69 824.284 1714.97 815.315 C 1740.85 797.823 1737.77 762.925 1753.7 741.531 z"/>
<path transform="translate(0,0)" fill="rgb(239,90,16)" d="M 1675.85 1011.45 C 1682.73 1015.1 1683.04 1030.56 1686.31 1038.75 C 1692.9 1055.29 1719.17 1063.36 1734.63 1070.19 C 1716.83 1082.05 1693.98 1081.56 1685.5 1104.68 C 1682.26 1113.51 1683.7 1122.15 1677.68 1129.76 C 1670.3 1120.42 1667.61 1104.16 1657.99 1093.09 C 1649.3 1083.08 1625.21 1076.74 1621.59 1071.11 C 1624.38 1064.69 1648.81 1057.85 1658.08 1047.6 C 1669.9 1034.54 1668.32 1021.3 1675.85 1011.45 z"/>
</svg>