<svg version="1.1" xmlns="http://www.w3.org/2000/svg" style="display: block;" viewBox="0 0 1996 1996" width="499" height="499" preserveAspectRatio="none">
<path transform="translate(0,0)" fill="rgb(0,45,155)" d="M 1006.1 354.11 C 1083.88 285.799 1149.97 243.738 1252.52 220.17 C 1388.79 188.756 1531.96 213.395 1649.88 288.553 C 1777.32 367.92 1867.6 495.093 1900.49 641.582 C 1936.28 800.865 1890.44 949.723 1805.31 1084.43 C 1816.66 1089.64 1830.77 1097 1841 1104.14 C 1881.09 1132.1 1899.11 1176.1 1899.1 1224.01 C 1899.1 1242.07 1894.82 1259.84 1901.98 1276.9 C 1908.17 1291.67 1917.1 1300.68 1927.21 1312.58 C 1947.14 1336.02 1961.62 1362.29 1966.96 1392.97 C 1975.77 1443.55 1958.18 1490.31 1923.5 1527.36 C 1910.68 1541.06 1891.79 1556.38 1884.72 1573.62 C 1880.77 1583.26 1878.66 1598.27 1877.8 1608.47 C 1874.75 1644.73 1869.96 1668.86 1848.39 1699.21 C 1818.92 1740.67 1773.52 1764.09 1722.94 1766.22 C 1705.96 1766.94 1683.1 1767.85 1667.53 1774.54 C 1656.66 1779.21 1646.55 1789.93 1637.09 1797.6 C 1605.05 1823.56 1582.95 1834.95 1543.24 1841.69 C 1493.35 1849.64 1446.7 1832.11 1409.36 1799.58 C 1400.68 1792.01 1384.04 1775.93 1373.86 1772.51 C 1351.72 1765.1 1324.49 1768.54 1300.42 1764.62 C 1244.99 1755.58 1222.49 1730.28 1190.91 1689.66 C 1156.69 1715.12 1121.97 1739.9 1086.79 1764 C 1059.96 1782.49 1014.98 1816.49 982.363 1817.11 C 946.103 1817.79 896.341 1783.86 866.162 1764.68 C 741.135 1685.21 627.344 1589.11 518.795 1488.69 C 329.882 1310.63 96.4163 1045.49 88.789 772.007 C 84.898 629.608 138.026 491.551 236.374 388.497 C 326.216 291.897 446.719 229.364 577.427 211.515 C 597.212 208.899 620.923 208.06 640.819 207.478 C 751.4 206.038 858.669 242.344 947.828 306.954 C 968.877 322.207 986.267 338.141 1006.1 354.11 z"/>
<path transform="translate(0,0)" fill="rgb(254,254,254)" d="M 1343.62 266.427 C 1348.98 265.666 1367.95 265.711 1373.8 265.773 C 1449.01 266.563 1531.59 289.401 1596.98 326.277 C 1712.75 391.243 1798.06 499.442 1834.22 627.178 C 1869.05 752.22 1848.84 878.171 1790.46 992.572 C 1782 1009.38 1772.69 1025.75 1762.59 1041.62 C 1756.16 1051.88 1748.02 1063.46 1742.27 1073.75 L 1741.7 1074.8 C 1734.38 1074.84 1715.37 1074.9 1709.24 1072.88 C 1681.71 1063.81 1662.75 1034.47 1637.5 1016.94 C 1572.49 971.825 1497.39 976.607 1436.1 1025.49 C 1418.63 1037.78 1399.52 1062.76 1380.24 1070.9 C 1365.07 1077.3 1333.26 1074.38 1314.94 1077.37 C 1247.88 1088.31 1192.61 1135.89 1181.95 1204.54 C 1178.41 1227.37 1181.89 1251.07 1171.85 1272.63 C 1163.8 1290.12 1149.81 1300.26 1136.89 1313.89 C 1129.51 1321.83 1122.68 1330.26 1116.44 1339.12 C 1074.64 1399.05 1082.8 1468.11 1127.65 1523.45 C 1139.95 1538.63 1160.64 1556.44 1168.04 1573.14 C 1174.9 1588.59 1171.14 1614.13 1174.23 1631.86 C 1164.28 1638.89 1153.76 1647.64 1143.52 1655.12 C 1111.94 1678.44 1079.97 1701.23 1047.62 1723.47 C 1031.75 1734.45 998.112 1757.21 981.028 1764.06 C 968.083 1760.41 956.292 1753.09 944.613 1746.49 C 889.211 1715.2 837.209 1678.08 786.211 1640.15 C 653.334 1539.26 530.05 1426.32 417.928 1302.78 C 287.251 1157.05 139.448 944.029 150.639 739.584 C 157.373 607.113 217.089 482.912 316.349 394.927 C 393.334 326.399 489.438 283.056 591.763 270.714 C 753.6 251.068 899.58 319.664 1005.92 439.385 C 1006.67 438.483 1007.43 437.589 1008.2 436.703 C 1092.76 337.407 1213.55 276.088 1343.62 266.427 z"/>
<path transform="translate(0,0)" fill="rgb(0,45,155)" d="M 1347.67 348.437 C 1426.34 343.848 1504.51 363.7 1571.45 405.272 C 1663.55 461.399 1733.09 559.936 1756.83 664.939 C 1783.8 784.264 1756 896.463 1693.4 999.426 C 1692.37 997.903 1691.25 996.437 1690.06 995.037 C 1662.26 962.881 1603.32 935.057 1561.01 933.968 C 1544.89 933.553 1525.82 932.875 1509.92 935.8 C 1471.33 942.499 1423.45 965.968 1396.51 994.965 C 1363.98 1029.99 1360.63 1035.92 1312.3 1036.75 C 1268.17 1037.51 1217.76 1058.61 1185.33 1088.78 C 1153.17 1118.68 1128.03 1161.65 1125.63 1206.59 C 1124.54 1224.4 1125.61 1243.26 1117.93 1259.5 C 1111.66 1272.77 1098.15 1284.98 1087.66 1295.41 C 1054.26 1328.6 1032.19 1370.34 1030.32 1418.19 C 1029.12 1459.17 1041.94 1499.32 1066.67 1532.02 C 1079.68 1549.16 1100.49 1570.17 1115.68 1586.46 C 1073.06 1615.58 1025.33 1656.08 980.51 1680.68 C 969.886 1675.77 948.133 1661.16 937.216 1653.99 C 876.139 1613.87 817.904 1568.17 761.45 1521.81 C 578.174 1368.73 318.894 1115.07 253.822 881.948 C 222.024 768.029 233.161 659.634 291.632 556.353 C 345.201 462.831 433.215 393.962 536.875 364.457 C 688.063 322.969 824.794 366.847 933.416 476.821 C 942.268 485.801 950.655 495.227 958.546 505.062 C 973.169 523.521 984.35 543.323 1004.68 555.001 C 1024.41 546.022 1046.23 510.151 1062.67 491.765 C 1136.63 409.031 1235.68 354.339 1347.67 348.437 z"/>
<path transform="translate(0,0)" fill="rgb(239,89,2)" d="M 645.348 450.404 C 652.99 450.854 657.826 451.532 664.941 455.182 C 673.741 459.648 680.302 467.555 683.068 477.027 C 688.125 493.736 679.904 514.877 663.879 521.922 C 654.293 526.136 637.961 527.025 627.114 528.732 C 551.368 540.618 485.283 587.836 445.207 652.566 C 427.666 680.898 414.268 711.238 407.499 743.932 C 402.149 769.772 404.822 794.937 372.287 802.956 C 367.747 803.258 363.383 803.681 358.982 802.308 C 322.468 790.922 329.946 759.007 335.772 731.21 C 348.818 670.066 377.065 613.196 417.904 565.856 C 475.505 498.857 557.265 457.355 645.348 450.404 z"/>
<path transform="translate(0,0)" fill="rgb(239,89,2)" d="M 1530.2 1041.35 C 1614.43 1034.43 1620.19 1095.73 1685.42 1120.42 C 1722.71 1134.53 1767.66 1116.8 1807.06 1146.14 C 1869.3 1192.48 1830.43 1246.6 1852.7 1299.61 C 1866.06 1331.4 1907.72 1357.67 1913.44 1402.14 C 1919.35 1438.3 1904.88 1472.22 1879.49 1498.02 C 1856.53 1521.35 1830.31 1545.69 1826.86 1580.87 C 1822.21 1628.37 1820.65 1668.19 1776.16 1696.38 C 1732.71 1723.92 1689.22 1705.84 1644.59 1727.29 C 1597.12 1752.31 1590.16 1782.02 1531.08 1790.91 C 1453.8 1794.74 1448.6 1745.29 1389.19 1722.44 C 1348.29 1706.71 1306.34 1725.44 1264.72 1693.63 C 1206.78 1649.33 1238.9 1596.39 1215.66 1547.59 C 1197.83 1510.17 1152.13 1488.3 1145.34 1436.72 C 1143.71 1423.74 1144.75 1410.57 1148.41 1398.02 C 1163.09 1345.73 1206.86 1332.56 1224.99 1287.39 C 1241.74 1245.67 1223.33 1205.75 1255.22 1167.14 C 1265.34 1154.9 1271.27 1150.46 1284.76 1142.3 C 1328.6 1115.81 1363.17 1138.26 1408.44 1115.26 C 1457.73 1090.23 1470.27 1048.51 1530.2 1041.35 z"/>
<path transform="translate(0,0)" fill="rgb(254,254,254)" d="M 1689.88 1255.33 C 1725.94 1253.59 1750.04 1282.87 1735.8 1318.5 C 1733.89 1323.29 1725.24 1333.02 1721.66 1336.83 L 1567.74 1498.18 L 1525.88 1542.07 C 1504.77 1564.33 1477.43 1594.6 1445.35 1572.11 C 1421.07 1555.09 1391.28 1524.03 1369.68 1503.48 C 1359.81 1494.37 1349.8 1484.39 1339.79 1475.57 C 1319.01 1457.27 1312.92 1428.2 1334.93 1407.15 C 1343.62 1398.72 1355.35 1394.16 1367.45 1394.52 C 1393.11 1395.09 1410.05 1418.03 1427.7 1434.12 C 1441.26 1446.49 1455.85 1460.15 1468.58 1473.33 C 1476.9 1462.91 1490.88 1449.15 1500.29 1439.19 L 1566.49 1369.57 C 1587.65 1346.78 1608.93 1324.11 1630.34 1301.56 C 1641.9 1289.27 1654.19 1275.42 1666.9 1264.45 C 1674.05 1258.27 1680.91 1256.6 1689.88 1255.33 z"/>
</svg>