<svg version="1.1" xmlns="http://www.w3.org/2000/svg" style="display: block;" viewBox="0 0 2000 2000" width="500" height="500" preserveAspectRatio="none">
<path transform="translate(0,0)" fill="rgb(0,35,142)" d="M 1325.13 691.35 C 1359.75 686.852 1390.99 703.378 1415.05 726.772 C 1456.05 729.896 1481.16 735.74 1506.28 773.391 C 1510.75 779.536 1513.9 793.923 1518.41 799.318 C 1532.67 816.349 1543.36 823.062 1550.85 844.693 C 1559.5 869.647 1553.64 885.968 1552.06 910.315 C 1560.76 915.308 1575.59 904.303 1583.65 900.113 C 1603.53 889.905 1625.74 885.089 1648.06 886.144 C 1686.97 887.936 1717.9 908.946 1743.49 936.819 C 1812 923.953 1873.51 962.633 1887.33 1031.7 C 1899.1 1036.57 1908.96 1040.65 1919.38 1048.23 C 1943.3 1065.42 1959.18 1091.63 1963.34 1120.79 C 1967.12 1145.62 1962.34 1173.4 1950.14 1195.45 C 1946.18 1202.6 1935.97 1215.69 1930.79 1222.67 C 1931.75 1226.39 1932.66 1230.12 1933.5 1233.87 C 1943.5 1279.08 1933.66 1323.15 1895.55 1352.6 C 1882.75 1362.49 1864.47 1367.52 1858.5 1383.27 C 1851.53 1402.11 1852.29 1422.5 1851.52 1442.24 C 1849.52 1493.87 1850.69 1545.94 1845.37 1597.34 C 1844.63 1604.42 1840.04 1614.91 1836.18 1620.84 C 1827.22 1634.68 1813.04 1644.31 1796.88 1647.55 C 1780.45 1650.74 1763.11 1647.97 1749.32 1638.4 C 1721.26 1619.18 1725.29 1588.97 1721.63 1560.76 C 1717.65 1530.13 1722.15 1486.88 1717.07 1458.18 L 1715.91 1457.52 C 1709.05 1466.28 1713.03 1581.22 1705.84 1603.61 C 1697.19 1630.52 1677.75 1649.12 1649.15 1648.73 C 1595.28 1648.01 1585.55 1614.03 1584.04 1568.5 L 1581.66 1495.24 C 1567.4 1491.21 1547.26 1482.56 1534.2 1475.41 C 1527.91 1478.73 1522.4 1481.55 1516.45 1485.46 C 1513.7 1500.38 1515.1 1517.87 1513.87 1532.95 C 1511.16 1564.31 1519.52 1602.37 1497 1627.89 C 1466.89 1662.02 1406.27 1652.91 1393.2 1607.36 C 1387.18 1592.9 1390.03 1572.07 1387.51 1558.54 C 1384.61 1542.95 1388.24 1480.26 1379.5 1472.03 L 1377.93 1472.23 C 1376.05 1476.87 1377.32 1490.28 1376.7 1495.84 C 1371.3 1543.66 1392.89 1622.99 1336.21 1644.42 C 1319.59 1650.67 1301.17 1649.99 1285.05 1642.54 C 1245.09 1624.19 1251.72 1579.5 1249.33 1542.96 C 1248.89 1536.31 1248.94 1529.38 1248.75 1522.69 L 1246.63 1456.32 C 1246.3 1446.46 1246 1430.01 1244.67 1420.7 C 1243.47 1412.33 1230.52 1393.54 1226.5 1384.91 C 1222.11 1375.49 1219.05 1367.3 1215.36 1357.55 C 1211.65 1354.41 1205.74 1350.26 1201.62 1347.61 C 1158.43 1319.94 1143.99 1272.96 1157.01 1224.45 C 1145.77 1213.43 1135.73 1203.95 1126.85 1190.8 C 1092.05 1139.28 1090.06 1088.09 1100.81 1029.51 C 1067.5 1031.97 1036.06 1029.72 1007.82 1009.63 C 978.374 988.669 1000.47 953.309 1016.89 932.085 C 1039.69 902.613 1076.53 884.938 1113.21 880.394 C 1109.84 853.028 1114.62 820.85 1135.63 801.641 C 1150.86 791.054 1153 784.167 1160.86 768.574 C 1181.57 727.48 1222.7 713.454 1263.92 719.296 C 1283.65 704.201 1299.8 694.487 1325.13 691.35 z"/>
<path transform="translate(0,0)" fill="rgb(254,254,254)" d="M 1634.66 925.406 C 1665.55 922.292 1694.57 937.724 1711.91 962.861 C 1716.43 969.41 1719.96 976.118 1724.66 982.608 C 1740.61 979.175 1750.9 973.126 1768.28 973.011 C 1790.54 972.865 1810.51 979.516 1826.46 995.458 C 1846.41 1015.42 1851.96 1035.99 1852.23 1063.26 C 1854.52 1063.58 1856.8 1064 1859.06 1064.51 C 1940.34 1082.83 1949.29 1170.07 1882.23 1211.49 C 1884.65 1216.13 1887.06 1221.14 1889.68 1225.61 C 1904.87 1252.05 1904.22 1287.48 1883.84 1311.1 C 1867.23 1330.35 1851.7 1335.91 1828.32 1342.65 C 1826.09 1358.21 1824.15 1369.24 1816.02 1383.1 C 1805.1 1401.72 1787.15 1414.11 1766.36 1419.22 C 1738.22 1426.13 1717.01 1419.24 1692.95 1404.54 C 1663.62 1455.69 1608.23 1477.11 1555.36 1441.99 C 1548.45 1437.4 1538.96 1428.98 1534 1422.37 C 1509.73 1445.89 1496.02 1456.61 1462.02 1458.89 C 1450.7 1458.43 1443.66 1457.98 1432.67 1455.12 C 1413.15 1450.04 1386.66 1430.63 1376.92 1413.15 C 1312.44 1433.21 1252.26 1398.62 1250.1 1328.58 C 1208.5 1314.23 1185.74 1292.28 1190.04 1245.83 C 1301.12 1293.61 1412.08 1257.01 1463.53 1145.34 C 1476.09 1118.07 1486.31 1081.58 1488.14 1051.26 C 1512.18 1068.52 1540.77 1079.4 1570.68 1079.66 C 1601.38 1079.91 1636.79 1071.21 1635.47 1032.8 C 1634.18 995.461 1614 966.622 1588.31 941.019 C 1604.99 930.682 1615.05 927.514 1634.66 925.406 z"/>
<path transform="translate(0,0)" fill="rgb(254,254,254)" d="M 1230.19 940.381 C 1231.42 940.822 1230.91 940.483 1231.83 941.464 C 1251.64 962.602 1280.53 974.502 1309.33 974.978 C 1331.67 975.347 1349.09 968.549 1368.41 958.61 C 1390.62 972.158 1413.01 981.21 1439.73 977.915 C 1447.26 994.163 1453.69 1003.7 1453.34 1022.45 C 1451.59 1116.21 1399.93 1218.43 1297.03 1228.45 C 1286.88 1229.43 1276.28 1228.97 1265.92 1228.68 C 1266.04 1214.71 1266.4 1200.74 1267 1186.78 C 1275.61 1181.72 1281.3 1177.78 1289.31 1172 C 1296.55 1166.51 1303.91 1160.86 1305.33 1151.32 C 1306.79 1142.03 1301.16 1133.22 1291.48 1132.44 C 1277.13 1131.28 1264.48 1143.98 1253.71 1152.27 C 1246.78 1145.46 1229.57 1123.83 1218.05 1123.67 C 1203.9 1123.48 1195.3 1141.94 1205.16 1153.51 C 1212.49 1162.1 1222.72 1171.31 1231.07 1180.43 L 1229.98 1220.42 C 1218.25 1216.17 1208.44 1212.25 1197.62 1205.92 C 1118.13 1159.4 1122.1 1056.41 1156.23 982.206 C 1162.66 968.218 1171.32 955.946 1179.18 942.836 C 1198.22 947.11 1211.7 945.422 1230.19 940.381 z"/>
<path transform="translate(0,0)" fill="rgb(0,35,142)" d="M 1353.99 1029.18 C 1365.8 1028.85 1376.58 1033.26 1381.43 1044.73 C 1384.76 1052.81 1384.73 1061.88 1381.34 1069.93 C 1376.6 1080.88 1369.77 1084.46 1359.56 1088.3 C 1344.71 1089.02 1332.45 1081.42 1328.86 1066.5 C 1326.94 1058.18 1328.54 1049.43 1333.28 1042.33 C 1338.51 1034.48 1345.05 1031.03 1353.99 1029.18 z"/>
<path transform="translate(0,0)" fill="rgb(0,35,142)" d="M 1197.47 1006.11 C 1234.88 1004.52 1241.87 1051.36 1206.82 1064.81 C 1191.61 1066.42 1180.56 1061.39 1175.49 1046.11 C 1172.83 1038.09 1173.5 1029.34 1177.35 1021.81 C 1182.18 1012.48 1188.12 1009.08 1197.47 1006.11 z"/>
<path transform="translate(0,0)" fill="rgb(254,254,254)" d="M 1326.81 731.338 C 1357.05 728.287 1384.25 743.777 1397.31 771.292 C 1406.05 767.783 1412.96 765.905 1422.43 765.762 C 1437.7 765.433 1452.47 771.255 1463.41 781.92 C 1476.49 794.645 1480.92 808.575 1481.14 826.375 C 1513.17 837.27 1529.43 871.575 1510.15 902.34 C 1502.87 913.96 1487.21 918.565 1474.03 920.443 C 1460.14 932.988 1447.87 941.135 1428.16 940.189 C 1404.3 939.044 1384.37 926.246 1368.62 909.108 C 1360.33 917.202 1354.4 921.903 1344.47 927.866 C 1323.44 939.889 1298.43 938.425 1277.19 927.948 C 1261.64 920.271 1252.24 909.636 1241.91 896.166 C 1214.01 911.715 1170.86 916.647 1153.73 883.103 C 1147.96 871.743 1146.97 858.548 1150.98 846.454 C 1157.55 826.469 1170.74 820.527 1187.52 811.619 C 1189.88 763.734 1234.5 742.976 1274.91 767.114 L 1276.35 765.118 C 1290.51 745.569 1302.31 735.216 1326.81 731.338 z"/>
<path transform="translate(0,0)" fill="rgb(254,254,254)" d="M 1815.05 1438.04 L 1816.2 1439.5 C 1815.6 1489.43 1811.62 1541.06 1809.93 1591.04 C 1809.8 1594.92 1806.91 1600.32 1804.47 1603.33 C 1800 1608.81 1793.47 1612.2 1786.41 1612.68 C 1777.07 1613.4 1770.85 1609.9 1764.05 1604.08 C 1755.49 1593.07 1756.88 1562.17 1756.3 1547.59 L 1752.97 1460.36 C 1780.55 1456.74 1792.19 1453.34 1815.05 1438.04 z"/>
<path transform="translate(0,0)" fill="rgb(254,254,254)" d="M 1281.36 1443.24 C 1304.22 1453.2 1317.05 1457.43 1341.9 1457.46 C 1339.46 1488.29 1342.21 1521.36 1340.92 1552.37 C 1340.27 1567.94 1343.72 1590.04 1334.02 1602.63 C 1328.04 1607.93 1323.81 1611.45 1315.47 1612.44 C 1308.67 1613.29 1301.81 1611.3 1296.52 1606.93 C 1292.81 1603.82 1288.21 1596.84 1287.77 1592.12 C 1283.33 1543.64 1284.81 1491.42 1281.36 1443.24 z"/>
<path transform="translate(0,0)" fill="rgb(254,254,254)" d="M 1495.34 945.317 C 1518.36 943.313 1541.79 954.104 1559.47 968.136 C 1581.06 985.013 1594.91 1009.9 1597.88 1037.14 C 1589.81 1039.66 1584.04 1041.34 1575.67 1042.35 C 1519.1 1042.02 1483.29 1003.87 1471.29 951.096 C 1479.46 948.742 1486.86 946.373 1495.34 945.317 z"/>
<path transform="translate(0,0)" fill="rgb(254,254,254)" d="M 1676.19 1478.94 L 1677.73 1479.58 C 1678.36 1484.54 1677.54 1489.08 1677.26 1494.04 C 1675.44 1525.43 1675.73 1557.05 1673.28 1588.38 C 1672.32 1600.63 1662.99 1610.25 1650.94 1612.13 C 1640.91 1613.69 1635.93 1611.2 1628.09 1605.4 C 1617.72 1594.86 1619.63 1570.99 1619.08 1556.45 L 1616.98 1497.3 C 1637.72 1496.1 1657.91 1488.29 1676.19 1478.94 z"/>
<path transform="translate(0,0)" fill="rgb(254,254,254)" d="M 1419.21 1491.64 C 1442.24 1497.3 1454.98 1498.21 1478.99 1496.98 C 1478.92 1524.59 1477.38 1552.45 1477.04 1580.08 C 1476.92 1589.95 1475.93 1596.07 1469.64 1603.95 C 1458.55 1613.5 1444.75 1616.64 1432.74 1606.4 C 1417.89 1593.74 1423.61 1559.36 1421.72 1541 C 1420.08 1525 1420.96 1508.66 1419.34 1492.88 L 1419.21 1491.64 z"/>
<path transform="translate(0,0)" fill="rgb(254,254,254)" d="M 1123.37 917.399 C 1133.86 916.333 1136.98 921.204 1144.52 927.848 C 1133.78 943.026 1122.04 967.369 1116.17 985.22 C 1091.09 992.616 1084.35 994.007 1058.02 990.766 C 1046.66 988.27 1041.53 985.48 1031.98 979.172 C 1050.46 940.976 1082.22 922.438 1123.37 917.399 z"/>
<path transform="translate(0,0)" fill="rgb(0,35,142)" d="M 91.9602 1096.47 C 111.443 1096.09 131.574 1096.36 151.137 1096.25 C 166.436 1096.99 183.035 1094.65 198.088 1098.02 C 222.84 1103.55 230.002 1121.41 231.472 1143.86 C 343.311 1104.53 417.937 1069.77 525.974 1139.83 C 539.716 1148.74 557.74 1160.44 573.137 1165.91 C 651.528 1193.72 779.918 1169.76 787.445 1283.56 C 788.448 1282.94 789.457 1282.33 790.473 1281.73 C 824.798 1261.48 866.61 1246.61 902.46 1228.78 C 918.277 1220.92 937.194 1212.22 954.394 1208.54 C 968.862 1205.31 983.9 1205.67 998.198 1209.58 C 1015.52 1214.21 1026.73 1222.58 1038.83 1235.77 C 1069.44 1269.15 1063.13 1321.43 1031.92 1352.03 C 1018.38 1365.3 999.486 1374.04 983.252 1383.88 C 965.913 1394.4 947.982 1404.32 930.126 1414.1 C 886.163 1441.41 838.84 1465.62 794.242 1492.32 C 762.651 1511.23 729.594 1532.24 694.639 1544.47 C 670.118 1553.05 636.323 1555.11 610.265 1552.1 C 535.979 1536.73 460.338 1508.46 387.499 1487.2 C 329.773 1470.35 288.268 1454.99 228.031 1456.01 C 228.139 1488.68 219.756 1513.43 181.443 1514.28 C 146.616 1515.05 110.341 1516.08 75.7621 1513.1 C 55.3305 1511.34 41.8715 1491.2 42.1511 1472.04 C 41.6324 1446.57 41.9115 1420.66 42.0123 1394.94 L 42.2247 1260.51 L 42.2659 1176.63 C 42.3021 1134.18 36.5259 1099.41 91.9602 1096.47 z"/>
<path transform="translate(0,0)" fill="rgb(254,254,254)" d="M 389.846 1140.43 C 397.765 1139.92 405.713 1140.05 413.61 1140.83 C 453.829 1144.63 485.408 1163.2 518.82 1184.2 C 529.742 1191.07 540.584 1198.7 552.72 1203.27 C 572.247 1210.63 595.503 1212.65 616.083 1216.4 C 635.681 1219.96 655.114 1224.35 674.638 1228.3 C 688.433 1231.09 703.308 1233.3 716.252 1238.92 C 724.475 1242.49 731.971 1247.8 737.598 1254.82 C 745.183 1264.29 747.599 1275.73 745.955 1287.61 C 744.486 1298.22 739.158 1307.66 730.507 1314.05 C 721.465 1320.73 709.578 1324.14 698.387 1324.4 C 679.529 1324.83 658.958 1319.17 640.376 1315.76 C 597.352 1307.86 553.803 1298.13 510.488 1292.28 C 502.588 1291.22 493.083 1290.77 486.535 1296.13 C 482.581 1299.37 480.684 1304.73 480.44 1309.73 C 480.199 1314.69 481.761 1320.69 485.429 1324.23 C 494.671 1333.15 553.834 1340.86 568.538 1343.45 L 638.296 1355.93 C 660.193 1359.84 683.627 1365.44 705.757 1364.08 C 734.01 1363.13 751.742 1343.87 775.877 1332.18 C 831.48 1305.25 888.009 1278.65 944.695 1254.04 C 969.021 1243.48 990.408 1244.4 1010.04 1263.64 C 1023.42 1282.55 1023.16 1305.83 1005.17 1321.91 C 983.09 1341.06 955.349 1353.46 930.258 1368.33 C 872.586 1402.53 812.417 1435.81 754.577 1469.4 C 708.897 1495.92 665.783 1521.36 611.009 1511.02 C 588.62 1506.8 565.159 1497.65 542.97 1491.24 C 499.188 1478.55 455.481 1465.61 411.852 1452.41 C 370.277 1439.81 329 1424.59 285.811 1417.74 C 266.927 1414.75 247.044 1414.42 227.953 1414.08 L 228.013 1186.94 C 239.663 1184.1 257.42 1177.16 269.197 1173.04 C 309.117 1159.08 347.332 1144.06 389.846 1140.43 z"/>
<path transform="translate(0,0)" fill="rgb(242,82,1)" d="M 1153.2 292.412 C 1160.97 291.685 1170.45 291.658 1177.97 292.717 C 1201.33 296.013 1198.19 311.276 1198.13 329.373 C 1197.93 388.352 1172.65 460.058 1123.08 495.472 C 1143.41 505.879 1195.17 528.354 1202.66 551.769 C 1208.57 570.241 1178.87 596.246 1166.25 608.022 C 1143.57 629.188 1111.47 647.204 1080.55 653.511 C 1107.61 677.696 1099.3 687.915 1078.41 713.785 C 1054.39 743.535 1023.69 763.104 988.873 777.939 C 1020.26 799.255 1018.69 805.901 996.18 835.369 C 971.604 867.549 945.118 887.063 909.955 906.091 C 948.704 924.664 942.918 937.385 921.329 968.901 C 868.811 1045.57 781.519 1082.18 691.693 1052.18 C 684.795 1079.4 674.033 1105.87 666.381 1132.54 C 659.02 1158.18 635.095 1177.15 618.071 1147.79 C 616.88 1143.99 616.568 1139.97 617.157 1136.03 C 619.095 1123.23 629.538 1095.69 634.06 1083.14 C 639.538 1067.95 645.25 1050.72 651.089 1035.89 C 646.09 1033.74 642.5 1031.21 637.888 1028.51 C 596.17 1004.08 569.577 967.067 558.438 919.968 C 548.648 878.767 559.686 836.427 576.007 798.396 C 590.601 764.389 600.081 740.644 638.048 767.478 C 636.271 718.873 642.88 683.189 667.472 640.344 C 684.315 610.999 697.254 585.321 730.323 617.46 C 730.214 615.961 730.141 614.459 730.106 612.956 C 728.742 564.126 746.486 519.579 773.519 479.784 C 796.455 446.021 809.402 440.795 839.596 470.561 C 838.497 421.956 864.959 369.51 896.347 333.799 C 903.57 325.581 920.246 303.463 933.081 309.973 C 956.126 321.663 983.821 363.674 994.339 386.479 C 998.348 377.892 1008.13 365.498 1014.43 357.982 C 1049.4 316.265 1099.9 296.789 1153.2 292.412 z"/>
<path transform="translate(0,0)" fill="rgb(254,254,254)" d="M 1151.56 333.377 C 1155.11 332.979 1155.16 332.84 1158.82 333.566 C 1160.65 337.67 1158.16 349.967 1157.56 354.484 C 1149.74 413.317 1116.53 469.093 1057 486.61 C 1043.61 490.551 1030.86 492.505 1016.93 494.753 C 1012.01 495.673 1011.76 496.559 1007.81 495.085 C 1004.57 489.332 1008.03 480.582 1008.3 474.068 C 1011.81 389.577 1071.8 342.384 1151.56 333.377 z"/>
<path transform="translate(0,0)" fill="rgb(254,254,254)" d="M 927.741 356.574 C 931.104 358.903 935.04 364.942 937.747 368.331 C 954.882 389.792 966.953 415.064 970.128 442.449 C 976.234 495.126 952.711 534.028 920.731 573.359 C 916.725 572.147 910.325 562.38 907.589 558.825 C 855.044 490.577 875.443 418.585 927.741 356.574 z"/>
<path transform="translate(0,0)" fill="rgb(254,254,254)" d="M 809.543 495.472 C 809.771 495.613 809.999 495.753 810.226 495.893 C 832.968 520.214 853.362 546.564 859.104 580.241 C 868.297 634.161 849.178 668.946 819.864 711.437 C 819.452 711.227 819.039 711.017 818.627 710.807 C 796.555 692.782 776.208 659.389 770.872 632.165 C 760.321 578.329 781.635 538.077 809.543 495.472 z"/>
<path transform="translate(0,0)" fill="rgb(254,254,254)" d="M 1059.6 527.4 C 1090.46 524.142 1135.34 540.691 1158.38 560.971 C 1130.04 591.647 1096.96 615.507 1054.25 619.915 C 1012.13 624.256 988.478 613.652 953.018 594.177 C 957.322 587.965 961.921 581.962 966.8 576.191 C 991.912 546.15 1020.35 530.953 1059.6 527.4 z"/>
<path transform="translate(0,0)" fill="rgb(254,254,254)" d="M 812.423 920.398 C 842.774 918.128 868.399 927.84 895.317 940.206 C 861.977 980.916 837.165 1011.29 780.557 1020.72 C 753.199 1024.8 726.242 1021.69 699.83 1014.02 C 707.222 995.477 713.016 979.921 726.276 964.589 C 750.718 936.33 775.35 923.376 812.423 920.398 z"/>
<path transform="translate(0,0)" fill="rgb(254,254,254)" d="M 707.556 647.485 C 728.371 661.401 753.918 696.937 760.535 721.917 C 774.794 775.744 759.635 808.333 734.511 853.55 L 732.966 853.564 C 710.588 839.703 687.526 809.355 681.268 783.836 C 668.043 729.906 682.634 692.598 707.556 647.485 z"/>
<path transform="translate(0,0)" fill="rgb(254,254,254)" d="M 618.344 798.55 C 673.127 836.749 699.22 891.089 682.416 956.449 C 680.717 963.056 670.319 995.858 665.273 998.876 C 584.048 953.251 578.07 876.374 618.344 798.55 z"/>
<path transform="translate(0,0)" fill="rgb(254,254,254)" d="M 953.621 654.343 C 993.781 648.999 1020.84 663.278 1053.73 682.422 C 1023.66 715.62 1001.82 737.299 955.852 745.681 C 915.553 750.449 890.275 745.622 853.818 728.756 C 859.204 719.236 863.931 711.148 870.669 702.371 C 890.747 675.87 920.642 658.562 953.621 654.343 z"/>
<path transform="translate(0,0)" fill="rgb(254,254,254)" d="M 871.589 784.303 C 904.656 779.882 939.93 791.576 967.977 808.497 C 939.527 845.523 912.327 866.967 866.897 877.186 C 830.598 883.613 803.021 876.433 769.962 863.417 C 777.169 853.55 783.232 840.959 791.116 830.64 C 812.816 802.238 836.806 789.403 871.589 784.303 z"/>
</svg>