<svg version="1.1" xmlns="http://www.w3.org/2000/svg" style="display: block;" viewBox="0 0 1996 1996" width="499" height="499" preserveAspectRatio="none">
<path transform="translate(0,0)" fill="rgb(254,109,1)" d="M 488.102 62.4001 C 504.898 60.9435 537.932 62.006 555.819 62.0168 L 691.608 62.0595 L 1124.1 62.0487 L 1401.68 62.0152 L 1478.64 62.0089 C 1490.26 62.0107 1514.06 61.3879 1524.52 63.3725 C 1551.74 68.5345 1577.79 83.4363 1593.68 106.454 C 1615.32 137.825 1615.63 169.02 1615.19 205.509 C 1615.06 215.833 1615.52 231.651 1613.81 241.485 L 1745.33 241.711 C 1781.49 241.601 1822.88 236.524 1854.71 255.811 C 1906.3 287.075 1908.49 331.017 1906.41 384.731 C 1904.2 442.115 1896.8 490.965 1883.66 546.667 C 1837.76 748.267 1708.56 920.963 1528.11 1021.9 C 1503.32 1035.69 1477.42 1047.39 1450.69 1056.88 C 1432.59 1063.13 1408.77 1067.9 1392.17 1075.77 C 1386.81 1078.31 1371.66 1098.24 1366.7 1104 C 1359.73 1112.01 1352.55 1119.82 1345.15 1127.43 C 1300.72 1173.07 1247.37 1216.49 1193.78 1250.75 C 1137.56 1286.69 1143.1 1272.49 1142.88 1341.97 C 1142.66 1413.19 1166.17 1462.71 1219.53 1510.06 C 1247.41 1534.79 1276.83 1559.27 1287.02 1596.61 L 1287.43 1598.16 C 1302.32 1596.98 1312.62 1597.56 1327.13 1597.45 C 1359.52 1597.21 1382.18 1598.23 1412.51 1612.17 C 1451.82 1630.42 1483.04 1665.04 1498.22 1705.5 C 1510.71 1738.81 1506.04 1773.35 1506.86 1808.17 C 1507.38 1829.84 1507.36 1852.1 1506.4 1873.72 C 1506.11 1880.3 1503.87 1885.91 1501.17 1891.78 C 1490.6 1906.23 1481.83 1912.51 1463.43 1913.21 C 1442.95 1914 1422.55 1913.7 1402.05 1913.66 L 1299.61 1913.64 L 974.605 1913.7 L 681.193 1913.61 L 588.374 1913.59 C 570.93 1913.59 538.435 1915.45 521.377 1910.08 C 513.281 1907.54 498.637 1890.71 497.746 1881.95 C 496.695 1863.06 495.712 1841.58 496.674 1822.71 C 498.285 1791.12 492.88 1746.33 500.958 1716.28 C 516.838 1658.17 565.515 1611.12 625.285 1600.62 C 648.809 1596.5 689.885 1595.95 713.856 1598.25 C 722.649 1575.42 738.843 1545.75 758.001 1530.18 C 817.302 1482.01 859.026 1434.25 858.736 1353.7 C 858.442 1272.15 870.146 1290.06 802.344 1246.36 C 791.542 1239.29 780.883 1232.01 770.373 1224.52 C 751.703 1211.65 733.717 1197.81 716.489 1183.06 C 691.459 1161.51 667.455 1138.8 644.558 1115 C 633.677 1103.66 620.706 1084.61 609.1 1075.51 C 604.154 1071.63 578.206 1064.18 570.98 1061.85 C 557.778 1057.74 544.78 1052.99 532.031 1047.64 C 450.277 1012.93 376.458 961.912 315.086 897.71 C 173.486 749.385 97.9956 554.61 98.4148 349.48 C 98.5196 298.194 128.573 258.152 178.219 244.634 C 191.978 240.887 207.827 241.784 221.984 241.621 C 276.707 242.907 332.548 240.181 387.141 241.617 C 386.41 228.937 387.169 215.405 386.815 202.814 C 385.72 163.829 388.505 131.287 414.378 99.8177 C 432.246 78.086 459.986 64.7814 488.102 62.4001 z M 1595.13 871.759 C 1615.07 853.319 1633.58 835.537 1651.57 815.158 C 1757.83 694.765 1812.44 538.115 1820.05 378.924 C 1821.49 348.781 1822.15 330.731 1785.89 330.82 C 1747.12 330.915 1708.14 330.771 1669.35 330.914 C 1651.97 330.823 1630.3 331.381 1613.23 330.238 C 1608.31 502.902 1581.86 679.218 1521.5 841.913 C 1507.03 880.919 1487.78 919.739 1469.42 957.079 C 1519.09 930.623 1551.42 907.994 1595.13 871.759 z M 517.422 947.439 C 522.056 950.207 526.425 952.992 531.435 955.037 C 430.113 758.741 397.075 548.808 388.184 330.487 C 327.549 332.623 264.029 329.686 203.031 331.119 C 196.056 333.742 191.192 337.2 187.892 344.063 C 174.966 370.944 199.698 500.786 207.504 532.265 C 213.821 556.911 221.442 581.204 230.336 605.041 C 274.869 722.138 343.524 821.842 443.474 898.347 C 464.553 914.481 493.713 935.372 517.422 947.439 z"/>
<path transform="translate(0,0)" fill="rgb(253,183,3)" d="M 502.332 149.394 C 542.517 147.964 589.778 149.064 630.505 148.946 L 925.035 149.04 L 1276.63 148.903 C 1349.09 148.818 1421.68 148.706 1494.13 149.237 C 1499.17 149.274 1516.25 149.967 1520.24 152.156 C 1526.72 155.71 1531.88 166.258 1533.05 173.554 C 1535.89 191.278 1534.98 212.689 1534.9 230.864 C 1534.74 270.455 1535.21 311.072 1532.53 350.569 C 1530.52 380.339 1530.56 413.104 1527.76 442.393 C 1506.48 665.559 1453.04 906.247 1293.76 1073.77 C 1270.44 1098.29 1247.83 1120.69 1220.86 1141.11 C 1202.11 1155.31 1183.03 1169.87 1163.73 1183.2 C 1136.7 1201.87 1099.39 1215.41 1081.41 1244.03 C 1076.36 1252.43 1070.75 1263.39 1068.73 1272.97 C 1065.8 1286.88 1065.85 1301.9 1065.72 1316.09 C 1065.52 1338.47 1065.07 1361.46 1067.42 1383.73 C 1068.72 1396.09 1072.15 1409.64 1074.91 1421.8 C 1099.54 1505.31 1141.22 1540.65 1200.62 1598.14 C 1157.87 1596.5 1106.95 1597.8 1063.54 1597.81 L 799.728 1597.95 C 883.604 1526.78 942.278 1446.29 936.195 1330.77 C 934.582 1300.15 940.738 1284.26 926.091 1254.64 C 906.021 1214.05 865.367 1202.36 830.175 1177.83 C 800.991 1157.09 772.853 1134.92 745.865 1111.4 C 497.547 891.645 460.57 487.507 468.586 176.876 C 469.109 156.583 485.329 150.303 502.332 149.394 z"/>
<path transform="translate(0,0)" fill="rgb(0,55,168)" d="M 998.1 360.106 C 1008.21 360.426 1012.4 364.294 1017.46 372.868 C 1028.71 391.936 1037.82 412.478 1047.2 432.537 L 1086.23 514.789 C 1101.48 518.588 1124.97 521.503 1140.69 523.639 L 1197.53 531.712 C 1214.12 533.948 1233.15 536.187 1249.29 541.185 C 1253.64 543.226 1256.42 547.142 1258.27 551.444 C 1264.19 565.298 1250.5 577.563 1241.44 586.631 C 1221.65 606.669 1202.14 627.349 1183.11 648.085 C 1171.5 660.735 1149.64 678.258 1143.51 693.416 C 1150.9 746.789 1162.02 800.586 1171.28 853.719 C 1173.79 868.129 1163.9 874.495 1152.28 879.774 C 1139.51 875.1 1126.53 866.953 1114.29 860.951 C 1077.8 843.059 1040.54 818.424 1003.34 802.939 C 998.232 802.704 990.707 806.024 986.054 808.377 C 944.063 829.615 903.346 853.364 861.375 874.653 C 856.835 876.956 848.625 880.023 843.69 877.569 C 839.814 875.641 832.193 871.237 830.778 866.405 C 827.318 847.352 834.443 823.567 837.86 804.985 L 850.758 732.302 C 852.315 724.006 857.392 700.879 856.648 693.958 C 855.579 684.013 825.714 658.023 818.736 650.253 C 804.564 634.473 790.616 620.668 776.448 605.297 C 764.81 592.671 749.84 581.789 741.718 566.77 C 739.612 563.321 740.895 548.985 743.641 546.477 C 758.85 533.68 785.915 534.033 804.512 530.844 C 840.524 524.67 880.003 522.772 915.281 514.352 C 919.37 508.586 929.245 485.48 932.994 477.313 C 944.03 453.171 955.387 429.177 967.064 405.339 C 973.181 392.896 984.212 363.612 998.1 360.106 z"/>
<path transform="translate(0,0)" fill="rgb(254,109,1)" d="M 1436.36 661.463 C 1454.23 662.875 1447.71 678.94 1444.79 691.617 C 1430.52 753.588 1410.75 816.832 1383.71 874.685 C 1346.22 952.58 1298.73 1022.56 1235.56 1081.77 C 1176.5 1137.13 1160.79 1129.29 1092.69 1095.67 C 1079.34 1088.32 1055.34 1077.75 1051.62 1061.76 C 1050.77 1058.08 1052.05 1049.61 1055.24 1047.19 C 1076.73 1030.9 1103.65 1021.72 1126.65 1007.49 C 1158.52 989.381 1178.1 976.477 1206.58 955.301 C 1280.22 900.552 1342.63 830.82 1388.79 751.514 C 1396.23 738.728 1404.62 723.213 1411.34 709.929 C 1420.14 692.568 1425.2 677.945 1436.36 661.463 z"/>
<path transform="translate(0,0)" fill="rgb(253,183,3)" d="M 674.372 1678.47 L 1337.01 1678.27 C 1364.37 1678.37 1382.65 1682.93 1401.92 1702.93 C 1427.82 1729.83 1425.45 1751.92 1425.35 1786.41 L 1425.13 1838.3 C 1397.9 1837.36 1364.31 1838.55 1336.25 1838.45 L 575.825 1838.12 C 576.26 1820.68 575.821 1801.28 575.882 1783.85 C 575.992 1752.56 575.522 1726.86 598.897 1703.11 C 622.295 1679.35 643.547 1678.9 674.372 1678.47 z"/>
</svg>