<svg version="1.1" xmlns="http://www.w3.org/2000/svg" style="display: block;" viewBox="0 0 2000 2000" width="500" height="500" preserveAspectRatio="none">
<path transform="translate(0,0)" fill="rgb(0,41,126)" d="M 1619.07 169.394 C 1728.81 163.645 1765.47 238.181 1837.04 304.556 C 1876.62 341.256 1903.38 377.01 1905.92 433.2 C 1907.78 474.126 1892.39 519.524 1864.9 550.323 C 1854.29 562.077 1843.14 572.763 1832.18 583.764 L 1777.97 638.248 L 1600.12 816.432 L 1146.89 1272.9 L 988.567 1432.29 C 963.612 1457.36 937.127 1483.12 912.494 1508.38 L 827.577 1594.18 C 813.177 1608.85 779.977 1644.92 764.494 1655.23 C 747.575 1666.5 693.631 1681.75 672.547 1688.62 L 549.952 1728.95 L 411.309 1775.63 C 391.649 1782.15 368.832 1790.18 349.013 1795.86 C 343.178 1797.5 337.18 1798.5 331.127 1798.84 C 302.338 1800.56 280.28 1783.91 279.747 1753.95 C 279.61 1746.23 280.439 1739.39 282.781 1732 C 292.343 1701.79 302.891 1671.87 312.991 1641.83 C 337.188 1570.77 361.766 1499.84 386.725 1429.04 L 406.373 1373.31 C 412.891 1354.42 420.403 1327.05 431.259 1310.93 C 435.27 1304.97 452.862 1287.49 458.633 1281.77 C 471.667 1268.93 484.616 1256 497.48 1242.99 L 595.029 1143.19 C 614.995 1122.94 635.804 1103 655.4 1082.43 C 656.048 1065.56 655.12 1048.32 655.457 1031.03 C 656.71 966.781 652.238 901.817 631.765 840.508 C 629.717 834.375 625.787 823.527 622.163 818.722 C 617.026 816.255 582.599 819.249 574.271 819.57 C 551.943 820.221 529.602 820.323 507.269 819.876 C 380.433 816.949 262.007 776.865 173.322 683.89 C 76.8697 579.068 38.7636 428.762 33.3437 290.34 C 31.9184 253.939 38.5169 236.674 78.1124 234.327 C 238.117 224.843 413.722 231.168 540.255 343.141 C 645.869 434.978 676.883 561.438 681.64 696.347 C 681.943 706.694 681.462 789.131 683.392 790.73 C 685.97 788.139 688.287 779.008 689.372 775.218 C 697.861 745.57 710.089 716.661 723.492 688.916 C 727.325 680.981 731.29 673.006 734.343 664.74 C 716.752 585.017 713.84 510.119 756.945 434.672 C 813.641 334.137 934.275 292.116 1043.76 287.805 C 1087.26 286.092 1077.88 366.281 1078.73 393.58 C 1083.52 547.246 982.831 671.624 829.415 692.368 C 818.089 693.899 803.945 695.705 792.82 698.209 C 781.655 711.573 772.109 737.369 765.534 753.906 C 731.499 839.51 725.32 918.303 727.188 1009.35 C 793.892 945.337 861.489 873.427 926.725 807.433 L 1312.7 417.966 L 1452.07 277.521 C 1469.87 259.526 1488.14 241.194 1505.8 223.11 C 1540.04 188.05 1570.83 173.995 1619.07 169.394 z"/>
<path transform="translate(0,0)" fill="rgb(11,61,169)" d="M 1347.76 472.64 C 1351.11 474.901 1367.66 491.867 1371.15 495.373 C 1387.09 511.299 1402.93 527.324 1418.67 543.449 C 1428.79 553.787 1444.34 570.32 1455.65 578.762 L 911.541 1127.99 L 721.477 1318.95 C 686.459 1354.28 651.974 1388.2 617.398 1424.26 L 616.305 1425.22 C 614.14 1424.9 612.944 1423.61 611.933 1421.61 C 588.766 1375.81 562.087 1337.15 510.993 1318.76 C 546.222 1280.05 581.466 1245.25 618.109 1208.11 L 806.516 1018.38 L 1347.76 472.64 z"/>
<path transform="translate(0,0)" fill="rgb(11,61,169)" d="M 1496.45 622.646 C 1503.94 627.883 1524.84 649.746 1531.39 656.52 L 1568.03 693.777 C 1579 705.095 1590.21 717.371 1601.92 727.827 C 1595.33 732.72 1582.47 746.384 1576.21 752.695 C 1560.45 768.774 1544.57 784.728 1528.56 800.555 C 1484.82 843.756 1442.77 887.342 1399.75 931.206 L 1299.23 1032.29 L 943.415 1391.04 L 846.262 1489.15 C 818.631 1516.73 791.238 1542.86 765.578 1572.3 C 763.847 1574.26 763.997 1574.44 761.559 1575.21 C 760.863 1574.77 759.757 1574.17 759.403 1573.41 C 742.043 1536.56 718.843 1502.06 686.891 1476.28 C 679.599 1470.39 672.69 1464.29 664.619 1459.35 C 682.915 1444.96 716.965 1407.67 733.999 1390.54 L 885.491 1237.49 L 1329.86 789.486 L 1435.34 683.615 C 1456.27 662.523 1474.49 643.11 1496.45 622.646 z"/>
<path transform="translate(0,0)" fill="rgb(252,82,0)" d="M 145.942 296.454 C 155.73 295.992 167.161 295.998 177.004 296.05 C 297.378 296.687 424.23 316.512 512.895 405.663 C 570.349 463.433 595.708 530.385 608.512 609.676 C 613.295 639.296 615.899 656.271 615.945 686.425 C 599.76 669.14 585.974 648.708 569.849 630.397 C 499.476 550.482 416.334 477.045 318.948 432.176 C 307.097 426.715 290.858 434.716 284.186 445.274 C 279.599 452.693 278.301 461.685 280.603 470.099 C 284.19 483.034 294.207 488.231 304.775 494.404 C 398.12 542.652 487.333 623.329 550.184 706.395 C 563.262 723.68 574.65 736.461 586.719 754.872 C 477.68 758.473 385.052 755.514 288.297 695.96 C 183.875 631.688 135.661 524.106 110.746 408.041 C 102.954 371.742 99.6553 335.127 95.7795 298.165 C 111.692 298.154 129.96 297.053 145.942 296.454 z"/>
<path transform="translate(0,0)" fill="rgb(252,82,0)" d="M 1624.96 232.331 C 1645.6 230.534 1678.02 239.907 1694.3 253.067 C 1711.93 267.319 1728.69 286.618 1744.96 302.706 L 1792.82 350.31 C 1802.05 359.488 1814.08 370.583 1822.14 380.401 C 1834.25 395.171 1842.52 421.524 1841.9 440.6 C 1841.1 465.247 1833.16 492.446 1816.22 510.99 C 1803.69 524.702 1789.76 538.08 1776.52 551.245 C 1763.45 564.237 1750.04 579.965 1735.75 591.455 L 1718.78 574.578 C 1676.77 532.89 1634.98 490.981 1593.41 448.853 C 1556.74 412.018 1517.75 373.781 1481.86 336.476 L 1527.51 290.781 C 1560.5 257.673 1575.8 238.834 1624.96 232.331 z"/>
<path transform="translate(0,0)" fill="rgb(254,254,254)" d="M 473.429 1372.08 C 514.775 1378.09 540.452 1409.57 555.464 1445.99 C 570.565 1482.62 585.627 1486.57 618.535 1503.44 C 661.224 1525.33 688.776 1564.9 707.15 1608.29 C 696.564 1610.67 680.811 1616.31 670.119 1619.77 C 647.822 1627.1 625.45 1634.21 603.008 1641.09 C 568.373 1650.86 533.329 1665.57 497.796 1674.47 C 476.245 1647.04 430.367 1600.45 401.913 1580.93 C 408.411 1567.61 418.665 1532.5 424.285 1516.18 C 441.153 1468.31 457.536 1420.28 473.429 1372.08 z"/>
<path transform="translate(0,0)" fill="rgb(252,82,0)" d="M 1011.08 355.309 C 1013 354.922 1012.98 355.111 1015 355.272 C 1017.02 358.761 1017.13 376.795 1017.13 382.264 C 1017.02 475.771 985.868 565.226 894.949 606.701 C 858.878 623.155 831.371 628.38 792.426 635.015 C 789.05 614.273 785.299 593.723 784.856 572.754 C 784.031 533.771 797.39 484.946 820.404 453.398 C 868.798 387.057 936.459 368.717 1011.08 355.309 z"/>
<path transform="translate(0,0)" fill="rgb(254,254,254)" d="M 1445.4 376.859 C 1449.14 377.576 1497.29 427.982 1505.47 436.278 C 1559.74 491.733 1614.54 546.652 1669.89 601.028 C 1677.76 608.722 1690.01 622.223 1697.82 628.396 C 1679.42 645.968 1661.39 663.925 1643.74 682.254 C 1642.42 682.806 1643.26 682.572 1641.12 682.526 C 1625.2 665.041 1609.87 650.844 1593.8 634.242 C 1550.7 589.574 1507.22 545.274 1463.36 501.346 C 1449.17 487.061 1434.9 472.85 1420.57 458.713 C 1411.08 449.357 1400.65 439.739 1392.14 429.567 C 1399.66 420.438 1436.28 384.42 1445.4 376.859 z"/>
<path transform="translate(0,0)" fill="rgb(252,82,0)" d="M 1672.1 979.152 C 1683.68 978.555 1699.66 981.148 1706.04 991.646 C 1725.91 1024.32 1739.08 1063.11 1756.96 1097.23 C 1765.52 1113.56 1770.98 1130.15 1781.59 1144.81 C 1802.72 1150.81 1826.99 1152.67 1848.84 1155.52 C 1871.22 1158.43 1893.42 1161.97 1915.75 1165.14 C 1928.03 1166.88 1942.65 1166.99 1954.13 1171.74 C 1961.87 1174.95 1971.14 1181.78 1974.06 1190 C 1977.42 1199.5 1977.88 1212.32 1973.31 1221.41 C 1966.52 1234.9 1892.67 1299.26 1877.13 1313.44 C 1868.12 1321.67 1854.85 1331.63 1849.52 1342.68 C 1839.7 1363.04 1883.53 1502.23 1869.7 1532.57 C 1866.23 1540.19 1858.73 1546.6 1850.84 1549.32 C 1844.16 1551.63 1835.6 1551.83 1828.84 1549.77 C 1808.11 1543.44 1788.13 1528.95 1769.57 1517.89 C 1741.2 1501 1712.69 1483.5 1683.32 1468.44 C 1673.09 1464.31 1652.55 1478.6 1643.26 1484.07 C 1622.43 1496.19 1601.72 1508.53 1581.14 1521.07 C 1565.44 1530.54 1549.41 1541.25 1532.45 1548.2 C 1509.18 1557.72 1482.24 1543.37 1484.48 1516.64 C 1488.14 1473.15 1497.83 1429.62 1504 1386.37 C 1505.68 1374.59 1507.71 1363.14 1510.77 1351.63 C 1503.8 1334.52 1480.03 1315.62 1466.16 1302.89 C 1448.61 1286.86 1431.18 1270.7 1413.86 1254.43 C 1402.45 1243.87 1387.72 1232.47 1381.64 1217.98 C 1373.49 1198.57 1384.79 1178.41 1404.01 1171.71 C 1416.55 1167.34 1430.59 1167.9 1443.69 1165.96 C 1472.57 1161.61 1501.66 1158.45 1530.56 1154.42 C 1543.34 1152.64 1562.06 1150.53 1573.73 1145.66 C 1583.74 1134.12 1587.97 1120.79 1594.66 1107.24 C 1606.02 1084.23 1616.77 1061.01 1627.6 1037.74 C 1634.08 1023.83 1639.41 1008.34 1647.44 995.419 C 1653.89 985.034 1660.67 981.522 1672.1 979.152 z"/>
</svg>