<svg version="1.1" xmlns="http://www.w3.org/2000/svg" style="display: block;" viewBox="0 0 2000 2000" width="500" height="500" preserveAspectRatio="none">
<path transform="translate(0,0)" fill="rgb(254,254,254)" d="M 482.655 270.7 C 482.323 264.999 482.367 259.398 482.503 253.716 C 483.465 213.373 477.809 177.711 510.7 147.655 C 549.904 111.829 605.191 115.819 640.411 154.656 C 660.782 177.121 661.542 202.526 661.389 231.26 C 661.367 244.26 661.81 256.917 661.037 270.042 L 1115.03 270.185 L 1259.62 270.38 C 1285.73 270.472 1315.52 271.721 1341.13 270.194 C 1341.03 268.572 1340.96 266.949 1340.91 265.324 C 1340.01 225.945 1336.57 181.101 1365.93 150.982 C 1402.53 113.431 1459.4 114.212 1495.89 151.528 C 1518.66 174.811 1519.33 197.258 1519.81 227.907 C 1520.03 242.333 1520.08 256.762 1519.96 271.189 L 1590 271.24 C 1649.42 271.761 1695.22 273.843 1741.85 316.189 C 1801.45 370.313 1794.81 431.684 1794.8 504.652 L 1794.76 639.507 L 1794.85 1058.74 L 1795.17 1182.75 C 1795.21 1211.5 1794.86 1242.55 1796.04 1271.17 C 1801.57 1289.57 1809.12 1322.3 1811.56 1341.69 C 1827.5 1335.28 1837.1 1330.5 1854.98 1338.3 C 1872.82 1346.08 1883.54 1361.09 1894.7 1376.75 C 1908.3 1395.84 1920.04 1417.77 1929.39 1439.48 C 2006.49 1618.56 1918.4 1829.57 1736.1 1899.49 C 1643.41 1934.98 1529.41 1935.13 1438.09 1895.34 C 1387.47 1873.61 1342.51 1840.57 1306.66 1798.75 C 1297.96 1788.68 1287.83 1771.44 1281.06 1764.37 C 1278.26 1764.51 1275.45 1764.62 1272.64 1764.7 C 1248.15 1765.49 1221.62 1764.98 1197 1764.93 L 1071.15 1764.69 L 684.17 1764.46 L 468.758 1764.79 C 443.609 1764.87 418.459 1764.76 393.311 1764.44 C 339.749 1763.64 301.133 1760.1 259.879 1720.71 C 223.6 1686.06 209.497 1644.84 209.233 1595.36 C 209.067 1564.25 209.106 1532.77 209.115 1501.56 L 209.103 1333.14 L 209.178 814.895 L 209.141 558.383 L 209.119 484.493 C 209.123 420.909 210.319 372.92 256.403 323.146 C 315.372 259.455 403.904 271.879 482.655 270.7 z"/>
<path transform="translate(0,0)" fill="rgb(0,35,133)" d="M 482.655 270.7 C 482.323 264.999 482.367 259.398 482.503 253.716 C 483.465 213.373 477.809 177.711 510.7 147.655 C 549.904 111.829 605.191 115.819 640.411 154.656 C 660.782 177.121 661.542 202.526 661.389 231.26 C 661.367 244.26 661.81 256.917 661.037 270.042 L 1115.03 270.185 L 1259.62 270.38 C 1285.73 270.472 1315.52 271.721 1341.13 270.194 C 1341.03 268.572 1340.96 266.949 1340.91 265.324 C 1340.01 225.945 1336.57 181.101 1365.93 150.982 C 1402.53 113.431 1459.4 114.212 1495.89 151.528 C 1518.66 174.811 1519.33 197.258 1519.81 227.907 C 1520.03 242.333 1520.08 256.762 1519.96 271.189 L 1590 271.24 C 1649.42 271.761 1695.22 273.843 1741.85 316.189 C 1801.45 370.313 1794.81 431.684 1794.8 504.652 L 1794.76 639.507 L 1794.85 1058.74 L 1795.17 1182.75 C 1795.21 1211.5 1794.86 1242.55 1796.04 1271.17 C 1786.45 1243.08 1763.73 1189.48 1742.96 1169.28 C 1744.31 1158.83 1743.88 1141.62 1743.88 1130.47 L 1743.79 1067.01 L 1743.8 859.36 L 1743.84 695.825 C 1743.87 677.208 1744.98 626.93 1742.33 611.987 C 1729.31 610.048 1709.08 610.633 1695.45 610.662 L 1626.79 610.812 L 1388.85 610.806 L 527.817 610.762 L 350.388 610.736 C 336.212 610.722 274.252 609.688 265.347 612.399 C 261.697 624.37 263.038 701.551 263.036 718.931 L 263.02 932.072 L 263.047 1376.83 L 263.027 1523.64 C 263.03 1550.41 262.791 1577.25 263.311 1604.01 C 263.66 1622 266.046 1638.33 274.628 1654.26 C 287.769 1679.14 310.363 1697.69 337.324 1705.73 C 359.731 1712.27 436.553 1710.06 463.269 1710.04 L 626.703 1710 L 1040.74 1710.02 C 1111.72 1710.03 1184.55 1710.85 1255.43 1709.91 C 1258.7 1729.11 1274.15 1747.73 1281.06 1764.37 C 1278.26 1764.51 1275.45 1764.62 1272.64 1764.7 C 1248.15 1765.49 1221.62 1764.98 1197 1764.93 L 1071.15 1764.69 L 684.17 1764.46 L 468.758 1764.79 C 443.609 1764.87 418.459 1764.76 393.311 1764.44 C 339.749 1763.64 301.133 1760.1 259.879 1720.71 C 223.6 1686.06 209.497 1644.84 209.233 1595.36 C 209.067 1564.25 209.106 1532.77 209.115 1501.56 L 209.103 1333.14 L 209.178 814.895 L 209.141 558.383 L 209.119 484.493 C 209.123 420.909 210.319 372.92 256.403 323.146 C 315.372 259.455 403.904 271.879 482.655 270.7 z"/>
<path transform="translate(0,0)" fill="rgb(254,254,254)" d="M 1318.15 338.087 C 1322.7 337.919 1327.46 337.521 1332 337.878 C 1333.85 338.024 1337.68 338.389 1339.03 339.923 C 1348.3 350.459 1324.8 413.421 1363.83 456.6 C 1380.3 474.815 1401.28 485.006 1425.81 485.991 C 1450.88 486.997 1474.13 478.97 1492.57 461.817 C 1529.05 427.886 1518.75 383.394 1520.39 338.722 C 1529.85 337.817 1540.61 336.251 1548.84 341.339 C 1554.73 349.612 1560.35 385.513 1561.01 396.012 C 1560.9 401.032 1560.52 406.042 1559.88 411.021 C 1542.32 543.035 1371.96 571.053 1313.56 452.36 C 1300.38 425.575 1300.59 398.175 1304.43 369.292 C 1305.62 360.364 1310.68 343.472 1318.15 338.087 z"/>
<path transform="translate(0,0)" fill="rgb(254,254,254)" d="M 661.427 339.258 C 683.761 335.44 693.397 338.076 696.97 362.678 C 698.451 372.874 699.786 383.288 700.998 393.565 C 701.016 397.376 700.908 401.186 700.674 404.989 C 697.895 443.929 684.411 471.486 654.67 497.432 C 632.462 516.805 593.871 530 564.489 527.688 C 528.636 524.768 495.421 507.694 472.181 480.238 C 443.602 446.231 439.879 405.191 447.534 362.874 C 448.917 355.226 452.987 343.223 459.033 338.208 C 467.545 337.727 473.58 337.747 481.972 338.933 C 485.685 382.484 472.138 419.71 505.143 456.36 C 538.925 494.301 596.78 496.037 633.932 461.613 C 670.881 427.378 659.744 384.712 661.427 339.258 z"/>
<path transform="translate(0,0)" fill="rgb(254,254,254)" d="M 1426.71 178.215 C 1442.66 177.536 1464.67 188.726 1466.44 205.73 C 1469.69 236.956 1468.25 270.609 1468.23 302.208 L 1468.16 361.292 C 1468.14 375.673 1470.22 400.205 1463.35 412.844 C 1458.22 422.293 1447.23 430.192 1436.57 432.739 C 1398.94 434.518 1394.88 407.615 1395.15 378.031 C 1395.62 324.804 1394.38 271.435 1395.5 218.213 C 1396 194.307 1404.79 185.168 1426.71 178.215 z"/>
<path transform="translate(0,0)" fill="rgb(254,254,254)" d="M 568.993 178.108 C 585.74 177.467 603.318 188.304 606.505 205.473 C 609.285 220.455 608.46 236.345 608.455 251.587 L 608.48 307.375 L 608.485 363.433 C 608.486 378.754 610.611 403.747 601.708 416.4 C 595.51 425.232 585.957 431.133 575.285 432.723 C 552.591 433.113 537.34 418.423 537.016 395.951 C 536.153 336.202 536.279 276.353 537.064 216.605 C 537.381 192.56 546.862 184.538 568.993 178.108 z"/>
<path transform="translate(0,0)" fill="rgb(238,83,3)" d="M 1558.3 1090.66 C 1583.4 1094.44 1627.77 1128.96 1647.11 1146.05 C 1695.96 1189.53 1732.04 1247.31 1747.07 1311.1 C 1752.71 1335.05 1756.91 1351.09 1757.13 1376.22 C 1757.37 1402.5 1756.55 1428.15 1756.38 1454.36 C 1756.38 1455.34 1756.23 1457.38 1757.31 1457.58 C 1782.06 1464.08 1808.98 1433.4 1820.11 1415.52 C 1828.17 1402.57 1830.36 1395.07 1837.68 1385.35 C 1840.3 1387.72 1842.79 1390.23 1845.15 1392.87 C 1891.41 1444.7 1913.88 1528.34 1909.51 1597.02 C 1903.97 1674.37 1868.4 1746.49 1810.39 1797.97 C 1772.64 1830.89 1727.38 1854.03 1678.58 1865.37 C 1671.53 1866.96 1659.91 1869.93 1653.08 1869.47 C 1655.61 1865.86 1671.17 1855.09 1675.66 1851.37 C 1746.83 1792.38 1758.43 1688.42 1703.71 1614.27 C 1699.91 1609.12 1695.88 1603.27 1690.79 1599.12 C 1686.06 1598.38 1668.25 1622.07 1662.31 1626.09 C 1657.6 1629.28 1654.81 1631.74 1649.1 1634.74 C 1648.56 1624.82 1650.19 1607.82 1650.73 1597.17 C 1652.86 1554.96 1647.25 1532.58 1625.82 1496.51 C 1616.62 1480.19 1603.72 1467.54 1590.75 1454.3 C 1574.21 1498.11 1557.52 1525.53 1524.86 1559.5 C 1507.31 1577.75 1492.08 1593 1476.87 1613.29 C 1450.37 1648.61 1432.22 1701.04 1439.46 1745.58 C 1448.87 1803.53 1475.11 1836.77 1522.03 1869.99 C 1507.67 1865.72 1493.55 1864.24 1478.47 1859.11 C 1420.14 1839.26 1362.99 1798.95 1328.31 1747.92 C 1293.01 1695.61 1277.43 1641.8 1277.75 1579.15 C 1278.17 1495.52 1312.8 1416.31 1367.04 1353.61 C 1373.67 1345.94 1389.65 1327.16 1400.1 1329.55 C 1409.48 1336.23 1408.51 1366.7 1413.79 1379.61 C 1418.26 1390.53 1422.85 1401.05 1427.69 1411.83 C 1439.84 1379.69 1456.84 1355.23 1476.25 1326.94 C 1512.11 1274.67 1542.33 1219 1551.07 1155.31 C 1553.07 1140.76 1552.19 1126.48 1552.64 1111.92 C 1552.89 1104.02 1552.42 1096.27 1558.3 1090.66 z"/>
<path transform="translate(0,0)" fill="rgb(238,83,3)" d="M 1117.24 1213.23 C 1135.68 1212.13 1153 1228.06 1151.9 1246.67 C 1151.93 1250.87 1150.62 1260.51 1147.85 1263.89 C 1133.04 1282 1115.02 1299.25 1098.76 1316.03 L 995.529 1423.33 C 984.086 1435.21 973.904 1448.79 955.609 1447.92 C 940.318 1447.18 931.79 1439.17 921.579 1428.88 C 911.189 1418.41 900.697 1407.77 890.252 1397.24 C 876.828 1384.12 852.202 1363.98 854.314 1343.05 C 856.195 1324.42 873.012 1311.36 891.819 1313.32 C 896.561 1313.77 901.138 1315.3 905.198 1317.79 C 915.361 1324 946.259 1356.47 954.711 1366.62 C 996.126 1327.59 1034.52 1282.14 1075.49 1242.32 C 1091.04 1227.2 1094.57 1218.31 1117.24 1213.23 z"/>
<path transform="translate(0,0)" fill="rgb(238,83,3)" d="M 1114.61 807.233 C 1115.84 807.099 1117.07 807.016 1118.31 806.982 C 1136.4 806.355 1152.22 822.155 1151.92 840.697 C 1151.62 859.435 1140.58 866.939 1128.49 879.506 L 1090.03 919.148 C 1055.6 954.464 1021.39 989.959 987.237 1025.54 C 977.88 1035.29 970.341 1041.48 955.947 1041.21 C 949.464 1041.12 943.115 1039.34 937.528 1036.05 C 927.487 1030.21 899.805 1000.79 890.5 991.46 C 878.347 979.722 855.4 960.412 853.959 943.552 C 852.348 924.694 869.504 906.461 888.728 907.029 C 906.528 907.555 916.809 921.428 928.324 932.993 C 937.638 942.347 946.167 951.322 955.409 960.294 C 993.096 924.084 1027.92 883.156 1065.51 846.63 C 1080.39 832.172 1094.17 813.449 1114.61 807.233 z"/>
<path transform="translate(0,0)" fill="rgb(238,83,3)" d="M 670.708 807.173 C 671.466 807.112 672.225 807.065 672.985 807.034 C 698.805 806.059 718.474 838.892 703.006 858.486 C 685.856 880.212 663.285 901.298 643.977 921.362 C 612.916 953.64 581.225 985.481 550.486 1018.1 C 539.529 1028.7 528.824 1042.3 511.903 1041.4 C 488.209 1040.13 463.556 1008.72 447.257 992.213 C 436.731 981.557 425.436 971.521 416.208 959.723 C 399.462 938.311 415.863 908.264 442.017 907.371 C 448.71 907.137 455.33 908.817 461.101 912.214 C 470.373 917.743 501.143 950.322 511.596 960.121 L 601.689 867.277 C 617.789 850.745 650.893 812.144 670.708 807.173 z"/>
<path transform="translate(0,0)" fill="rgb(238,83,3)" d="M 672.142 1213.16 C 681.331 1212.55 691.442 1216.97 697.976 1223.3 C 704.359 1229.45 707.987 1237.91 708.038 1246.78 C 708.331 1265.44 692 1277.47 679.937 1289.9 L 645.944 1325.09 C 608.96 1362.9 571.826 1402.36 534.222 1439.43 C 504.34 1468.88 465.202 1416.55 444.731 1395.81 C 426.636 1377.06 390.882 1348.92 420.121 1322.14 C 426.714 1315.99 435.521 1312.77 444.526 1313.23 C 460.092 1313.97 469.953 1324.05 480.087 1334.55 C 490.412 1345.24 501.09 1355.85 510.98 1366.93 C 530.601 1344.7 557.962 1318.38 579.074 1296.34 C 593.659 1281.18 608.341 1266.12 623.117 1251.15 C 637.247 1236.71 652.047 1217.95 672.142 1213.16 z"/>
<path transform="translate(0,0)" fill="rgb(238,83,3)" d="M 1550.7 807.202 C 1569.44 805.488 1586.65 819.548 1589.02 838.394 C 1590.19 851.965 1580.24 863.835 1571.29 872.849 C 1518.05 926.465 1467.33 983.201 1412.67 1035.23 C 1403.64 1041.64 1386.23 1044.11 1376.6 1037.31 C 1359.31 1025.11 1342.6 1005.89 1327.76 990.745 C 1309.08 972.087 1274.32 945.447 1300.36 918.466 C 1308.17 908.347 1329.88 903.62 1341.05 911.301 C 1358.35 923.202 1377.54 944.975 1392.36 960.193 C 1439.83 914.018 1486.86 857.049 1537.13 813.061 C 1540.22 810.364 1546.61 808.397 1550.7 807.202 z"/>
</svg>