<svg version="1.1" xmlns="http://www.w3.org/2000/svg" style="display: block;" viewBox="0 0 2000 2000" width="500" height="500" preserveAspectRatio="none">
<path transform="translate(0,0)" fill="rgb(0,53,149)" d="M 859.804 290.494 C 825.964 279.399 792.281 273.362 759.863 257.758 C 727.061 241.968 698.645 221.317 686.433 185.77 C 680.003 167.054 683.117 149.8 691.693 132.347 C 708.924 97.2806 754.567 74.8495 790.252 63.1323 C 810.948 56.3366 832.888 49.653 854.237 45.3647 C 866.724 42.8565 879.499 41.5852 892.112 39.8572 C 1003.78 24.5578 1152.9 29.5822 1254.75 81.7734 C 1283.7 96.6089 1306.63 116.229 1316.65 147.945 C 1322.67 167.006 1316.95 184.989 1308 202.022 C 1289.36 237.473 1235.85 262.599 1198.83 274.101 C 1199.01 274.342 1199.17 274.587 1199.35 274.824 C 1208.49 286.812 1232.02 300.582 1244.89 309.688 C 1284.16 337.46 1406.75 423.065 1426.33 458.462 C 1432.6 469.803 1433.32 485.294 1431.76 497.959 C 1429.99 512.286 1422.47 525.275 1410.92 533.933 C 1388.08 551.14 1348.24 549.135 1321.9 543.776 C 1294.13 538.129 1255.2 534.09 1229.47 525.131 C 1242.07 550.997 1256.69 576.586 1270.33 601.994 C 1293.12 644.077 1315.3 686.488 1336.87 729.213 C 1370.88 737.829 1406.12 742.004 1440.23 750.198 C 1524.79 770.512 1705.99 829.027 1752.21 905.805 C 1761.94 921.969 1766.51 940.432 1761.66 959.035 C 1754.24 987.532 1730.5 1006.45 1706.16 1020.45 C 1683.85 1033.28 1660.37 1041.67 1636.1 1049.89 C 1627 1052.97 1618.23 1056.6 1608.79 1058.48 C 1608.17 1058.61 1607.55 1058.76 1606.92 1058.9 C 1642.33 1099.48 1690.1 1173.76 1618.46 1204.63 C 1583.9 1219.51 1553.23 1220.98 1516.59 1224.48 C 1535.08 1262.36 1537.2 1279.29 1533.87 1321.88 C 1553.73 1328.64 1579.73 1352.96 1592.83 1369.33 C 1639.58 1427.8 1644.93 1504.57 1621.06 1573.37 C 1619.71 1577.22 1618.25 1581.04 1616.69 1584.81 C 1640.81 1615.58 1660.26 1661.43 1656.85 1701.09 C 1654.17 1732.14 1621.73 1742.82 1597.03 1750.86 C 1581.33 1760.43 1569.5 1763.81 1552.83 1771.14 C 1478.52 1803 1401.49 1828.11 1322.68 1846.15 C 1288.59 1853.77 1250.58 1860.18 1216.08 1866.14 C 1186.55 1871.24 1153.64 1870.93 1123.79 1875.79 C 1108.17 1877.7 1091.86 1877.13 1076.26 1880.56 C 1041.05 1950.59 965.637 1968.66 918.065 1899.2 C 915.334 1895.21 907.272 1880.62 904.144 1878.7 C 872.637 1876.29 841.088 1871.83 809.569 1869.25 C 799.054 1868.39 788.208 1867.26 777.778 1865.76 C 671.242 1850.11 566.636 1823.35 465.672 1785.92 C 441.642 1777.15 399.92 1762.56 378.584 1750.11 C 358.463 1743.92 328.166 1735.26 323.133 1711.03 C 315.975 1676.58 328.03 1640.12 345.236 1610.41 C 350.32 1601.63 357.48 1594.13 362.615 1584.84 C 358.376 1570.64 351.663 1554.97 347.936 1540.94 C 340.179 1511.74 340.494 1470.79 349.231 1441.88 C 365.643 1387.57 395.122 1347.84 445.513 1320.75 C 439.764 1284.58 444.836 1255.17 461.736 1223.3 C 427.453 1218.93 403.561 1220.26 369.888 1206.32 C 348.624 1197.52 325.14 1184.16 325.928 1157.72 C 326.803 1128.34 354.148 1081.89 373.847 1060.51 C 337.92 1046.97 306.403 1038.13 272.092 1020.15 C 229.624 997.89 200.907 952.249 230.394 907.355 C 269.123 848.39 367.469 805.44 432.876 782.474 C 466.566 770.962 500.681 760.736 535.149 751.819 C 559.878 745.349 585.828 741.206 612.001 734.447 C 619.815 723.537 635.378 690.417 642.906 676.746 C 670.88 625.304 699.117 574.007 727.617 522.855 C 758.555 466.778 790.11 411.045 822.279 355.665 C 829.388 343.334 856.782 300.359 859.804 290.494 z M 1134.32 232.713 C 1134.57 232.57 1134.82 232.422 1135.07 232.283 C 1150.31 223.95 1170.02 221.51 1186.63 216.428 C 1205.78 210.569 1249.98 193.283 1255.87 172.41 C 1257.16 167.849 1256.18 163.276 1253.79 159.254 C 1240.96 137.605 1188.39 121.279 1164.43 115.958 C 1138.27 110.15 1110.95 103.849 1084.36 100.855 C 995.263 90.8201 839.511 95.6732 763.582 144.525 C 755.992 149.407 747.369 155.687 745.547 165.125 C 744.528 170.408 746.11 175.548 749.24 179.833 C 753.633 185.849 760.296 190.319 766.435 194.379 C 804.709 219.696 853.104 229.025 897.663 236.991 C 960.573 163.657 1030.97 163.233 1106.76 214.457 C 1115.7 220.505 1126.25 225.443 1134.32 232.713 z"/>
<path transform="translate(0,0)" fill="rgb(254,254,254)" d="M 1330.93 1162.43 C 1336.03 1165.24 1339.96 1168.81 1344.55 1172.28 C 1373.15 1193.94 1411.68 1211.4 1446.98 1218.66 C 1452.48 1223.6 1458.59 1230.97 1462.11 1237.38 C 1485.95 1280.76 1485.21 1298.11 1474.22 1342.11 C 1477.1 1350.38 1478.54 1352.9 1484.04 1359.25 C 1560.98 1384.96 1595.45 1463.98 1573.41 1540.43 C 1568.07 1558.98 1556.83 1569.4 1552.67 1587.32 C 1552.07 1589.89 1553.26 1599.64 1553.6 1602.77 C 1589.67 1627.39 1608.11 1673.87 1603.29 1716.77 C 1602.06 1727.74 1597.45 1740.75 1597.03 1750.86 C 1581.33 1760.43 1569.5 1763.81 1552.83 1771.14 C 1478.52 1803 1401.49 1828.11 1322.68 1846.15 C 1288.59 1853.77 1250.58 1860.18 1216.08 1866.14 C 1186.55 1871.24 1153.64 1870.93 1123.79 1875.79 C 1108.17 1877.7 1091.86 1877.13 1076.26 1880.56 C 1077.54 1868.36 1087.64 1840.94 1090.97 1827.8 C 1094.75 1816.17 1096.37 1802.26 1100.85 1790.98 C 1111.37 1764.51 1132.85 1741.79 1147.06 1717.6 C 1168.32 1681.39 1177.66 1639.76 1172.64 1598.03 C 1171.17 1585.88 1167.61 1573.49 1164.49 1561.66 C 1241.68 1507.74 1289.37 1419.15 1310.56 1329.03 C 1314.07 1314.07 1320.4 1294.8 1321.96 1279.65 C 1325.9 1241.23 1330.98 1201 1330.93 1162.43 z"/>
<path transform="translate(0,0)" fill="rgb(254,254,254)" d="M 497.323 1358.64 L 497.79 1357.29 C 502.275 1344 500.149 1337.78 498.992 1324.55 C 497.215 1304.23 495.199 1278.28 503.85 1259.12 C 508.765 1248.24 519.315 1225.18 530.123 1219.02 C 537.568 1214.78 550.113 1214 558.282 1210.48 C 594.061 1198.69 616.316 1186.37 644.995 1162.39 C 646.341 1294.16 678.271 1434.37 774.755 1530.44 C 784.958 1540.6 803.198 1556.86 815.162 1563.67 C 792.403 1620.26 808.412 1682.13 841.414 1732.04 C 851.881 1747.88 873.674 1773.36 880.762 1790.74 C 884.994 1801.12 905.95 1872.2 904.144 1878.7 C 872.637 1876.29 841.088 1871.83 809.569 1869.25 C 799.054 1868.39 788.208 1867.26 777.778 1865.76 C 671.242 1850.11 566.636 1823.35 465.672 1785.92 C 441.642 1777.15 399.92 1762.56 378.584 1750.11 C 372.891 1701.98 367.882 1667.04 399.438 1625.16 C 409.198 1612.21 428.709 1600.97 426.068 1587.63 C 423.742 1575.88 414.062 1564.2 408.529 1552.32 C 387.945 1506.99 392.512 1454.2 420.574 1413.08 C 440.572 1384.25 464.574 1369.05 497.323 1358.64 z"/>
<path transform="translate(0,0)" fill="rgb(254,86,1)" d="M 859.804 290.494 C 825.964 279.399 792.281 273.362 759.863 257.758 C 727.061 241.968 698.645 221.317 686.433 185.77 C 680.003 167.054 683.117 149.8 691.693 132.347 C 708.924 97.2806 754.567 74.8495 790.252 63.1323 C 810.948 56.3366 832.888 49.653 854.237 45.3647 C 866.724 42.8565 879.499 41.5852 892.112 39.8572 C 1003.78 24.5578 1152.9 29.5822 1254.75 81.7734 C 1283.7 96.6089 1306.63 116.229 1316.65 147.945 C 1322.67 167.006 1316.95 184.989 1308 202.022 C 1289.36 237.473 1235.85 262.599 1198.83 274.101 C 1186.72 272.86 1145.9 241.408 1134.32 232.713 C 1134.57 232.57 1134.82 232.422 1135.07 232.283 C 1150.31 223.95 1170.02 221.51 1186.63 216.428 C 1205.78 210.569 1249.98 193.283 1255.87 172.41 C 1257.16 167.849 1256.18 163.276 1253.79 159.254 C 1240.96 137.605 1188.39 121.279 1164.43 115.958 C 1138.27 110.15 1110.95 103.849 1084.36 100.855 C 995.263 90.8201 839.511 95.6732 763.582 144.525 C 755.992 149.407 747.369 155.687 745.547 165.125 C 744.528 170.408 746.11 175.548 749.24 179.833 C 753.633 185.849 760.296 190.319 766.435 194.379 C 804.709 219.696 853.104 229.025 897.663 236.991 C 892.9 244.338 864.98 288.102 859.804 290.494 z"/>
<path transform="translate(0,0)" fill="rgb(254,254,254)" d="M 840.455 973.892 C 844.452 976.132 849.955 984.908 854.088 988.736 C 898.81 1030.16 963.171 1048.77 1023.32 1038.08 C 1061.57 1031.29 1114.43 1008.11 1137.28 974.59 C 1154.31 988.083 1156.84 988.568 1175.75 997.377 C 1209.16 1012.95 1234.84 1009.97 1271.09 1008.51 C 1278.88 1118.3 1284.1 1241.25 1250.25 1347.34 C 1234.8 1395.7 1209.67 1440.4 1176.39 1478.73 C 1165.01 1491.68 1149.37 1505.71 1136.6 1517.47 C 1111.22 1477.82 1058.95 1461.53 1014.71 1454.75 C 1014.58 1448.53 1014.04 1399.64 1015.45 1397.05 C 1022.36 1394.29 1041.23 1377.16 1048.54 1371.19 C 1052.75 1368.11 1056.92 1364.99 1061.06 1361.82 C 1085.63 1342.76 1077.16 1318.08 1050.49 1312.32 C 1038.52 1309.73 998.212 1345.75 989.151 1354.21 C 979.345 1345.25 968.027 1337.06 957.837 1328.54 C 937.708 1311.72 920.994 1303.53 903.239 1328.77 C 900.811 1348.82 904.727 1353.26 920.067 1364.87 C 934.208 1375.57 947.384 1387.86 962.098 1397.95 C 961.686 1417.16 961.653 1436.37 962 1455.58 L 960.5 1455.67 C 914.34 1458.92 870.851 1482.94 841.003 1517.61 C 796.096 1478.46 765.592 1440.58 742.062 1385.52 C 723.818 1342.83 713.289 1306.72 706.862 1260.84 C 700.041 1212.95 697.509 1164.55 699.296 1116.21 C 700.774 1078.42 704.258 1045.84 707.285 1008.7 C 744.349 1009.72 767.573 1012.68 802.179 996.844 C 821.682 987.92 822.951 988.767 840.455 973.892 z"/>
<path transform="translate(0,0)" fill="rgb(0,53,149)" d="M 1087.07 1147.18 C 1110.62 1145.94 1116.13 1166.84 1140.38 1165.51 C 1145.72 1165.21 1154 1165.33 1158.67 1163.07 C 1172.36 1156.34 1179.96 1144.61 1197.09 1147.1 C 1212.54 1149.34 1220.69 1162.7 1217.77 1177.56 C 1216.32 1184.95 1204.25 1194.47 1198.37 1198.75 C 1175.73 1213.7 1147.24 1221.71 1119.68 1214.81 C 1098.6 1209.53 1053.04 1187.52 1068.56 1158.11 C 1071.89 1151.79 1080.4 1148.75 1087.07 1147.18 z"/>
<path transform="translate(0,0)" fill="rgb(0,53,149)" d="M 782.483 1147.08 C 801.93 1146.08 806.881 1159.05 823.189 1164.06 C 833.375 1165.9 850.689 1166.65 859.321 1160.62 C 873.87 1150.46 892.441 1138.46 907.301 1155.56 C 921.236 1171.59 908.294 1187.83 894.654 1197.96 C 862.723 1218.48 829.537 1224.89 794.045 1206.96 C 776.984 1198.33 752.93 1182.29 764.175 1157.99 C 767.61 1150.57 775.043 1148.9 782.483 1147.08 z"/>
<path transform="translate(0,0)" fill="rgb(18,73,180)" d="M 999.299 240.139 C 1015.4 238.816 1026.02 241.294 1040.34 248.943 C 1058.54 258.661 1075.66 270.471 1092.87 281.841 C 1118.52 298.447 1143.87 315.522 1168.9 333.056 C 1208.01 359.913 1246.58 387.551 1284.59 415.954 C 1310.67 435.155 1349.88 463.141 1370.68 486.607 C 1326.89 481.466 1286.2 472.107 1243.44 461.642 C 1211.98 453.944 1188.7 441.38 1154.83 445.394 C 1143.27 452.746 1130.02 469.62 1136.03 484.231 C 1142.19 499.178 1151.23 515.185 1158.9 529.641 C 1183.05 575.192 1209.7 619.52 1233.27 665.37 C 1242.84 683.914 1251.9 697.307 1258.88 717.558 C 1248.36 714.459 1224.22 711.909 1212.77 710.854 C 1202.56 708.877 1168.91 706.902 1155.81 705.521 C 1072.09 696.665 987.788 694.544 903.724 699.177 C 868.189 701.205 833.598 705.156 798.259 708.388 C 763.668 711.552 724.192 713.567 690.508 722.63 C 705.806 686.532 734.726 638.175 754.091 602.416 C 794.035 528.36 835.705 455.247 879.066 383.139 C 905.818 338.46 946.013 252.572 999.299 240.139 z"/>
<path transform="translate(0,0)" fill="rgb(254,254,254)" d="M 931.886 764.545 C 958.548 763.494 985.467 764.194 1012.07 763.9 C 1074.78 763.208 1136.69 768.191 1198.69 777.654 C 1233.99 783.042 1330.58 789.683 1341.72 831.573 C 1368.04 930.504 1247.81 992.147 1172.05 931.671 C 1162.61 924.129 1154.36 913.808 1143.66 908.046 C 1124.83 898.18 1111.98 920.643 1102.4 933.033 C 1084.62 956.428 1060.48 968.913 1033.28 978.575 C 1019.27 983.389 1004.54 985.806 989.713 985.725 C 952.124 985.593 910.751 967.967 884.078 941.107 C 872.453 929.401 858.581 899.89 838.622 906.448 C 830.81 909.015 821.555 917.958 815.523 923.614 C 794.864 942.985 767.103 955.132 738.674 955.706 C 711.786 956.709 680.186 943.896 660.834 925.353 C 642.573 907.732 632.057 883.583 631.594 858.212 C 631.244 834.25 642.568 812.536 665.157 801.397 C 673.808 797.131 687.032 795.393 696.561 792.77 C 727.363 783.254 758.336 781.77 789.606 777.011 C 838.141 769.624 882.844 765.52 931.886 764.545 z"/>
<path transform="translate(0,0)" fill="rgb(254,254,254)" d="M 983.637 1507.42 C 1015.95 1505.79 1050.31 1515.3 1076.79 1533.32 C 1128.52 1568.53 1131.17 1631.74 1104.32 1683.7 C 1095.41 1700.92 1084.28 1713.61 1073.88 1729.42 C 1064.82 1743.46 1056.9 1758.2 1050.19 1773.51 C 1038.08 1801.28 1032.62 1881.25 995.52 1887.52 C 986.509 1887.41 980.586 1887.85 973.504 1881.18 C 947.357 1856.53 945.965 1811.99 933.89 1779.91 C 912.853 1723.07 860.794 1691.6 857.679 1626.95 C 853.948 1549.52 913.454 1511.65 983.637 1507.42 z"/>
<path transform="translate(0,0)" fill="rgb(254,254,254)" d="M 1345.61 979.213 C 1418.87 972.855 1577.76 1076.67 1590.69 1150.76 C 1581.41 1154.77 1572.9 1157.89 1563.44 1161.32 C 1540.27 1166.78 1515.87 1166.62 1492.14 1166.49 C 1428.41 1166.12 1368.68 1134.01 1329.95 1083.22 C 1329.68 1057.28 1325.7 1017.53 1323.84 990.614 C 1331.77 984.879 1335.87 981.713 1345.61 979.213 z"/>
<path transform="translate(0,0)" fill="rgb(254,254,254)" d="M 613.154 979.39 C 631.926 976.847 639.895 978.85 654.463 990.268 C 652.614 1018.46 648.065 1047.08 646.769 1075.57 C 646.021 1091.99 618.078 1114.98 605.653 1124.67 C 555.482 1163.81 494.154 1172.24 432.227 1164.07 C 414.739 1161.36 403.811 1156.52 388.042 1149.17 C 395.848 1125.28 401.186 1116.71 416.933 1096.45 C 455.352 1047.01 551.776 985.712 613.154 979.39 z"/>
</svg>