<?xml version="1.0" encoding="utf-8" ?><svg xmlns="http://www.w3.org/2000/svg" xmlns:xlink="http://www.w3.org/1999/xlink" width="531" height="544" viewBox="0 0 531 544" xmlns:c2pa="http://c2pa.org/manifest"><metadata><c2pa:manifest>AAAk4Wp1bWIAAAAeanVtZGMycGEAEQAQgAAAqgA4m3EDYzJwYQAAAA6CanVtYgAAAEdqdW1kYzJtYQARABCAAACqADibcQN1cm46YzJwYToyODMyYmEyZi1hNGM4LTQ2ZmQtYTg3Mi1mZmNmN2NkMTdlMjcAAAADs2p1bWIAAAApanVtZGMyYXMAEQAQgAAAqgA4m3EDYzJwYS5hc3NlcnRpb25zAAAAAMlqdW1iAAAARGp1bWRjYm9yABEAEIAAAKoAOJtxE2MycGEuaW5ncmVkaWVudC52MwAAAAAYYzJzaMGK/1ucQCoNKxPu7cgcZa4AAAB9Y2JvcqRscmVsYXRpb25zaGlwaHBhcmVudE9maGRjOnRpdGxlZnNvdXJjZWlkYzpmb3JtYXRqaW1hZ2Uvd2VicGppbnN0YW5jZUlEeCx4bXA6aWlkOmRkMmI5MTcxLWYzMGEtNDU5NS04Yjg1LTMxYmUwYmM2MzhmOAAAAfVqdW1iAAAAQWp1bWRjYm9yABEAEIAAAKoAOJtxE2MycGEuYWN0aW9ucy52MgAAAAAYYzJzaB/qvmS2o48lhFA1sREbpR4AAAGsY2JvcqFnYWN0aW9uc4KiZmFjdGlvbmtjMnBhLm9wZW5lZGpwYXJhbWV0ZXJzoWtpbmdyZWRpZW50c4GiY3VybHgtc2VsZiNqdW1iZj1jMnBhLmFzc2VydGlvbnMvYzJwYS5pbmdyZWRpZW50LnYzZGhhc2hYIMMNXy+xXYv9+e5A2mZ4wpj5OzjJHh9FPqO1UcAbQFVQpGZhY3Rpb25rYzJwYS5lZGl0ZWRqcGFyYW1ldGVyc6FraW5ncmVkaWVudHOBomN1cmx4LXNlbGYjanVtYmY9YzJwYS5hc3NlcnRpb25zL2MycGEuaW5ncmVkaWVudC52M2RoYXNoWCDDDV8vsV2L/fnuQNpmeMKY+Ts4yR4fRT6jtVHAG0BVUHFkaWdpdGFsU291cmNlVHlwZXhTaHR0cDovL2N2LmlwdGMub3JnL25ld3Njb2Rlcy9kaWdpdGFsc291cmNldHlwZS9jb21wb3NpdGVXaXRoVHJhaW5lZEFsZ29yaXRobWljTWVkaWFrZGVzY3JpcHRpb252Q3JlYXRlZCBieSBSZWNyYWZ0IEFJLgAAAMRqdW1iAAAAQGp1bWRjYm9yABEAEIAAAKoAOJtxE2MycGEuaGFzaC5kYXRhAAAAABhjMnNoVqj+PTM3ul53Y6YrF1G4kQAAAHxjYm9ypWpleGNsdXNpb25zgaJlc3RhcnQY12ZsZW5ndGgZE4xkbmFtZW5qdW1iZiBtYW5pZmVzdGNhbGdmc2hhMjU2ZGhhc2hYIFyhmP32FrtXJcnyZ3lywZHr+fpZrGZS2b+CF2HMj3CpY3BhZEkAAAAAAAAAAAAAAAKkanVtYgAAACdqdW1kYzJjbAARABCAAACqADibcQNjMnBhLmNsYWltLnYyAAAAAnVjYm9yp2ppbnN0YW5jZUlEeCx4bXA6aWlkOmQ0NjFjYjk1LTE4NjgtNDlhNy04Y2M0LTk2NTdiOTI1ZWRhMHRjbGFpbV9nZW5lcmF0b3JfaW5mb6NkbmFtZWpyZWNyYWZ0LmFpZ3ZlcnNpb254KDgxY2U4MmUyYzVjM2NiZmJlOGM2ZmJlMTc5ZDVmOGQ5MWM0MDljZTF3b3JnLmNvbnRlbnRhdXRoLmMycGFfcnNmMC45MC43aXNpZ25hdHVyZXhNc2VsZiNqdW1iZj0vYzJwYS91cm46YzJwYToyODMyYmEyZi1hNGM4LTQ2ZmQtYTg3Mi1mZmNmN2NkMTdlMjcvYzJwYS5zaWduYXR1cmVyY3JlYXRlZF9hc3NlcnRpb25zgqJjdXJseCpzZWxmI2p1bWJmPWMycGEuYXNzZXJ0aW9ucy9jMnBhLmFjdGlvbnMudjJkaGFzaFggwxLETZOJ9nT9ecd7o2sESpjsqQiQ1hKXvWZ0Q6jzQrKiY3VybHgpc2VsZiNqdW1iZj1jMnBhLmFzc2VydGlvbnMvYzJwYS5oYXNoLmRhdGFkaGFzaFgg7IiEj2itm2lPSYWw/YxEDCKqEnOnn8bQi6YRZIHNZpNzZ2F0aGVyZWRfYXNzZXJ0aW9uc4GiY3VybHgtc2VsZiNqdW1iZj1jMnBhLmFzc2VydGlvbnMvYzJwYS5pbmdyZWRpZW50LnYzZGhhc2hYIMMNXy+xXYv9+e5A2mZ4wpj5OzjJHh9FPqO1UcAbQFVQaGRjOnRpdGxleBpSZWNyYWZ0IEFJIEdlbmVyYXRlZCBJbWFnZWNhbGdmc2hhMjU2AAAH3Gp1bWIAAAAoanVtZGMyY3MAEQAQgAAAqgA4m3EDYzJwYS5zaWduYXR1cmUAAAAHrGNib3LShFkDsKIBJhghglkB5zCCAeMwggGJoAMCAQICCQC33lpjQ1FuejAKBggqhkjOPQQDAjBAMR8wHQYDVQQDDBZSZWNyYWZ0IFN0YWdpbmcgRGV2IENBMRAwDgYDVQQKDAdSZWNyYWZ0MQswCQYDVQQGEwJVUzAeFw0yNjA2MTIxOTQzNTBaFw0yNzA2MTIxOTQzNTBaMDcxCzAJBgNVBAYTAlVTMRMwEQYDVQQKEwpSZWNyYWZ0IEFJMRMwEQYDVQQDEwpyZWNyYWZ0LmFpMFkwEwYHKoZIzj0CAQYIKoZIzj0DAQcDQgAESmk1WwArIPw3hty3jsWHSA/1QOhBRu9xOjpJ2/iiIghScoEVM+Lnjds/7dqmG+giFL0vEb4DoogpX6KrGLcPNaN1MHMwDAYDVR0TAQH/BAIwADAOBgNVHQ8BAf8EBAMCBsAwEwYDVR0lBAwwCgYIKwYBBQUHAwQwHQYDVR0OBBYEFC8x6QXp/eki9cuCDx2vDJDLIV39MB8GA1UdIwQYMBaAFAILKjgayqqXSv/5v5MWaO2UeHm3MAoGCCqGSM49BAMCA0gAMEUCIFPISltGl775PEkIFRTZGsevWJvWnvBrE9kWU0MPgedQAiEAtA+AZBKEQ+DdK9mUZDctB2Wlt1iAsv0GRjfeYpReMsxZAb0wggG5MIIBX6ADAgECAgkAnPloO0+gE28wCgYIKoZIzj0EAwIwQDEfMB0GA1UEAwwWUmVjcmFmdCBTdGFnaW5nIERldiBDQTEQMA4GA1UECgwHUmVjcmFmdDELMAkGA1UEBhMCVVMwHhcNMjYwNjEyMTk0MDE2WhcNMjgwNjExMTk0MDE2WjBAMR8wHQYDVQQDDBZSZWNyYWZ0IFN0YWdpbmcgRGV2IENBMRAwDgYDVQQKDAdSZWNyYWZ0MQswCQYDVQQGEwJVUzBZMBMGByqGSM49AgEGCCqGSM49AwEHA0IABEPSEAZXFWymij2K0EnzoS/9NLO8VAwu0YpyLizvyNZPfcvcoeqFhfZD8Wj/rcdb9T3ji98q1arie99B9GRog8qjQjBAMA8GA1UdEwEB/wQFMAMBAf8wDgYDVR0PAQH/BAQDAgGGMB0GA1UdDgQWBBQCCyo4Gsqql0r/+b+TFmjtlHh5tzAKBggqhkjOPQQDAgNIADBFAiBUMDSJi5WA3kIY4BfmYqk24HLs0qpjicN0NpUP4bvNxQIhAPTvHC5v8X6FS6geI7XW7h84t1i/qdkTfg0RpMKWLMFboWNwYWRZA6QAAAAAAAAAAAAAAAAAAAAAAAAAAAAAAAAAAAAAAAAAAAAAAAAAAAAAAAAAAAAAAAAAAAAAAAAAAAAAAAAAAAAAAAAAAAAAAAAAAAAAAAAAAAAAAAAAAAAAAAAAAAAAAAAAAAAAAAAAAAAAAAAAAAAAAAAAAAAAAAAAAAAAAAAAAAAAAAAAAAAAAAAAAAAAAAAAAAAAAAAAAAAAAAAAAAAAAAAAAAAAAAAAAAAAAAAAAAAAAAAAAAAAAAAAAAAAAAAAAAAAAAAAAAAAAAAAAAAAAAAAAAAAAAAAAAAAAAAAAAAAAAAAAAAAAAAAAAAAAAAAAAAAAAAAAAAAAAAAAAAAAAAAAAAAAAAAAAAAAAAAAAAAAAAAAAAAAAAAAAAAAAAAAAAAAAAAAAAAAAAAAAAAAAAAAAAAAAAAAAAAAAAAAAAAAAAAAAAAAAAAAAAAAAAAAAAAAAAAAAAAAAAAAAAAAAAAAAAAAAAAAAAAAAAAAAAAAAAAAAAAAAAAAAAAAAAAAAAAAAAAAAAAAAAAAAAAAAAAAAAAAAAAAAAAAAAAAAAAAAAAAAAAAAAAAAAAAAAAAAAAAAAAAAAAAAAAAAAAAAAAAAAAAAAAAAAAAAAAAAAAAAAAAAAAAAAAAAAAAAAAAAAAAAAAAAAAAAAAAAAAAAAAAAAAAAAAAAAAAAAAAAAAAAAAAAAAAAAAAAAAAAAAAAAAAAAAAAAAAAAAAAAAAAAAAAAAAAAAAAAAAAAAAAAAAAAAAAAAAAAAAAAAAAAAAAAAAAAAAAAAAAAAAAAAAAAAAAAAAAAAAAAAAAAAAAAAAAAAAAAAAAAAAAAAAAAAAAAAAAAAAAAAAAAAAAAAAAAAAAAAAAAAAAAAAAAAAAAAAAAAAAAAAAAAAAAAAAAAAAAAAAAAAAAAAAAAAAAAAAAAAAAAAAAAAAAAAAAAAAAAAAAAAAAAAAAAAAAAAAAAAAAAAAAAAAAAAAAAAAAAAAAAAAAAAAAAAAAAAAAAAAAAAAAAAAAAAAAAAAAAAAAAAAAAAAAAAAAAAAAAAAAAAAAAAAAAAAAAAAAAAAAAAAAAAAAAAAAAAAAAAAAAAAAAAAAAAAAAAAAAAAAAAAAAAAAAAAAAAAAAAAAAAAAAAAAAAAAAAAAAAAAAAAAAAAAAAAAAAAAAAAAAAAAAAAAAAAAAAAAAAAAAAAAAAAAAAAAAAAAAAAAAAAAAAAAAAAAAAAAAAAAAAAAAAAAAAAAAAAAAAPZYQG3ZDCABG6NvNHcM4+BPHm46vCPoDNbHfMs6CP9brD+QtkZ7EMwiSSAgb+2LXFQQpuh51QyjnCswE1ZE9lvkbLUAABY5anVtYgAAAEdqdW1kYzJtYQARABCAAACqADibcQN1cm46YzJwYTphOTljZTg5ZC1iYzg2LTRhYTktYjVkYy1jNDhhYjUzNjY5MDYAAAALeGp1bWIAAAApanVtZGMyYXMAEQAQgAAAqgA4m3EDYzJwYS5hc3NlcnRpb25zAAAACJVqdW1iAAAARGp1bWRjYm9yABEAEIAAAKoAOJtxE2MycGEuaW5ncmVkaWVudC52MwAAAAAYYzJzaEzfNd8MFa+HvkxnZGuyMcoAAAhJY2JvcqdscmVsYXRpb25zaGlwaHBhcmVudE9maGRjOnRpdGxlZnNvdXJjZWlkYzpmb3JtYXRtaW1hZ2Uvc3ZnK3htbHF2YWxpZGF0aW9uUmVzdWx0c6JuYWN0aXZlTWFuaWZlc3SjZ3N1Y2Nlc3OGo2Rjb2RleB1jbGFpbVNpZ25hdHVyZS5pbnNpZGVWYWxpZGl0eWN1cmx4TXNlbGYjanVtYmY9L2MycGEvdXJuOmMycGE6MjgzMmJhMmYtYTRjOC00NmZkLWE4NzItZmZjZjdjZDE3ZTI3L2MycGEuc2lnbmF0dXJla2V4cGxhbmF0aW9udWNsYWltIHNpZ25hdHVyZSB2YWxpZKNkY29kZXgYY2xhaW1TaWduYXR1cmUudmFsaWRhdGVkY3VybHhNc2VsZiNqdW1iZj0vYzJwYS91cm46YzJwYToyODMyYmEyZi1hNGM4LTQ2ZmQtYTg3Mi1mZmNmN2NkMTdlMjcvYzJwYS5zaWduYXR1cmVrZXhwbGFuYXRpb251Y2xhaW0gc2lnbmF0dXJlIHZhbGlko2Rjb2RleBlhc3NlcnRpb24uaGFzaGVkVVJJLm1hdGNoY3VybHhec2VsZiNqdW1iZj0vYzJwYS91cm46YzJwYToyODMyYmEyZi1hNGM4LTQ2ZmQtYTg3Mi1mZmNmN2NkMTdlMjcvYzJwYS5hc3NlcnRpb25zL2MycGEuYWN0aW9ucy52MmtleHBsYW5hdGlvbng+aGFzaGVkIHVyaSBtYXRjaGVkOiBzZWxmI2p1bWJmPWMycGEuYXNzZXJ0aW9ucy9jMnBhLmFjdGlvbnMudjKjZGNvZGV4GWFzc2VydGlvbi5oYXNoZWRVUkkubWF0Y2hjdXJseF1zZWxmI2p1bWJmPS9jMnBhL3VybjpjMnBhOjI4MzJiYTJmLWE0YzgtNDZmZC1hODcyLWZmY2Y3Y2QxN2UyNy9jMnBhLmFzc2VydGlvbnMvYzJwYS5oYXNoLmRhdGFrZXhwbGFuYXRpb254PWhhc2hlZCB1cmkgbWF0Y2hlZDogc2VsZiNqdW1iZj1jMnBhLmFzc2VydGlvbnMvYzJwYS5oYXNoLmRhdGGjZGNvZGV4GWFzc2VydGlvbi5oYXNoZWRVUkkubWF0Y2hjdXJseGFzZWxmI2p1bWJmPS9jMnBhL3VybjpjMnBhOjI4MzJiYTJmLWE0YzgtNDZmZC1hODcyLWZmY2Y3Y2QxN2UyNy9jMnBhLmFzc2VydGlvbnMvYzJwYS5pbmdyZWRpZW50LnYza2V4cGxhbmF0aW9ueEFoYXNoZWQgdXJpIG1hdGNoZWQ6IHNlbGYjanVtYmY9YzJwYS5hc3NlcnRpb25zL2MycGEuaW5ncmVkaWVudC52M6NkY29kZXgYYXNzZXJ0aW9uLmRhdGFIYXNoLm1hdGNoY3VybHhdc2VsZiNqdW1iZj0vYzJwYS91cm46YzJwYToyODMyYmEyZi1hNGM4LTQ2ZmQtYTg3Mi1mZmNmN2NkMTdlMjcvYzJwYS5hc3NlcnRpb25zL2MycGEuaGFzaC5kYXRha2V4cGxhbmF0aW9ub2RhdGEgaGFzaCB2YWxpZG1pbmZvcm1hdGlvbmFsgGdmYWlsdXJlgaNkY29kZXgbc2lnbmluZ0NyZWRlbnRpYWwudW50cnVzdGVkY3VybHhNc2VsZiNqdW1iZj0vYzJwYS91cm46YzJwYToyODMyYmEyZi1hNGM4LTQ2ZmQtYTg3Mi1mZmNmN2NkMTdlMjcvYzJwYS5zaWduYXR1cmVrZXhwbGFuYXRpb254HXNpZ25pbmcgY2VydGlmaWNhdGUgdW50cnVzdGVkcGluZ3JlZGllbnREZWx0YXOBonZpbmdyZWRpZW50QXNzZXJ0aW9uVVJJeGFzZWxmI2p1bWJmPS9jMnBhL3VybjpjMnBhOjI4MzJiYTJmLWE0YzgtNDZmZC1hODcyLWZmY2Y3Y2QxN2UyNy9jMnBhLmFzc2VydGlvbnMvYzJwYS5pbmdyZWRpZW50LnYzcHZhbGlkYXRpb25EZWx0YXOjZ3N1Y2Nlc3OAbWluZm9ybWF0aW9uYWyBo2Rjb2RleBxpbmdyZWRpZW50LnVua25vd25Qcm92ZW5hbmNlY3VybHhhc2VsZiNqdW1iZj0vYzJwYS91cm46YzJwYToyODMyYmEyZi1hNGM4LTQ2ZmQtYTg3Mi1mZmNmN2NkMTdlMjcvYzJwYS5hc3NlcnRpb25zL2MycGEuaW5ncmVkaWVudC52M2tleHBsYW5hdGlvbngrc291cmNlOiBpbmdyZWRpZW50IGRvZXMgbm90IGhhdmUgcHJvdmVuYW5jZWdmYWlsdXJlgGppbnN0YW5jZUlEeCx4bXA6aWlkOjA5OGRmYjUzLWI1NWQtNDk5Ny04MzcwLWE0ZjZkZTNkMDI3ZG5hY3RpdmVNYW5pZmVzdKNjdXJseD5zZWxmI2p1bWJmPS9jMnBhL3VybjpjMnBhOjI4MzJiYTJmLWE0YzgtNDZmZC1hODcyLWZmY2Y3Y2QxN2UyN2NhbGdmc2hhMjU2ZGhhc2hYIPJbWMHrSoCzY+b3jexz9ZqiEtdLGnw/2WqJ6VumgjnZbmNsYWltU2lnbmF0dXJlo2N1cmx4TXNlbGYjanVtYmY9L2MycGEvdXJuOmMycGE6MjgzMmJhMmYtYTRjOC00NmZkLWE4NzItZmZjZjdjZDE3ZTI3L2MycGEuc2lnbmF0dXJlY2FsZ2ZzaGEyNTZkaGFzaFggDxV3sGGtMnxTqmopgIVfjMfUBISwHA+fVMarn3dgDIMAAAHuanVtYgAAAEFqdW1kY2JvcgARABCAAACqADibcRNjMnBhLmFjdGlvbnMudjIAAAAAGGMyc2jI6TV5Y5YRBYzq6MoQCdeNAAABpWNib3KhZ2FjdGlvbnOComZhY3Rpb25rYzJwYS5vcGVuZWRqcGFyYW1ldGVyc6FraW5ncmVkaWVudHOBomN1cmx4LXNlbGYjanVtYmY9YzJwYS5hc3NlcnRpb25zL2MycGEuaW5ncmVkaWVudC52M2RoYXNoWCA4iOXWGkOwzWt8ttMfh61zkRNIXkSlYxbCgD+2LaWFTqRmYWN0aW9ubGMycGEuY3JlYXRlZGpwYXJhbWV0ZXJzoWtpbmdyZWRpZW50c4GiY3VybHgtc2VsZiNqdW1iZj1jMnBhLmFzc2VydGlvbnMvYzJwYS5pbmdyZWRpZW50LnYzZGhhc2hYIDiI5dYaQ7DNa3y20x+HrXORE0heRKVjFsKAP7YtpYVOcWRpZ2l0YWxTb3VyY2VUeXBleEFodHRwOi8vY3YuaXB0Yy5vcmcvbmV3c2NvZGVzL2RpZ2l0YWxzb3VyY2V0eXBlL2NvbXBvc2l0ZVN5bnRoZXRpY2tkZXNjcmlwdGlvbngfQ29tcG9zZWQgaW4gdGhlIFJlY3JhZnQgZWRpdG9yLgAAAMRqdW1iAAAAQGp1bWRjYm9yABEAEIAAAKoAOJtxE2MycGEuaGFzaC5kYXRhAAAAABhjMnNoq7XDHIWG76tElTpzahDf1QAAAHxjYm9ypWpleGNsdXNpb25zgaJlc3RhcnQY6GZsZW5ndGgZMSxkbmFtZW5qdW1iZiBtYW5pZmVzdGNhbGdmc2hhMjU2ZGhhc2hYIEqjNgq/tix0ZU5qx3Id7+MwAnaLZ+74hzNH9sBMghLnY3BhZEkAAAAAAAAAAAAAAAKWanVtYgAAACdqdW1kYzJjbAARABCAAACqADibcQNjMnBhLmNsYWltLnYyAAAAAmdjYm9yp2ppbnN0YW5jZUlEeCx4bXA6aWlkOmUxYTgxYTQ1LWJkMDAtNGQ5NC1iODE0LTdjOTczMTdlYWEwZHRjbGFpbV9nZW5lcmF0b3JfaW5mb6NkbmFtZWpyZWNyYWZ0LmFpZ3ZlcnNpb254KDgxY2U4MmUyYzVjM2NiZmJlOGM2ZmJlMTc5ZDVmOGQ5MWM0MDljZTF3b3JnLmNvbnRlbnRhdXRoLmMycGFfcnNmMC45MC43aXNpZ25hdHVyZXhNc2VsZiNqdW1iZj0vYzJwYS91cm46YzJwYTphOTljZTg5ZC1iYzg2LTRhYTktYjVkYy1jNDhhYjUzNjY5MDYvYzJwYS5zaWduYXR1cmVyY3JlYXRlZF9hc3NlcnRpb25zgqJjdXJseCpzZWxmI2p1bWJmPWMycGEuYXNzZXJ0aW9ucy9jMnBhLmFjdGlvbnMudjJkaGFzaFggV+mggrj0QKvK3qPMZAShbW3JAVvK7hf/YHkP152pY++iY3VybHgpc2VsZiNqdW1iZj1jMnBhLmFzc2VydGlvbnMvYzJwYS5oYXNoLmRhdGFkaGFzaFggqZc6oQkxSqymSYFgWhZYEomuljxAl0vETDa8EELTILJzZ2F0aGVyZWRfYXNzZXJ0aW9uc4GiY3VybHgtc2VsZiNqdW1iZj1jMnBhLmFzc2VydGlvbnMvYzJwYS5pbmdyZWRpZW50LnYzZGhhc2hYIDiI5dYaQ7DNa3y20x+HrXORE0heRKVjFsKAP7YtpYVOaGRjOnRpdGxlbVJlY3JhZnQgSW1hZ2VjYWxnZnNoYTI1NgAAB9xqdW1iAAAAKGp1bWRjMmNzABEAEIAAAKoAOJtxA2MycGEuc2lnbmF0dXJlAAAAB6xjYm9y0oRZA7CiASYYIYJZAecwggHjMIIBiaADAgECAgkAt95aY0NRbnowCgYIKoZIzj0EAwIwQDEfMB0GA1UEAwwWUmVjcmFmdCBTdGFnaW5nIERldiBDQTEQMA4GA1UECgwHUmVjcmFmdDELMAkGA1UEBhMCVVMwHhcNMjYwNjEyMTk0MzUwWhcNMjcwNjEyMTk0MzUwWjA3MQswCQYDVQQGEwJVUzETMBEGA1UEChMKUmVjcmFmdCBBSTETMBEGA1UEAxMKcmVjcmFmdC5haTBZMBMGByqGSM49AgEGCCqGSM49AwEHA0IABEppNVsAKyD8N4bct47Fh0gP9UDoQUbvcTo6Sdv4oiIIUnKBFTPi543bP+3aphvoIhS9LxG+A6KIKV+iqxi3DzWjdTBzMAwGA1UdEwEB/wQCMAAwDgYDVR0PAQH/BAQDAgbAMBMGA1UdJQQMMAoGCCsGAQUFBwMEMB0GA1UdDgQWBBQvMekF6f3pIvXLgg8drwyQyyFd/TAfBgNVHSMEGDAWgBQCCyo4Gsqql0r/+b+TFmjtlHh5tzAKBggqhkjOPQQDAgNIADBFAiBTyEpbRpe++TxJCBUU2RrHr1ib1p7waxPZFlNDD4HnUAIhALQPgGQShEPg3SvZlGQ3LQdlpbdYgLL9BkY33mKUXjLMWQG9MIIBuTCCAV+gAwIBAgIJAJz5aDtPoBNvMAoGCCqGSM49BAMCMEAxHzAdBgNVBAMMFlJlY3JhZnQgU3RhZ2luZyBEZXYgQ0ExEDAOBgNVBAoMB1JlY3JhZnQxCzAJBgNVBAYTAlVTMB4XDTI2MDYxMjE5NDAxNloXDTI4MDYxMTE5NDAxNlowQDEfMB0GA1UEAwwWUmVjcmFmdCBTdGFnaW5nIERldiBDQTEQMA4GA1UECgwHUmVjcmFmdDELMAkGA1UEBhMCVVMwWTATBgcqhkjOPQIBBggqhkjOPQMBBwNCAARD0hAGVxVspoo9itBJ86Ev/TSzvFQMLtGKci4s78jWT33L3KHqhYX2Q/Fo/63HW/U944vfKtWq4nvfQfRkaIPKo0IwQDAPBgNVHRMBAf8EBTADAQH/MA4GA1UdDwEB/wQEAwIBhjAdBgNVHQ4EFgQUAgsqOBrKqpdK//m/kxZo7ZR4ebcwCgYIKoZIzj0EAwIDSAAwRQIgVDA0iYuVgN5CGOAX5mKpNuBy7NKqY4nDdDaVD+G7zcUCIQD07xwub/F+hUuoHiO11u4fOLdYv6nZE34NEaTClizBW6FjcGFkWQOkAAAAAAAAAAAAAAAAAAAAAAAAAAAAAAAAAAAAAAAAAAAAAAAAAAAAAAAAAAAAAAAAAAAAAAAAAAAAAAAAAAAAAAAAAAAAAAAAAAAAAAAAAAAAAAAAAAAAAAAAAAAAAAAAAAAAAAAAAAAAAAAAAAAAAAAAAAAAAAAAAAAAAAAAAAAAAAAAAAAAAAAAAAAAAAAAAAAAAAAAAAAAAAAAAAAAAAAAAAAAAAAAAAAAAAAAAAAAAAAAAAAAAAAAAAAAAAAAAAAAAAAAAAAAAAAAAAAAAAAAAAAAAAAAAAAAAAAAAAAAAAAAAAAAAAAAAAAAAAAAAAAAAAAAAAAAAAAAAAAAAAAAAAAAAAAAAAAAAAAAAAAAAAAAAAAAAAAAAAAAAAAAAAAAAAAAAAAAAAAAAAAAAAAAAAAAAAAAAAAAAAAAAAAAAAAAAAAAAAAAAAAAAAAAAAAAAAAAAAAAAAAAAAAAAAAAAAAAAAAAAAAAAAAAAAAAAAAAAAAAAAAAAAAAAAAAAAAAAAAAAAAAAAAAAAAAAAAAAAAAAAAAAAAAAAAAAAAAAAAAAAAAAAAAAAAAAAAAAAAAAAAAAAAAAAAAAAAAAAAAAAAAAAAAAAAAAAAAAAAAAAAAAAAAAAAAAAAAAAAAAAAAAAAAAAAAAAAAAAAAAAAAAAAAAAAAAAAAAAAAAAAAAAAAAAAAAAAAAAAAAAAAAAAAAAAAAAAAAAAAAAAAAAAAAAAAAAAAAAAAAAAAAAAAAAAAAAAAAAAAAAAAAAAAAAAAAAAAAAAAAAAAAAAAAAAAAAAAAAAAAAAAAAAAAAAAAAAAAAAAAAAAAAAAAAAAAAAAAAAAAAAAAAAAAAAAAAAAAAAAAAAAAAAAAAAAAAAAAAAAAAAAAAAAAAAAAAAAAAAAAAAAAAAAAAAAAAAAAAAAAAAAAAAAAAAAAAAAAAAAAAAAAAAAAAAAAAAAAAAAAAAAAAAAAAAAAAAAAAAAAAAAAAAAAAAAAAAAAAAAAAAAAAAAAAAAAAAAAAAAAAAAAAAAAAAAAAAAAAAAAAAAAAAAAAAAAAAAAAAAAAAAAAAAAAAAAAAAAAAAAAAAAAAAAAAAAAAAAAAAAAAAAAAAAAAAAAAAAAAAAAAAAAAAAAAAAAAAAAAAAAAAAAAAAAAAAAAAAAAAAAAAAAAAAAAAAAAAAAAAAAAAAAAAAAAAAAAAAAAAAAAAAAAAAAAAAAAAAAAAAAAAAAAAAAAAAAAAAAAAAAD2WECkjPUlphXc4AMBOvAjdvrkHNQp68FnRqsUmqeMlPH9CaRaN2RwjQgjaX/FsD15gO4KwiRaO50AXcyDADNcgEw9</c2pa:manifest></metadata><path fill="#0D3172" transform="scale(2.62802 2.62802)" d="M98.6505 60.0444C101.167 59.8944 103.676 60.4584 105.886 61.6716C109.071 63.4244 110.947 66.0653 111.937 69.502C120.033 69.2546 128.263 69.6865 136.293 69.6146L151.516 69.4596C154.739 69.4505 159.258 69.0315 162.087 70.515C163.345 72.326 168.236 84.2037 169.491 87.0124C175.486 100.587 181.602 114.107 187.84 127.572C189.694 131.672 190.116 132.568 188.955 137.106C181.139 167.679 132.757 164.32 130.288 132.303C130.218 131.389 135.088 121.238 135.789 119.661L148.465 91.0249C150.731 85.9189 153.372 80.4733 155.41 75.3302C153.35 75.5927 148.667 75.2205 146.22 75.2826C134.956 75.5685 123.484 75.3661 112.199 75.2067C111.179 78.7593 110.227 79.9221 107.507 82.3705C107.409 89.9802 108.079 98.0238 108.43 105.626L110.052 142.773L110.965 161.639C111.13 164.798 111.462 167.893 111.507 171.063C112.868 170.847 114.942 170.694 116.324 170.803C122.319 171.278 130.488 169.403 135.352 173.646C138.506 176.418 140.418 180.338 140.662 184.529C140.81 186.979 139.76 188.772 137.155 188.977C125.613 189.889 113.937 188.796 102.403 189.195C99.7633 189.257 96.9228 189.388 94.2707 189.325C84.0115 189.082 73.7333 189.33 63.4858 189.075C62.9193 189.013 60.8241 188.894 60.558 188.34C58.4464 183.946 60.758 177.53 63.7567 174.662C65.3557 173.121 67.3182 172.009 69.4619 171.429C71.7564 170.825 85.5666 170.73 88.4914 170.796C88.4543 168.115 88.8542 164.502 89.0451 161.723C89.4643 155.82 89.8113 149.912 90.0858 144.001L91.9241 105.402C92.2825 97.4353 92.1016 90.5492 92.9532 82.4811C90.3196 80.3884 88.8309 78.6506 88.1283 75.3183C86.0029 75.5607 83.6414 75.4191 81.4918 75.4613C75.1277 75.4762 68.803 75.2548 62.4354 75.2305C56.9124 75.2095 49.8957 75.9884 44.5 75.1823C46.0324 78.4305 47.5124 82.1144 48.9919 85.447L60.3092 110.852C63.259 117.429 67.0126 124.704 69.3435 131.482C70.1782 135.295 68.0121 141.31 66.2131 144.409C57.8321 158.843 37.3601 162.023 23.5101 153.794C17.4638 150.263 13.09 144.451 11.3719 137.663C10.9228 135.887 10.3052 132.941 10.8685 131.194C12.0142 127.64 13.975 123.876 15.523 120.441L25.8834 97.592L33.4025 80.6843C34.525 78.0945 36.6616 72.7058 38.0124 70.4445C39.0093 69.5507 42.6409 69.4764 43.9654 69.572C50.3386 70.0322 56.753 69.2978 63.0961 69.4123C71.4441 69.5629 79.5799 69.6567 87.9322 69.4837C89.5645 64.0367 93.2585 61.1932 98.6505 60.0444ZM18.1342 128.974C25.4371 128.837 32.96 129.071 40.3125 129.006C47.452 128.983 54.5649 129.134 61.6958 128.853C60.1482 125.08 40.532 80.3205 40.3805 80.1906C39.0199 81.804 35.9561 89.4578 34.9484 91.7774L27.1204 109.597C24.2372 116.04 20.8992 122.478 18.1342 128.974ZM16.416 134.733C16.8965 136.328 17.369 137.767 18.0139 139.309C24.1661 154.021 46.4306 157.077 57.463 146.242C61.1847 142.402 62.3066 139.702 63.8109 134.764L16.416 134.733ZM183.833 134.671L152.252 134.669C149.267 134.68 139.212 134.936 136.661 134.596C136.179 136.404 138.367 140.407 139.301 142.039C141.877 146.537 147.329 150.368 152.315 151.632C161.508 153.964 170.207 152.365 177.357 146.166C181.46 141.517 181.822 140.664 183.833 134.671ZM159.702 80.1292C157.474 86.2343 153.919 93.8015 151.232 99.7779C146.836 109.495 142.499 119.24 138.221 129.009C145.819 128.755 153.194 129.029 160.812 128.996C167.848 129.015 175.091 129.115 182.107 128.925C180.379 125.986 178.553 121.432 177.057 118.195C172.946 109.209 168.919 100.185 164.977 91.1234C164.167 89.2965 160.674 81.2263 159.702 80.1292Z"/><path fill="#E5ECFA" transform="scale(2.62802 2.62802)" d="M98.5156 84.9982L101.463 84.9736C101.913 89.3916 102.111 95.2693 102.347 99.7859L103.683 130.902C104.2 144.276 105.226 157.23 105.623 170.714L101.812 170.717L94.4431 170.746C94.4827 161.496 95.3592 151.957 95.8512 142.683C96.4079 132.188 96.7763 121.732 97.2532 111.233C97.6471 102.563 98.3616 93.643 98.5156 84.9982Z"/><path fill="#E5ECFA" transform="scale(2.62802 2.62802)" d="M73.8768 176.361C74.2916 176.349 74.7065 176.34 75.1214 176.336L109.914 176.302C113.152 176.289 125.364 176.041 128.025 176.467C129.647 176.724 131.145 177.494 132.298 178.663C133.155 179.527 134.608 181.832 134.596 183.014C133.975 183.584 128.329 183.395 127.062 183.406L88.0407 183.412C80.6854 183.406 72.5516 183.605 65.2911 183.298C66.7991 178.836 68.9716 176.601 73.8768 176.361Z"/><path fill="#E5ECFA" transform="scale(2.62802 2.62802)" d="M98.4447 66.1402C101.967 65.261 105.535 67.4068 106.409 70.9306C107.283 74.4545 105.132 78.019 101.607 78.8883C98.0894 79.7558 94.5335 77.6102 93.661 74.0934C92.7885 70.5766 94.9291 67.0177 98.4447 66.1402Z"/><path fill="#D3580E" transform="scale(2.62802 2.62802)" d="M98.2153 12.0868C99.7871 12.0048 101.355 11.9931 102.91 12.2852C106.13 12.8965 108.973 14.7658 110.81 17.4794C112.634 20.1866 113.313 23.5059 112.698 26.7121C111.707 31.7677 107.917 33.9492 103.983 36.59C103.334 38.3349 103.442 40.4042 102.412 42.0107C100.172 45.5068 97.1533 43.7648 96.7387 40.1885C96.4183 37.4243 97.3461 35.0561 98.9941 32.8567C103.641 28.673 109.187 28.1532 104.984 19.9411C103.002 18.6738 101.674 18.4187 99.4012 17.844C97.7033 18.3605 97.2028 18.5432 95.6628 19.4105C94.1639 21.3406 93.0234 27.6833 90.4194 27.3544C85.6204 26.7483 87.3419 19.4174 89.7234 16.7497C92.2393 13.9314 94.3523 12.569 98.2153 12.0868Z"/><path fill="#D3580E" transform="scale(2.62802 2.62802)" d="M99.9396 46.8563C102.056 46.8244 103.803 48.504 103.854 50.6201C103.905 52.7361 102.241 54.4978 100.125 54.5678C97.9827 54.6388 96.1934 52.9489 96.1418 50.8057C96.0902 48.6626 97.7961 46.8886 99.9396 46.8563Z"/></svg>