<svg version="1.1" xmlns="http://www.w3.org/2000/svg" style="display: block;" viewBox="0 0 2000 2000" width="500" height="500" preserveAspectRatio="none">
<path transform="translate(0,0)" fill="rgb(1,40,115)" d="M 1145.59 133.38 C 1226.01 121.82 1259.32 193.303 1268.54 260.44 C 1288.15 259.767 1310.84 260.321 1330.77 260.296 L 1437.03 259.799 L 1506.27 259.553 C 1545.11 259.477 1574.36 256.219 1604.82 285.316 C 1630.5 309.842 1642.49 336.926 1642.33 372.582 C 1642.27 387.379 1640.71 402.877 1641.32 417.576 C 1645.98 419.441 1655.48 421.79 1660.91 423.431 C 1676.14 428.044 1691.39 432.574 1706.67 437.02 C 1750.72 449.983 1794.68 463.219 1838.56 476.727 C 1855.93 482.109 1884.54 489.45 1899.36 497.403 C 1913.47 504.908 1925.37 515.996 1933.85 529.552 C 1963.87 577.919 1940.79 628.723 1926.28 678.059 L 1888.57 806.76 L 1755.3 1266.93 L 1649.7 1633.56 L 1614.72 1756.78 C 1607.81 1781.24 1601.32 1806.01 1592.82 1829.94 C 1578.57 1870.02 1539.62 1894.44 1497.32 1889.56 C 1469.61 1886.37 1442.01 1877.95 1414.86 1871.38 L 1269.32 1835.94 C 1244.67 1829.68 1218.85 1824.17 1194 1818.12 L 929.245 1754.47 C 909.919 1749.55 888.865 1745.43 869.215 1740.55 C 844.251 1734.34 809.949 1724.71 784.619 1723.24 C 767.787 1722.25 727.423 1734.17 710.033 1738.32 C 656.654 1750.77 603.378 1763.65 550.211 1776.97 C 522.086 1783.81 493.394 1791.68 464.946 1796.39 C 415.183 1804.64 365.78 1772.22 351.787 1724.06 C 342.8 1693.13 336.674 1662.03 329.61 1630.54 L 295.966 1485.41 L 187.684 1020.12 L 108.537 682.829 L 82.5361 572.976 C 77.2208 551.108 72.2658 529.62 67.5096 507.649 C 58.9274 468.004 60.7496 434.412 86.7711 401.77 C 99.7096 385.332 117.193 373.058 137.049 366.474 C 152.538 361.355 179.269 356.047 195.364 352.429 L 298.431 328.685 L 686.352 239.152 L 999.17 166.411 C 1030.1 159.22 1060.7 150.662 1092 144.075 C 1111.7 139.927 1125.01 135.651 1145.59 133.38 z"/>
<path transform="translate(0,0)" fill="rgb(254,254,254)" d="M 1154.53 178.358 C 1171.51 177.892 1188.61 186.573 1199.44 199.465 C 1211.67 214.029 1213.69 235.155 1218.09 253.126 C 1221.27 266.135 1224.05 279.579 1227 292.676 C 1236.62 335.472 1246.48 378.212 1256.59 420.895 L 1356.63 847.371 L 1443 1210.25 L 1478.35 1356.72 C 1485.38 1385.77 1492.59 1414.52 1498.83 1443.93 C 1504.43 1470.33 1488.38 1500.6 1462.06 1508.52 C 1443.76 1514.03 1423.95 1518.19 1405.25 1522.67 L 1299.93 1547.99 L 938.456 1635.27 L 616.31 1713.4 L 512.404 1738.76 C 494.811 1743 472.686 1748.98 455.236 1751.73 C 428.374 1754.02 401.625 1734.88 395.443 1708.53 C 389.88 1684.82 384.573 1661.06 379.153 1637.31 L 346.43 1495.26 L 243.681 1055.54 L 155.573 679.726 L 125.721 551.744 C 120.106 527.451 113.992 502.875 109.544 478.383 C 104.371 449.895 123.007 418.146 151.349 410.524 C 173.247 404.635 195.435 399.785 217.513 394.704 L 330.697 368.399 L 727.357 276.432 L 1016.18 209.457 L 1102.97 189.176 C 1118.2 185.651 1139.42 180.205 1154.53 178.358 z"/>
<path transform="translate(0,0)" fill="rgb(1,40,115)" d="M 1119.92 271.335 C 1155.69 267.135 1157.28 308.791 1163.11 332.561 C 1168.98 356.542 1174.09 380.85 1179.98 404.77 L 1267.07 771.993 L 1337.34 1065.53 C 1342.6 1087.98 1348.07 1110.38 1353.75 1132.73 C 1357.77 1148.23 1361.93 1163.55 1365.54 1179.22 C 1368.62 1192.57 1360.73 1207.29 1347.45 1211.29 C 1336.61 1214.56 1324.65 1216.59 1313.54 1219.18 L 1259.41 1232.33 L 1073.73 1277.01 L 689.069 1370.16 C 605.549 1390.39 518.1 1410.64 435.226 1432.2 C 416.514 1436.07 400.226 1430.81 394.982 1410.27 C 388.495 1384.86 383.79 1358.88 377.695 1333.3 L 324.905 1104.42 L 225.867 675.463 C 214.644 625.675 203.014 575.945 191.839 526.13 C 188.9 513.031 187.485 504.574 195.468 492.544 C 198.78 487.552 206.62 483.143 212.479 481.664 C 230.043 477.232 247.938 473.431 265.605 469.35 L 368.842 445.325 L 687.073 371.596 L 978.087 303.768 L 1067.68 282.966 C 1084.11 279.153 1103.57 274.162 1119.92 271.335 z"/>
<path transform="translate(0,0)" fill="rgb(1,53,148)" d="M 1109.58 317.352 C 1111.11 317.082 1111.32 317.34 1112.97 317.646 C 1119.9 327.693 1160.32 511.139 1166.7 539.427 C 1202.01 693.461 1238.35 847.256 1275.73 1000.8 C 1286.62 1047.13 1299.55 1093.06 1309.9 1139.51 C 1312.31 1150.33 1315.46 1162.06 1316.4 1173.07 C 1285.95 1183.22 1250.8 1189.47 1218.86 1197.72 C 1127.89 1221.19 1035.62 1241.06 944.405 1263.6 L 584.275 1351.59 L 498.808 1372.56 C 483.496 1376.41 463.146 1382.26 447.964 1384.81 C 442.647 1385.77 439.486 1387.01 435.189 1384.18 C 432.634 1377.33 430.368 1362.79 428.605 1354.92 C 423.465 1332.63 418.509 1310.3 413.739 1287.93 L 371.229 1101.31 L 288.818 744.192 L 265.646 646.052 C 255.998 606.791 243.798 558.93 238.69 519.036 C 254.629 514.865 271.778 511.673 287.977 507.915 L 407.792 480.112 L 807.948 387.219 C 814.537 385.714 821.283 384.256 827.817 382.558 C 879.708 369.067 932.224 358.737 984.309 345.999 L 1052.55 329.779 C 1070.51 325.466 1091.48 319.977 1109.58 317.352 z"/>
<path transform="translate(0,0)" fill="rgb(1,40,115)" d="M 743.872 675.573 C 786.163 670.823 809.005 687.493 845.127 702.497 C 847.891 703.645 871.529 700.825 876.507 700.522 C 902.174 698.96 927.154 703.253 951.417 711.684 C 978.48 720.62 993.338 742.544 1019.91 750.196 C 1031.92 753.656 1049.41 753.283 1062.17 754.556 C 1079.26 756.259 1093.01 760.193 1109.08 765.364 C 1133.24 773.136 1163.67 790.513 1174.84 814.574 C 1182.71 833.047 1186.41 857.976 1179.05 877.125 C 1173.06 892.73 1161.36 911.625 1149.35 923.194 C 1132.56 939.374 1112.56 959.859 1091.57 969.593 C 1089.49 995.734 1084.37 1018.77 1069.33 1040.39 C 1061.71 1051.35 1052.9 1064.96 1043.66 1074.34 C 987.474 1131.39 895.135 1159.06 818.827 1174.75 C 767.268 1183.47 714.485 1188.65 662.12 1182.67 C 625.255 1178.47 588.801 1163.19 561.627 1137.46 C 553.164 1129.45 542.694 1115.14 535.305 1105.59 C 496.814 1103.91 442.555 1093.84 412.731 1068.95 C 398.094 1056.73 391.201 1044.76 389.152 1025.42 C 383.448 971.609 435.964 930.455 476.253 904.39 C 487.509 897.108 504.21 891.359 514.534 883.358 C 522.861 876.904 530.443 860.394 537.06 851.02 C 544.147 840.982 549.934 835.949 557.457 827.811 C 570.661 813.529 587.062 810.477 599.636 799.407 C 607.607 788.854 613.05 771.699 618.549 759.864 C 629.133 737.087 640.53 725.719 659.382 710.217 C 685.91 688.401 709.62 678.216 743.872 675.573 z"/>
<path transform="translate(0,0)" fill="rgb(254,254,254)" d="M 1044.84 794.005 C 1064.06 796.068 1084.15 799.724 1102.3 806.524 C 1117.49 812.214 1132.91 820.994 1139.62 836.551 C 1143.92 846.526 1143.46 858.639 1138.83 868.279 C 1111.59 924.929 1009.71 968.164 956.935 990.477 C 841.888 1039.12 571.118 1097.04 454.075 1046.96 C 386.426 1010.79 473.148 957.574 504.228 935.449 C 503.948 947.975 503.867 960.581 508.1 972.548 C 512.858 985.998 522.484 995.989 535.334 1001.9 C 592.821 1028.32 729.146 1004.02 787.796 984.084 C 807.12 977.517 824.599 965.262 841.868 959.803 C 853.034 956.272 865.644 955.991 877.142 953.646 C 900.994 948.78 925.275 941.68 948.178 933.354 C 983.577 920.486 1038.49 897.41 1054.73 861.852 C 1066.85 835.296 1054.04 819.561 1045.41 795.629 L 1044.84 794.005 z"/>
<path transform="translate(0,0)" fill="rgb(229,88,20)" d="M 870.899 741.377 C 930.903 731.866 996.033 775.362 1017.21 831.07 C 1030.85 866.921 916.936 900.803 890.775 908.227 C 879.619 910.777 868.666 912.915 857.583 915.886 C 856.091 905.445 852.841 895.332 847.972 885.976 C 829.076 849.721 783.409 830.192 746.062 818.208 C 748.502 814.39 751.127 810.693 753.926 807.13 C 782.678 770.594 824.742 746.949 870.899 741.377 z"/>
<path transform="translate(0,0)" fill="rgb(254,254,254)" d="M 898.557 838.728 C 907.366 835.115 917.436 839.328 921.048 848.137 C 924.66 856.946 920.446 867.016 911.637 870.627 C 902.828 874.238 892.76 870.025 889.149 861.217 C 885.537 852.409 889.749 842.341 898.557 838.728 z"/>
<path transform="translate(0,0)" fill="rgb(254,254,254)" d="M 930.176 784.851 C 939.361 783.178 948.195 789.165 950.043 798.317 C 951.891 807.468 946.073 816.414 936.958 818.436 C 930.906 819.779 924.6 817.748 920.47 813.125 C 916.339 808.502 915.027 802.008 917.041 796.145 C 919.054 790.281 924.077 785.962 930.176 784.851 z"/>
<path transform="translate(0,0)" fill="rgb(254,254,254)" d="M 842.387 779.742 C 851.52 778.13 860.257 784.145 862.011 793.252 C 863.765 802.359 857.888 811.188 848.81 813.085 C 842.81 814.338 836.599 812.261 832.562 807.649 C 828.524 803.037 827.285 796.606 829.321 790.824 C 831.357 785.043 836.351 780.807 842.387 779.742 z"/>
<path transform="translate(0,0)" fill="rgb(229,88,20)" d="M 632.145 838.385 C 657.123 836.338 707.8 848.555 732.792 856.728 C 758.154 865.022 799.303 879.8 812.03 905.288 C 814.273 909.779 816.828 920.079 814.074 923.727 C 799.785 942.653 738.341 955.372 717.558 960.162 C 694.225 964.805 548.193 988.123 545.012 952.728 C 540.543 903 577.301 844.072 632.145 838.385 z"/>
<path transform="translate(0,0)" fill="rgb(254,254,254)" d="M 1044.75 996.026 C 1045.02 996.67 1045.29 997.314 1045.57 997.958 C 1011.12 1110.87 756.572 1159.49 655.255 1139.41 C 640.724 1136.54 625.11 1130.66 611.984 1123.86 C 603.221 1118.66 596.746 1113.75 589.194 1107.02 C 621.727 1104.46 649.618 1104.81 683.474 1100.75 C 802.576 1086.49 938.576 1052.25 1044.75 996.026 z"/>
<path transform="translate(0,0)" fill="rgb(229,88,20)" d="M 746.733 716.37 C 764.357 715.334 775.825 718.247 792.567 722.978 C 753.253 743.899 727.979 769.44 705.527 807.222 L 696.768 804.992 C 681.946 801.454 661.443 798.958 646.316 797.866 C 664.818 750.547 694.822 722.05 746.733 716.37 z"/>
<path transform="translate(0,0)" fill="rgb(229,88,20)" d="M 945.121 413.489 C 945.665 413.537 948.602 413.785 949.104 414.025 C 955 416.843 962.665 436.241 966.413 442.644 C 983.789 472.322 1002.22 486.045 1036.02 492.144 C 1048.28 494.356 1058.06 494.591 1070.04 497.938 L 1070.7 499.566 C 1067.49 504.852 1046.75 517.404 1040.2 521.863 C 1015.37 538.782 1003.19 564.429 1000.98 593.924 C 1000.14 605.122 1000.51 616.334 998.724 627.688 C 990.784 625.458 980.878 602.843 975.976 595.048 C 960.451 570.357 940.62 555.508 911.564 550.9 C 904.65 549.804 877.474 547.657 874.54 542.836 C 877.461 539.006 885.303 533.903 889.461 531.428 C 922.576 511.718 940.676 489.285 943.458 449.671 C 944.111 440.379 943.289 421.964 945.121 413.489 z"/>
<path transform="translate(0,0)" fill="rgb(254,254,254)" d="M 1638.45 464.06 C 1691.31 479.32 1744.48 496.639 1797.46 512.151 C 1822.31 519.428 1852.25 527.934 1876.27 537.427 C 1883.23 541.055 1890.47 548.595 1894.77 554.898 C 1913.15 581.822 1895.8 617.57 1887.58 646.163 L 1854.44 759.846 L 1755.97 1095.81 L 1619.53 1567.54 L 1577.85 1713.57 C 1568.98 1745.17 1560.19 1777.08 1550.65 1808.48 C 1547.13 1820.15 1541.58 1830.67 1531.2 1837.64 C 1511.36 1850.96 1489.42 1842.97 1468.14 1837.78 L 1416.4 1825.14 L 1201.74 1773.71 L 1113.17 1752.61 C 1103.63 1750.36 1074.81 1744.41 1068.14 1741.01 C 1099.53 1744.16 1137.27 1745.15 1169 1746.68 L 1327.49 1754.52 L 1428.17 1759.52 C 1463.99 1761.31 1496.95 1767.49 1529.31 1748.64 C 1549.56 1736.91 1564.94 1718.33 1572.7 1696.25 C 1578.8 1678.84 1578.98 1647.25 1579.96 1627.96 L 1588.2 1472.54 C 1588.9 1461.38 1589.48 1429.03 1591.8 1420.45 C 1598.05 1397.36 1605.38 1372.62 1612.06 1349.54 L 1651.39 1213.87 L 1756.69 852.802 L 1801.08 700.992 C 1806.87 680.788 1812.89 660.809 1818.45 640.411 C 1821.92 627.662 1822.71 621.754 1815.82 609.116 C 1813.82 605.457 1806.9 598.952 1803.12 597.572 C 1781.18 588.99 1757.88 583.154 1735.34 576.096 C 1715.22 569.794 1694.88 563.837 1674.69 557.778 C 1661.76 553.9 1648.05 549.422 1634.96 546.402 C 1635.24 520.474 1637.73 490.966 1638.45 464.06 z"/>
<path transform="translate(0,0)" fill="rgb(254,254,254)" d="M 1279.34 304.989 C 1340.85 306.089 1404 304.144 1465.67 305.007 C 1488.93 305.332 1512.46 304.369 1535.87 304.921 C 1553.18 305.33 1567.19 311.464 1579 324.084 C 1586.45 332.04 1593.65 347.196 1593.81 358.14 C 1594.24 388.429 1591.85 420.012 1590.59 450.315 L 1579.39 674.924 L 1543.84 1399.9 C 1543.03 1406.31 1542.92 1416.17 1542.64 1422.86 C 1539.16 1410.8 1535.54 1391.58 1532.44 1378.5 L 1508.99 1279.14 C 1504.56 1260.12 1493.4 1220.44 1491.29 1202.85 C 1489.67 1189.34 1492.65 1145.21 1493.35 1128.71 L 1499.36 988.907 L 1514.34 616.427 L 1519.39 497.847 C 1520.55 472.725 1521.88 447.897 1522.33 422.567 C 1524.13 406.948 1511.11 390.015 1494.93 388.514 C 1479.08 387.045 1459.25 387.884 1442.67 387.581 C 1394.34 386.867 1346.01 386.54 1297.67 386.599 C 1296.51 378.45 1293.11 365.708 1291.17 357.359 C 1287.06 339.941 1283.12 322.483 1279.34 304.989 z"/>
<path transform="translate(0,0)" fill="rgb(254,254,254)" d="M 1537.57 1496.69 C 1540.05 1499.06 1538.03 1518.57 1537.78 1522.8 L 1534.81 1572.97 C 1533.57 1593.79 1532.44 1614.62 1531.44 1635.45 C 1530.3 1658.08 1532.11 1684.5 1514.29 1701.34 C 1507.47 1707.78 1495.85 1714.24 1486.4 1714.63 C 1466.82 1715.45 1446.47 1714.07 1426.92 1713.25 L 1317.46 1708.63 C 1189.06 1703.18 1059.11 1696.69 930.752 1692.95 C 921.89 1692.58 912.736 1692.63 903.846 1692.57 C 912.59 1688.68 938.691 1683.17 949.174 1680.71 L 1021.4 1663.36 L 1339.64 1586.3 L 1427.08 1565.46 C 1475.4 1553.98 1516.19 1548.49 1537.57 1496.69 z"/>
<path transform="translate(0,0)" fill="rgb(1,53,148)" d="M 1477.78 429.551 L 1478.64 430.135 C 1476.23 455.098 1476.64 487.728 1475.5 513.474 L 1465.4 730.508 C 1464.17 755.414 1464.32 779.15 1462.33 804.432 C 1441.21 784.11 1411.09 768.291 1382.18 763.197 C 1383.64 752.842 1382.86 748.253 1380.82 738.092 C 1377.73 723.762 1372.47 709.832 1369.14 695.812 L 1331.73 534.044 C 1324.52 503.865 1311.7 461.188 1310.74 430.871 C 1365.32 428.357 1425.44 432.947 1477.78 429.551 z"/>
<path transform="translate(0,0)" fill="rgb(254,254,254)" d="M 1457.65 904.754 L 1458.48 905.648 C 1459.01 910.419 1457.27 940.422 1456.81 946.297 C 1454.73 972.554 1455.25 1004.68 1450.87 1030.23 C 1449.01 1024.02 1447.64 1018.08 1446.15 1011.78 C 1439.32 987.126 1433.67 957.841 1427.26 932.453 C 1441.36 923.232 1447.73 918.201 1457.65 904.754 z"/>
<path transform="translate(0,0)" fill="rgb(229,88,20)" d="M 1398.56 808.931 C 1408.82 812.104 1416.53 815.839 1424.57 823.016 C 1449.91 846.93 1442.74 872.78 1417.89 893.055 C 1415.02 879.934 1411.94 866.86 1408.65 853.839 C 1405 839.37 1401.8 823.582 1398.56 808.931 z"/>
<path transform="translate(0,0)" fill="rgb(234,136,87)" d="M 1398.56 808.931 C 1408.82 812.104 1416.53 815.839 1424.57 823.016 C 1421.16 833.847 1417.33 845.871 1408.65 853.839 C 1405 839.37 1401.8 823.582 1398.56 808.931 z"/>
<path transform="translate(0,0)" fill="rgb(229,88,20)" d="M 1625.09 747.665 C 1626.8 749.053 1635.28 766.377 1643.47 774.178 C 1654.32 784.516 1672.29 790.811 1679.36 798.243 C 1676.28 802.596 1662.2 805.689 1656.26 807.394 C 1640.99 812.116 1633.03 817.49 1621.45 828.066 C 1622.15 802.939 1622.69 772.588 1625.09 747.665 z"/>
</svg>