<?xml version="1.0" encoding="utf-8" ?><svg xmlns="http://www.w3.org/2000/svg" xmlns:xlink="http://www.w3.org/1999/xlink" width="731" height="739" viewBox="32 35 731 739"><metadata><c2pa:manifest xmlns:c2pa="http://c2pa.org/manifest">AAA2RWp1bWIAAAAeanVtZGMycGEAEQAQgAAAqgA4m3EDYzJwYQAAADYfanVtYgAAAEdqdW1kYzJtYQARABCAAACqADibcQN1cm46YzJwYTplYjA1YTNmNS01N2ExLTQ2ODAtYjFjZC0yOTgwNzFkYzY5MDgAAAAEEmp1bWIAAAApanVtZGMyYXMAEQAQgAAAqgA4m3EDYzJwYS5hc3NlcnRpb25zAAAAAMxqdW1iAAAARGp1bWRjYm9yABEAEIAAAKoAOJtxE2MycGEuaW5ncmVkaWVudC52MwAAAAAYYzJzaEEf4LEbfdufGLsjhltp6yIAAACAY2JvcqRscmVsYXRpb25zaGlwaHBhcmVudE9maGRjOnRpdGxlZnNvdXJjZWlkYzpmb3JtYXRtaW1hZ2Uvc3ZnK3htbGppbnN0YW5jZUlEeCx4bXA6aWlkOjBmZTViYTUzLWE5ZjMtNDc1ZS04MGM0LWE3MmUzNTRjZTY5ZQAAAe5qdW1iAAAAQWp1bWRjYm9yABEAEIAAAKoAOJtxE2MycGEuYWN0aW9ucy52MgAAAAAYYzJzaNckgume1zH9CVXO1DExFDcAAAGlY2JvcqFnYWN0aW9uc4KiZmFjdGlvbmtjMnBhLm9wZW5lZGpwYXJhbWV0ZXJzoWtpbmdyZWRpZW50c4GiY3VybHgtc2VsZiNqdW1iZj1jMnBhLmFzc2VydGlvbnMvYzJwYS5pbmdyZWRpZW50LnYzZGhhc2hYIPhC/0aHvYR+ZlvebFWI4a1tU25eKQG0SfTXLjLH4PCFpGZhY3Rpb25sYzJwYS5jcmVhdGVkanBhcmFtZXRlcnOha2luZ3JlZGllbnRzgaJjdXJseC1zZWxmI2p1bWJmPWMycGEuYXNzZXJ0aW9ucy9jMnBhLmluZ3JlZGllbnQudjNkaGFzaFgg+EL/Roe9hH5mW95sVYjhrW1Tbl4pAbRJ9NcuMsfg8IVxZGlnaXRhbFNvdXJjZVR5cGV4QWh0dHA6Ly9jdi5pcHRjLm9yZy9uZXdzY29kZXMvZGlnaXRhbHNvdXJjZXR5cGUvY29tcG9zaXRlU3ludGhldGlja2Rlc2NyaXB0aW9ueB9Db21wb3NlZCBpbiB0aGUgUmVjcmFmdCBlZGl0b3IuAAABJ2p1bWIAAABAanVtZGNib3IAEQAQgAAAqgA4m3ETYzJwYS5oYXNoLmRhdGEAAAAAGGMyc2i0oUbZGY2luINJTIZVfFkkAAAA32Nib3KlamV4Y2x1c2lvbnOBomVzdGFydBipZmxlbmd0aBlItmRuYW1lbmp1bWJmIG1hbmlmZXN0Y2FsZ2ZzaGEyNTZkaGFzaFggqz3Dc6l00IZBoNIArjl4uzq6XyvCbT2QJ2gh+J4dVf1jcGFkWGsAAAAAAAAAAAAAAAAAAAAAAAAAAAAAAAAAAAAAAAAAAAAAAAAAAAAAAAAAAAAAAAAAAAAAAAAAAAAAAAAAAAAAAAAAAAAAAAAAAAAAAAAAAAAAAAAAAAAAAAAAAAAAAAAAAAAAAAAAAAAAAAAAApZqdW1iAAAAJ2p1bWRjMmNsABEAEIAAAKoAOJtxA2MycGEuY2xhaW0udjIAAAACZ2Nib3Knamluc3RhbmNlSUR4LHhtcDppaWQ6MmIwMWI5NjEtNmQwMy00NWQwLWIzMTgtYWM3YzFjMGQ4ZDEydGNsYWltX2dlbmVyYXRvcl9pbmZvo2RuYW1lanJlY3JhZnQuYWlndmVyc2lvbngoODFjZTgyZTJjNWMzY2JmYmU4YzZmYmUxNzlkNWY4ZDkxYzQwOWNlMXdvcmcuY29udGVudGF1dGguYzJwYV9yc2YwLjkwLjdpc2lnbmF0dXJleE1zZWxmI2p1bWJmPS9jMnBhL3VybjpjMnBhOmViMDVhM2Y1LTU3YTEtNDY4MC1iMWNkLTI5ODA3MWRjNjkwOC9jMnBhLnNpZ25hdHVyZXJjcmVhdGVkX2Fzc2VydGlvbnOComN1cmx4KnNlbGYjanVtYmY9YzJwYS5hc3NlcnRpb25zL2MycGEuYWN0aW9ucy52MmRoYXNoWCDiiTxvNTfHGJRG2ZE6IKyNGGLaMv6wl7Ygiho/4Z9SBqJjdXJseClzZWxmI2p1bWJmPWMycGEuYXNzZXJ0aW9ucy9jMnBhLmhhc2guZGF0YWRoYXNoWCD5lMzj8hdYvCPq5oC7Fy0UTf6dJLvK1U4S8rglH6vDcnNnYXRoZXJlZF9hc3NlcnRpb25zgaJjdXJseC1zZWxmI2p1bWJmPWMycGEuYXNzZXJ0aW9ucy9jMnBhLmluZ3JlZGllbnQudjNkaGFzaFgg+EL/Roe9hH5mW95sVYjhrW1Tbl4pAbRJ9NcuMsfg8IVoZGM6dGl0bGVtUmVjcmFmdCBJbWFnZWNhbGdmc2hhMjU2AAAvKGp1bWIAAAAoanVtZGMyY3MAEQAQgAAAqgA4m3EDYzJwYS5zaWduYXR1cmUAAAAu+GNib3LShFkD7KIBJhghglkB9DCCAfAwggGVoAMCAQICFCXBR9VWuKWSQ4c3qcBLczzzY9mDMAoGCCqGSM49BAMCMEExCzAJBgNVBAYTAlVTMRMwEQYDVQQKDApSZWNyYWZ0IEFJMR0wGwYDVQQDDBRSZWNyYWZ0IEMyUEEgUm9vdCBDQTAeFw0yNjA5MTAxNjUyMzRaFw0yNzA5MTAxNjUyMzRaMDcxCzAJBgNVBAYTAlVTMRMwEQYDVQQKDApSZWNyYWZ0IEFJMRMwEQYDVQQDDApyZWNyYWZ0LmFpMFkwEwYHKoZIzj0CAQYIKoZIzj0DAQcDQgAEqDj3aht2JjUXRnfnZbX4dYpHBP55C5vGCtdB9vbWhWvInoLrB2Adeu/MpeQbNfIS2lfxYXfjYt9sQJZx3W4phaN1MHMwDAYDVR0TAQH/BAIwADAOBgNVHQ8BAf8EBAMCBsAwEwYDVR0lBAwwCgYIKwYBBQUHAwQwHQYDVR0OBBYEFIFcIb2xFz0koArmzn1B8QrbqFQEMB8GA1UdIwQYMBaAFHPchfrH1pUR3lr9iLnGnnOY8HQIMAoGCCqGSM49BAMCA0kAMEYCIQCZbQ6UDfr21yEy8W/vATcEi+v+VpLTuEnr5G9FV47X1gIhAKoaM+8/7Dd9jcXZ52bEFU3rtz+woBrSXVxcdvN36dPEWQHsMIIB6DCCAY2gAwIBAgIUAMnaPzSjkFlrv+FeRZLVUB1+40wwCgYIKoZIzj0EAwIwQTELMAkGA1UEBhMCVVMxEzARBgNVBAoMClJlY3JhZnQgQUkxHTAbBgNVBAMMFFJlY3JhZnQgQzJQQSBSb290IENBMB4XDTI2MDkxMDE2NTIzNFoXDTM2MDkwNzE2NTIzNFowQTELMAkGA1UEBhMCVVMxEzARBgNVBAoMClJlY3JhZnQgQUkxHTAbBgNVBAMMFFJlY3JhZnQgQzJQQSBSb290IENBMFkwEwYHKoZIzj0CAQYIKoZIzj0DAQcDQgAEG0Pnhen5KZx4U8KzMUgS4fyYUTlpM7AvC/Izda9UZX/KBAr8xBZN1ro5aD7TbNzywA64qkeaxrXfvIIhboky56NjMGEwHwYDVR0jBBgwFoAUc9yF+sfWlRHeWv2Iucaec5jwdAgwDwYDVR0TAQH/BAUwAwEB/zAOBgNVHQ8BAf8EBAMCAYYwHQYDVR0OBBYEFHPchfrH1pUR3lr9iLnGnnOY8HQIMAoGCCqGSM49BAMCA0kAMEYCIQDQ9mfsa8gUZzG8ZPHgMzHAKvG85dK3wPWNs+6uUKBFHgIhAOmWyN3uO4eXJUWWgEUjjqLSl7Cv2EDFgt74/dXd25pToWNwYWRZKrQAAAAAAAAAAAAAAAAAAAAAAAAAAAAAAAAAAAAAAAAAAAAAAAAAAAAAAAAAAAAAAAAAAAAAAAAAAAAAAAAAAAAAAAAAAAAAAAAAAAAAAAAAAAAAAAAAAAAAAAAAAAAAAAAAAAAAAAAAAAAAAAAAAAAAAAAAAAAAAAAAAAAAAAAAAAAAAAAAAAAAAAAAAAAAAAAAAAAAAAAAAAAAAAAAAAAAAAAAAAAAAAAAAAAAAAAAAAAAAAAAAAAAAAAAAAAAAAAAAAAAAAAAAAAAAAAAAAAAAAAAAAAAAAAAAAAAAAAAAAAAAAAAAAAAAAAAAAAAAAAAAAAAAAAAAAAAAAAAAAAAAAAAAAAAAAAAAAAAAAAAAAAAAAAAAAAAAAAAAAAAAAAAAAAAAAAAAAAAAAAAAAAAAAAAAAAAAAAAAAAAAAAAAAAAAAAAAAAAAAAAAAAAAAAAAAAAAAAAAAAAAAAAAAAAAAAAAAAAAAAAAAAAAAAAAAAAAAAAAAAAAAAAAAAAAAAAAAAAAAAAAAAAAAAAAAAAAAAAAAAAAAAAAAAAAAAAAAAAAAAAAAAAAAAAAAAAAAAAAAAAAAAAAAAAAAAAAAAAAAAAAAAAAAAAAAAAAAAAAAAAAAAAAAAAAAAAAAAAAAAAAAAAAAAAAAAAAAAAAAAAAAAAAAAAAAAAAAAAAAAAAAAAAAAAAAAAAAAAAAAAAAAAAAAAAAAAAAAAAAAAAAAAAAAAAAAAAAAAAAAAAAAAAAAAAAAAAAAAAAAAAAAAAAAAAAAAAAAAAAAAAAAAAAAAAAAAAAAAAAAAAAAAAAAAAAAAAAAAAAAAAAAAAAAAAAAAAAAAAAAAAAAAAAAAAAAAAAAAAAAAAAAAAAAAAAAAAAAAAAAAAAAAAAAAAAAAAAAAAAAAAAAAAAAAAAAAAAAAAAAAAAAAAAAAAAAAAAAAAAAAAAAAAAAAAAAAAAAAAAAAAAAAAAAAAAAAAAAAAAAAAAAAAAAAAAAAAAAAAAAAAAAAAAAAAAAAAAAAAAAAAAAAAAAAAAAAAAAAAAAAAAAAAAAAAAAAAAAAAAAAAAAAAAAAAAAAAAAAAAAAAAAAAAAAAAAAAAAAAAAAAAAAAAAAAAAAAAAAAAAAAAAAAAAAAAAAAAAAAAAAAAAAAAAAAAAAAAAAAAAAAAAAAAAAAAAAAAAAAAAAAAAAAAAAAAAAAAAAAAAAAAAAAAAAAAAAAAAAAAAAAAAAAAAAAAAAAAAAAAAAAAAAAAAAAAAAAAAAAAAAAAAAAAAAAAAAAAAAAAAAAAAAAAAAAAAAAAAAAAAAAAAAAAAAAAAAAAAAAAAAAAAAAAAAAAAAAAAAAAAAAAAAAAAAAAAAAAAAAAAAAAAAAAAAAAAAAAAAAAAAAAAAAAAAAAAAAAAAAAAAAAAAAAAAAAAAAAAAAAAAAAAAAAAAAAAAAAAAAAAAAAAAAAAAAAAAAAAAAAAAAAAAAAAAAAAAAAAAAAAAAAAAAAAAAAAAAAAAAAAAAAAAAAAAAAAAAAAAAAAAAAAAAAAAAAAAAAAAAAAAAAAAAAAAAAAAAAAAAAAAAAAAAAAAAAAAAAAAAAAAAAAAAAAAAAAAAAAAAAAAAAAAAAAAAAAAAAAAAAAAAAAAAAAAAAAAAAAAAAAAAAAAAAAAAAAAAAAAAAAAAAAAAAAAAAAAAAAAAAAAAAAAAAAAAAAAAAAAAAAAAAAAAAAAAAAAAAAAAAAAAAAAAAAAAAAAAAAAAAAAAAAAAAAAAAAAAAAAAAAAAAAAAAAAAAAAAAAAAAAAAAAAAAAAAAAAAAAAAAAAAAAAAAAAAAAAAAAAAAAAAAAAAAAAAAAAAAAAAAAAAAAAAAAAAAAAAAAAAAAAAAAAAAAAAAAAAAAAAAAAAAAAAAAAAAAAAAAAAAAAAAAAAAAAAAAAAAAAAAAAAAAAAAAAAAAAAAAAAAAAAAAAAAAAAAAAAAAAAAAAAAAAAAAAAAAAAAAAAAAAAAAAAAAAAAAAAAAAAAAAAAAAAAAAAAAAAAAAAAAAAAAAAAAAAAAAAAAAAAAAAAAAAAAAAAAAAAAAAAAAAAAAAAAAAAAAAAAAAAAAAAAAAAAAAAAAAAAAAAAAAAAAAAAAAAAAAAAAAAAAAAAAAAAAAAAAAAAAAAAAAAAAAAAAAAAAAAAAAAAAAAAAAAAAAAAAAAAAAAAAAAAAAAAAAAAAAAAAAAAAAAAAAAAAAAAAAAAAAAAAAAAAAAAAAAAAAAAAAAAAAAAAAAAAAAAAAAAAAAAAAAAAAAAAAAAAAAAAAAAAAAAAAAAAAAAAAAAAAAAAAAAAAAAAAAAAAAAAAAAAAAAAAAAAAAAAAAAAAAAAAAAAAAAAAAAAAAAAAAAAAAAAAAAAAAAAAAAAAAAAAAAAAAAAAAAAAAAAAAAAAAAAAAAAAAAAAAAAAAAAAAAAAAAAAAAAAAAAAAAAAAAAAAAAAAAAAAAAAAAAAAAAAAAAAAAAAAAAAAAAAAAAAAAAAAAAAAAAAAAAAAAAAAAAAAAAAAAAAAAAAAAAAAAAAAAAAAAAAAAAAAAAAAAAAAAAAAAAAAAAAAAAAAAAAAAAAAAAAAAAAAAAAAAAAAAAAAAAAAAAAAAAAAAAAAAAAAAAAAAAAAAAAAAAAAAAAAAAAAAAAAAAAAAAAAAAAAAAAAAAAAAAAAAAAAAAAAAAAAAAAAAAAAAAAAAAAAAAAAAAAAAAAAAAAAAAAAAAAAAAAAAAAAAAAAAAAAAAAAAAAAAAAAAAAAAAAAAAAAAAAAAAAAAAAAAAAAAAAAAAAAAAAAAAAAAAAAAAAAAAAAAAAAAAAAAAAAAAAAAAAAAAAAAAAAAAAAAAAAAAAAAAAAAAAAAAAAAAAAAAAAAAAAAAAAAAAAAAAAAAAAAAAAAAAAAAAAAAAAAAAAAAAAAAAAAAAAAAAAAAAAAAAAAAAAAAAAAAAAAAAAAAAAAAAAAAAAAAAAAAAAAAAAAAAAAAAAAAAAAAAAAAAAAAAAAAAAAAAAAAAAAAAAAAAAAAAAAAAAAAAAAAAAAAAAAAAAAAAAAAAAAAAAAAAAAAAAAAAAAAAAAAAAAAAAAAAAAAAAAAAAAAAAAAAAAAAAAAAAAAAAAAAAAAAAAAAAAAAAAAAAAAAAAAAAAAAAAAAAAAAAAAAAAAAAAAAAAAAAAAAAAAAAAAAAAAAAAAAAAAAAAAAAAAAAAAAAAAAAAAAAAAAAAAAAAAAAAAAAAAAAAAAAAAAAAAAAAAAAAAAAAAAAAAAAAAAAAAAAAAAAAAAAAAAAAAAAAAAAAAAAAAAAAAAAAAAAAAAAAAAAAAAAAAAAAAAAAAAAAAAAAAAAAAAAAAAAAAAAAAAAAAAAAAAAAAAAAAAAAAAAAAAAAAAAAAAAAAAAAAAAAAAAAAAAAAAAAAAAAAAAAAAAAAAAAAAAAAAAAAAAAAAAAAAAAAAAAAAAAAAAAAAAAAAAAAAAAAAAAAAAAAAAAAAAAAAAAAAAAAAAAAAAAAAAAAAAAAAAAAAAAAAAAAAAAAAAAAAAAAAAAAAAAAAAAAAAAAAAAAAAAAAAAAAAAAAAAAAAAAAAAAAAAAAAAAAAAAAAAAAAAAAAAAAAAAAAAAAAAAAAAAAAAAAAAAAAAAAAAAAAAAAAAAAAAAAAAAAAAAAAAAAAAAAAAAAAAAAAAAAAAAAAAAAAAAAAAAAAAAAAAAAAAAAAAAAAAAAAAAAAAAAAAAAAAAAAAAAAAAAAAAAAAAAAAAAAAAAAAAAAAAAAAAAAAAAAAAAAAAAAAAAAAAAAAAAAAAAAAAAAAAAAAAAAAAAAAAAAAAAAAAAAAAAAAAAAAAAAAAAAAAAAAAAAAAAAAAAAAAAAAAAAAAAAAAAAAAAAAAAAAAAAAAAAAAAAAAAAAAAAAAAAAAAAAAAAAAAAAAAAAAAAAAAAAAAAAAAAAAAAAAAAAAAAAAAAAAAAAAAAAAAAAAAAAAAAAAAAAAAAAAAAAAAAAAAAAAAAAAAAAAAAAAAAAAAAAAAAAAAAAAAAAAAAAAAAAAAAAAAAAAAAAAAAAAAAAAAAAAAAAAAAAAAAAAAAAAAAAAAAAAAAAAAAAAAAAAAAAAAAAAAAAAAAAAAAAAAAAAAAAAAAAAAAAAAAAAAAAAAAAAAAAAAAAAAAAAAAAAAAAAAAAAAAAAAAAAAAAAAAAAAAAAAAAAAAAAAAAAAAAAAAAAAAAAAAAAAAAAAAAAAAAAAAAAAAAAAAAAAAAAAAAAAAAAAAAAAAAAAAAAAAAAAAAAAAAAAAAAAAAAAAAAAAAAAAAAAAAAAAAAAAAAAAAAAAAAAAAAAAAAAAAAAAAAAAAAAAAAAAAAAAAAAAAAAAAAAAAAAAAAAAAAAAAAAAAAAAAAAAAAAAAAAAAAAAAAAAAAAAAAAAAAAAAAAAAAAAAAAAAAAAAAAAAAAAAAAAAAAAAAAAAAAAAAAAAAAAAAAAAAAAAAAAAAAAAAAAAAAAAAAAAAAAAAAAAAAAAAAAAAAAAAAAAAAAAAAAAAAAAAAAAAAAAAAAAAAAAAAAAAAAAAAAAAAAAAAAAAAAAAAAAAAAAAAAAAAAAAAAAAAAAAAAAAAAAAAAAAAAAAAAAAAAAAAAAAAAAAAAAAAAAAAAAAAAAAAAAAAAAAAAAAAAAAAAAAAAAAAAAAAAAAAAAAAAAAAAAAAAAAAAAAAAAAAAAAAAAAAAAAAAAAAAAAAAAAAAAAAAAAAAAAAAAAAAAAAAAAAAAAAAAAAAAAAAAAAAAAAAAAAAAAAAAAAAAAAAAAAAAAAAAAAAAAAAAAAAAAAAAAAAAAAAAAAAAAAAAAAAAAAAAAAAAAAAAAAAAAAAAAAAAAAAAAAAAAAAAAAAAAAAAAAAAAAAAAAAAAAAAAAAAAAAAAAAAAAAAAAAAAAAAAAAAAAAAAAAAAAAAAAAAAAAAAAAAAAAAAAAAAAAAAAAAAAAAAAAAAAAAAAAAAAAAAAAAAAAAAAAAAAAAAAAAAAAAAAAAAAAAAAAAAAAAAAAAAAAAAAAAAAAAAAAAAAAAAAAAAAAAAAAAAAAAAAAAAAAAAAAAAAAAAAAAAAAAAAAAAAAAAAAAAAAAAAAAAAAAAAAAAAAAAAAAAAAAAAAAAAAAAAAAAAAAAAAAAAAAAAAAAAAAAAAAAAAAAAAAAAAAAAAAAAAAAAAAAAAAAAAAAAAAAAAAAAAAAAAAAAAAAAAAAAAAAAAAAAAAAAAAAAAAAAAAAAAAAAAAAAAAAAAAAAAAAAAAAAAAAAAAAAAAAAAAAAAAAAAAAAAAAAAAAAAAAAAAAAAAAAAAAAAAAAAAAAAAAAAAAAAAAAAAAAAAAAAAAAAAAAAAAAAAAAAAAAAAAAAAAAAAAAAAAAAAAAAAAAAAAAAAAAAAAAAAAAAAAAAAAAAAAAAAAAAAAAAAAAAAAAAAAAAAAAAAAAAAAAAAAAAAAAAAAAAAAAAAAAAAAAAAAAAAAAAAAAAAAAAAAAAAAAAAAAAAAAAAAAAAAAAAAAAAAAAAAAAAAAAAAAAAAAAAAAAAAAAAAAAAAAAAAAAAAAAAAAAAAAAAAAAAAAAAAAAAAAAAAAAAAAAAAAAAAAAAAAAAAAAAAAAAAAAAAAAAAAAAAAAAAAAAAAAAAAAAAAAAAAAAAAAAAAAAAAAAAAAAAAAAAAAAAAAAAAAAAAAAAAAAAAAAAAAAAAAAAAAAAAAAAAAAAAAAAAAAAAAAAAAAAAAAAAAAAAAAAAAAAAAAAAAAAAAAAAAAAAAAAAAAAAAAAAAAAAAAAAAAAAAAAAAAAAAAAAAAAAAAAAAAAAAAAAAAAAAAAAAAAAAAAAAAAAAAAAAAAAAAAAAAAAAAAAAAAAAAAAAAAAAAAAAAAAAAAAAAAAAAAAAAAAAAAAAAAAAAAAAAAAAAAAAAAAAAAAAAAAAAAAAAAAAAAAAAAAAAAAAAAAAAAAAAAAAAAAAAAAAAAAAAAAAAAAAAAAAAAAAAAAAAAAAAAAAAAAAAAAAAAAAAAAAAAAAAAAAAAAAAAAAAAAAAAAAAAAAAAAAAAAAAAAAAAAAAAAAAAAAAAAAAAAAAAAAAAAAAAAAAAAAAAAAAAAAAAAAAAAAAAAAAAAAAAAAAAAAAAAAAAAAAAAAAAAAAAAAAAAAAAAAAAAAAAAAAAAAAAAAAAAAAAAAAAAAAAAAAAAAAAAAAAAAAAAAAAAAAAAAAAAAAAAAAAAAAAAAAAAAAAAAAAAAAAAAAAAAAAAAAAAAAAAAAAAAAAAAAAAAAAAAAAAAAAAAAAAAAAAAAAAAAAAAAAAAAAAAAAAAAAAAAAAAAAAAAAAAAAAAAAAAAAAAAAAAAAAAAAAAAAAAAAAAAAAAAAAAAAAAAAAAAAAAAAAAAAAAAAAAAAAAAAAAAAAAAAAAAAAAAAAAAAAAAAAAAAAAAAAAAAAAAAAAAAAAAAAAAAAAAAAAAAAAAAAAAAAAAAAAAAAAAAAAAAAAAAAAAAAAAAAAAAAAAAAAAAAAAAAAAAAAAAAAAAAAAAAAAAAAAAAAAAAAAAAAAAAAAAAAAAAAAAAAAAAAAAAAAAAAAAAAAAAAAAAAAAAAAAAAAAAAAAAAAAAAAAAAAAAAAAAAAAAAAAAAAAAAAAAAAAAAAAAAAAAAAAAAAAAAAAAAAAAAAAAAAAAAAAAAAAAAAAAAAAAAAAAAAAAAAAAAAAAAAAAAAAAAAAAAAAAAAAAAAAAAAAAAAAAAAAAAAAAAAAAAAAAAAAAAAAAAAAAAAAAAAAAAAAAAAAAAAAAAAAAAAAAAAAAAAAAAAAAAAAAAAAAAAAAAAAAAAAAAAAAAAAAAAAAAAAAAAAAAAAAAAAAAAAAAAAAAAAAAAAAAAAAAAAAAAAAAAAAAAAAAAAAAAAAAAAAAAAAAAAAAAAAAAAAAAAAAAAAAAAAAAAAAAAAAAAAAAAAAAAAAAAAAAAAAAAAAAAAAAAAAAAAAAAAAAAAAAAAAAAAAAAAAAAAAAAAAAAAAAAAAAAAAAAAAAAAAAAAAAAAAAAAAAAAAAAAAAAAAAAAAAAAAAAAAAAAAAAAAAAAAAAAAAAAAAAAAAAAAAAAAAAAAAAAAAAAAAAAAAAAAAAAAAAAAAAAAAAAAAAAAAAAAAAAAAAAAAAAAAAAAAAAAAAAAAAAAAAAAAAAAAAAAAAAAAAAAAAAAAAAAAAAAAAAAAAAAAAAAAAAAAAAAAAAAAAAAAAAAAAAAAAAAAAAAAAAAAAAAAAAAAAAAAAAAAAAAAAAAAAAAAAAAAAAAAAAAAAAAAAAAAAAAAAAAAAAAAAAAAAAAAAAAAAAAAAAAAAAAAAAAAAAAAAAAAAAAAAAAAAAAAAAAAAAAAAAAAAAAAAAAAAAAAAAAAAAAAAAAAAAAAAAAAAAAAAAAAAAAAAAAAAAAAAAAAAAAAAAAAAAAAAAAAAAAAAAAAAAAAAAAAAAAAAAAAAAAAAAAAAAAAAAAAAAAAAAAAAAAAAAAAAAAAAAAAAAAAAAAAAAAAAAAAAAAAAAAAAAAAAAAAAAAAAAAAAAAAAAAAAAAAAAAAAAAAAAAAAAAAAAAAAAAAAAAAAAAAAAAAAAAAAAAAAAAAAAAAAAAAAAAAAAAAAAAAAAAAAAAAAAAAAAAAAAAAAAAAAAAAAAAAAAAAAAAAAAAAAAAAAAAAAAAAAAAAAAAAAAAAAAAAAAAAAAAAAAAAAAAAAAAAAAAAAAAAAAAAAAAAAAAAAAAAAAAAAAAAAAAAAAAAAAAAAAAAAAAAAAAAAAAAAAAAAAAAAAAAAAAAAAAAAAAAAAAAAAAAAAAAAAAAAAAAAAAAAAAAAAAAAAAAAAAAAAAAAAAAAAAAAAAAAAAAAAAAAAAAAAAAAAAAAAAAAAAAAAAAAAAAAAAAAAAAAAAAAAAAAAAAAAAAAAAAAAAAAAAAAAAAAAAAAAAAAAAAAAAAAAAAAAAAAAAAAAAAAAAAAAAAAAAAAAAAAAAAAAAAAAAAAAAAAAAAAAAAAAAAAAAAAAAAAAAAAAAAAAAAAAAAAAAAAAAAAAAAAAAAAAAAAAAAAAAAAAAAAAAAAAAAAAAAAAAAAAAAAAAAAAAAAAAAAAAAAAAAAAAAAAAAAAAAAAAAAAAAAAAAAAAAAAAAAAAAAAAAAAAAAAAAAAAAAAAAAAAAAAAAAAAAAAAAAAAAAAAAAAAAAAAAAAAAAAAAAAAAAAAAAAAAAAAAAAAAAAAAAAAAAAAAAAAAAAAAAAAAAAAAAAAAAAAAAAAAAAAAAAAAAAAAAAAAAAAAAAAAAAAAAAAAAAAAAAAAAAAAAAAAAAAAAAAAAAAAAAAAAAAAAAAAAAAAAAAAAAAAAAAAAAAAAAAAAAAAAAAAAAAAAAAAAAAAAAAAAAAAAAAAAAAAAAAAAAAAAAAAAAAAAAAAAAAAAAAAAAAAAAAAAAAAAAAAAAAAAAAAAAAAAAAAAAAAAAAAAAAAAAAAAAAAAAAAAAAAAAAAAAAAAAAAAAAAAAAAAAAAAAAAAAAAAAAAAAAAAAAAAAAAAAAAAAAAAAAAAAAAAAAAAAAAAAAAAAAAAAAAAAAAAAAAAAAAAAAAAAAAAAAAAAAAAAAAAAAAAAAAAAAAAAAAAAAAAAAAAAAAAAAAAAAAAAAAAAAAAAAAAAAAAAAAAAAAAAAAAAAAAAAAAAAAAAAAAAAAAAAAAAAAAAAAAAAAAAAAAAAAAAAAAAAAAAAAAAAAAAAAAAAAAAAAAAAAAAAAAAAAAAAAAAAAAAAAAAAAAAAAAAAAAAAAAAAAAAAAAAAAAAAAAAAAAAAAAAAAAAAAAAAAAAAAAAAAAAAAAAAAAAAAAAAAAAAAAAAAAAAAAAAAAAAAAAAAAAAAAAAAAAAAAAAAAAAAAAAAAAAAAAAAAAAAAAAAAAAAAAAAAAAAAAAAAAAAAAAAAAAAAAAAAAAAAAAAAAAAAAAAAAAAAAAAAAAAAAAAAAAAAAAAAAAAAAAAAAAAAAAAAAAAAAAAAAAAAAAAAAAAAAAAAAAAAAAAAAAAAAAAAAAAAAAAAAAAAAAAAAAAAAAAAAAAAAAAAAAAAAAAAAAAAAAAAAAAAAAAAAAAAAAAAAAAAAAAAAAAAAAAAAAAAAAAAAAAAAAAAAAAAAAAAAAAAAAAAAAAAAAAAAAAAAAAAAAAAAAAAAAAAAAAAAAAAAAAAAAAAAAAAAAAAAAAAAAAAAAAAAAAAAAAAAAAAAAAAAAAAAAAAAAAAAAAAAAAAAAAAAAAAAAAAAAAAAAAAAAAAAAAAAAAAAAAAAAAAAAAAAAAAAAAAAAAAAAAAAAAAAAAAAAAAAAAAAAAAAAAAAAAAAAAAAAAAAAAAAAAAAAAAAAAAAAAAAAAAAAAAAAAAAAAAAAAAAAAAAAAAAAAAAAAAAAAAAAAAAAAAAAAAAAAAAAAAAAAAAAAAAAAAAAAAAAAAAAAAAAAAAAAAAAAAAAAAAAAAAAAAAAAAAAAAAAAAAAAAAAAAAAAAAAAAAAAAAAAAAAAAAAAAAAAAAAAAAAAAAAAAAAAAAAAAAAAAAAAAAAAAAAAAAAAAAAAAAAAAAAAAAAAAAAAAAAAAAAAAAAAAAAAAAAAAAAAAAAAAAAAAAAAAAAAAAAAAAAAAAAAAAAAAAAAAAAAAAAAAAAAAAAAAAAAAAAAAAAAAAAAAAAAAAAAAAAAAAAAAAAAAAAAAAAAAAAAAAAAAAAAAAAAAAAAAAAAAAAAAAAAAAAAAAAAAAAAAAAAAAAAAAAAAAAAAAAAAAAAAAAAAAAAAAAAAAAAAAAAAAAAAAAAAAAAAAAAAAAAAAAAAAAAAAAAAAAAAAAAAAAAAAAAAAAAAAAAAAAAAAAAAAAAAAAAAAAAAAAAAAAAAAAAAAAAAAAAAAAAAAAAAAAAAAAAAAAAAAAAAAAAAAAAAAAAAAAAAAAAAAAAAAAAAAAAAAAAAAAAAAAAAAAAAAAAAAAAAAAAAAAAAAAAAAAAAAAAAAAAAAAAAAAAAAAAAAAAAAAAAAAAAAAAAAAAAAAAAAAAAAAAAAAAAAAAAAAAAAAAAAAAAAAAAAAAAAAAAAAAAAAAAAAAAAAAAAAAAAAAAAAAAAAAAAAAAAAAAAAAAAAAAAAAAAAAAAAAAAAAAAAAAAAAAAAAAAAAAAAAAAAAAAAAAAAAAAAAAAAAAAAAAAAAAAAAAAAAAAAAAAAAAAAAAAAAAAAAAAAAAAAAAAAAAAAAAAAAAAAAAAAAAAAAAAAAAAAAAAAAAAAAAAAAAAAAAAAAAAAAAAAAAAAAAAAAAAAAAAAAAAAAAAAAAAAAAAAAAAAAAAAAAAAAAAAAAAAAAAAAAAAAAAAAAAAAAAAAAAAAAAAAAAAAAAAAAAAAAAAAAAAAAAAAAAAAAAAAAAAAAAAAAAAAAAAAAAAAAAAAAAAAAAAAAAAAAAAAAAAAAAAAAAAAAAAAAAAAAAAAAAAAAAAAAAAAAAAAAAAAAAAAAAAAAAAAAAAAAAAAAAAAAAAAAAAAAAAAAAAAAAAAAAAAAAAAAAAAAAAAAAAAAAAAAAAAAAAAAAAAAAAAAAAAAAAAAAAAAAAAAAAAAAAAAAAAAAAAAAAAAAAAAAAAAAAAAAAAAAAAAAAAAAAAAAAAAAAAAAAAAAAAAAAAAAAAAAAAAAAAAAAAAAAAAAAAAAAAAAAAAAAAAAAAAAAAAAAAAAAAAAAAAAAAAAAAAAAAAAAAAAAAAAAAAAAAAAAAAAAAAAAAAAAAAAAAAAAAAAAAAAAAAAAAAAAAAAAAAAAAAAAAAAAAAAAAAAAAAAAAAAAAAAAAAAAAAAAAAAAAAAAAAAAAAAAAAAAAAAAAAAAAAAAAAAAAAAAAAAAAAAAAAAAAAAAAAAAAAAAAAAAAAAAAAAAAAAAAAAAAAAAAAAAAAAAAAAAAAAAAAAAAAAAAAAAAAAAAAAAAAAAAAAAAAAAAAAAAAAAAAAAAAAAAAAAAAAAAAAAAAAAAAAAAAAAAAAAAAAAAAAAAAAAAAAAAAAAAAAAAAAAAAAAAAAAAAAAAAAAAAAAAAAAAAAAAAAAAAAAAAAAAAAAAAAAAAAAAAAAAAAAAAAAAAAAAAAAAAAAAAAAAAAAAAAAAAAAAAAAAAAAAAAAAAAAAAAAAAAAAAAAAAAAAAAAAAAAAAAAAAAAAAAAAAAAAAAAAAAAAAAAAAAAAAAAAAAAAAAAAAAAAAAAAAAAAAAAAAAAAAAAAAAAAAAAAAAAAAAAAAAAAAAAAAAAAAAAAAAAAAAAAAAAAAAAAAAAAAAAAAAAAAAAAAAAAAAAAAAAAAAAAAAAAAAAAAAAAAAAAAAAAAAAAAAAAAAAAAAAAAAAAAAAAAAAAAAAAAAAAAAAAAAAAAAAAAAAAAAAAAAAAAAAAAAAAAAAAAAAAAAAAAAAAAAAAAAAAAAAAAAAAAAAAAAAAAAAAAAAAAAAAAAAAAAAAAAAAAAAAAAAAAAAAAAAAAAAAAAAAAAAAAAAAAAAAAAAAAAAAAAAAAAAAAAAAAAAAAAAAAAAAAAAAAAAAAAAAAAAAAAAAAAAAAAAAAAAAAAAAAAAAAAAAAAAAAAAAAAAAAAAAAAAAAAAAAAAAAAAAAAAAAAAAAAAAAAAAAAAAAAAAAAAAAAAAAAAAAAAAAAAAAAAAAAAAAAAAAAAAAAAAAAAAAAAAAAAAAAAAAAAAAAAAAAAAAAAAAAAAAAAAAAAAAAAAAAAAAAAAAAAAAAAAAAAAAAAAAAAAAAAAAAAAAAAAAAAAAAAAAAAAAAAAAAAAAAAAAAAAAAAAAAAAAAAAAAAAAAAAAAAAAAAAAAAAAAAAAAAAAAAAAAAAAAAAAAAAAAAAAAAAAAAAAAAAAAAAAAAAAAAAAAAAAAAAAAAAAAAAAAAAAAAAAAAAAAAAAAAAAAAAAAAAAAAAAAAAAAAAAAAAAAAAAAAAAAAAAAAAAAAAAAAAAAAAAAAAAAAAAAAAAAAAAAAAAAAAAAAAAAAAAAAAAAAAAAAAAAAAAAAAAAAAAAAAAAAAAAAAAAAAAAAAAAAAAAAAAAAAAAAAAAAAAAAAAAAAAAAAAAAAAAAAAAAAAAAAAAAAAAAAAAAAAAAAAAAAAAAAAAAAAAAAAAAAAAAAAAAAAAAAAAAAAAAAAAAAAAAAAAAAAAAAAAAAAAAAAAAAAAAAAAAAAAAAAAAAAAAAAAAAAAAAAAAAAAAAAAAAAAAAAAAAAAAAAAAAAAAAAAAAAAAAAAAAAAAAAAAAAAAAAAAAAAAAAAAAAAAAAAAAAAAAAAAAAAAAAAAAAAAAAAAAAAAAAAAAAAAAAAAAAAAAAAAAAAAAAAAAAAAAAAAAAAAAAAAAAAAAAAAAAAAAAAAAAAAAAAAAAAAAAAAAAAAAAAAAAAAAAAAAAAAAAAAAAAAAAAAAAAAAAAAAAAAAAAAAAAAAAAAAAAAAAAAAAAAAAAAAAAAAAAAAAAAAAAAAAAAAAAAAAAAAAAAAAAAAAAAAAAAAAAAAAAAAAAAAAAAAAAAAAAAAAAAAAAAAAAAAAAAAAAAAAAAAAAAAAAAAAAAAAAAAAAAAAAAAAAAAAAAAAAAAAAAAAAAAAAAAAAAAAAAAAAAAAAAAAAAAAAAAAAAAAAAAAAAAAAAAAAAAAAAAAAAAAAAAAAAAAAAAAAAAAAAAAAAAAAAAAAAAAAAAAAAAAAAAAAAAAAAAAAAAAAAAAAAAAAAAAAAAAAAAAAAAAAAAAAAAAAAAAAAAAAAAAAAAAAAAAAAAAAAAAAAAAAAAAAAAAAAAAAAAAAAAAAAAAAAAAAAAAAAAAAAAAAAAAAAAAAAAAAAAAAAAAAAAAAAAAAAAAAAAAAAAAAAAAAAAAAAAAAAAAAAAAAAAAAAAAAAAAAAAAAAAAAAAAAAAAAAAAAAAAAAAAAAAAAAAAAAAAAAAAAAAAAAAAAAAAAAAAAAAAAAAAAAAAAAAAAAAAAAAAAAAAAAAAAAAAAAAAAAAAAAAAAAAAAAAAAAAAAAAAAAAAAAAAAAAAAAAAAAAAAAAAAAAAAAAAAAAAAAAAAAAAAAAAAAAAAAAAAAAAAAAAAAAAAAAAAAAAAAAAAAAAAAAAAAAAAAAAAAAAAAAAAAAAAAAAAAAAAAAAAAAAAAAAAAAAAAAAAAAAAAAAAAAAAAAAAAAAAAAAAAAAAAAAAAAAAAAAAAAAAAAAAAAAAAAAAAAAAAAAAAAAAAAAAAAAAAAAAAAAAAAAAAAAAAAAAAAAAAAAAAAAAAAAAAAAAAAAAAAAAAAAAAAAAAAAAAAAAAAAAAAAAAAAAAAAAAAAAAAAAAAAAAAAAAAAAAAAAAAAAAAAAAAAAAAAAAAAAAAAAAAAAAAAAAAAAAAAAAAAAAAAAAAAAAAAAAAAAAAAAAAAAAAAAAAAAAAAAAAAAAAAAAAAAAAAAAAAAAAAAAAAAAAAAAAAAAAAAAAAAAAAAAAAAAAAAAAAAAAAAAAAAAAAAAAAAAAAAAAAAAAAAAAAAAAAAAAAAAAAAAAAAAAAAAAAAAAAAAAAAAAAAAAAAAAAAAAAAAAAAAAAAAAAAAAAAAAAAAAAAAAAAAAAAAAAAAAAAAAAAAAAAAAAAAAAAAAAAAAAAAAAAAAAAAAAAAAAAAAAAAAAAAAAAAAAAAAAAAAAAAAAAAAAAAAAAAAAAAAAAAAAAAAAAAAAAAAAAAAAAAAAAAAAAAAAAAAAAAAAAAAAAAAAAAAAAAAAAAAAAAAAAAAAAAAAAAAAAAAAAAAAAAAAAAAAAAAAAAAAAAAAAAAAAAAAAAAAAAAAAAAAAAAAAAAAAAAAAAAAAAAAAAAAAAAAAAAAAAAAAAAAAAAAAAAAAAAAAAAAAAAAAAAAAAAAAAAAAAAAAAAAAAAAAAAAAAAAAAAAAAAAAAAAAAAAAAAAAAAAAAAAAAAAAAAAAAAAAAAAAAAAAAAAAAAAAAAAAAAAAAAAAAAAAAAAAAAAAAAAAAAAAAAAAAAAAAAAAAAAAAAAAAAAAAAAAAAAAAAAAAAAAAAAAAAAAAAAAAAAAAAAAAAAAAAAAAAAAAAAAAAAAAAAAAAAAAAAAAAAAAAAAAAAAAAAAAAAAAAAAAAAAAAAAAAAAAAAAAAAAAAAAAAAAAAAAAAAAAAAAAAAAAAAAAAAAAAAAAAAAAAAAAAAAAAAAAAAAAAAAAAAAAAAAAAAAAAAAAAAAAAAAAAAAAAAAAAAAAAAAAAAAAAAAAAAAAAAAAAAAAAAAAAAAAAAAAAAAAAAAAAAAAAAAAAAAAAAAAAAAAAAAAAAAAAAAAAAAAAAAAAAAAAAAAAAAAAAAAAAAAAAAAAAAAAAAAAAAAAAAAAAAAAAAAAAAAAAAAAAAAAAAAAAAAAAAAAAAAAAAAAAAAAAAAAAAAAAAAAAAAAAAAAAAAAAAAAAAAAAAAAAAAAAAAAAAAAAAAAAAAAAAAAAAAAAAAAAAAAAAAAAAAAAAAAAAAAAAAAAAAAAAAAAAAAAAAAAAAAAAAAAAAAAAAAAAAAAAAAAAAAAAAAAAAAAAAAAAAAAAAAAAAAAAAAAAAAAAAAAAAAAAAAAAAAAAAAAAAAAAAAAAAAAAAAAAAAAAAAAAAAAAAAAAAAAAAAAAAAAAAAAAAAAAAAAAAAAAAAAAAAAAAAAAAAAAAAAAAAAAAAAAAAAAAAAAAAAAAD2WEDQJqs7wdG8HDubHgDQJkEae8zrV+5wZKPU6dBV3H58XjIn8ZMr/2ZA9IC90EgtNPkdm3UVQnJ7Z7ZfyW886uvx</c2pa:manifest></metadata><path fill="#113894" d="M536.9 38.3398C555.6 36.6602 549.5 54.5601 557.3 59.3501C567.2 65.5298 583.7 51.5698 593 46.8701C599.4 43.6001 606.2 41.2598 613.2 39.8999C631.6 36.2402 650.8 40.1401 666.3 50.71C682.3 61.5 691.6 76.4102 695.3 95.1299C708.4 99 717.4 103.39 727.6 112.79C742.9 126.81 751.1 145.21 752 165.78C753.4 198.59 735.6 227.26 714.2 250.53C727.3 283.88 698 322.52 661.8 311.83C659.5 314.68 657.1 317.33 654.8 320.06C661.1 323 668.1 325.56 674.8 328.65C699.2 340 720.1 356.56 734.6 379.67C752.8 408.75 765 450.07 757.3 484.13C750.3 515.15 732.3 535.27 706.3 551.72C707.1 560.53 709.2 571.67 710.7 580.56C713.7 597.68 716.4 614.84 718.8 632.04C721 647.15 722.8 662.29 724.4 677.45C724.6 678.99 725.9 696.65 726.6 697.11C730.6 699.62 734.8 701.69 739 704.05C754.3 712.66 762.1 738.72 751.5 753.96C748.3 758.53 743.4 761.61 737.9 762.47C732.5 763.35 720.9 762.96 714.9 762.94L675.3 762.97L643.7 762.96C635 762.99 621.7 764.36 614.5 758.94C606.4 752.9 607.7 741.77 607.6 732.95C607.6 727.89 607.1 722.64 606.6 717.53C603.8 689.59 600.5 661.69 596.6 633.85C592.2 669.27 569.9 667.86 540.9 667.98C540.1 674.96 538.4 682.25 537.5 689.55C544.7 691.46 550.8 694.57 556 699.84C578.9 723.16 566.4 766.54 532.8 770.52C527 771.21 521.5 770.99 515.8 770.99L492.6 770.96L212.4 770.95L121.6 770.97C106.1 770.97 90.5996 771.14 74.9004 770.82C43.2998 770.17 27.2002 736.24 40.7998 709.32C46 698.8 54.7998 693.12 65.7002 689.59C64.5 682.53 63.5996 672.63 62.7002 665.37L57.7998 622.6C42.0996 609.57 41.2998 592.8 42 573.7C42.5 559.76 52.2998 548.36 62.4004 540.06L92.9004 390.42L102.6 343.4C104.2 335.36 105.9 323.89 108.4 316.56C111.5 307.26 116.8 298.82 123.7 291.91C147.2 268.62 173.5 272.81 203.6 272.8L272.3 272.79C272.2 257.89 270.7 245.08 282 233.57C286.9 228.74 293 225.38 299.7 223.88C305.4 222.65 325.2 223.07 332.1 223.07L394 223.04C405.6 223.07 414.3 223.85 423.1 232.71C434.5 244.29 433 257.91 432.9 272.79C444.6 272.71 452.5 274.27 463.2 279.03C461.2 273.5 459.2 268.38 457.7 262.68C446.4 221.11 457.5 185.96 486.9 155.6C481.9 140.71 485.8 127.2 495.5 115.46C484.4 95.54 485.5 75.0898 500.4 57.3101C509.5 46.29 522.7 39.4399 536.9 38.3398Z"/><path fill="#FBFAF9" d="M166.9 298.86C170.2 298.5 177.7 298.7 181.3 298.7L207.9 298.71L294.6 298.71L389.6 298.71L419.6 298.7C433.5 298.7 443.6 297.46 455.5 305.89C470.2 316.31 470.7 332.03 473.8 348.19L482.3 392.45L497.9 474.27C501.8 494.56 506.2 515.56 509.6 535.89C484.8 536.34 458.9 535.98 433.9 535.98L209 536.11L133 536.28C119.7 536.31 104.6 536.65 91.5 536.2L120.4 391.94L128.9 349.06C130.1 342.93 131.9 331.85 133.5 326.15C134.9 321.38 137.2 316.94 140.3 313.06C147.3 304.44 156 300.1 166.9 298.86Z"/><path fill="#113894" d="M168.3 341.32C169.9 341.13 173 341.05 174.6 341.05C194.9 341.06 215.1 341.07 235.2 341.07L357.2 341.07L410.1 341.06C426.9 341.05 442.7 338.42 455.6 351.23C466.8 362.42 467.1 377.65 469.5 392.44C472 408.27 474.3 424.12 476.7 439.98L481 470.32C483.2 486.02 486.4 499.67 473.6 512.26C462.4 523.29 448.7 521.57 434.3 521.53L236.9 521.88L178.4 521.97C174.9 521.97 171.3 522.05 167.8 521.98C154.6 521.73 143.6 523.85 132.2 515.81C125.5 511.09 121 503.88 119.6 495.79C119.1 492.61 119 489.38 119.2 486.17C119.8 478.95 121.5 468.78 122.6 461.46L129.4 416.27L133.8 387.42C134.5 382.54 135.4 374.7 136.6 370.14C137.9 365.21 140.1 360.54 143 356.39C149.4 347.56 157.7 343.06 168.3 341.32Z"/><path fill="#FBFAF9" d="M367.1 366.56C385.6 366.27 404.2 366.58 422.7 366.43C427.3 366.45 434 366.03 438.2 368.29C444.3 371.69 444.7 385.41 445.7 391.96C448 406.41 450.1 420.89 452 435.39L456.5 467.1C457.4 473.88 458.7 480.78 459.2 487.58C459.7 493.14 455.8 496.56 450.8 497.83C434 498.29 416.9 497.75 400 497.95C389.7 498.07 379.3 498.05 369 497.87C365 497.8 361.7 494.79 361 490.96C359.9 479.25 360.3 467.2 360.1 455.42L359.4 406.86C359.2 396.42 358.8 385.95 359 375.51C359.2 370.14 362.1 367.57 367.1 366.56Z"/><path fill="#EA580C" d="M428.8 397.51C440.3 396.86 442.1 406.34 436.5 414.7C436.7 415.42 437.1 416.14 437.4 416.88C447.9 443.87 413.8 483.45 387.1 471.11C384.6 472.9 383.4 473.46 380.6 474.29C369.3 474.85 367.3 465.42 373.2 457.17C372.9 456.53 372.7 455.9 372.5 455.25C368.9 444.68 369.6 434.28 374.7 424.27C382.7 408.22 404.3 391.45 422.7 400.7C425.1 398.97 426.1 398.47 428.8 397.51Z"/><path fill="#FBFAF9" d="M264.8 366.54C268.7 366.42 272.7 366.47 276.5 366.49C296.5 366.62 316.6 366.14 336.5 366.65C338.3 366.7 339.9 367.33 341.4 368.47C343.2 369.97 344.4 372.15 344.6 374.54C345.2 379.82 345 391.12 345 396.81C345.3 411.82 345.5 426.83 345.5 441.83L345.9 472.09C346 477.84 346.1 483.79 345.8 489.52C345.7 491.45 345 493.32 343.7 494.77C341.4 497.39 339.1 497.91 335.8 498.12L285.8 498.16C278.2 498.16 270.5 498.34 262.9 498.14C261.3 498.05 259.5 497.53 258.1 496.65C252.2 492.74 254.1 481.54 254.3 475.06L255.2 436.92C255.4 423.82 255.7 410.73 256.1 397.64C256.2 390.87 256.1 384.14 256.4 377.37C256.6 371.29 258.5 367.87 264.8 366.54Z"/><path fill="#EA580C" d="M324.1 397.52C336.1 396.77 338 405.79 332.3 414.75C332.6 415.46 332.9 416.16 333.1 416.88C343.2 443.9 308.8 483.5 282.4 471.11C279.9 472.83 278.8 473.39 276.1 474.29C264.9 474.97 262.3 465.41 268.4 457.17L268.2 456.48C264.2 446.12 264.7 435.75 269.4 425.74C277.5 408.71 298.9 391.61 318.3 400.61C320.7 399.05 321.4 398.62 324.1 397.52Z"/><path fill="#FBFAF9" d="M171.2 366.56L212.9 366.45C219.9 366.45 226.8 366.33 233.7 366.63C240.1 366.9 242.6 370.95 242.6 377.04C242.5 385.18 242.1 393.46 241.9 401.61L240.6 446.17L239.7 474.65C239.1 499.67 239.9 498.47 214.7 498.31L173.3 498.38C166.7 498.4 159.5 499 153 498.27C150.9 498.03 148.5 497.55 146.7 496.38C144.9 495.21 143.7 492.66 143.3 490.61C142.4 485.08 147.7 455.01 148.9 446.78L155.6 399.22C156.7 392.02 157.8 384.82 159 377.62C160.2 370.38 164 367.34 171.2 366.56Z"/><path fill="#EA580C" d="M220.1 397.56C232 396.54 234 405.89 228.2 414.7C232 425.31 231.2 435.01 226.4 445.21C218.8 461.65 196.4 480.29 177.6 471.21C175.2 472.86 174.1 473.41 171.4 474.24C160.4 475.3 157.8 465.42 163.8 457.18C163.4 456.44 163.2 455.7 162.9 454.95C159.5 444.65 160.8 434.25 165.6 424.56C173.5 408.56 195.9 391.23 214.3 400.69C216.7 399.08 217.4 398.68 220.1 397.56Z"/><path fill="#FBFAF9" d="M579.2 115.78C588.9 114.75 590 122.37 597.6 125.08C605.7 127.93 613.8 121.26 621.3 124.63C630.5 128.72 629.1 149.39 650.1 157.66C655.2 159.69 660.9 160.14 666.4 159.91C671.8 159.68 680.9 156.77 685.7 159.82C687.2 160.76 688 162.68 688.2 164.38C689.5 173.06 677.3 178.17 673.5 184C672 186.21 673 187.6 674.6 189.33C677.3 192.28 680.6 194.72 683.4 197.62C693.1 207.62 700.1 220.33 702.5 234.04L700.5 236.25C697.8 222.93 691.2 210.68 681.7 200.94C679.2 198.43 674.5 193.44 671.2 197.2C670.4 200.18 673.9 203.07 676.1 205.12C687 215.21 690.9 228.04 695.8 241.79C694.2 243.57 690.9 246.92 691.2 249.51C691.4 250.92 695.2 254.15 695.9 255.5C698 259.51 698.9 264.46 698.6 268.88C698.1 276.4 694.7 283.44 689.1 288.39C679.6 296.76 669 295.7 659.1 289.77C655.4 287.55 652.1 293.19 650.2 295.89C632.9 320.11 605 336.73 574.9 338.49C519.3 341.75 473.6 288.24 472 234.79C471.7 224.27 473.3 213.78 476.5 203.79C484.2 181.3 509.6 148.39 525.8 131.17C541.9 134.56 551.7 132.4 565.2 122.92C569.8 119.65 573.7 117.12 579.2 115.78Z"/><path fill="#113894" d="M506.4 243.63C511.2 243.48 511.1 246.45 508.9 249.83C510 250.5 511 251.13 512 251.72C536.2 265.65 563.9 267.72 590.6 260.51C588.3 255.32 590 252.48 595.7 254.81C599 256.24 606 262.75 607 266.22C608.2 270.77 602.8 285.31 598.1 286.9C595.2 286.31 595.7 283.33 595.8 281.01C594.3 282.39 592.5 283.82 590.9 285.14C585.2 290.13 578 293.88 570.7 296.16C540.3 305.73 513.7 288.82 504.4 259.26C503.3 262.6 502.9 266.85 501 269.62C499.7 270.29 500.4 270.22 499 269.93C495.7 267.47 496.4 263.45 495.7 259.91C493.8 250.04 498.2 247.24 506.4 243.63Z"/><path fill="#FBFAF9" d="M512.9 261.13C516.6 262.17 524.1 266.32 529.2 267.95C553 275.54 570.2 273.65 593.7 269.22C591.1 271.49 588.5 273.69 585.8 275.79C583.4 277.56 580.8 279.21 578.2 280.72C552.5 295.39 527 286.46 512.9 261.13Z"/><path fill="#113894" d="M561.3 190.35C562.6 190.52 562.5 190.57 563.7 191.21C565 193.07 564.8 194.62 563.9 196.62C558.3 207.66 549.5 217.04 541.2 225.98C536.5 231.02 551 237.04 549.3 242.15C547.8 246.49 544 246.29 540.4 245.62C536.9 243.88 534.5 241.58 532.1 238.6C527.4 232.85 524 226.34 530.3 220.31C538.4 212.65 546.9 205.52 554.5 197.33C556.7 194.99 558.8 192.3 561.3 190.35Z"/><path fill="#113894" d="M605.8 194.9C621.3 196.47 614.2 229.36 598.8 231.97C583 230.11 590.5 197.83 605.8 194.9Z"/><path fill="#113894" d="M524.7 173.23C542.3 172.15 535.3 202.73 520.5 208.74C503.8 209.98 509.5 179.42 524.7 173.23Z"/><path fill="#113894" d="M608.8 160.28C625.6 158.8 639.3 187.02 628.3 187.68C625.1 184.45 623.1 178.5 618.3 174.95C615.1 171.89 606.8 172.38 604.5 168.55C602.2 164.62 605.8 161.6 608.8 160.28Z"/><path fill="#113894" d="M537.9 142.6C541.7 142.16 544 142.26 547.6 143.85C550.9 145.24 553.2 149.68 551 152.8C548.5 156.35 541.1 153.16 537.6 152.82C535.9 152.65 534.4 152.83 532.6 153.02C529.3 153.78 526.6 155.32 523.4 156.12C520.3 156.87 518.2 153.32 520.4 151.03C525 146.17 531.4 143.58 537.9 142.6Z"/><path fill="#113894" d="M668.6 221.05C675.4 221.16 685.6 235.12 686.6 241.65C686.8 242.81 685.8 243.74 685.2 244.53C684.3 244.51 682.8 244.42 682.3 243.76C679.6 240.35 677.8 237.77 675.1 234.23C672.9 231.25 668.1 227.44 667 223.99C666.7 223.22 668.1 221.69 668.6 221.05Z"/><path fill="#113894" d="M530.1 302.1C532.6 302.64 536.4 304.9 539.1 305.7C542.6 306.77 548.4 306.52 551.7 308.43C552.7 308.95 552.6 309.69 552.6 310.47C552.1 311.81 551.6 312.01 550.4 312.88C544.4 315.19 537.6 313.74 532.3 310.2C529.4 308.17 527.6 305.35 530.1 302.1Z"/><path fill="#113894" d="M670.5 207.59C676 207.75 680.2 214.52 683 218.7C684.8 221.41 688.3 227.94 687.5 231.18L686.9 231.37C681.7 226.78 676.4 218.33 670.6 213.68C668.2 211.77 668.8 209.88 670.5 207.59Z"/><path fill="#113894" d="M665 236.09C670.8 235.58 678.2 245.67 674.9 250.91C674 250.96 672.6 251.24 672 250.62C669 247.84 665.3 242.94 664.1 239.06C663.7 237.98 664.5 236.85 665 236.09Z"/><path fill="#FBFAF9" d="M83.7998 615.16C112.4 614.66 142.7 615.08 171.4 615.17C175.5 623.18 179.3 631.92 183.4 640.03C185.8 644.81 188 650.53 191.3 654.74C193.6 657.75 196.5 660.24 199.8 662.04C208.2 666.47 225.4 665.07 235.3 665.05L280.2 665.03L354.7 665.06C364 665.06 391.1 666.14 398.6 663.83C411.4 659.92 416.1 647.54 421.3 636.59C424.7 629.45 428 622.2 431.7 615.22C445.9 615.03 460.6 615.19 474.9 615.18C489.3 615.11 503.7 615.14 518.1 615.27C517.3 622.64 516.3 630.01 515.3 637.36C513.5 654.27 510.7 672.99 508.4 689.94L225.6 690.02L138.1 690.06L111.3 690.07C105.9 690.07 99 690.24 93.7998 689.73C92.5996 687.57 84.5996 622.34 83.7998 615.16Z"/><path fill="#FBFAF9" d="M89.5996 558.57C99.2002 558.25 109.8 558.48 119.5 558.48L174.1 558.49L338.7 558.49L454.2 558.47L491.5 558.46C498.3 558.46 504.9 558.42 511.7 558.6C522.4 558.8 530.4 565.79 530.5 576.76C530.6 592.35 527.4 594.6 512.8 594.47L227.9 594.78L132.4 594.92C116.4 594.94 100.4 595.01 84.5 594.9C77.7998 594.86 72.7998 592.73 71.7002 585.44C69.7002 571.14 74 560.83 89.5996 558.57Z"/><path fill="#FBFAF9" d="M78.4004 712.53L398.6 712.54L481.7 712.55C496.4 712.53 511.2 712.44 526 712.56C528.1 712.73 531 712.81 533 713.65C542.5 717.67 544.8 729.17 541 737.97C539 742.49 535.3 744.73 530.9 746.28C525.8 747.15 517.5 746.69 512.1 746.67L481.8 746.7L376.6 746.69L178.7 746.69L112.5 746.68C99.9004 746.68 85.2998 747.2 72.7998 746.12C60.9004 745.09 56.9004 725.73 64.7002 717.72C69 713.39 72.5996 712.8 78.4004 712.53Z"/><path fill="#FBFAF9" d="M626.4 57.2402C649 57.2598 668.8 71.0898 675.6 92.9302C677 97.48 677.3 106.33 680.2 109.36C683.3 112.43 691.7 113.37 696.2 114.97C700.7 116.54 705 118.8 708.9 121.65C721.2 130.71 730.7 144.58 732.7 159.88C735.9 184.53 724.9 206.45 710.6 225.44C705.2 209.16 700.4 200.62 688 188.36C695.9 182.18 702.4 174.12 702.5 163.57C702.6 151.89 693.5 144.4 682.2 144.71C676.9 144.85 671.8 146.35 666.5 146.51L665.9 146.53C638.2 146.51 646.4 122.71 629.4 112.43C622.9 108.51 616 109.04 609.1 111.2C599.7 114.11 599.2 108.81 592.7 105.39C574.4 95.7002 561.9 115.28 545.8 119.31C537.5 121.36 529.6 120.42 522.5 116.17C515.2 111.72 509.9 104.54 507.8 96.1899C504.3 81.6401 513.1 66.3701 526.3 60.1201C529.4 58.6401 531.9 57.96 535.3 57.1499C536.4 63.0698 539 67.98 543.5 71.96C554.4 81.6499 569.5 81.21 581.9 74.77C589.1 71.0601 595.4 66.2002 602.7 62.8799C611 59.1299 617.4 57.6499 626.4 57.2402Z"/><path fill="#FBFAF9" d="M578 466.11C579.7 465.86 583.2 465.84 585 465.86C596.3 465.9 607 470.42 614.9 478.44C632.9 496.86 633.4 536.89 614.6 555.16C604 565.43 586.2 569.86 572 566.73C562.3 564.6 557.3 559.46 558.2 549.38C561.2 540.62 571.7 542.1 577.7 538.29C583.7 534.45 577.3 530.28 571.1 532.52C568.2 533.61 559.4 535.67 556.6 535.51C550.4 535.14 548.4 524.64 549.5 519.82C551.3 510.45 561.4 507.25 569.2 504.71C577.6 501.94 575.3 495.49 566.3 497.61C563.9 497.08 552.3 502.56 551.5 502.38C541.8 500.25 544.8 485.32 548.6 480.82C556.7 471.09 566.4 467.69 578 466.11Z"/><path fill="#FBFAF9" d="M195.9 615.63C206.4 615.45 217.1 615.46 227.7 615.54C287.4 615.96 347.3 614.88 407 615.54C403.8 622.25 400.3 629.12 397.1 635.8C395 640.24 393.4 644.21 387.7 644.29C378.3 644.43 368.9 644.36 359.4 644.37L305.8 644.42L247.7 644.56C237.9 644.59 228 644.9 218.2 644.57C216.3 644.5 211.7 644.63 210.3 643.28C210.2 643.18 210.1 643.07 210 642.97C206.4 639.07 198 621.33 195.9 615.63Z"/><path fill="#FBFAF9" d="M628 338.41C628.3 340.75 626.7 356 626.5 359.48C625.6 371.39 625.3 383.33 625.3 395.27C625.4 409.67 625.8 424.04 626.6 438.41C627.1 446.82 628 455.63 628.2 464.05C628.2 465.51 627.9 465.76 627 466.59C624.7 465.43 621.3 461.83 618.8 460.21C606.7 452.56 597.8 450.9 584 450.35C585.7 448.74 587.7 446.44 589 444.58C596.2 434.98 599.3 422.94 597.6 411.08C595.8 398.07 588.9 387.82 578.4 380.08C555.5 364.63 527.8 371.42 513.2 394.55C513.6 377.95 518.8 354.61 522.5 338.44C531.5 345.36 541.8 350.31 552.8 352.96C580.7 359.86 604.2 352.86 628 338.41Z"/><path fill="#FBFAF9" d="M306.6 248.86C319 248.57 332.6 248.82 345 248.83L393.7 248.77C405.9 248.86 406.7 252.88 406.6 264.39C406.5 268.31 406.5 272.53 406.5 276.48C404 276.54 401.5 276.5 399 276.51L335.4 276.59C324.8 276.6 309.4 277.07 299.1 276.41C299 274.99 298.9 272.95 299 271.6C299.7 262.86 295.5 252.01 306.6 248.86Z"/><path fill="#FBFAF9" d="M550.8 388.98C553.1 388.77 556 389 558.3 389.46C565.6 391.01 572 395.4 576.2 401.67C580.4 408.1 581.9 416 580.1 423.52C578 432.95 573.2 437.99 565.4 442.95C565.6 446.09 566.8 452.36 567.4 455.69C562 457.47 559.5 458.76 554.5 461.68L551.3 463.86L548.1 445.71C542.9 444.27 539.3 443.14 535 439.82C529 435.2 525.2 428.4 524.3 420.91C523.4 413.25 525.6 405.55 530.4 399.51C535.7 392.97 542.6 389.9 550.8 388.98Z"/><path fill="#FBFAF9" d="M559 574.87C560.5 575.26 564.9 577.09 566.8 577.72C571.3 579.22 574.4 579.71 579 580.48C579.1 594.02 579 607.56 578.5 621.09C578.2 633.17 580.3 646.32 564.5 647.2C558.6 647.59 550.9 647.5 545 647.37C545.2 643.95 546.5 637.07 547.2 633.47L551.3 606.8L554.2 587.4C554.7 584.29 555.1 580.88 555.8 577.81C556.2 576.26 557.6 575.64 559 574.87Z"/><path fill="#FBFAF9" d="M637.3 481.88C646.1 481.47 650.7 484.34 655.3 491.81C666.6 510.28 664.9 546.22 645.1 558.48C639.6 560.66 635.5 561.13 629.8 560.72C632.5 557.38 634.8 553.68 636.6 549.72C646.7 527.32 644.9 504.81 636.6 482.36L637.3 481.88Z"/><path fill="#FBFAF9" d="M510.1 123.36C511.2 123.8 514.5 126.31 515.7 127.19C512.1 130.68 508.8 134.38 505.6 138.25L502.7 141.87C503.8 133.1 505.3 130.7 510.1 123.36Z"/><path fill="#FEFDFC" d="M198.2 405.37C200.2 405.49 203.2 406.32 203.4 409.06C203.8 411.86 199.3 414.12 197.1 415.27C191.4 418.27 187.8 421.97 184.2 427.33C181.7 431.09 180 436.59 176.8 439.85C168.9 439.96 170.3 433.32 172.9 428.53C178.4 418.28 186.8 408.99 198.2 405.37Z"/><path fill="#FEFDFC" d="M302.2 405.92C304.3 406.06 307.3 406.88 307.5 409.63C307.8 412.42 303.4 414.68 301.2 415.84C295.5 418.82 291.9 422.53 288.3 427.89C285.8 431.65 284 437.16 280.8 440.41C273 440.53 274.4 433.88 277 429.09C282.5 418.85 290.9 409.55 302.2 405.92Z"/><path fill="#FEFDFC" d="M406.9 405.92C409 406.06 411.9 406.88 412.1 409.63C412.4 412.43 408 414.69 405.9 415.84C400.1 418.82 396.5 422.53 392.9 427.9C390.4 431.65 388.7 437.16 385.5 440.41C377.6 440.53 379 433.89 381.7 429.1C387.1 418.85 395.6 409.56 406.9 405.92Z"/></svg>