<svg version="1.1" xmlns="http://www.w3.org/2000/svg" style="display: block;" viewBox="0 0 2000 2000" width="500" height="500" preserveAspectRatio="none">
<path transform="translate(0,0)" fill="rgb(8,55,150)" d="M 544.286 687.309 C 529.245 671.326 507.762 651.665 491.449 636.154 C 468.773 614.55 446.292 592.743 424.009 570.734 C 412.879 559.803 393.625 542.945 385.888 531.341 C 369.287 506.443 390.42 468.249 421.681 472.389 C 447.171 475.765 460.63 497.248 478.175 513.316 C 490.206 525.055 502.047 536.919 513.981 548.659 L 647.63 679.774 L 755.635 785.148 C 773.668 802.77 795.361 822.275 811 840.838 C 846.251 882.682 861.479 946.865 853.329 1000.77 C 844.072 1061.99 830.375 1060.01 879.147 1107.08 L 911.507 1138.84 C 939.317 1166.23 974.004 1202.62 1002.33 1227.92 C 1026.47 1201.13 1053 1176.18 1075.55 1148.25 C 1078.69 1142.54 1079.89 1130.36 1079.24 1124.32 C 1071.49 1051.56 1088.73 992.56 1134.88 935.627 C 1268.75 770.472 1425.27 612.582 1614.79 512.485 C 1673.97 481.23 1756.21 448.2 1813.53 500.239 C 1835.83 520.193 1849.08 548.336 1850.26 578.236 C 1852.52 632.621 1823.06 661.973 1789.68 699.693 C 1768.89 723.596 1747.8 747.228 1726.39 770.582 C 1654.19 851.76 1581.16 932.208 1507.33 1011.91 C 1443.03 1081.86 1378.27 1151.39 1313.05 1220.49 L 1221.27 1317.1 C 1206.99 1332.06 1183.89 1354.75 1171.16 1369.72 C 1266.02 1463.52 1360.3 1557.9 1453.99 1652.86 C 1476.15 1675.36 1498.43 1697.75 1520.81 1720.03 C 1532.33 1731.54 1554.03 1752.15 1562.69 1764.58 C 1576.53 1784.44 1584.02 1808.03 1584.17 1832.24 C 1584.65 1862.58 1572.88 1891.83 1551.51 1913.37 C 1506.5 1958.76 1429.13 1954.55 1385.81 1908.83 C 1361.95 1883.65 1339.11 1857.03 1315.94 1831.18 L 1195.55 1698.95 L 1058.12 1548.01 L 1021.85 1507.76 C 1016.3 1501.56 1007.09 1491.78 1002.5 1485.46 C 978.89 1514.25 952.962 1541.62 928.199 1569.49 C 861.625 1643.69 794.483 1717.38 726.779 1790.55 L 652.79 1872.49 C 621.403 1907.35 598.053 1939.99 547.53 1944.28 C 514.208 1947.11 487.156 1941.92 460.966 1920.06 C 437.806 1900.39 423.306 1872.41 420.594 1842.15 C 418.06 1812.36 430.15 1776.7 450.208 1755.09 C 470.619 1733.11 493.731 1710.78 515.003 1689.51 L 620.267 1583.13 L 753.533 1448.99 C 776.378 1426.13 801.637 1399.67 825.434 1378.21 L 735.723 1287.62 C 720.496 1272.28 701.111 1251.21 684.169 1238.56 C 664.959 1224.22 622.897 1239.59 600.465 1242.03 C 540.098 1248.58 478.65 1227.98 435.815 1184.59 C 421.652 1170.15 408.026 1155.48 393.921 1141.09 L 221.635 964.037 L 142.739 883.117 C 130.388 870.396 117.003 858.446 105.686 844.734 C 83.7649 818.173 101.381 777.959 137.014 780.222 C 156.472 781.458 170.584 799.64 183.643 812.894 C 198.807 828.308 213.826 843.865 228.696 859.563 C 250.738 882.412 280.409 910.44 300.072 934.159 C 305.079 925.976 336.264 896.417 345.084 887.309 C 343.016 882.424 323.205 863.98 317.773 858.471 L 243.418 782.124 C 228.945 767.453 214.925 753.144 200.263 737.906 C 182.89 720.936 176.843 697.621 194.198 677.907 C 204.583 666.11 229.979 663.235 242.184 671.965 C 256.939 682.518 272.326 700.26 285.105 713.425 C 316.129 745.757 347.45 777.801 379.065 809.555 C 386.158 816.718 393.126 826.518 399.964 832.879 C 403.831 826.905 435.768 795.845 443.451 787.927 C 431.443 774.603 413.259 757.528 400.046 744.459 L 330.232 675.409 C 317.061 662.569 303.406 650.229 290.621 636.762 C 262.745 608.264 282.084 562.94 323.296 570.031 C 341.441 573.153 361.374 597.465 374.36 610.309 L 428.782 663.886 C 441.087 676.186 453.466 688.412 465.918 700.563 C 475.411 709.826 490.151 723.75 497.96 734.2 C 507.813 721.191 532.025 701.952 544.286 687.309 z"/>
<path transform="translate(0,0)" fill="rgb(254,254,254)" d="M 443.451 787.927 C 431.443 774.603 413.259 757.528 400.046 744.459 L 330.232 675.409 C 317.061 662.569 303.406 650.229 290.621 636.762 C 262.745 608.264 282.084 562.94 323.296 570.031 C 341.441 573.153 361.374 597.465 374.36 610.309 L 428.782 663.886 C 441.087 676.186 453.466 688.412 465.918 700.563 C 475.411 709.826 490.151 723.75 497.96 734.2 C 507.813 721.191 532.025 701.952 544.286 687.309 C 551.506 692.042 574.048 714.825 581.693 722.285 L 657.114 795.927 L 720.198 857.358 C 730.519 867.363 746.796 881.744 755.184 892.606 C 780.632 925.558 787.255 973.719 775.419 1013.48 C 759.471 1067.05 777.157 1115.82 818.021 1153.44 C 857.937 1190.19 896.033 1233.98 937.067 1270.19 C 919.576 1287.21 894.691 1313.19 876.937 1328.67 L 798.895 1249.45 C 773.543 1223.69 742.65 1187.91 712.23 1169.87 C 678.797 1150.03 634.408 1158.77 598.464 1167.67 C 571.647 1174.31 531.334 1163.28 508.243 1147.54 C 461.838 1105.8 411.51 1050.26 368.297 1005.52 L 325.411 961.151 C 317.936 953.415 306.633 942.294 300.072 934.159 C 305.079 925.976 336.264 896.417 345.084 887.309 C 343.016 882.424 323.205 863.98 317.773 858.471 L 243.418 782.124 C 228.945 767.453 214.925 753.144 200.263 737.906 C 182.89 720.936 176.843 697.621 194.198 677.907 C 204.583 666.11 229.979 663.235 242.184 671.965 C 256.939 682.518 272.326 700.26 285.105 713.425 C 316.129 745.757 347.45 777.801 379.065 809.555 C 386.158 816.718 393.126 826.518 399.964 832.879 C 403.831 826.905 435.768 795.845 443.451 787.927 z"/>
<path transform="translate(0,0)" fill="rgb(8,55,150)" d="M 443.451 787.927 C 431.443 774.603 413.259 757.528 400.046 744.459 L 330.232 675.409 C 317.061 662.569 303.406 650.229 290.621 636.762 C 262.745 608.264 282.084 562.94 323.296 570.031 C 341.441 573.153 361.374 597.465 374.36 610.309 L 428.782 663.886 C 441.087 676.186 453.466 688.412 465.918 700.563 C 475.411 709.826 490.151 723.75 497.96 734.2 C 536.882 772.025 574.739 811.232 613.57 849.184 C 620.714 856.167 628.482 863.69 634.656 871.555 C 645.171 886.107 642.657 908.398 629.437 920.686 C 621.734 927.785 611.413 931.337 600.973 930.483 C 580.645 928.966 556.922 899.541 542.513 885.073 L 471.762 814.436 C 467.471 810.134 447.898 790.236 443.451 787.927 z"/>
<path transform="translate(0,0)" fill="rgb(8,55,150)" d="M 345.084 887.309 C 343.016 882.424 323.205 863.98 317.773 858.471 L 243.418 782.124 C 228.945 767.453 214.925 753.144 200.263 737.906 C 182.89 720.936 176.843 697.621 194.198 677.907 C 204.583 666.11 229.979 663.235 242.184 671.965 C 256.939 682.518 272.326 700.26 285.105 713.425 C 316.129 745.757 347.45 777.801 379.065 809.555 C 386.158 816.718 393.126 826.518 399.964 832.879 C 410.574 845.872 424.006 858.616 435.887 870.743 C 456.016 891.353 476.255 911.854 496.604 932.248 C 518.981 954.657 562.619 986.715 525.102 1018.72 C 509.311 1032.19 491.743 1029.24 475.833 1017.33 C 457.619 1003.71 354.5 889.669 345.084 887.309 z"/>
<path transform="translate(0,0)" fill="rgb(254,254,254)" d="M 1726.99 544.281 C 1737.22 543.107 1747.57 543.348 1757.02 547.89 C 1766.66 552.52 1774.73 561.082 1778.22 571.239 C 1781.71 581.376 1780.97 594.287 1776.27 603.933 C 1756.34 644.832 1126.33 1320.11 1117.55 1323.02 L 1116.01 1321.31 C 1096.71 1303.09 1076.49 1284.98 1057.67 1266.4 L 1104.92 1217.03 C 1114.89 1206.55 1126.77 1195.83 1134.24 1183.39 C 1168 1127.15 1121.87 1072.97 1176.48 995.469 C 1207.57 951.343 1245.53 910.253 1282.4 870.886 C 1388.63 757.454 1517.31 635.88 1658.76 569.502 C 1680.01 559.527 1703.79 548.284 1726.99 544.281 z"/>
<path transform="translate(0,0)" fill="rgb(249,96,1)" d="M 995.845 34.2026 C 1007.48 33.598 1013.74 32.8979 1020.79 43.6571 C 1028.4 55.2703 1033.13 67.8181 1038.89 80.3495 C 1049.95 104.211 1060.77 128.181 1071.35 152.258 C 1111.16 170.63 1264.5 150.607 1180.47 226.179 C 1166.59 238.654 1122.45 278.779 1115.05 292.347 C 1123.3 327.367 1128.01 365.862 1134.8 401.439 C 1137.41 415.133 1119.72 431.511 1108.1 426.567 C 1073.47 411.832 1041.41 390.755 1007.48 373.9 C 998.914 369.947 985.356 379.815 977.444 384.158 C 957.037 395.36 937.162 407.181 916.522 418.028 C 907.739 422.644 896.233 429.007 885.834 426.092 C 862.282 418.296 873.068 389.419 875.942 372.042 C 877 365.644 878.114 358.95 879.44 353.047 C 883.933 333.043 885.272 311.083 890.793 291.567 C 874.998 268.618 846.366 248.204 827.023 227.812 C 811.062 210.986 794.628 205.604 802.97 179.819 C 811.316 171.784 819.42 170.178 830.672 168.387 C 853.447 164.761 875.961 162.561 898.895 159.785 C 909.961 158.445 928.355 158.465 935.006 147.518 C 951.402 116.836 963.852 83.44 978.811 51.9585 C 982.851 43.4771 986.89 37.1901 995.845 34.2026 z"/>
<path transform="translate(0,0)" fill="rgb(249,96,1)" d="M 574.653 185.327 C 579.035 185.015 584.451 184.97 588.445 186.987 C 598.031 191.827 622.829 251.954 626.995 264.456 C 649.992 274.597 698.581 269.476 715.938 282.471 C 717.527 286.156 719.097 290.485 720.578 294.271 C 711.7 318.6 670.885 341.316 658.495 361.275 C 659.915 377.408 689.707 468.689 647.141 452.475 C 630.746 446.231 600.609 427.408 583.655 418.418 C 582.17 417.935 579.277 416.866 577.757 417.524 C 559.227 425.549 541.994 438.093 524.138 447.542 C 515.603 452.058 500.418 458.842 492.801 449.975 C 482.976 438.536 492.064 419.114 493.542 406.156 C 495.814 389.989 498.381 373.714 499.543 357.21 C 486.71 345.263 447.445 313.628 442.073 299.676 C 440.492 295.568 439.887 290.328 442.043 286.298 C 444.091 282.469 448.032 280.072 451.973 278.574 C 472.252 270.865 505.475 273.817 527.918 266.722 L 529.233 266.296 C 542.433 251.799 553.233 210.821 564.509 193.076 C 567.689 188.072 568.944 186.619 574.653 185.327 z"/>
<path transform="translate(0,0)" fill="rgb(249,96,1)" d="M 1422.01 185.306 C 1443.32 184.408 1444.1 200.531 1452.29 217.218 C 1460.01 232.955 1466.08 249.463 1474.34 265.095 C 1502.02 274.111 1532.59 270.786 1558.74 280.451 C 1576.62 292.249 1555.42 310.605 1548.11 318.024 C 1535.6 330.739 1513.47 347.105 1504.66 360.449 C 1505.83 378.656 1521.51 433.005 1514.18 446.014 C 1512 449.879 1508.43 452.279 1504.14 453.202 C 1499.76 454.14 1495.22 453.506 1491.03 452.092 C 1477.35 447.485 1440.09 424.632 1426.77 416.168 C 1404.15 422.495 1373.5 452.953 1348.3 454.205 C 1340.83 454.071 1335.01 443.29 1335.53 436.615 C 1337.45 411.936 1343.09 384.327 1348.16 360.176 C 1336.55 348.539 1290.23 309.47 1286.49 297.969 C 1285.16 293.872 1285.23 289.521 1287.47 285.745 C 1290.01 281.453 1294.49 278.922 1299.1 277.418 C 1307.36 274.727 1316.67 274.373 1325.29 273.464 C 1342.45 271.653 1359.68 270.23 1376.27 265.294 C 1389.13 243.872 1397.08 218.333 1408.88 196.275 C 1412.24 189.985 1415.28 187.03 1422.01 185.306 z"/>
</svg>