<svg version="1.1" xmlns="http://www.w3.org/2000/svg" style="display: block;" viewBox="0 0 2000 2000" width="500" height="500" preserveAspectRatio="none">
<path transform="translate(0,0)" fill="rgb(1,49,161)" d="M 964.201 46.4904 C 1047.72 43.3828 1131.32 50.3522 1213.18 67.2478 C 1264.82 78.0529 1319.64 94.65 1368.53 113.861 C 1559.54 188.874 1720.08 325.424 1824.78 501.914 C 1936.79 692.086 1975.64 916.571 1934.03 1133.32 C 1929.34 1157.95 1922.2 1182.75 1915.78 1207.02 C 1912.84 1218.17 1908.7 1228.88 1905.05 1239.8 C 1894.68 1270.8 1883.56 1300.81 1869.95 1330.53 C 1789.49 1506.3 1658.4 1644.74 1491.64 1741.61 C 1379.42 1806.8 1238.18 1849.5 1109.12 1862.16 C 1024.21 1869.64 938.698 1866.3 854.632 1852.21 C 832.948 1848.38 815.658 1846.43 794.22 1840.75 C 768.373 1834.68 740.992 1828.09 715.954 1819.37 C 702.595 1814.72 691.965 1811.15 677.932 1808.56 C 667.571 1812.5 652.914 1822.26 642.595 1828.12 C 623.224 1839.23 603.501 1849.71 583.456 1859.54 C 500.82 1900.15 412.672 1928.41 321.831 1943.42 C 304.028 1946.52 283.584 1951.43 265.13 1949.59 C 218.264 1944.91 183.139 1900.83 195.892 1854.15 C 202.546 1829.79 226.315 1807.51 241.46 1786.76 C 276.568 1738.65 304.397 1684.36 322.093 1627.39 C 325.175 1617.48 330.546 1603.11 331.764 1593.08 L 331.915 1591.75 C 324.278 1582.13 309.044 1568.05 299.937 1558.53 C 282.994 1540.62 266.915 1521.91 251.755 1502.47 C 140.285 1360.37 75.2539 1187.4 65.4919 1007.06 C 55.9687 767.132 140.58 532.982 301.275 354.565 C 417.526 227.391 566.528 134.657 731.965 86.5158 C 803.201 65.7257 890.592 49.6948 964.201 46.4904 z"/>
<path transform="translate(0,0)" fill="rgb(255,255,254)" d="M 986.589 118.443 C 1040.88 116.597 1095.34 120.945 1148.71 130.39 C 1163 133.577 1181.46 133.815 1195.39 137.877 C 1218.54 144.631 1243.81 149.433 1266.67 156.147 C 1488.05 220.994 1674.03 372.211 1782.67 575.715 C 1877.93 756.433 1902.69 966.092 1852.13 1164.03 C 1849.28 1174.95 1846.89 1187.07 1843.6 1197.75 C 1777.63 1412.07 1628.11 1590.77 1428.79 1693.52 C 1253.15 1784.45 1052.39 1814.81 857.712 1779.89 C 822.932 1773.49 810.3 1772.26 775.756 1761.41 C 753.725 1755.5 735.959 1750.29 714.824 1741.8 C 695.534 1735.1 672.629 1723 653.215 1736.13 C 554.322 1803.02 441.217 1849.36 323.592 1870.03 C 312.146 1872.04 276.941 1881.98 267.818 1876.37 C 264.116 1868.95 279.076 1855.94 284.154 1849.68 C 292.704 1839.22 300.805 1828.4 308.436 1817.24 C 344.523 1764.07 372.627 1705.9 391.853 1644.58 C 398.928 1622.72 413.431 1581.46 400.94 1559.2 C 395.677 1549.83 375.161 1531.85 366.527 1523.38 C 357.363 1514.3 348.482 1504.94 339.897 1495.31 C 299.34 1450.28 257.754 1389.54 229.553 1336.01 C 175.162 1232.62 143.946 1118.63 138.077 1001.96 C 129.544 782.524 206.928 568.409 353.781 405.129 C 519.388 224.054 743.23 129.425 986.589 118.443 z"/>
<path transform="translate(0,0)" fill="rgb(1,49,161)" d="M 1051.01 305.42 C 1064.52 304.759 1079.75 307.478 1092.64 311.292 C 1129.74 321.97 1160.98 347.135 1179.31 381.112 C 1216.1 450.279 1211.85 535.589 1202.27 610.859 C 1197.62 647.333 1193.24 669.982 1182.59 705.157 L 1373.59 705.171 C 1385.02 705.171 1396.97 705.305 1408.18 705.185 C 1464.62 704.581 1515.72 701.404 1553.3 751.718 C 1576.11 782.248 1580.68 811.888 1576.28 849.246 C 1574.01 868.573 1560.03 898.264 1544.49 910.108 C 1586.09 953.436 1590.24 1023.3 1550.72 1069.46 C 1546.27 1074.66 1540.95 1079.79 1536.15 1084.72 C 1540.57 1092.15 1547.5 1103.89 1551.47 1111 C 1561.47 1128.92 1562.05 1176.47 1554.9 1195.03 C 1543.41 1224.9 1528.41 1243.4 1500.1 1257.58 C 1509.34 1283.38 1518.83 1296.74 1517.51 1326.12 C 1515.84 1359.78 1501.05 1391.44 1476.31 1414.32 C 1438.44 1448.81 1396.92 1444.02 1349.83 1444.24 C 1314.65 1444.72 1279.47 1444.99 1244.28 1445.06 L 1079.6 1446.23 C 1052.33 1446.39 1019.99 1447.47 993.23 1446.13 C 926.255 1444.87 851.753 1425.11 789.347 1402.23 C 773.502 1396.42 756.649 1391.82 741.642 1384.02 C 737.527 1393.13 730.904 1404.13 723.792 1410.96 C 715.7 1418.74 698.988 1427.49 687.877 1429.05 C 665.846 1432.14 638.613 1430.62 615.934 1430.81 C 581.578 1430.73 547.077 1430.91 512.733 1430.92 C 488.22 1430.93 464.325 1418.85 450.793 1398.27 C 447.296 1392.95 442.25 1382.66 441.763 1376.32 C 440.292 1357.13 440.843 1337.36 440.835 1318.07 L 440.835 1199.38 L 440.807 963.922 C 440.785 922.119 440.589 880.293 440.983 838.498 C 441.227 832.695 441.361 826.826 443.451 821.324 C 458.532 781.615 490.66 774.41 528.984 775.048 C 577.692 775.652 626.458 774.636 675.154 775.231 C 699.866 775.533 715.01 784.794 731.126 802.507 C 794.494 761.371 893.231 618.07 923.63 545.003 C 928.08 534.308 932.996 514.351 936.282 502.518 C 941.124 485.085 943.903 466.533 944.742 448.496 C 946.755 405.248 938.127 374.626 969.78 339.549 C 990.785 316.272 1020.61 307.326 1051.01 305.42 z"/>
<path transform="translate(0,0)" fill="rgb(255,255,254)" d="M 1040.8 368.281 C 1061.45 366.71 1077.63 366.832 1095.41 379.109 C 1152.06 419.21 1148.4 496.31 1146.21 557.626 C 1145.76 603.728 1133.22 646.311 1123.43 690.968 C 1120.11 706.102 1110.5 724.411 1113.14 740.416 C 1114.51 748.783 1126.12 763.48 1134.77 764.553 C 1155.53 767.13 1178.53 765.954 1199.65 765.952 L 1379.4 765.925 L 1437.35 765.832 C 1445.28 765.825 1460.68 765.404 1468.06 766.079 C 1475.96 766.754 1483.57 769.39 1490.2 773.747 C 1534.03 802.116 1529.17 866.887 1475.44 885.075 C 1465.91 888.3 1442.17 887.052 1431.03 887.037 L 1328.09 886.918 C 1314.24 886.908 1300.15 886.655 1286.32 886.939 C 1258.06 887.519 1246.43 895.905 1253.02 924.966 C 1270.41 942.908 1288.81 938.037 1311.95 937.897 L 1414.96 937.925 C 1431.5 937.896 1458.32 935.918 1473.31 939.062 C 1533.52 951.686 1535.49 1029.97 1476.87 1047.61 C 1463.78 1051.55 1442.71 1049.93 1429.46 1049.93 L 1325.39 1049.8 C 1307.82 1049.78 1289.35 1048.93 1272.02 1050.79 C 1244.5 1054.24 1243.93 1092.62 1269.09 1100.36 C 1278.53 1103.27 1295.11 1101.72 1305.49 1101.7 L 1401.03 1101.66 C 1423.82 1101.63 1465.13 1097.69 1482.16 1114.25 C 1507.03 1138.44 1509.1 1171.56 1483.75 1196.65 C 1462.04 1218.12 1434.17 1213.59 1406.25 1213.39 L 1321.15 1213.38 C 1302.98 1213.39 1256.74 1208.17 1252.16 1229.71 C 1244.14 1267.39 1280.27 1264.94 1302.82 1264.86 L 1361.73 1264.62 C 1379.5 1264.56 1400.79 1263.36 1417.83 1267.64 C 1432.93 1271.33 1440.19 1278.59 1448.06 1291.2 C 1470.63 1327.4 1447.95 1380.05 1403.25 1381.63 C 1384.56 1382.3 1364.62 1382.06 1345.28 1382.08 L 1237.02 1382.44 L 1080.29 1383.31 C 1029.77 1383.54 980.111 1384.22 929.823 1376.87 C 915.124 1374.96 901.175 1369.56 886.914 1366.09 C 849.968 1357.1 813.709 1343.92 778.34 1330.01 C 766.86 1325.5 755.229 1322.52 743.533 1318.71 C 742.486 1303.09 743.042 1281.95 743.039 1266.12 L 743.051 1174.99 L 742.909 872.439 C 763.326 855.187 785.271 845.297 805.871 824.45 C 875.983 753.499 938.336 667.698 979.683 576.754 C 998.407 535.568 1005.49 484.856 1006.72 440.238 C 1007.56 409.871 1000.57 375.694 1040.8 368.281 z"/>
</svg>