<svg version="1.1" xmlns="http://www.w3.org/2000/svg" style="display: block;" viewBox="0 0 2000 2000" width="500" height="500" preserveAspectRatio="none">
<path transform="translate(0,0)" fill="rgb(0,39,126)" d="M 520.869 117.312 C 588.784 112.008 718.721 147.054 785.112 169.218 C 1061.98 261.645 1321.21 452.621 1478.34 700.409 C 1502.91 738.801 1525.02 778.714 1544.53 819.906 C 1553.92 839.797 1561.66 860.963 1571.19 880.236 C 1581.2 885.137 1595.84 892.187 1604.02 900.418 C 1624.38 920.926 1631.46 957.963 1643.56 984.27 C 1647.5 992.845 1649.72 1003.21 1655.87 1010.16 C 1671.79 1016.05 1730.02 1009.95 1750.01 1012.11 C 1764.02 1013.63 1784.22 1010.96 1799.9 1012.86 C 1833.56 1016.95 1862.85 1030.73 1887.06 1054.62 C 1927.52 1095.24 1933.54 1134.71 1933.91 1188.87 L 1933.89 1533.18 L 1934.02 1633.99 C 1934.06 1662.4 1934.87 1688.47 1930.4 1717.04 C 1920.88 1777.98 1868.42 1831.71 1807.61 1842.26 C 1778.45 1847.33 1740.2 1845.39 1709.56 1845.41 L 1555.45 1845.43 L 993.848 1845.33 L 905.954 1845.41 C 844.406 1845.39 804.437 1847.87 755.471 1803.51 C 694.27 1748.06 704.703 1675.89 704.708 1601.19 L 704.769 1458.97 C 704.768 1430.05 705.187 1399.17 704.096 1370.37 C 695.245 1372.4 674.056 1380.74 664.859 1384.68 C 639.154 1395.69 601.449 1406.89 578.315 1421.11 C 542.763 1442.98 541.927 1474.38 542.092 1511.37 L 542.264 1561.96 C 542.256 1573.73 542.51 1585.31 539.818 1596.83 C 534.035 1621.04 518.917 1641.98 497.759 1655.09 C 475.586 1668.53 448.945 1671.38 424.034 1665.58 C 383.641 1656.19 355.403 1621.28 353.835 1579.97 C 352.966 1557.08 353.514 1534.64 353.365 1511.68 C 353.31 1503.28 353.689 1490.22 349.406 1482.35 C 338.696 1467.55 314.311 1483.24 304.322 1492.17 C 250.811 1535.98 199.069 1582.13 142.564 1622.17 C 136.237 1626.69 129.642 1630.52 122.524 1633.65 C 107.766 1640.15 84.789 1635.64 76.2793 1621.11 C 71.9468 1613.71 68.7369 1603.32 70.631 1594.71 C 78.8351 1557.42 91.0353 1520.96 101.538 1484.31 L 169.328 1249.28 L 334.025 673.52 L 400.474 439.016 C 409.133 407.811 417.681 379.843 425.738 348.011 C 420.076 339.021 413.704 329.553 408.777 320.195 C 374.821 255.705 399.313 173.242 462.253 136.791 C 482.101 125.297 498.791 121.202 520.869 117.312 z"/>
<path transform="translate(0,0)" fill="rgb(253,242,230)" d="M 474.653 383.414 C 494.459 390.467 505.669 391.089 525.96 394.264 C 607.579 407.035 684.482 430.237 760.71 462.308 C 965.499 547.379 1139.68 692.553 1260.25 878.667 C 1221.74 879.75 1167.37 875.193 1131.78 884.27 C 1095.08 893.628 1078.92 931.51 1065.69 962.653 C 1058.87 978.724 1050.73 995.035 1042.11 1010.78 C 1029.7 1012.72 998.29 1011.96 984.567 1011.95 L 877.103 1011.88 C 867.244 1011.89 852.839 1011.58 843.363 1012.89 C 808.952 1017.65 777.139 1033.64 752.833 1058.26 C 739.235 1071.83 728.174 1087.72 720.172 1105.19 C 701.347 1146.01 704.839 1171 704.853 1215.16 L 705.092 1303.9 C 676.633 1316.55 647.941 1328.68 619.032 1340.27 C 594.847 1350.21 561.871 1362.5 540.726 1377.09 C 537.007 1379.82 532.858 1383.02 529.479 1386.11 C 469.941 1440.52 489.68 1504.57 486.027 1575.4 C 485.548 1585.35 481.674 1596.58 473.638 1602.94 C 452.15 1619.94 418.321 1612.75 411.387 1584.4 C 408.962 1574.49 410.333 1566.56 409.928 1556.82 C 408.364 1519.56 417.248 1476.47 392.55 1444.62 C 380.715 1429.36 363.183 1419.26 343.922 1417.67 C 331.191 1416.62 313.28 1418.51 301.866 1424.36 C 275.252 1437.98 253.904 1460.98 231.025 1479.85 C 198.515 1507.17 166.749 1536.02 133.935 1562.84 C 150.891 1508.01 166.159 1452.05 182.625 1397.08 C 242.324 1196.01 300.586 994.51 357.406 792.605 L 426.412 552.601 L 452.036 462.866 C 459.37 437.928 468.739 408.44 474.653 383.414 z"/>
<path transform="translate(0,0)" fill="rgb(0,39,126)" d="M 604.121 545.533 C 692.147 538.337 769.353 603.835 776.599 691.858 C 783.845 779.881 718.39 857.123 630.372 864.419 C 542.283 871.721 464.965 806.202 457.713 718.109 C 450.461 630.016 516.024 552.736 604.121 545.533 z"/>
<path transform="translate(0,0)" fill="rgb(0,39,126)" d="M 476.974 973.493 C 551.158 972.296 612.28 1031.44 613.524 1105.62 C 614.769 1179.81 555.667 1240.97 481.484 1242.26 C 407.233 1243.55 346.004 1184.38 344.758 1110.13 C 343.512 1035.88 402.721 974.69 476.974 973.493 z"/>
<path transform="translate(0,0)" fill="rgb(237,92,10)" d="M 930.163 751.048 C 974.694 746.169 1014.73 778.355 1019.54 822.894 C 1024.34 867.433 992.091 907.418 947.543 912.149 C 903.101 916.869 863.231 884.709 858.437 840.274 C 853.643 795.84 885.737 755.916 930.163 751.048 z"/>
<path transform="translate(0,0)" fill="rgb(253,242,230)" d="M 1277.97 1093.98 C 1455.05 1083.89 1606.84 1219.11 1617.19 1396.18 C 1627.55 1573.24 1492.54 1725.23 1315.49 1735.84 C 1138.08 1746.48 985.699 1611.13 975.326 1433.7 C 964.954 1256.27 1100.52 1104.09 1277.97 1093.98 z"/>
<path transform="translate(0,0)" fill="rgb(0,39,126)" d="M 1273.71 1172.72 C 1409.08 1161.22 1527.97 1262.05 1538.71 1397.48 C 1549.46 1532.92 1447.96 1651.24 1312.47 1661.22 C 1178.05 1671.13 1060.86 1570.61 1050.2 1436.24 C 1039.54 1301.88 1139.41 1184.13 1273.71 1172.72 z"/>
<path transform="translate(0,0)" fill="rgb(253,242,230)" d="M 1282.06 1237.4 C 1330.45 1230.12 1334.78 1284.2 1293.21 1286.37 C 1226.83 1289.83 1174.53 1330.43 1161.1 1396.17 C 1159.7 1403 1157.47 1406.5 1152.42 1411.44 C 1136.92 1417.79 1116.65 1415.1 1115.79 1395 C 1114.51 1365.19 1133.17 1328.76 1151.29 1305.76 C 1183.24 1265.19 1231.63 1242.94 1282.06 1237.4 z"/>
<path transform="translate(0,0)" fill="rgb(237,92,10)" d="M 533.533 174.354 C 548.218 173.756 568.973 177.374 583.92 179.913 C 929.199 238.567 1262.24 458.309 1443.34 758.716 C 1459.05 784.759 1473.63 811.474 1487.02 838.784 C 1493.19 851.229 1500.78 866.059 1505.34 879.062 L 1422.5 879.189 L 1330.21 879.312 C 1326.02 870.775 1316.37 856.099 1311.11 847.746 C 1293.22 819.146 1273.96 791.43 1253.39 764.695 C 1106.87 574.461 903.638 435.76 673.086 368.648 C 645.397 360.822 619.607 354.648 591.408 348.283 C 557.844 340.706 506.327 340.599 478.66 319.57 C 442.812 292.322 439.22 240.515 467.632 206.452 C 485.737 184.748 505.751 177.37 533.533 174.354 z"/>
<path transform="translate(0,0)" fill="rgb(253,242,230)" d="M 1756.36 1107.06 C 1782 1103.11 1805.98 1120.72 1809.88 1146.36 C 1813.78 1172.01 1796.13 1195.95 1770.48 1199.81 C 1744.9 1203.66 1721.03 1186.06 1717.13 1160.48 C 1713.24 1134.9 1730.79 1111 1756.36 1107.06 z"/>
<path transform="translate(0,0)" fill="rgb(237,92,10)" d="M 1649.25 374.495 C 1654.85 374.759 1656.23 376.623 1660.67 380.233 C 1668.61 401.802 1668.22 417.625 1679.86 440.077 C 1713.33 504.645 1775.27 495.22 1787.56 512.259 C 1789.24 525.203 1752.86 530.611 1739.98 535.693 C 1730.62 539.336 1721.76 544.147 1713.61 550.013 C 1684.83 570.813 1671.87 602.468 1664.94 636.113 C 1663.63 642.515 1662.79 646.254 1658.75 651.632 C 1654.89 653.598 1653.8 653.996 1649.71 652.458 C 1643.07 646.476 1643.77 634.389 1641.06 625.506 C 1626.67 578.336 1608.52 549.078 1559.85 532.792 C 1549.75 528.784 1534.4 527.163 1525.18 521.866 C 1515.1 514.318 1523.87 506.985 1531.6 504.758 C 1556.81 497.495 1573.15 494.502 1594.49 478.049 C 1620.91 457.681 1631.62 431.807 1639.93 400.151 C 1642.34 390.974 1643.47 381.762 1649.25 374.495 z"/>
<path transform="translate(0,0)" fill="rgb(237,92,10)" d="M 1838.88 653.522 C 1849.15 655.73 1852.68 681.303 1856.79 691.701 C 1861.54 703.688 1862.19 702.284 1866.77 710.113 C 1879.19 731.332 1923.76 738.773 1931.49 747.209 L 1931.33 748.965 C 1927.05 753.938 1916.84 756.247 1910.51 758.022 C 1883.38 765.626 1864.28 782.04 1855.43 809.16 C 1853.05 816.447 1849.01 832.029 1845.62 838.284 C 1842.65 839.533 1842.73 839.351 1839.45 839.274 C 1832.68 835.883 1833.01 824.902 1831.35 818.426 C 1823.78 788.946 1806.56 768.712 1777.38 759.13 C 1771.23 757.11 1756.3 753.886 1753.09 748.751 C 1754.02 743.478 1761.82 740.96 1766.41 739.469 C 1790.86 731.525 1811.1 721.806 1822.7 697.524 C 1828.84 684.683 1830.69 664.384 1838.88 653.522 z"/>
</svg>