<svg version="1.1" xmlns="http://www.w3.org/2000/svg" style="display: block;" viewBox="0 0 2000 2000" width="500" height="500" preserveAspectRatio="none">
<path transform="translate(0,0)" fill="rgb(2,45,156)" d="M 1358.36 166.406 C 1408.51 163.316 1395.05 209.502 1385.94 239.559 C 1353.7 345.963 1313.52 451.615 1267.38 552.761 C 1296.99 557.473 1316.91 563.108 1344.9 574.185 C 1413.93 601.53 1472.5 650.068 1512.18 712.814 C 1520.62 726.066 1527.53 737.003 1533.8 751.467 C 1600.46 722.54 1678.09 723.406 1743.73 755.277 C 1896.91 829.655 1965.63 1007.33 1893.93 1164.18 C 1860.7 1237.37 1799.89 1294.46 1724.74 1322.99 C 1716.6 1326 1704.94 1329.84 1696.54 1331.51 C 1659.09 1338.96 1662.86 1331.41 1662.73 1368.57 L 1662.55 1601.52 C 1662.6 1642.03 1663.19 1682.48 1662.29 1722.97 C 1662.52 1747.92 1649.5 1770.17 1624.69 1777.79 C 1571.26 1794.2 1510.87 1799.18 1455.7 1803.6 C 1351.93 1812.08 1247.8 1815.32 1143.7 1813.3 C 1043.25 1812.09 950.49 1806.96 851.139 1792.58 C 732.807 1775.45 744.949 1759.48 745.007 1651.87 L 744.938 1450.05 C 744.888 1420.18 745.004 1390.31 745.01 1360.45 C 745.014 1346.67 741.249 1347 729.794 1342.72 C 715.167 1351.08 701.333 1359.95 686.444 1368.3 C 615.861 1406.17 546.775 1434.79 468.777 1453.56 C 452.989 1457.36 437.318 1460.83 421.381 1463.97 C 407.469 1466.71 390.805 1468.62 377.326 1472.49 L 376.096 1472.86 C 370.001 1482.52 356.777 1515.04 351.414 1527.58 C 332.315 1572.55 313.85 1617.78 296.027 1663.27 C 289.621 1679.81 272.724 1732.59 262.759 1741.36 C 228.782 1771.26 187.644 1803.93 152.443 1832.93 C 129.906 1851.5 103.461 1882.84 80.6429 1844.39 C 73.5426 1832.43 84.0685 1806.66 86.296 1793.54 C 95.6663 1755.87 108.573 1718.45 121.914 1681.87 C 146.104 1617.21 172.428 1553.37 200.844 1490.45 C 216.3 1456.14 238.119 1411.54 251.846 1377.04 C 248.172 1357.95 244.052 1338.79 241.793 1319.48 C 231.965 1235.48 239.31 1144.19 257.648 1061.7 C 263.862 1033.75 297.616 908.996 319.544 896.056 C 326.521 891.939 336.034 891.445 343.698 893.675 C 364.496 899.729 376.421 943.484 386.307 961.903 C 380.645 897.38 381.357 805.348 410.751 747.804 C 426.142 717.674 449.218 687.977 470.666 661.938 C 509.312 615.95 551.156 572.747 595.884 532.651 C 759.189 385.285 952.84 275.547 1163.18 211.178 C 1219.07 193.654 1300.39 172 1358.36 166.406 z"/>
<path transform="translate(0,0)" fill="rgb(254,254,254)" d="M 1240.17 607.851 C 1253.79 608.397 1265.71 612.028 1278.8 615.051 C 1387.42 640.337 1480.29 728.467 1501.93 839.186 C 1506.45 862.266 1501.67 904.082 1519.56 918.936 C 1529.19 927.304 1550.42 923.64 1556.57 912.639 C 1570.88 887.019 1557.73 834.954 1553.32 807.023 C 1577.42 790.927 1615.19 788.938 1643.55 789.9 C 1699.25 791.768 1754.73 822.401 1792.42 862.315 C 1841.71 914.501 1867.65 977.275 1864.22 1049.4 C 1860.47 1128.17 1816.57 1202.08 1750.63 1245.46 C 1723.89 1263.05 1690.97 1275.05 1659.51 1279.9 C 1643.07 1281.98 1624.5 1277.14 1612.14 1291.23 C 1603.56 1301 1606.05 1326.12 1606.06 1339.16 L 1606.15 1395.33 L 1606.21 1573.82 L 1251.5 1573.75 L 801.016 1573.64 L 800.981 1397.01 C 801.004 1380.74 802.371 1325.13 799.505 1313.25 C 795.351 1308.69 791.794 1305.39 787.277 1301.22 C 787.511 1300.98 787.744 1300.74 787.978 1300.5 L 789.174 1299.33 C 807.44 1281.24 844.457 1271.59 818.496 1242.07 C 785.898 1235.55 752.961 1227.29 720.652 1219.42 C 705.97 1215.84 691.285 1210.03 676.739 1207.59 C 763.207 1188.05 859.517 1164.69 934.388 1115.61 C 949.488 1105.71 971.152 1085.81 982.401 1071.55 C 1019.22 1024.89 1052.75 974.051 1078.39 920.326 C 1083.73 909.142 1091.78 893.952 1094.07 881.969 C 1096.28 870.418 1091.37 863.342 1085.06 854.8 C 1067.27 846.856 1024.31 845.559 1003.23 841.291 C 981.902 836.97 956.623 832.965 935.888 827.734 C 944.742 824.129 965.866 818.841 975.922 815.969 L 1054.81 793.059 C 1088.09 783.044 1131.35 770.467 1155.37 743.825 C 1190.57 704.779 1215.33 654.061 1240.17 607.851 z"/>
<path transform="translate(0,0)" fill="rgb(2,45,156)" d="M 1464.61 1108.28 C 1482.77 1108.12 1501.56 1123.02 1494.92 1141.97 C 1483.67 1174.1 1473.01 1205.44 1465.57 1238.8 C 1460.89 1259.82 1456.95 1282 1449.79 1302.26 C 1447.02 1309.9 1436.7 1314.3 1429.36 1316.83 C 1422.94 1317.18 1417.13 1316.2 1411.42 1313.09 C 1405.35 1309.79 1401.21 1304.03 1399.52 1297.38 C 1394.14 1276.13 1432.7 1141.26 1446.01 1120.18 C 1450.39 1113.26 1456.79 1109.92 1464.61 1108.28 z"/>
<path transform="translate(0,0)" fill="rgb(2,45,156)" d="M 1006.39 1190.21 C 1022.21 1189.58 1031.99 1198.97 1035.82 1213.38 C 1041.6 1230.7 1044.05 1248.75 1048.37 1266.33 C 1053.42 1286.9 1063.8 1314.03 1033.61 1321.9 C 1023.77 1322.36 1011.47 1320.59 1006.81 1310.2 C 999.974 1294.99 997.959 1276.04 994.186 1259.63 C 990.355 1242.96 983.225 1224.44 986.11 1207.31 C 987.456 1200.75 1000.28 1193.06 1006.39 1190.21 z"/>
<path transform="translate(0,0)" fill="rgb(254,91,0)" d="M 800.913 1624.61 C 831.51 1626.05 873.943 1624.77 905.367 1624.77 L 1112 1624.76 L 1431.73 1624.75 C 1489.52 1624.76 1548.75 1625.45 1606.41 1624.58 C 1605.41 1645.16 1606.7 1667.76 1606.22 1688.43 C 1605.99 1698.61 1607.06 1713.06 1604.66 1722.76 C 1600.83 1726.7 1586.92 1728.8 1580.78 1730.08 C 1527.85 1738.72 1474.55 1744.9 1421.06 1748.59 C 1394.02 1750.35 1366.75 1750.6 1339.68 1751.93 C 1273.13 1754.91 1206.4 1758.7 1139.74 1756.98 C 1084.19 1755.54 1028.23 1750.93 972.646 1748.85 C 956.014 1748.23 937.83 1744.98 921.113 1743.44 C 881.295 1739.77 840.378 1733.85 801.334 1725.09 C 799.923 1693.22 800.683 1656.73 800.913 1624.61 z"/>
<path transform="translate(0,0)" fill="rgb(254,254,254)" d="M 1064.23 438.029 L 1066.82 438.557 L 1066.87 440.222 C 1063.04 444.795 1055.33 450.213 1050.39 454.54 L 1004.49 494.44 C 970.668 524.488 937.741 555.525 905.748 587.511 C 773.252 719.62 667.961 856.717 566.686 1014.05 C 469.699 1167.16 384.553 1327.46 311.992 1493.54 C 294.489 1532.72 277.455 1572.43 262.013 1612.47 C 254.193 1632.75 246.932 1653.28 239.258 1673.62 C 235.702 1683.04 232.577 1694.37 226.967 1702.79 C 219.266 1714.35 162.019 1759.11 146.613 1771.91 C 145.495 1772.7 146.165 1772.48 144.53 1772.3 C 144.646 1762.5 150.876 1749.16 154.132 1739.71 C 190.009 1635.57 233.891 1532.58 279.868 1432.47 C 302.2 1383.19 325.461 1334.34 349.641 1285.95 C 391.593 1203.44 437.12 1122.8 486.091 1044.26 C 602.19 856.961 740.756 676.002 913.494 537.58 C 946.212 511.361 1025.77 452.283 1064.23 438.029 z"/>
<path transform="translate(0,0)" fill="rgb(254,91,0)" d="M 1681.31 214.529 C 1688.9 214.717 1693.83 218.305 1696.6 225.555 C 1699.07 232.028 1698.29 240.819 1700.07 247.564 C 1706.85 273.259 1715.5 298.86 1729.72 321.476 C 1758.95 368.101 1804.82 385.825 1856.55 396.528 C 1860.69 397.83 1873.12 399.31 1874.39 404.129 C 1876.01 410.266 1874.93 417.003 1868.21 419.171 C 1860.01 421.813 1851.83 422.239 1843.43 424.216 C 1819.24 429.911 1795.27 438.387 1773.99 451.38 C 1735.33 475.918 1713.08 518.849 1702.26 562.197 C 1699.83 571.943 1698.87 582.684 1696.73 592.557 C 1695.25 599.364 1693.72 599.838 1687.95 603.484 C 1684.65 603.447 1679.25 603.431 1677.65 600.314 C 1670.86 587.092 1669.52 568.74 1665.55 554.516 C 1658.53 529.396 1651.47 512.695 1636.81 491.702 C 1609.21 452.168 1571.27 434.951 1525.53 424.084 C 1517.71 422.227 1503.76 422.299 1497.69 417.362 C 1495.51 415.596 1494.23 410.668 1494.17 407.837 C 1494.07 403.437 1497.49 401.369 1501.41 399.803 C 1510.44 396.201 1521.42 394.464 1530.99 392.086 C 1557.47 385.512 1583.62 375.711 1605.46 358.942 C 1637.52 334.327 1654.02 301.454 1665.43 263.414 C 1669.72 249.141 1671.65 224.092 1681.31 214.529 z"/>
</svg>