<svg version="1.1" xmlns="http://www.w3.org/2000/svg" style="display: block;" viewBox="0 0 2000 2000" width="500" height="500" preserveAspectRatio="none">
<path transform="translate(0,0)" fill="rgb(0,51,147)" d="M 1017.83 480.459 C 1069.51 477.437 1107.93 502.574 1133.57 545.937 C 1153.76 532.554 1163.85 526.303 1188.28 522.241 C 1221.78 516.446 1256.2 524.506 1283.65 544.573 C 1338.5 584.465 1345.09 663.387 1306.2 716.728 C 1337.82 731.419 1360.16 755.709 1371.05 788.995 C 1377.75 809.455 1376.44 830.92 1374.53 852.04 C 1383.28 862.309 1393.48 870.989 1403.73 879.689 C 1400.32 864.419 1400.64 848.006 1399.06 832.463 C 1393.97 785.15 1392.03 740.605 1419.93 699.497 C 1462.25 637.13 1561.92 628.549 1613.32 683.611 C 1635.84 707.736 1637.89 728.415 1645.02 758.5 L 1667.05 852.507 L 1701.99 997.165 C 1710.26 1030.47 1724.46 1080.35 1727.13 1113.47 C 1729.88 1145.18 1729.94 1177.08 1727.3 1208.81 C 1725.22 1233.82 1720.1 1257.21 1721.99 1282.62 C 1722.92 1295.09 1726.4 1306 1728.76 1318.47 C 1781.08 1315.47 1798.06 1344.44 1831.73 1377.74 L 1870.71 1416.09 C 1880.64 1425.85 1890.64 1435.35 1899.14 1446.4 C 1916.37 1468.8 1915.33 1507.01 1897.21 1528.63 C 1881.97 1546.8 1863.41 1563.71 1846.54 1580.86 L 1721.13 1706.2 L 1631.6 1796.28 C 1626.01 1801.95 1620.39 1808.08 1614.62 1813.53 C 1591.18 1835.68 1571.96 1864 1537.38 1867.63 C 1508.05 1870.71 1487.56 1857.52 1467.91 1837.2 C 1453.54 1822.35 1439.25 1808.24 1424.84 1793.5 C 1401.75 1767.81 1364.31 1745.9 1361.82 1708.51 C 1361.69 1706.57 1360.13 1695.9 1359.26 1694.8 C 1344.22 1675.67 1261.77 1666.91 1246.43 1663.41 C 1172.21 1646.48 1110.23 1613.05 1057.27 1559.1 C 1052.16 1553.84 1046.53 1549 1041.41 1543.73 C 1028.2 1531.41 1015.02 1515.03 1000.55 1504.36 C 991.928 1512.33 984.602 1520.16 976.551 1528.67 C 959.381 1546.7 940.621 1567.65 922.532 1583.54 C 863.176 1635.69 789.536 1661.44 712.321 1672.1 C 689.927 1675.2 665.489 1679.87 647.418 1694.78 C 644.683 1710.53 644.88 1718.24 636.651 1733.59 C 633.62 1739.12 629.954 1744.28 625.727 1748.96 C 620.886 1754.43 615.114 1759.99 609.778 1765 C 579.575 1793.37 552.03 1824.73 521.251 1852.41 C 515.003 1858.03 504.491 1863.02 496.476 1865.37 C 478.266 1870.66 458.697 1868.4 442.169 1859.11 C 423.557 1848.57 385.189 1807.41 368.61 1790.83 L 246.474 1668.07 L 168.115 1590.11 C 149.661 1572.07 129.842 1553.52 113.064 1534.92 C 90.4909 1509.9 85.2344 1479.35 103.49 1450.36 C 105.806 1446.39 108.644 1442.17 111.872 1438.83 C 137.386 1412.45 163.73 1386.79 189.536 1360.68 C 199.729 1350.36 211.781 1337.5 223.69 1329.47 C 235.337 1321.62 253.059 1320.52 266.157 1316.85 L 267.136 1316.57 C 281.398 1285.96 269.596 1220.22 266.986 1186.88 C 265.665 1170.9 265.611 1154.85 266.825 1138.87 C 271.839 1077.65 285.923 1035.58 300.813 976.792 L 340.109 819.412 C 345.232 799.446 349.735 778.87 354.811 758.858 C 358.137 745.742 361.579 728.341 366.572 716.02 C 373.299 699.669 383.896 685.196 397.452 673.845 C 448.8 630.788 533.918 641.152 575.525 692.957 C 619.55 747.773 601.625 813.699 594.888 876.791 C 605.43 864.492 620.27 850.226 631.782 838.421 L 694.447 773.489 C 704.037 763.473 717.299 750.353 725.863 739.775 L 713.496 725.431 C 686.102 693.688 679.711 672.634 681.853 629.548 C 683.335 599.737 700.573 569.714 723.213 550.421 C 749.343 528.486 783.145 517.884 817.122 520.969 C 848.479 523.714 878.78 537.934 899.215 562.133 C 899.58 561.685 901.008 559.883 901.316 559.553 C 936.802 521.393 962.708 485.228 1017.83 480.459 z"/>
<path transform="translate(0,0)" fill="rgb(254,254,254)" d="M 1016.48 549.273 C 1066.63 541.362 1091.96 598.595 1060.7 633.299 C 1044.18 651.646 1025.82 669.441 1008.6 687.232 L 849.941 850.727 L 805.449 896.362 C 794.625 907.336 783.229 918.439 773.431 930.335 C 768.501 936.321 766.737 939.53 765.948 947.305 C 765.243 954.543 766.583 966.531 772.307 971.796 C 784.538 983.049 801.353 986.508 814.883 975.384 C 827.795 964.768 838.674 952.889 850.224 941.02 L 907.898 881.494 L 1104.16 680.265 C 1127.14 656.627 1149.81 630.454 1172.97 606.286 C 1216.02 558.477 1285.84 620.162 1253.94 669.028 C 1242.29 686.879 1206.36 718.918 1190.37 735.257 L 982.966 947.733 L 925.397 1006.6 C 914.438 1017.81 883.54 1045.08 884.104 1061.01 C 885.108 1089.37 915.262 1105.49 938.268 1083.77 C 949.295 1073.36 960.936 1061.97 971.934 1050.66 L 1021.45 999.825 L 1157.31 860.008 C 1179.43 837.115 1201.6 814.14 1223.47 791.068 C 1232.87 781.955 1248.11 774.652 1261.32 775.605 C 1297.37 778.205 1318.79 815.078 1303.57 847.85 C 1298.17 859.497 1286.28 870.156 1277.59 879.627 C 1267.75 890.343 1257.39 900.852 1247.32 911.366 C 1187.84 972.892 1128.02 1034.1 1067.89 1095 L 1021.8 1141.99 C 1012.34 1151.62 1002.93 1160.66 994.331 1171.13 C 975.571 1192.68 989.981 1224.85 1018.51 1223.9 C 1038.01 1223.25 1061.2 1193.13 1074.33 1179.38 L 1139.32 1111.72 L 1193.75 1055.75 C 1205.06 1043.91 1217.22 1029.31 1229.86 1019.32 C 1250.33 1003.14 1281.4 1008.04 1297.19 1028.1 C 1305.78 1038.87 1309.63 1052.66 1307.86 1066.32 C 1306.65 1076.46 1302.52 1086.04 1295.97 1093.88 C 1290.72 1100.26 1282.57 1107.9 1276.67 1113.97 L 1247.04 1144.86 L 1127.86 1267.77 C 1084.69 1312.13 1042.03 1356.99 999.91 1402.35 L 932.09 1476.3 C 905.404 1505.32 875.494 1539.9 841.458 1560.13 C 808.692 1578.69 768.749 1596.16 731.349 1602.09 C 677.081 1610.7 638.964 1612.73 593.518 1647.4 C 524.525 1575.82 455.128 1504.62 385.332 1433.82 C 364.934 1412.95 339.095 1388.53 319.855 1367.77 C 323.481 1358.8 327.851 1351.14 331.471 1341.42 C 351.552 1290.14 342.899 1240.94 335.797 1188.51 C 329.17 1139.59 344.123 1091.53 355.51 1044.61 L 390.43 905.103 L 414.407 808.389 C 419.311 788.291 423.716 767.999 429.677 748.173 C 431.461 742.239 433.14 736.4 437.226 731.603 C 445.894 721.428 457.906 716.187 471.058 715.171 C 485.743 714.037 501.444 719.263 512.486 728.954 C 525.307 740.208 533.144 757.52 535.041 774.304 C 537.15 792.966 531.725 813.65 529.009 832.145 C 523.786 867.711 517.93 903.154 513.059 938.769 C 511.309 951.559 507.922 966.09 509.142 978.95 C 509.959 987.565 513.844 995.689 520.873 1000.93 C 531.64 1008.95 543.64 1011.87 555.872 1005.35 C 572.544 996.469 634.131 929.115 650.995 911.6 C 731.763 827.446 813.007 743.75 894.723 660.516 L 958.585 594.982 C 970.721 582.418 983.237 568.808 996.204 557.116 C 1002.28 551.64 1008.74 550.484 1016.48 549.273 z"/>
<path transform="translate(0,0)" fill="rgb(254,254,254)" d="M 1520.1 715.367 C 1530.68 713.862 1541.19 717.339 1550.33 722.383 C 1567.49 731.849 1568.1 746.659 1572.62 763.462 C 1577.07 780.019 1580.4 796.506 1584.32 813.096 L 1608.01 911.602 C 1619.51 959.667 1632.41 1007.26 1642.89 1055.63 C 1649.79 1078.96 1653.75 1100.46 1657.24 1124.33 C 1664.7 1175.37 1651.33 1223.69 1651.26 1274.28 C 1651.22 1302.16 1658.65 1345.17 1675.95 1367.53 C 1625.97 1415.23 1572.74 1472.49 1524.24 1522.42 L 1453.05 1595.78 C 1438.2 1611.09 1421.53 1627.6 1407.75 1643.63 C 1383.53 1625.93 1346.13 1611.72 1316.26 1608.13 C 1244.61 1599.5 1188.61 1582.62 1131.36 1536.02 C 1104.3 1513.42 1071.24 1477.36 1045.63 1451.72 C 1064.56 1428.54 1098.22 1394.66 1119.63 1371.77 C 1167.85 1320.01 1216.59 1268.73 1265.85 1217.95 C 1282.31 1200.96 1298.89 1184.08 1315.59 1167.31 C 1325.49 1157.31 1339.93 1143.48 1348.47 1132.78 C 1357.3 1121.84 1364.24 1109.49 1369 1096.26 C 1389.78 1038.93 1356.79 969.451 1299.55 949.443 C 1303.95 943.633 1331.41 915.939 1336.91 911.798 C 1366.89 938.851 1393.73 972.546 1423.99 999.593 C 1429.27 1004.31 1441.81 1009.87 1448.87 1008.37 C 1473.52 1003.12 1485.54 985.261 1481.59 960.267 C 1477.06 921.049 1473.63 883.921 1470.23 845.046 C 1466.99 807.98 1453.68 769.278 1478.64 736.747 C 1489.71 722.445 1503.08 717.528 1520.1 715.367 z"/>
<path transform="translate(0,0)" fill="rgb(254,254,254)" d="M 796.01 589.082 C 822.022 587.644 833.441 595.166 849.634 614.186 C 832.857 633.386 809.393 655.892 791.21 674.728 C 786.225 680.029 781.854 684.782 777.18 690.349 C 754.445 670.098 740.643 649.616 756.26 617.554 C 763.747 602.184 780.069 593.6 796.01 589.082 z"/>
<path transform="translate(0,0)" fill="rgb(254,93,2)" d="M 1036.68 113.221 C 1040.59 112.623 1045.76 112.398 1049.64 112.648 C 1094.75 115.566 1093.26 154.712 1092.66 188.639 C 1092.39 203.826 1092.62 219.466 1092.67 234.22 L 1092.92 290.322 C 1093.02 322.132 1095.89 361.836 1054.34 368.757 C 1021.57 372.68 1000 353.821 1000.47 321.134 C 1000.97 277.103 999.152 233.177 998.702 189.166 C 998.36 155.612 994.298 120.839 1036.68 113.221 z"/>
<path transform="translate(0,0)" fill="rgb(254,93,2)" d="M 743.913 237.369 C 771.593 235.437 782.031 250.629 798.645 268.938 C 811.15 282.72 823.145 297.084 835.561 310.908 L 867.455 346.765 C 877.393 357.8 896.971 377.233 900.205 391.513 C 902.93 403.211 900.895 415.513 894.547 425.71 C 886.31 438.675 876.315 442.967 862.209 446.007 C 853.012 446.129 835.655 444.815 828.94 438.884 C 808.122 420.497 787.762 395.007 768.777 374.273 C 748.923 352.589 728.657 331.661 710.377 309.011 C 707.192 304.16 704.457 296.474 703.644 290.783 C 699.61 262.527 716.911 241.368 743.913 237.369 z"/>
<path transform="translate(0,0)" fill="rgb(254,93,2)" d="M 1344.37 237.22 C 1358.8 235.774 1376.57 243.03 1384.69 255.221 C 1409.28 292.125 1380.23 317.82 1357.18 342.944 L 1320.01 383.731 C 1309.77 395.052 1299.33 406.682 1289.29 418.16 C 1274.93 434.588 1268.91 442.513 1246.25 445.691 C 1220.59 447.616 1202.15 434.343 1196.5 408.95 C 1191.12 384.742 1216.62 360.918 1231.31 344.488 L 1269.31 302.114 C 1281.73 288.197 1293.83 273.965 1306.38 260.14 C 1318.24 247.068 1326.5 240.273 1344.37 237.22 z"/>
</svg>