<svg version="1.1" xmlns="http://www.w3.org/2000/svg" style="display: block;" viewBox="0 0 2000 2000" width="500" height="500" preserveAspectRatio="none">
<path transform="translate(0,0)" fill="rgb(0,40,130)" d="M 1400.56 495.278 C 1412.48 493.87 1424.69 494.834 1436.11 497.883 C 1456.53 503.336 1474.53 520.03 1483.94 538.74 C 1491.67 554.122 1499.27 575.252 1505.61 592.12 C 1514.94 616.914 1528.34 644.219 1533.22 670.096 C 1535.18 680.511 1533.3 692.749 1530.29 702.802 C 1520.55 735.347 1500.44 746.159 1472.53 761.051 C 1506.58 820.45 1536.38 882.193 1561.68 945.813 C 1585.26 1004 1609.06 1070.95 1621.74 1132.51 C 1683.68 1433.18 1547.21 1712.56 1257.82 1828.2 C 1099.88 1891.83 923.004 1889.42 766.856 1821.51 C 619.784 1758.39 502.594 1647.86 442.899 1498.27 C 422.285 1446.31 409.473 1391.58 404.878 1335.87 C 390.668 1177.36 435.825 1042.37 497.461 898.753 C 517.469 851.676 540.309 805.854 565.854 761.538 C 535.873 746.095 511.196 730.442 505.18 694.309 C 503.598 684.715 503.863 674.908 505.96 665.413 C 509.277 650.618 519.743 625.419 526.06 611.107 C 546.392 565.042 553.575 506.167 612.796 497.363 C 623.476 495.733 634.373 496.23 644.86 498.825 C 671.073 505.349 714.357 523.372 741.022 533.193 L 818.029 561.336 C 835.927 567.884 872.306 579.881 886.544 590.657 C 909.977 608.374 922.946 636.674 921.069 665.99 C 919.234 694.824 895.887 747.784 884.613 777.328 L 829.579 920.407 C 790.272 1023.98 747.791 1140.1 763.18 1252.76 C 772.999 1324.65 807.543 1391.73 866.489 1435.57 C 922.493 1476.92 992.66 1494.26 1061.48 1483.75 C 1208.17 1461.47 1286.92 1325.96 1279.47 1186.15 C 1274.48 1092.57 1246.72 1013.47 1214.05 926.678 L 1162.02 791.013 L 1139.48 733.431 C 1122.77 690.866 1106.47 649.719 1137.21 607.909 C 1156.41 581.786 1185.92 574.506 1214.88 563.532 L 1292.49 533.921 C 1309.97 527.316 1327.4 520.581 1344.79 513.716 C 1360.88 507.391 1384.01 497.568 1400.56 495.278 z"/>
<path transform="translate(0,0)" fill="rgb(254,254,254)" d="M 1408.89 558.091 C 1414.85 557.795 1421.96 558.006 1425.01 565.715 C 1435.98 593.492 1467.6 659.891 1468.95 686.115 C 1469.51 696.995 1394.95 718.508 1387.67 730.915 C 1379.21 741.967 1406.37 778.736 1411.97 788.079 C 1469.59 884.363 1514.24 987.836 1544.75 1095.81 C 1587.07 1245.6 1580.9 1398.68 1504.66 1537.4 C 1436.6 1661.23 1307.37 1750.73 1172.62 1788.68 C 1026.36 1829.07 870.045 1809.85 737.918 1735.24 C 613.876 1665.44 524.999 1565.15 486.614 1426.61 C 444.315 1273.95 473.894 1134.9 528.882 990.385 C 552.918 926.454 581.807 864.455 615.294 804.929 C 625.646 786.713 644.83 759.677 651.211 740.391 C 658.844 717.319 561.582 701.353 567.864 682.269 C 575.194 659.998 604.851 571.947 619.423 560.224 C 626.96 557.725 660.57 572.135 669.738 575.53 L 741.941 602.047 L 805.1 624.741 C 816.059 628.661 848.046 638.391 854.061 647.297 C 864.217 662.335 847.179 697.039 840.952 713.123 L 813.683 782.773 C 794.51 830.854 775.771 879.106 757.469 927.526 C 708.59 1058.84 665.775 1204.38 718.056 1342 C 747.748 1421.86 808.169 1486.51 885.838 1521.52 C 966.228 1557.08 1057.36 1559.69 1139.65 1528.78 C 1256.83 1483.89 1328.53 1374.04 1341.29 1252 C 1355.71 1114.13 1307.3 987.732 1257.87 862.037 L 1187.36 681.946 C 1171.92 641.437 1196.43 638.572 1227.76 626.772 L 1278.35 607.642 C 1320.52 591.636 1366.74 572.538 1408.89 558.091 z"/>
<path transform="translate(0,0)" fill="rgb(0,40,130)" d="M 1015.34 1625.56 C 1043.03 1623.51 1067.19 1644.18 1069.43 1671.86 C 1071.67 1699.54 1051.16 1723.83 1023.49 1726.26 C 995.573 1728.7 970.997 1707.95 968.735 1680.01 C 966.473 1652.08 987.39 1627.64 1015.34 1625.56 z"/>
<path transform="translate(0,0)" fill="rgb(0,40,130)" d="M 715.854 1520.51 C 741.863 1515.18 767.245 1532.03 772.421 1558.07 C 777.596 1584.12 760.588 1609.39 734.515 1614.41 C 708.666 1619.38 683.652 1602.55 678.521 1576.74 C 673.39 1550.92 690.068 1525.8 715.854 1520.51 z"/>
<path transform="translate(0,0)" fill="rgb(0,40,130)" d="M 1302.59 1520.53 C 1328.42 1515.41 1353.52 1532.15 1358.73 1557.96 C 1363.94 1583.78 1347.3 1608.94 1321.51 1614.25 C 1295.58 1619.59 1270.25 1602.84 1265.01 1576.89 C 1259.77 1550.93 1276.62 1525.67 1302.59 1520.53 z"/>
<path transform="translate(0,0)" fill="rgb(0,40,130)" d="M 576.515 1279.62 C 600.435 1274.38 624.073 1289.52 629.317 1313.44 C 634.56 1337.36 619.425 1361 595.508 1366.25 C 571.582 1371.5 547.929 1356.36 542.683 1332.43 C 537.437 1308.5 552.586 1284.85 576.515 1279.62 z"/>
<path transform="translate(0,0)" fill="rgb(0,40,130)" d="M 1440.87 1279.69 C 1456.48 1276.25 1472.74 1281.51 1483.39 1293.43 C 1494.05 1305.35 1497.45 1322.09 1492.29 1337.22 C 1487.14 1352.36 1474.22 1363.54 1458.51 1366.47 C 1434.73 1370.92 1411.79 1355.46 1406.97 1331.76 C 1402.15 1308.06 1417.24 1284.88 1440.87 1279.69 z"/>
<path transform="translate(0,0)" fill="rgb(0,40,130)" d="M 1424.14 1015.56 C 1447.29 1011.69 1469.16 1027.41 1472.87 1050.59 C 1476.58 1073.76 1460.71 1095.52 1437.51 1099.07 C 1414.53 1102.58 1393.03 1086.9 1389.36 1063.95 C 1385.69 1041 1401.22 1019.39 1424.14 1015.56 z"/>
<path transform="translate(0,0)" fill="rgb(0,40,130)" d="M 599.887 1015.53 C 623.145 1012.37 644.519 1028.78 647.466 1052.07 C 650.414 1075.35 633.803 1096.58 610.491 1099.31 C 587.481 1102 566.596 1085.66 563.687 1062.67 C 560.778 1039.69 576.931 1018.65 599.887 1015.53 z"/>
<path transform="translate(0,0)" fill="rgb(244,78,1)" d="M 1012.6 213.625 C 1037.68 179.027 1065.76 160.528 1109.55 161.561 C 1166.51 162.533 1210.08 212.777 1207.97 268.941 C 1205.4 336.963 1146.58 392.605 1100 436.312 C 1085.52 449.987 1034.03 496.286 1016.31 499.752 C 1004.77 502.008 952.98 457.95 941.517 447.713 C 893.023 403.425 825.1 345.774 818.181 276.508 C 812.276 217.394 854.014 166.712 913.712 162.431 C 955.5 159.762 988.461 180.681 1012.6 213.625 z"/>
<path transform="translate(0,0)" fill="rgb(244,78,1)" d="M 1744.85 699.336 L 1746.03 699.221 C 1798.62 694.445 1837.78 729.375 1842.56 781.366 C 1843.18 781.091 1843.81 780.824 1844.44 780.566 C 1870.26 769.968 1891.37 767.711 1917.99 778.342 C 1964.2 796.804 1980.14 849.316 1960.17 893.377 C 1943.27 930.662 1903.21 950.176 1866.06 963.951 C 1840.98 972.19 1749.1 1001 1726.27 996.485 C 1706.89 982.178 1674.62 865.06 1669.48 838.72 C 1657.46 777.079 1674.18 710.474 1744.85 699.336 z"/>
<path transform="translate(0,0)" fill="rgb(244,78,1)" d="M 249.325 698.296 C 257.414 697.148 273.678 697.355 281.525 699.835 C 400.687 737.483 333.504 899.655 302.386 978.085 C 300.811 982.057 294.687 993.13 291.372 993.941 C 271.492 998.805 180.656 972.625 168.748 968.027 C 125.009 956.459 72.3519 931.198 54.9472 886.542 C 46.4335 864.952 46.9402 840.849 56.3536 819.636 C 77.4988 772.03 129.409 760.662 174.406 781.485 C 178.285 737.289 205.267 705.513 249.325 698.296 z"/>
<path transform="translate(0,0)" fill="rgb(244,78,1)" d="M 466.895 225.343 C 476.393 224.549 484.279 224.834 493.581 227.334 C 512.124 232.324 527.915 244.494 537.463 261.154 C 551.783 286.688 547.919 318.24 539.971 345.215 C 533.959 365.615 493.075 460.275 477.465 467.075 C 465.136 472.445 405.181 444.237 390.561 438.069 C 375.95 431.561 363.013 423.549 349.035 416.251 C 307.495 394.565 274.043 344.983 302.287 298.799 C 311.552 283.461 326.56 272.458 343.975 268.238 C 365.533 263.108 386.274 268.644 404.755 280.064 C 415.609 247.889 433.029 230.376 466.895 225.343 z"/>
<path transform="translate(0,0)" fill="rgb(244,78,1)" d="M 1555.92 226.349 C 1592.14 222.281 1618.9 246.916 1629.07 279.913 C 1645.27 267.884 1669.65 263.592 1689.06 269.034 C 1705.98 273.963 1720.3 285.34 1728.92 300.715 C 1738.24 317.609 1740 336.154 1734.4 354.502 C 1722.55 393.279 1685.92 412.354 1652.72 430.164 C 1627.33 442.445 1600.85 452.805 1573.98 461.566 C 1556.1 468.114 1551.77 462.939 1543.73 447.173 C 1529.25 418.746 1512.66 388.136 1502.1 358.1 C 1497.46 344.921 1494.08 331.33 1492.02 317.51 C 1485.2 269.92 1506.57 232.896 1555.92 226.349 z"/>
</svg>