<?xml version="1.0" encoding="utf-8" ?><svg xmlns="http://www.w3.org/2000/svg" xmlns:xlink="http://www.w3.org/1999/xlink" width="677" height="755" viewBox="-2 5 677 755"><metadata><c2pa:manifest xmlns:c2pa="http://c2pa.org/manifest">AAA2RWp1bWIAAAAeanVtZGMycGEAEQAQgAAAqgA4m3EDYzJwYQAAADYfanVtYgAAAEdqdW1kYzJtYQARABCAAACqADibcQN1cm46YzJwYTo4NGM2YTgyZi0yOGQ3LTRiNTctYTZkMS05NzU1ODYxOGJiZjAAAAAEEmp1bWIAAAApanVtZGMyYXMAEQAQgAAAqgA4m3EDYzJwYS5hc3NlcnRpb25zAAAAAMxqdW1iAAAARGp1bWRjYm9yABEAEIAAAKoAOJtxE2MycGEuaW5ncmVkaWVudC52MwAAAAAYYzJzaJiV+Eu20tAc2a0pQnF9QiIAAACAY2JvcqRscmVsYXRpb25zaGlwaHBhcmVudE9maGRjOnRpdGxlZnNvdXJjZWlkYzpmb3JtYXRtaW1hZ2Uvc3ZnK3htbGppbnN0YW5jZUlEeCx4bXA6aWlkOmE1Yzc4ZWE3LWY2YWMtNDJkOS05Nzk1LWU0NWQ4NjZiNDNiYgAAAe5qdW1iAAAAQWp1bWRjYm9yABEAEIAAAKoAOJtxE2MycGEuYWN0aW9ucy52MgAAAAAYYzJzaIVUKXpEWdITlA6PO+QSzfkAAAGlY2JvcqFnYWN0aW9uc4KiZmFjdGlvbmtjMnBhLm9wZW5lZGpwYXJhbWV0ZXJzoWtpbmdyZWRpZW50c4GiY3VybHgtc2VsZiNqdW1iZj1jMnBhLmFzc2VydGlvbnMvYzJwYS5pbmdyZWRpZW50LnYzZGhhc2hYIIvITvlPqobiq1QvAXTJA4jXkvx9ZZ/NpAWQA2wB18YjpGZhY3Rpb25sYzJwYS5jcmVhdGVkanBhcmFtZXRlcnOha2luZ3JlZGllbnRzgaJjdXJseC1zZWxmI2p1bWJmPWMycGEuYXNzZXJ0aW9ucy9jMnBhLmluZ3JlZGllbnQudjNkaGFzaFggi8hO+U+qhuKrVC8BdMkDiNeS/H1ln82kBZADbAHXxiNxZGlnaXRhbFNvdXJjZVR5cGV4QWh0dHA6Ly9jdi5pcHRjLm9yZy9uZXdzY29kZXMvZGlnaXRhbHNvdXJjZXR5cGUvY29tcG9zaXRlU3ludGhldGlja2Rlc2NyaXB0aW9ueB9Db21wb3NlZCBpbiB0aGUgUmVjcmFmdCBlZGl0b3IuAAABJ2p1bWIAAABAanVtZGNib3IAEQAQgAAAqgA4m3ETYzJwYS5oYXNoLmRhdGEAAAAAGGMyc2hffq1yJamzzl/EpaA7f7stAAAA32Nib3KlamV4Y2x1c2lvbnOBomVzdGFydBipZmxlbmd0aBlItmRuYW1lbmp1bWJmIG1hbmlmZXN0Y2FsZ2ZzaGEyNTZkaGFzaFggGf/ktOHX6NDNBlWogYTqnFTC58GR4qFhtDKIkwT+r7NjcGFkWGsAAAAAAAAAAAAAAAAAAAAAAAAAAAAAAAAAAAAAAAAAAAAAAAAAAAAAAAAAAAAAAAAAAAAAAAAAAAAAAAAAAAAAAAAAAAAAAAAAAAAAAAAAAAAAAAAAAAAAAAAAAAAAAAAAAAAAAAAAAAAAAAAAApZqdW1iAAAAJ2p1bWRjMmNsABEAEIAAAKoAOJtxA2MycGEuY2xhaW0udjIAAAACZ2Nib3Knamluc3RhbmNlSUR4LHhtcDppaWQ6ZGVkYjJkNzgtNDk1Zi00YTkxLWEwYjctMDViN2JlZDA0ZmZhdGNsYWltX2dlbmVyYXRvcl9pbmZvo2RuYW1lanJlY3JhZnQuYWlndmVyc2lvbngoODFjZTgyZTJjNWMzY2JmYmU4YzZmYmUxNzlkNWY4ZDkxYzQwOWNlMXdvcmcuY29udGVudGF1dGguYzJwYV9yc2YwLjkwLjdpc2lnbmF0dXJleE1zZWxmI2p1bWJmPS9jMnBhL3VybjpjMnBhOjg0YzZhODJmLTI4ZDctNGI1Ny1hNmQxLTk3NTU4NjE4YmJmMC9jMnBhLnNpZ25hdHVyZXJjcmVhdGVkX2Fzc2VydGlvbnOComN1cmx4KnNlbGYjanVtYmY9YzJwYS5hc3NlcnRpb25zL2MycGEuYWN0aW9ucy52MmRoYXNoWCAmyHXGeg/OMYx2EUgYDEmOhW8b61+r1wMm7mSdHZEIvKJjdXJseClzZWxmI2p1bWJmPWMycGEuYXNzZXJ0aW9ucy9jMnBhLmhhc2guZGF0YWRoYXNoWCCj9+Ks1dkZ8/zfCAJuG0QCQEuYctS3zU3Xi61sadz44nNnYXRoZXJlZF9hc3NlcnRpb25zgaJjdXJseC1zZWxmI2p1bWJmPWMycGEuYXNzZXJ0aW9ucy9jMnBhLmluZ3JlZGllbnQudjNkaGFzaFggi8hO+U+qhuKrVC8BdMkDiNeS/H1ln82kBZADbAHXxiNoZGM6dGl0bGVtUmVjcmFmdCBJbWFnZWNhbGdmc2hhMjU2AAAvKGp1bWIAAAAoanVtZGMyY3MAEQAQgAAAqgA4m3EDYzJwYS5zaWduYXR1cmUAAAAu+GNib3LShFkD7KIBJhghglkB9DCCAfAwggGVoAMCAQICFCXBR9VWuKWSQ4c3qcBLczzzY9mDMAoGCCqGSM49BAMCMEExCzAJBgNVBAYTAlVTMRMwEQYDVQQKDApSZWNyYWZ0IEFJMR0wGwYDVQQDDBRSZWNyYWZ0IEMyUEEgUm9vdCBDQTAeFw0yNjA5MTAxNjUyMzRaFw0yNzA5MTAxNjUyMzRaMDcxCzAJBgNVBAYTAlVTMRMwEQYDVQQKDApSZWNyYWZ0IEFJMRMwEQYDVQQDDApyZWNyYWZ0LmFpMFkwEwYHKoZIzj0CAQYIKoZIzj0DAQcDQgAEqDj3aht2JjUXRnfnZbX4dYpHBP55C5vGCtdB9vbWhWvInoLrB2Adeu/MpeQbNfIS2lfxYXfjYt9sQJZx3W4phaN1MHMwDAYDVR0TAQH/BAIwADAOBgNVHQ8BAf8EBAMCBsAwEwYDVR0lBAwwCgYIKwYBBQUHAwQwHQYDVR0OBBYEFIFcIb2xFz0koArmzn1B8QrbqFQEMB8GA1UdIwQYMBaAFHPchfrH1pUR3lr9iLnGnnOY8HQIMAoGCCqGSM49BAMCA0kAMEYCIQCZbQ6UDfr21yEy8W/vATcEi+v+VpLTuEnr5G9FV47X1gIhAKoaM+8/7Dd9jcXZ52bEFU3rtz+woBrSXVxcdvN36dPEWQHsMIIB6DCCAY2gAwIBAgIUAMnaPzSjkFlrv+FeRZLVUB1+40wwCgYIKoZIzj0EAwIwQTELMAkGA1UEBhMCVVMxEzARBgNVBAoMClJlY3JhZnQgQUkxHTAbBgNVBAMMFFJlY3JhZnQgQzJQQSBSb290IENBMB4XDTI2MDkxMDE2NTIzNFoXDTM2MDkwNzE2NTIzNFowQTELMAkGA1UEBhMCVVMxEzARBgNVBAoMClJlY3JhZnQgQUkxHTAbBgNVBAMMFFJlY3JhZnQgQzJQQSBSb290IENBMFkwEwYHKoZIzj0CAQYIKoZIzj0DAQcDQgAEG0Pnhen5KZx4U8KzMUgS4fyYUTlpM7AvC/Izda9UZX/KBAr8xBZN1ro5aD7TbNzywA64qkeaxrXfvIIhboky56NjMGEwHwYDVR0jBBgwFoAUc9yF+sfWlRHeWv2Iucaec5jwdAgwDwYDVR0TAQH/BAUwAwEB/zAOBgNVHQ8BAf8EBAMCAYYwHQYDVR0OBBYEFHPchfrH1pUR3lr9iLnGnnOY8HQIMAoGCCqGSM49BAMCA0kAMEYCIQDQ9mfsa8gUZzG8ZPHgMzHAKvG85dK3wPWNs+6uUKBFHgIhAOmWyN3uO4eXJUWWgEUjjqLSl7Cv2EDFgt74/dXd25pToWNwYWRZKrQAAAAAAAAAAAAAAAAAAAAAAAAAAAAAAAAAAAAAAAAAAAAAAAAAAAAAAAAAAAAAAAAAAAAAAAAAAAAAAAAAAAAAAAAAAAAAAAAAAAAAAAAAAAAAAAAAAAAAAAAAAAAAAAAAAAAAAAAAAAAAAAAAAAAAAAAAAAAAAAAAAAAAAAAAAAAAAAAAAAAAAAAAAAAAAAAAAAAAAAAAAAAAAAAAAAAAAAAAAAAAAAAAAAAAAAAAAAAAAAAAAAAAAAAAAAAAAAAAAAAAAAAAAAAAAAAAAAAAAAAAAAAAAAAAAAAAAAAAAAAAAAAAAAAAAAAAAAAAAAAAAAAAAAAAAAAAAAAAAAAAAAAAAAAAAAAAAAAAAAAAAAAAAAAAAAAAAAAAAAAAAAAAAAAAAAAAAAAAAAAAAAAAAAAAAAAAAAAAAAAAAAAAAAAAAAAAAAAAAAAAAAAAAAAAAAAAAAAAAAAAAAAAAAAAAAAAAAAAAAAAAAAAAAAAAAAAAAAAAAAAAAAAAAAAAAAAAAAAAAAAAAAAAAAAAAAAAAAAAAAAAAAAAAAAAAAAAAAAAAAAAAAAAAAAAAAAAAAAAAAAAAAAAAAAAAAAAAAAAAAAAAAAAAAAAAAAAAAAAAAAAAAAAAAAAAAAAAAAAAAAAAAAAAAAAAAAAAAAAAAAAAAAAAAAAAAAAAAAAAAAAAAAAAAAAAAAAAAAAAAAAAAAAAAAAAAAAAAAAAAAAAAAAAAAAAAAAAAAAAAAAAAAAAAAAAAAAAAAAAAAAAAAAAAAAAAAAAAAAAAAAAAAAAAAAAAAAAAAAAAAAAAAAAAAAAAAAAAAAAAAAAAAAAAAAAAAAAAAAAAAAAAAAAAAAAAAAAAAAAAAAAAAAAAAAAAAAAAAAAAAAAAAAAAAAAAAAAAAAAAAAAAAAAAAAAAAAAAAAAAAAAAAAAAAAAAAAAAAAAAAAAAAAAAAAAAAAAAAAAAAAAAAAAAAAAAAAAAAAAAAAAAAAAAAAAAAAAAAAAAAAAAAAAAAAAAAAAAAAAAAAAAAAAAAAAAAAAAAAAAAAAAAAAAAAAAAAAAAAAAAAAAAAAAAAAAAAAAAAAAAAAAAAAAAAAAAAAAAAAAAAAAAAAAAAAAAAAAAAAAAAAAAAAAAAAAAAAAAAAAAAAAAAAAAAAAAAAAAAAAAAAAAAAAAAAAAAAAAAAAAAAAAAAAAAAAAAAAAAAAAAAAAAAAAAAAAAAAAAAAAAAAAAAAAAAAAAAAAAAAAAAAAAAAAAAAAAAAAAAAAAAAAAAAAAAAAAAAAAAAAAAAAAAAAAAAAAAAAAAAAAAAAAAAAAAAAAAAAAAAAAAAAAAAAAAAAAAAAAAAAAAAAAAAAAAAAAAAAAAAAAAAAAAAAAAAAAAAAAAAAAAAAAAAAAAAAAAAAAAAAAAAAAAAAAAAAAAAAAAAAAAAAAAAAAAAAAAAAAAAAAAAAAAAAAAAAAAAAAAAAAAAAAAAAAAAAAAAAAAAAAAAAAAAAAAAAAAAAAAAAAAAAAAAAAAAAAAAAAAAAAAAAAAAAAAAAAAAAAAAAAAAAAAAAAAAAAAAAAAAAAAAAAAAAAAAAAAAAAAAAAAAAAAAAAAAAAAAAAAAAAAAAAAAAAAAAAAAAAAAAAAAAAAAAAAAAAAAAAAAAAAAAAAAAAAAAAAAAAAAAAAAAAAAAAAAAAAAAAAAAAAAAAAAAAAAAAAAAAAAAAAAAAAAAAAAAAAAAAAAAAAAAAAAAAAAAAAAAAAAAAAAAAAAAAAAAAAAAAAAAAAAAAAAAAAAAAAAAAAAAAAAAAAAAAAAAAAAAAAAAAAAAAAAAAAAAAAAAAAAAAAAAAAAAAAAAAAAAAAAAAAAAAAAAAAAAAAAAAAAAAAAAAAAAAAAAAAAAAAAAAAAAAAAAAAAAAAAAAAAAAAAAAAAAAAAAAAAAAAAAAAAAAAAAAAAAAAAAAAAAAAAAAAAAAAAAAAAAAAAAAAAAAAAAAAAAAAAAAAAAAAAAAAAAAAAAAAAAAAAAAAAAAAAAAAAAAAAAAAAAAAAAAAAAAAAAAAAAAAAAAAAAAAAAAAAAAAAAAAAAAAAAAAAAAAAAAAAAAAAAAAAAAAAAAAAAAAAAAAAAAAAAAAAAAAAAAAAAAAAAAAAAAAAAAAAAAAAAAAAAAAAAAAAAAAAAAAAAAAAAAAAAAAAAAAAAAAAAAAAAAAAAAAAAAAAAAAAAAAAAAAAAAAAAAAAAAAAAAAAAAAAAAAAAAAAAAAAAAAAAAAAAAAAAAAAAAAAAAAAAAAAAAAAAAAAAAAAAAAAAAAAAAAAAAAAAAAAAAAAAAAAAAAAAAAAAAAAAAAAAAAAAAAAAAAAAAAAAAAAAAAAAAAAAAAAAAAAAAAAAAAAAAAAAAAAAAAAAAAAAAAAAAAAAAAAAAAAAAAAAAAAAAAAAAAAAAAAAAAAAAAAAAAAAAAAAAAAAAAAAAAAAAAAAAAAAAAAAAAAAAAAAAAAAAAAAAAAAAAAAAAAAAAAAAAAAAAAAAAAAAAAAAAAAAAAAAAAAAAAAAAAAAAAAAAAAAAAAAAAAAAAAAAAAAAAAAAAAAAAAAAAAAAAAAAAAAAAAAAAAAAAAAAAAAAAAAAAAAAAAAAAAAAAAAAAAAAAAAAAAAAAAAAAAAAAAAAAAAAAAAAAAAAAAAAAAAAAAAAAAAAAAAAAAAAAAAAAAAAAAAAAAAAAAAAAAAAAAAAAAAAAAAAAAAAAAAAAAAAAAAAAAAAAAAAAAAAAAAAAAAAAAAAAAAAAAAAAAAAAAAAAAAAAAAAAAAAAAAAAAAAAAAAAAAAAAAAAAAAAAAAAAAAAAAAAAAAAAAAAAAAAAAAAAAAAAAAAAAAAAAAAAAAAAAAAAAAAAAAAAAAAAAAAAAAAAAAAAAAAAAAAAAAAAAAAAAAAAAAAAAAAAAAAAAAAAAAAAAAAAAAAAAAAAAAAAAAAAAAAAAAAAAAAAAAAAAAAAAAAAAAAAAAAAAAAAAAAAAAAAAAAAAAAAAAAAAAAAAAAAAAAAAAAAAAAAAAAAAAAAAAAAAAAAAAAAAAAAAAAAAAAAAAAAAAAAAAAAAAAAAAAAAAAAAAAAAAAAAAAAAAAAAAAAAAAAAAAAAAAAAAAAAAAAAAAAAAAAAAAAAAAAAAAAAAAAAAAAAAAAAAAAAAAAAAAAAAAAAAAAAAAAAAAAAAAAAAAAAAAAAAAAAAAAAAAAAAAAAAAAAAAAAAAAAAAAAAAAAAAAAAAAAAAAAAAAAAAAAAAAAAAAAAAAAAAAAAAAAAAAAAAAAAAAAAAAAAAAAAAAAAAAAAAAAAAAAAAAAAAAAAAAAAAAAAAAAAAAAAAAAAAAAAAAAAAAAAAAAAAAAAAAAAAAAAAAAAAAAAAAAAAAAAAAAAAAAAAAAAAAAAAAAAAAAAAAAAAAAAAAAAAAAAAAAAAAAAAAAAAAAAAAAAAAAAAAAAAAAAAAAAAAAAAAAAAAAAAAAAAAAAAAAAAAAAAAAAAAAAAAAAAAAAAAAAAAAAAAAAAAAAAAAAAAAAAAAAAAAAAAAAAAAAAAAAAAAAAAAAAAAAAAAAAAAAAAAAAAAAAAAAAAAAAAAAAAAAAAAAAAAAAAAAAAAAAAAAAAAAAAAAAAAAAAAAAAAAAAAAAAAAAAAAAAAAAAAAAAAAAAAAAAAAAAAAAAAAAAAAAAAAAAAAAAAAAAAAAAAAAAAAAAAAAAAAAAAAAAAAAAAAAAAAAAAAAAAAAAAAAAAAAAAAAAAAAAAAAAAAAAAAAAAAAAAAAAAAAAAAAAAAAAAAAAAAAAAAAAAAAAAAAAAAAAAAAAAAAAAAAAAAAAAAAAAAAAAAAAAAAAAAAAAAAAAAAAAAAAAAAAAAAAAAAAAAAAAAAAAAAAAAAAAAAAAAAAAAAAAAAAAAAAAAAAAAAAAAAAAAAAAAAAAAAAAAAAAAAAAAAAAAAAAAAAAAAAAAAAAAAAAAAAAAAAAAAAAAAAAAAAAAAAAAAAAAAAAAAAAAAAAAAAAAAAAAAAAAAAAAAAAAAAAAAAAAAAAAAAAAAAAAAAAAAAAAAAAAAAAAAAAAAAAAAAAAAAAAAAAAAAAAAAAAAAAAAAAAAAAAAAAAAAAAAAAAAAAAAAAAAAAAAAAAAAAAAAAAAAAAAAAAAAAAAAAAAAAAAAAAAAAAAAAAAAAAAAAAAAAAAAAAAAAAAAAAAAAAAAAAAAAAAAAAAAAAAAAAAAAAAAAAAAAAAAAAAAAAAAAAAAAAAAAAAAAAAAAAAAAAAAAAAAAAAAAAAAAAAAAAAAAAAAAAAAAAAAAAAAAAAAAAAAAAAAAAAAAAAAAAAAAAAAAAAAAAAAAAAAAAAAAAAAAAAAAAAAAAAAAAAAAAAAAAAAAAAAAAAAAAAAAAAAAAAAAAAAAAAAAAAAAAAAAAAAAAAAAAAAAAAAAAAAAAAAAAAAAAAAAAAAAAAAAAAAAAAAAAAAAAAAAAAAAAAAAAAAAAAAAAAAAAAAAAAAAAAAAAAAAAAAAAAAAAAAAAAAAAAAAAAAAAAAAAAAAAAAAAAAAAAAAAAAAAAAAAAAAAAAAAAAAAAAAAAAAAAAAAAAAAAAAAAAAAAAAAAAAAAAAAAAAAAAAAAAAAAAAAAAAAAAAAAAAAAAAAAAAAAAAAAAAAAAAAAAAAAAAAAAAAAAAAAAAAAAAAAAAAAAAAAAAAAAAAAAAAAAAAAAAAAAAAAAAAAAAAAAAAAAAAAAAAAAAAAAAAAAAAAAAAAAAAAAAAAAAAAAAAAAAAAAAAAAAAAAAAAAAAAAAAAAAAAAAAAAAAAAAAAAAAAAAAAAAAAAAAAAAAAAAAAAAAAAAAAAAAAAAAAAAAAAAAAAAAAAAAAAAAAAAAAAAAAAAAAAAAAAAAAAAAAAAAAAAAAAAAAAAAAAAAAAAAAAAAAAAAAAAAAAAAAAAAAAAAAAAAAAAAAAAAAAAAAAAAAAAAAAAAAAAAAAAAAAAAAAAAAAAAAAAAAAAAAAAAAAAAAAAAAAAAAAAAAAAAAAAAAAAAAAAAAAAAAAAAAAAAAAAAAAAAAAAAAAAAAAAAAAAAAAAAAAAAAAAAAAAAAAAAAAAAAAAAAAAAAAAAAAAAAAAAAAAAAAAAAAAAAAAAAAAAAAAAAAAAAAAAAAAAAAAAAAAAAAAAAAAAAAAAAAAAAAAAAAAAAAAAAAAAAAAAAAAAAAAAAAAAAAAAAAAAAAAAAAAAAAAAAAAAAAAAAAAAAAAAAAAAAAAAAAAAAAAAAAAAAAAAAAAAAAAAAAAAAAAAAAAAAAAAAAAAAAAAAAAAAAAAAAAAAAAAAAAAAAAAAAAAAAAAAAAAAAAAAAAAAAAAAAAAAAAAAAAAAAAAAAAAAAAAAAAAAAAAAAAAAAAAAAAAAAAAAAAAAAAAAAAAAAAAAAAAAAAAAAAAAAAAAAAAAAAAAAAAAAAAAAAAAAAAAAAAAAAAAAAAAAAAAAAAAAAAAAAAAAAAAAAAAAAAAAAAAAAAAAAAAAAAAAAAAAAAAAAAAAAAAAAAAAAAAAAAAAAAAAAAAAAAAAAAAAAAAAAAAAAAAAAAAAAAAAAAAAAAAAAAAAAAAAAAAAAAAAAAAAAAAAAAAAAAAAAAAAAAAAAAAAAAAAAAAAAAAAAAAAAAAAAAAAAAAAAAAAAAAAAAAAAAAAAAAAAAAAAAAAAAAAAAAAAAAAAAAAAAAAAAAAAAAAAAAAAAAAAAAAAAAAAAAAAAAAAAAAAAAAAAAAAAAAAAAAAAAAAAAAAAAAAAAAAAAAAAAAAAAAAAAAAAAAAAAAAAAAAAAAAAAAAAAAAAAAAAAAAAAAAAAAAAAAAAAAAAAAAAAAAAAAAAAAAAAAAAAAAAAAAAAAAAAAAAAAAAAAAAAAAAAAAAAAAAAAAAAAAAAAAAAAAAAAAAAAAAAAAAAAAAAAAAAAAAAAAAAAAAAAAAAAAAAAAAAAAAAAAAAAAAAAAAAAAAAAAAAAAAAAAAAAAAAAAAAAAAAAAAAAAAAAAAAAAAAAAAAAAAAAAAAAAAAAAAAAAAAAAAAAAAAAAAAAAAAAAAAAAAAAAAAAAAAAAAAAAAAAAAAAAAAAAAAAAAAAAAAAAAAAAAAAAAAAAAAAAAAAAAAAAAAAAAAAAAAAAAAAAAAAAAAAAAAAAAAAAAAAAAAAAAAAAAAAAAAAAAAAAAAAAAAAAAAAAAAAAAAAAAAAAAAAAAAAAAAAAAAAAAAAAAAAAAAAAAAAAAAAAAAAAAAAAAAAAAAAAAAAAAAAAAAAAAAAAAAAAAAAAAAAAAAAAAAAAAAAAAAAAAAAAAAAAAAAAAAAAAAAAAAAAAAAAAAAAAAAAAAAAAAAAAAAAAAAAAAAAAAAAAAAAAAAAAAAAAAAAAAAAAAAAAAAAAAAAAAAAAAAAAAAAAAAAAAAAAAAAAAAAAAAAAAAAAAAAAAAAAAAAAAAAAAAAAAAAAAAAAAAAAAAAAAAAAAAAAAAAAAAAAAAAAAAAAAAAAAAAAAAAAAAAAAAAAAAAAAAAAAAAAAAAAAAAAAAAAAAAAAAAAAAAAAAAAAAAAAAAAAAAAAAAAAAAAAAAAAAAAAAAAAAAAAAAAAAAAAAAAAAAAAAAAAAAAAAAAAAAAAAAAAAAAAAAAAAAAAAAAAAAAAAAAAAAAAAAAAAAAAAAAAAAAAAAAAAAAAAAAAAAAAAAAAAAAAAAAAAAAAAAAAAAAAAAAAAAAAAAAAAAAAAAAAAAAAAAAAAAAAAAAAAAAAAAAAAAAAAAAAAAAAAAAAAAAAAAAAAAAAAAAAAAAAAAAAAAAAAAAAAAAAAAAAAAAAAAAAAAAAAAAAAAAAAAAAAAAAAAAAAAAAAAAAAAAAAAAAAAAAAAAAAAAAAAAAAAAAAAAAAAAAAAAAAAAAAAAAAAAAAAAAAAAAAAAAAAAAAAAAAAAAAAAAAAAAAAAAAAAAAAAAAAAAAAAAAAAAAAAAAAAAAAAAAAAAAAAAAAAAAAAAAAAAAAAAAAAAAAAAAAAAAAAAAAAAAAAAAAAAAAAAAAAAAAAAAAAAAAAAAAAAAAAAAAAAAAAAAAAAAAAAAAAAAAAAAAAAAAAAAAAAAAAAAAAAAAAAAAAAAAAAAAAAAAAAAAAAAAAAAAAAAAAAAAAAAAAAAAAAAAAAAAAAAAAAAAAAAAAAAAAAAAAAAAAAAAAAAAAAAAAAAAAAAAAAAAAAAAAAAAAAAAAAAAAAAAAAAAAAAAAAAAAAAAAAAAAAAAAAAAAAAAAAAAAAAAAAAAAAAAAAAAAAAAAAAAAAAAAAAAAAAAAAAAAAAAAAAAAAAAAAAAAAAAAAAAAAAAAAAAAAAAAAAAAAAAAAAAAAAAAAAAAAAAAAAAAAAAAAAAAAAAAAAAAAAAAAAAAAAAAAAAAAAAAAAAAAAAAAAAAAAAAAAAAAAAAAAAAAAAAAAAAAAAAAAAAAAAAAAAAAAAAAAAAAAAAAAAAAAAAAAAAAAAAAAAAAAAAAAAAAAAAAAAAAAAAAAAAAAAAAAAAAAAAAAAAAAAAAAAAAAAAAAAAAAAAAAAAAAAAAAAAAAAAAAAAAAAAAAAAAAAAAAAAAAAAAAAAAAAAAAAAAAAAAAAAAAAAAAAAAAAAAAAAAAAAAAAAAAAAAAAAAAAAAAAAAAAAAAAAAAAAAAAAAAAAAAAAAAAAAAAAAAAAAAAAAAAAAAAAAAAAAAAAAAAAAAAAAAAAAAAAAAAAAAAAAAAAAAAAAAAAAAAAAAAAAAAAAAAAAAAAAAAAAAAAAAAAAAAAAAAAAAAAAAAAAAAAAAAAAAAAAAAAAAAAAAAAAAAAAAAAAAAAAAAAAAAAAAAAAAAAAAAAAAAAAAAAAAAAAAAAAAAAAAAAAAAAAAAAAAAAAAAAAAAAAAAAAAAAAAAAAAAAAAAAAAAAAAAAAAAAAAAAAAAAAAAAAAAAAAAAAAAAAAAAAAAAAAAAAAAAAAAAAAAAAAAAAAAAAAAAAAAAAAAAAAAAAAAAAAAAAAAAAAAAAAAAAAAAAAAAAAAAAAAAAAAAAAAAAAAAAAAAAAAAAAAAAAAAAAAAAAAAAAAAAAAAAAAAAAAAAAAAAAAAAAAAAAAAAAAAAAAAAAAAAAAAAAAAAAAAAAAAAAAAAAAAAAAAAAAAAAAAAAAAAAAAAAAAAAAAAAAAAAAAAAAAAAAAAAAAAAAAAAAAAAAAAAAAAAAAAAAAAAAAAAAAAAAAAAAAAAAAAAAAAAAAAAAAAAAAAAAAAAAAAAAAAAAAAAAAAAAAAAAAAAAAAAAAAAAAAAAAAAAAAAAAAAAAAAAAAAAAAAAAAAAAAAAAAAAAAAAAAAAAAAAAAAAAAAAAAAAAAAAAAAAAAAAAAAAAAAAAAAAAAAAAAAAAAAAAAAAAAAAAAAAAAAAAAAAAAAAAAAAAAAAAAAAAAAAAAAAAAAAAAAAAAAAAAAAAAAAAAAAAAAAAAAAAAAAAAAAAAAAAAAAAAAAAAAAAAAAAAAAAAAAAAAAAAAAAAAAAAAAAAAAAAAAAAAAAAAAAAAAAAAAAAAAAAAAAAAAAAAAAAAAAAAAAAAAAAAAAAAAAAAAAAAAAAAAAAAAAAAAAAAAAAAAAAAAAAAAAAAAAAAAAAAAAAAAAAAAAAAAAAAAAAAAAAAAAAAAAAAAAAAAAAAAAAAAAAAAAAAAAAAAAAAAAAAAAAAAAAAAAAAAAAAAAAAAAAAAAAAAAAAAAAAAAAAAAAAAAAAAAAAAAAAAAAAAAAAAAAAAAAAAAAAAAAAAAAAAAAAAAAAAAAAAAAAAAAAAAAAAAAAAAAAAAAAAAAAAAAAAAAAAAAAAAAAAAAAAAAAAAAAAAAAAAAAAAAAAAAAAAAAAAAAAAAAAAAAAAAAAAAAAAAAAAAAAAAAAAAAAAAAAAAAAAAAAAAAAAAAAAAAAAAAAAAAAAAAAAAAAAAAAAAAAAAAAAAAAAAAAAAAAAAAAAAAAAAAAAAAAAAAAAAAAAAAAAAAAAAAAAAAAAAAAAAAAAAAAAAAAAAAAAAAAAAAAAAAAAAAAAAAAAAAAAAAAAAAAAAAAAAAAAAAAAAAAAAAAAAAAAAAAAAAAAAAAAAAAAAAAAAAAAAAAAAAAAAAAAAAAAAAAAAAAAAAAAAAAAAAAAAAAAAAAAAAAAAAAAAAAAAAAAAAAAAAAAAAAAAAAAAAAAAAAAAAAAAAAAAAAAAAAAAAAAAAAAAAAAAAAAAAAAAAAAAAAAAAAAAAAAAAAAAAAAAAAAAAAAAAAAAAAAAAAAAAAAAAAAAAAAAAAAAAAAAAAAAAAAAAAAAAAAAAAAAAAAAAAAAAAAAAAAAAAAAAAAAAAAAAAAAAAAAAAAAAAAAAAAAAAAAAAAAAAAAAAAAAAAAAAAAAAAAAAAAAAAAAAAAAAAAAAAAAAAAAAAAAAAAAAAAAAAAAAAAAAAAAAAAAAAAAAAAAAAAAAAAAAAAAAAAAAAAAAAAAAAAAAAAAAAAAAAAAAAAAAAAAAAAAAAAAAAAAAAAAAAAAAAAAAAAAAAAAAAAAAAAAAAAAAAAAAAAAAAAAAAAAAAAAAAAAAAAAAAAAAAAAAAAAAAAAAAAAAAAAAAAAAAAAAAAAAAAAAAAAAAAAAAAAAAAAAAAAAAAAAAAAAAAAAAAAAAAAAAAAAAAAAAAAAAAAAAAAAAAAAAAAAAAAAAAAAAAAAAAAAAAAAAAAAAAAAAAAAAAAAAAAAAAAAAAAAAAAAAAAAAAAAAAAAAAAAAAAAAAAAAAAAAAAAAAAAAAAAAAAAAAAAAAAAAAAAAAAAAAAAAAAAAAAAAAAAAAAAAAAAAAAAAAAAAAAAAAAAAAAAAAAAAAAAAAAAAAAAAAAAAAAAAAAAAAAAAAAAAAAAAAAAAAAAAAAAAAAAAAAAAAAAAAAAAAAAAAAAAAAAAAAAAAAAAAAAAAAAAAAAAAAAAAAAAAAAAAAAAAAAAAAAAAAAAAAAAAAAAAAAAAAAAAAAAAAAAAAAAAAAAAAAAAAAAAAAAAAAAAAAAAAAAAAAAAAAAAAAAAAAAAAAAAAAAAAAAAAAAAAAAAAAAAAAAAAAAAAAAAAAAAAAAAAAAAAAAAAAAAAAAAAAAAAAAAAAAAAAAAAAAAAAAAAAAAAAAAAAAAAAAAAAAAAAAAAAAAAAAAAAAAAAAAAAAAAAAAAAAAAAAAAAAAAAAAAAAAAAAAAAAAAAAAAAAAAAAAAAAAAAAAAAAAAAAAAAAAAAAAAAAAAAAAAAAAAAAAAAAAAAAAAAAAAAAAAAAAAAAAAAAAAAAAAAAAAAAAAAAAAAAAAAAAAAAAAAAAAAAAAAAAAAAAAAAAAAAAAAAAAAAAAAAAAAAAAAAAAAAAAAAAAAAAAAAAAAAAAAAAAAAAAAAAAAAAAAAAAAAAAAAAAAAAAAAAAAAAAAAAAAAAAAAAAAAAAAAAAAAAAAAAAAAAAAAAAAAAAAAAAAAAAAAAAAAAAAAAAAAAAAAAAAAAAAAAAAAAAAAAAAAAAAAAAAAAAAAAAAAAAAAAAAAAAAAAAAAAAAAAAAAAAAAAAAAAAAAAAAAAAAAAAAAAAAAAAAAAAAAAAAAAAAAAAAAAAAAAAAAAAAAAAAAAAAAAAAAAAAAAAAAAAAAAAAAAAAAAAAAAAAAAAAAAAAAAAAAAAAAAAAAAAAAAAAAAAAAAAAAAAAAAAAAAAAAAAAAAAAAAAAAAAAAAAAAAAAAAAAAAAAAAAAAAAAAAAAAAAAAAAAAAAAAAAAAAAAAAAAAAAAAAAAAAAAAAAAAAAAAAAAAAAAAAAAAAAAAAAAAAAAAAAAAAAAAAAAAAAAAAAAAAAAAAAAAAAAAAAAAAAAAAAAAAAAAAAAAAAAAAAAAAAAAAAAAAAAAAAAAAAAAAAAAAAAAAAAAAAAAAAAAAAAAAAAAAAAAAAAAAAAAAAAAAAAAAAAAAAAAAAAAAAAAAAAAAAAAAAAAAAAAAAAAAAAAAAAAAAAAAAAAAAAAAAAAAAAAAAAAAAAAAAAAAAAAAAAAAAAAAAAAAAAAAAAAAAAAAAAAAAAAAAAAAAAAAAAAAAAAAAAAAAAAAAAAAAAAAAAAAAAAAAAAAAAAAAAAAAAAAAAAAAAAAAAAAAAAAAAAAAAAAAAAAAAAAAAAAAAAAAAAAAAAAAAAAAAAAAAAAAAAAAAAAAAAAAAAAAAAAAAAAAAAAAAAAAAAAAAAAAAAAAAAAAAAAAAAAAAAAAAAAAAAAAAAAAAAAAAAAAAAAAAAAAAAAAAAAAAAAAAAAAAAAAAAAAAAAAAAAAAAAAAAAAAAAAAAAAAAAAAAAAAAAAAAAAAAAAAAAAAAAAAAAAAAAAAAAAAAAAAAAAAAAAAAAAAAAAAAAAAAAAAAAAAAAAAAAAAAAAAAAAAAAAAAAAAAAAAAAAAAAAAAAAAAAAAAAAAAAAAAAAAAAAAAAAAAAAAAAAAAAAAAAAAAAAAAAAAAAAAAAAAAAAAAAAAAAAAAAAAAAAAAAAAAAAAAAAAAAAAAAAAAAAAAAAAAAAAAAAAAAAAAAAAAAAAAAAAAAAAAAAAAAAAAAAAAAAAAAAAAAAAAAAAAAAAAAAAAAAAAAAAAAAAAAAAAAAAAAAAAAAAAAAAAAAAAAAAAAAAAAAAAAAAAAAAAAAAAAAAAAAAAAAAAAAAAAAAAAAAAAAAAAAAAAAAAAAAAAAAAAAAAAAAAAAAAAAAAAAAAAAAAAAAAAAAAAAAAAAAAAAAAAAAAAAAAAAAAAAAAAAAAAAAAAAAAAAAAAAAAAAAAAAAAAAAAAAAAAAAAAAAAAAAAAAAAAAAAAAAAAAAAAAAAAAAAAAAAAAAAAAAAAAAAAAAAAAAAAAAAAAAAAAAAAAAAAAAAAAAAAAAAAAAAAAAAAAAAAAAAAAAAAAAAAAAAAAAAAAAAAAAAAAAAAAAAAAAAAAAAAAAAAAAAAAAAAAAAAAAAAAAAAAAAAAAAAAAAAAAAAAAAAAAAAAAAAAAAAAAAAAAAAAAAAAAAAAAAAAAAAAAAAAAAAAAAAAAAAAAAAAAAAAAAAAAAAAAAAAAAAAAAAAAAAAAAAAAAAAAAAAAAAAAAAAAAAAAAAAAAAAAAAAAAAAAAAAAAAAAAAAAAAAAAAAAAAAAAAAAAAAAAAAAAAAAAAAAAAAAAAAAAAAAAAAAAAAAAAAAAAAAAAAAAAAAAAAAAAAAAAAAAAAAAAAAAAAAAAAAAAAAAAAAAAAAAAAAAAAAAAAAAAAAAAAAAAAAAAAAAAAAAAAAAAAAAAAAAAAAAAAAAAAAAAAAAAAAAAAAAAAAAAAAAAAAAAAAAAAAAAAAAAAAAAAAAAAAAAAAAAAAAAAAAAAAAAAAAAAAAAAAAAAAAAAAAAAAAAAAAAAAAAAAAAAAAAAAAAAAAAAAAAAAAAAAAAAAAAAAAAAAAAAAAAAAAAAAAAAAAAAAAAAAAAAAAAAAAAAAAAAAAAAAAAAAAAAAAAAAAAAAAAAAAAAAAAAAAAAAAAAAAAAAAAAAAAAAAAAAAAAAAAAAAAAAAAAAAAAAAAAAAAAAAAAAAAAAAAAAAAAAAAAAAAAAAAAAAAAAAAAAAAAAAAAAAAAAAAAAAAAAAAAAAAAAAAAAAAAAAAAAAAAAAAAAAAAAAAAAAAAAAAAAAAAAAAAAAAAAAAAAAAAAAAAAAAAAAAAAAAAAAAAAAAAAAAAAAAAAAAAAAAAAAAAAAAAAAAAAAAAAAAAAAAAAAAAAAAAAAAAAAAAAAAAAAAAAAAAAAAAAAAAAAAAAAAAAAAAAAAAAAAAAAAAAAAAAAAAAAAAAAAAAAAAAAAAAAAAAAAAAAAAAAAAAAAAAAAAAAAAAAAAAAAAAAAAAAAAAAAAAAAAAAAAAAAAAAAAAAAAAAAAAAAAAAAAAAAAAAAAAAAAAAAAAAAAAAAAAAAAAAAAAAAAAAAAAAAAAAAAAAAAAAAAAAAAAAAAAAAAAAAAAAAAAAAAAAAAAAAAAAAAAAAAAAAAAAAAAAAAAAAAAAAAAAAAAAAAAAAAAAAAAAAAAAAAAAAAAAAAAAAAAAAAAAAAAAAAAAAAAAAAAAAAAAAAAAAAAAAAAAAAAAAAAAAAAAAAAAAAAAAAAAAAAAAAAAAAAAAAAAAAAAAAAAAAAAAAAAAAAAAAAAAAAAAAAAAAAAAAAAAAAAAAAAAAAAAAAAAAAAAAAAAAAAAAAAAAAAAAAAAAAAAAAAAAAAAAAAAAAAAAAAAAAAAAAAAAAAAAAAAAAAAAAAAAAAAAAAAAAAAAAAAAAAAAAAAAAAAAAAAAAAAAAAAAAAAAAAAAAAAAAAAAAAAAAAAAAAAAAAAAAAAAAAAAAAAAAAAAAAAAAAAAAAAAAAAAAAAAAAAAAAAAAAAAAAAAAAAAAAAAAAAAAAAAAAAAAAAAAAAAAAAAAAAAAAAAAAAAAAAAAAAAAAAAAAAAAAAAAAAAAAAAAAAAAAAAAAAAAAAAAAAAAAAAAAAAAAAAAAAAAAAAAAAAAAAAAAAAAAAAAAAAAAAAAAAAAAAAAAAAAAAAAAAAAAAAAAAAAAAAAAAAAAAAAAAAAAAAAAAAAAAAAAAAAAAAAAAAAAAAAAAAAAAAAAAAAAAAAAAAAAAAAAAAAAAAAAAAAAAAAAAAAAAAAAAAAAAAAAAAAAAAAAAAAAAAAAAAAAAAAAAAAAAAAAAAAAAAAAAAAAAAAAAAAAAAAAAAAAAAAAAAAAAAAAAAAAAAAAAAAAAAAAAAAAAAAAAAAAAAAAAAAAAAAAAAAAAAAAAAAAAAAAAAAAAAAAAAAAAAAAAAAAAAAAAAAAAAAAAAAAAAAAAAAAAAAAAAAAAAAAAAAAAAAAAAAAAAAAAAAAAAAAAAAAAAAAAAAAAAAAAAAAAAAAAAAAAAAAAAAAAAAAAAAAAAAAAAAAAAAAAAAAAAAAAAAAAAAAAAAAAAAAAAAAAAAAAAAAAAAAAAAAAAAAAAAAAAAAAAAAAAAAAAAAAAAAAAAAAAAAAAAAAAAAAAAAAAAAAAAAAAAAAAAAAAAAAAAAAAAAAAAAAAAAAAAAAAAAAAAAAAAAAAAAAAAAAAAAAAAAAAAAAAAAAAAAAAAAAAAAAAAAAAAAAAAAAAAAAAAAAAAAAAAAAAAAAAAAAAAAAAAAAAAAAAAAAAAAAAAAAAAAAAAAAAAAAAAAAAAAAAAAAAAAAAAAAAAAAAAAAAAAAAAAAAAAAAAAAAAAAAAAAAAAAAAAAAAAAAAAAAAAAAAAAAAAAAAAAAAAAAAAAAAAAAAAAAAAAAAAAAAAAAAAAAAAAAAAAAAAAAAAAAAAAAAAAAAAAAAAAAAAAAAAAAAAAAAAAAAAAAAAAAAAAAAAAAAAAAAAAAAAAAAAAAAAAAAAAAAAAAAAAAAAAAAAAAAAAAAAAAAAAAAAAAAAAAAAAAAAAAAAAAAAAAAAAAAAAAAAAAAAAAAAAAAAAAAAAAAAAAAAAAAAAAAAAAAAAAAAAAAAAAAAAAAAAAAAAAAAAAAAAAAAAAAAAAAAAAAAAAAAAAAAAAAAAAAAAAAAAAAAAAAAAAAAAAAAAAAAAAAAAAAAAAAAAAAAAAAAAAAAAAAAAAAAAAAAAAAAAAAAAAAAAAAAAAAAAAAAAAAAAAAAAAAAAAAAAAAAAAAAAAAAAAAAAAAAAAAAAAAAAAAAAAAAAAAAAAAAD2WECkEQwgL4sKapusILOXlNzmObRWZL5A1KKY8QZQKcFAbhOWQeVCfclEteSeyPgp9u7KqyKTCt+uIpSUgQU+36MU</c2pa:manifest></metadata><path fill="#113894" transform="scale(0.875 0.874939)" d="M376.26 7.03003C376.51 7.01001 376.77 6.98999 377.04 6.96997C381.9 6.59985 388.54 6.09985 392.06 9.55005C398.38 15.6599 391.51 22.8999 387.16 27.1099C403.28 24.05 416.87 24.6499 432.91 28.0601C434.42 28.3799 436.12 28.8198 437.87 29.27L438.082 29.3239C442.314 30.3993 446.919 31.5693 450.45 31.54C461.2 31.52 471.07 25.8198 481.58 24.74C489.24 23.9399 494.14 29.1299 493.83 36.6599C493.51 45.79 489.4 52.3799 483.16 58.6199C494.38 62.5999 505.84 66.5999 516.74 71.48C521.48 73.5898 527.25 76.54 528.99 81.72C529.94 84.5 529.46 87.4399 527.96 89.9299C524.17 96.46 515.95 98.6299 509.23 100.65C517.85 107.88 524.17 115.11 528.28 125.85C531.75 135.04 535.94 153.76 523.77 158.31C516.44 161.06 507.13 156.57 500.44 153.34L499.99 153.12C500.31 165.97 499.6 175.47 496.36 187.89C495.72 190.36 495.25 194.23 493.91 196.38C490.98 201.15 479.84 203.66 474.63 205.03L476.84 214.42C490.03 210.05 493.43 221.18 482.84 228.24C491.22 241.82 490.43 252.88 473.21 257.29C471.62 269.47 469.65 277.44 465.15 288.79C478.42 289.29 491.77 289.61 505.05 290.5C525.83 291.91 535.55 305.42 546.37 321.36C580.27 329.38 613.29 337.74 647.58 345.42C659.99 348.28 672.47 351.03 684.96 353.69C694.04 355.62 702.58 357.53 711.74 359.77C751.49 369.51 771.4 415.31 749.83 450.51C735.29 474.12 702.42 477.91 677.06 479.04C659.99 479.8 650.9 478.7 636.21 469.16L630.91 471.46C641.98 491.77 634.47 516.23 607.84 513.69C597.18 522.7 584.45 524.5 572.13 517.14C565.33 519.69 562.73 519.94 555.61 519.71C557.27 528.28 558.54 537.29 560.2 546.05C564.46 567.93 568.97 589.77 573.87 611.53L585.56 662.62C587.61 671.44 589.59 680.22 591.49 689.07C593.94 698.53 590.78 708.83 582 714.15C567.56 723 546.45 718.08 529.78 714.19C527.76 713.72 525.8 713.27 523.93 712.85C525.35 744.59 526.62 776.33 527.64 808.08C528.36 827.35 529.54 848.25 529.54 867.42C523.85 867.2 517.61 867.23 511.84 867.34C496.404 867.63 480.827 867.45 465.241 867.27L465.23 867.27L465.221 867.27C446.804 867.06 428.377 866.85 410.15 867.41C408.02 854.79 406.6 838.39 405.1 825.31C403.83 818.56 402.49 803.79 401.62 796.33C400.2 782.56 397.83 766.22 397.12 752.65C386.92 790.9 374.68 829.19 363.93 867.36L276.07 867.32C272.14 867.32 268.19 867.34 264.22 867.36C252.63 867.41 240.95 867.46 229.53 867.15C232.85 840.73 236.4 814.34 239.96 787.95C242.09 772.36 243.99 754.15 246.68 738.84C237.27 736.68 228.03 734.17 218.94 731.29C218.25 731.07 217.54 730.85 216.8 730.61C202.89 726.22 180.39 719.11 183.39 700.85C186.39 682.64 193.74 662.88 199.51 645.24C189.71 644.33 181.18 642.59 173.59 636.02C161.03 625.16 159.13 608.18 170.11 595.6C162.13 588.89 153.6 582.52 145.38 576.15C137.72 585.39 126.42 586.39 117.25 578.66C84.54 550.99 49.9399 523.1 22.52 489.97C20.6201 487.6 18.7998 483.88 17.2202 481.2C-1.18994 446.83 20.7798 421.95 46.9302 401.33C61.8701 389.5 76.5601 378.53 92.1299 367.48C107.69 356.46 123.34 345.54 138.98 334.74L158.18 321.54C160.55 319.89 166.72 315.85 168.61 314.07C171.85 311.02 174.54 304.76 177.7 300.6C182.04 294.93 187.81 290.53 194.45 287.89C202.43 284.71 219.02 283.1 228.03 281.86L274.25 275.6C281.92 268.84 288.16 264.74 297.96 261.87C299.14 258.06 300.09 252.81 301.04 248.72C288 242.12 279.15 234.57 273.62 220.52C267.54 204.8 268.64 189.79 275.36 174.55C274.01 168.07 272.91 161.55 272.67 154.91C272.6 153.512 272.969 151.396 273.338 149.279L273.34 149.27L273.342 149.256C273.832 146.44 274.319 143.638 273.78 142.55C254.18 147.65 261.53 119.96 264.69 109.93C271.25 89.0999 283.73 74.8699 303.09 65.01C298.59 63.52 288.79 62.9399 286.18 61.4199C271.49 52.8799 289.11 41.55 297.48 39.5999C310.6 36.54 319.84 39.1899 330.67 45.3198C338.8 23.01 352.87 11.28 376.26 7.03003ZM150.83 472.15C165.06 484.66 180.86 496.53 194.84 508.84C203.22 517.5 216.1 524.23 226.61 530.7C222.34 502.4 215.55 475.39 208.2 447.77C207.72 446.04 205.27 436.73 204.8 436.01C187.42 447.75 168.53 461.1 150.83 472.15Z"/><path fill="white" transform="scale(0.875 0.874939)" d="M298.75 282.64C300.09 284.32 304.12 299.58 304.99 302.8C308.78 315.89 312.26 329.04 315.5 342.26C333.27 414.33 340.07 487.65 328.14 561.34C323.79 588.37 316.05 617.92 307.99 644.22C303.64 658.57 298.9 672.77 293.69 686.82C288 702.16 282.31 723.56 261.14 720.82C244.78 718.54 228.74 713.69 213.25 708.12C201.64 703.94 202.27 702.91 205.35 692.64C215.86 657.53 228.35 623.11 239.8 588.28C243.36 577.41 247.15 566.13 248.49 554.75C249.13 546.15 247.23 533.79 245.97 525.22C240.59 490.71 231.19 456.97 222.1 423.32C224.4 417.47 224.47 409.41 216.81 407.02C215.07 406.63 212.07 406.96 210.57 407.87C201.56 413.14 192.79 419.63 184.18 425.52C167.74 436.83 151.07 447.92 134.32 458.8C124.76 452.68 109.12 443.67 97.3398 441.94C93.4702 441.39 89.52 446.38 90 450.66C90.1499 452.36 90.8599 453.96 92.1299 455.15C95.9199 458.84 111.72 465.81 117.02 470.07C122.39 474.4 127.68 478.94 132.98 483.36L164.98 510.01L172.64 516.1C156.76 531.9 144.75 547.26 130.05 563.36C110.3 547.04 91.02 530.13 72.2998 512.65C55.1499 496.68 15.0098 464.86 36.5801 439.09C52.1499 420.56 75.6899 404.22 95.3701 389.98C117.02 374.48 138.75 359.21 160.71 344.2C168.06 339.19 176.67 333.7 183.62 328.36C187.65 324.18 189.23 318.42 192.63 313.73C200.06 303.53 217.36 303.52 229.21 301.94C242.25 300.23 255.29 298.44 268.33 296.56C266.98 306.23 260.42 337.96 262.16 345.18C263.51 350.76 279.47 358.74 284.6 362.01C280.81 365.69 264.06 380.04 265.09 385.73C265.88 390.07 270.46 399.53 272.51 404L284.13 429.94C293.06 450.21 301.67 470.62 310.52 490.88C313.52 500.06 327.03 496.66 324.27 487C314.55 452.14 297.09 419.92 283.58 386.56C290.29 379.38 298.43 372.67 304.51 365.05C305.15 364.23 305.94 361.55 306.25 360.44C305.38 357.31 304.59 355.38 301.91 353.37C294.79 348.02 286.66 343.33 279.15 338.54C281.92 323.7 284.13 305.23 287.37 291C291.48 286.68 293.45 285.56 298.75 282.64Z"/><path fill="white" transform="scale(0.875 0.874939)" d="M420.35 118.6C423.11 120.9 427.38 126.27 430.54 129.15C446.26 143.26 460.88 151.73 481.26 157.14C480.79 167.09 480.24 176.13 479.13 186.03C474.07 188.43 467.99 188.89 463.8 191.78C460.33 194.16 462.54 197.97 462.62 200.88C462.3 207.94 462.78 210.93 464.43 217.71C466.25 225.22 472.97 234.18 474.86 240.7C476.13 244.83 462.3 241.66 459.69 245.02C457.09 248.33 457.32 247.57 456.77 252.47C448.24 250.14 439.15 248.75 430.46 251.54C427.46 252.71 418.61 255.81 417.74 259.44C413.95 275.68 431.64 265.68 437.89 264.75C443.1 263.97 449.11 265.68 453.29 267.07C450.53 275.17 446.97 286.15 439.55 291.48C424.3 302.42 395.61 292.61 380.68 285.28C374.76 282.68 369.15 277.2 362.75 276.15C353.98 274.72 352.79 285.84 357.93 290.39C375.55 306 397.35 313.8 420.5 315.62C420.9 320.67 422.79 329 423.82 334.09C425.96 344.14 428.17 354.16 430.54 364.16C443.34 416.77 458.67 468.74 476.52 519.86C484.5 543.26 493.51 567.12 500.15 590.97C501.49 595.81 501.97 605.67 502.36 611L502.99 619.11C447.37 619.39 391.74 619.38 336.04 619.09C359.98 530.05 359.03 446.18 339.2 356.23C332.8 327.4 324.9 300.23 316.44 271.96C318.18 265.41 319.6 256.58 320.95 249.77C323.63 246.96 325.53 243.06 324.03 239.22C321.5 232.82 311.94 232.85 306.09 229.98C282.79 218.49 283.02 176.89 309.25 169.44C316.13 167.45 323.56 168.32 329.88 171.85C337.7 176.18 343.15 184.1 345.68 192.54C346.86 196.95 347.65 206.02 352.87 207.88C360.93 210.73 364.48 200.99 366.06 195.82C369.46 184.81 374.28 174.14 378.71 163.67C391.19 165.16 402.25 155.67 409.36 146.33C415.84 137.77 418.45 128.96 420.35 118.6Z"/><path fill="#E95A0A" transform="scale(0.875 0.874939)" d="M381.63 315.06C386.77 314.69 388.5 317.23 391.74 320.82C396.96 326.44 401.94 332.25 406.99 337.96C403.2 345.96 399.49 353.99 395.77 362.03C404.78 386.85 415.05 412.61 424.45 437.37L480.79 585.96C477.39 593.53 470.28 606.05 466.17 613.87C464.75 615.33 464.12 615.82 462.22 616.26C457.8 615.63 431.64 599.55 426.43 595.9C420.82 570.66 415.45 545.36 410.47 520.02L391.03 427.45L382.74 386.59C382.1 383.55 378.94 366.88 377.84 364.86C373.41 356.69 364.4 346.96 358.87 338.68C363.06 333.9 377.44 318.42 381.63 315.06Z"/><path fill="#113894" transform="scale(0.875 0.874939)" d="M411.26 178.16C416.95 178.31 427.3 185.4 433.62 187.42C440.89 189.76 454.08 184.55 451.16 198.2C450.61 201.03 447.21 203.24 444.76 204.54C432.83 206.62 423.82 201.51 413.23 196.63C403.67 192.2 398.06 182.49 411.26 178.16Z"/><path fill="#113894" transform="scale(0.875 0.874939)" d="M412.05 211.54C416.63 211.55 418.69 213.51 422.48 213.84C425.32 214.05 431.25 211.69 433.86 212.51C442.15 215.14 438.83 222.9 433.46 226.54C417.42 233.29 395.77 220.82 412.05 211.54Z"/><path fill="#053B9F" transform="scale(0.875 0.874939)" d="M316.29 188.37C323 188.78 327.51 194.07 330.27 199.73C333.51 206.26 333.99 211.52 326.79 214.59C318.58 213.7 320.71 210.5 316.92 204.95C314.55 201.56 308.54 197.8 310.52 192.75C311.39 190.48 314.23 189.11 316.29 188.37Z"/><path fill="white" transform="scale(0.875 0.874939)" d="M450.92 307.8C461.83 308.42 502.44 309.05 510.1 311.83C524.4 317.02 527.09 336.26 538.39 339.96C549.61 343.64 561.7 346 573.16 348.78C603.1 356.07 633.28 362.34 663.31 369.53C653.91 373.3 644.58 377.31 635.34 381.57C630.36 378.28 625.94 376.18 619.93 375.27C609.5 373.72 598.91 376.4 590.46 382.7C582.24 388.93 579.63 395.75 578.29 405.67C563.83 412.17 536.97 426.62 528.36 440.17C518.72 455.45 521.17 478.34 526.78 494.74C528.51 499.91 532.94 505.31 533.73 510.07C534.99 517.46 535.86 524.76 537.21 532.13C540.6 550.22 544.16 568.26 548.03 586.26C553.01 610.04 558.3 633.75 563.99 657.39L568.73 678.2C569.76 682.36 570.86 686.41 571.89 690.64C574.02 700 563.12 700.68 557.35 697.05C552.85 694.16 550.32 688.98 548.66 684C544.55 671.42 541.16 658.4 537.52 645.67C531.67 624.31 525.35 603.06 518.72 581.91C510.5 556.1 501.33 531 492.72 505.43C481.74 472.88 471.55 440.08 462.14 407.07C453.45 376.23 446.02 345.04 439.86 313.61C444.13 311.84 446.97 310.17 450.92 307.8Z"/><path fill="#113894" transform="scale(0.875 0.874939)" d="M456.77 300.78C460.25 300.86 480.87 332.47 483.79 337.11C485.93 340.63 488.38 345.82 489.24 348.82C490.59 353.48 484.27 361.09 481.5 364.97C486.87 368.92 504.18 379.64 505.92 385.2C507.97 392.05 510.02 452.51 507.1 457.18C505.68 459.45 503.23 460.05 500.7 460.53C498.01 459.84 494.93 458.4 494.62 455.34C492.48 434.22 492.01 412.5 490.43 391.36C487.58 389.23 484.58 387.05 481.74 384.85C460.4 368.2 457.96 371.82 473.13 349.41C470.76 346.06 446.5 309.22 446.1 306.57C445.71 303.86 451.87 303.16 456.77 300.78Z"/><path fill="white" transform="scale(0.875 0.874939)" d="M693.33 377.61C702.81 376.81 713.4 380.52 721.38 385.87C738.61 397.55 744.45 424.13 731.89 441.27C723.2 453.06 707.48 455.52 693.73 457.61C687.96 458.67 677.37 459.19 671.6 459.25C680.38 434.94 671.92 408.43 652.17 392.23C663.07 387.66 682.11 379.55 693.33 377.61Z"/><path fill="white" transform="scale(0.875 0.874939)" d="M583.98 421.52C592.91 431.05 602.47 433.74 615.35 432.68C619.3 442.05 620.72 447.3 620.56 457.42C616.69 460.45 611.56 464.08 611.95 470.24C612.42 476.46 625.7 490.8 615.19 495.81C604.44 500.93 599.15 479.54 597.02 472.81C595.75 466.11 585.56 465.71 584.45 471.86C582.95 479.81 590.3 496.23 593.7 502.41C588.88 504.15 587.06 504.17 582.16 502.64C573.16 497.5 571.34 485.92 569.05 476.67C568.02 472.42 565.73 465.99 560.04 467.65C552.38 469.87 555.06 479.62 556.48 485.18C557.83 491.18 559.49 496.62 561.46 502.38C554.03 502.14 547.4 499.61 543.92 492.42C538.71 481.68 535.62 455.49 544.71 446.42C554.59 436.55 571.42 428.1 583.98 421.52Z"/><path fill="white" transform="scale(0.875 0.874939)" d="M187.89 529.2C194.45 533.39 223.53 549.55 225.9 554.3C226.92 556.24 227.32 558.62 227 560.79C225.98 569.3 222.02 578.49 219.26 586.62L206.06 625.42C198.64 625.98 193.98 625.95 187.26 622.27C183.31 619.16 180.94 614.41 182.91 609.34C185.21 603.22 194.45 606.13 196.42 600.42C200.14 589.54 184.81 587.52 179.83 580.77C178.17 578.6 177.38 576.84 176.2 574.41C170.03 570.35 164.11 566.01 158.34 561.38C168.61 549.71 176.91 540.19 187.89 529.2Z"/><path fill="white" transform="scale(0.875 0.874939)" d="M630.6 395.21C642.69 412.12 612.82 426.84 597.41 415.88C594.33 413.75 592.28 410.46 591.72 406.77C589.35 391.05 615.51 382.42 628.62 392.9L630.6 395.21Z"/><path fill="#113894" transform="scale(0.875 0.874939)" d="M619.3 401.03C617.72 402.5 618.19 404.48 616.06 406.25C609.42 411.8 603.26 402.07 609.66 398.04C611.4 396.95 614.72 397.74 616.53 398.45C618.35 398.96 618.59 399.06 619.3 401.03Z"/><path fill="#113894" transform="scale(0.875 0.874939)" d="M628.62 392.9L630.6 395.21C628.23 398.37 623.17 400.65 619.3 401.03C616.45 400.35 616.45 400.34 616.53 398.45C619.77 394.78 624.04 393.67 628.62 392.9Z"/><path fill="white" transform="scale(0.875 0.874939)" d="M378.15 636.99C396.01 636.83 413.79 636.85 431.64 637.01C431.72 642.05 431.64 647.2 431.64 652.24L378 652.24C378 647.16 378 642.07 378.15 636.99Z"/><path fill="white" transform="scale(0.875 0.874939)" d="M645.53 408.71C657.3 417.75 658.88 438.17 656.43 451.65L651.85 451.92L644.98 452C645.53 440.33 642.92 432.01 638.42 421.46C642.61 416.98 643.48 414.35 645.53 408.71Z"/><path fill="#113894" transform="scale(0.875 0.874939)" d="M145.54 751.11C158.89 750.27 162.13 759.7 159.37 771.07C163.24 768.83 166.87 767.02 171.46 767.43C174.78 767.73 177.78 769.4 179.83 772.04C184.42 777.85 183.62 787.17 177.46 791.63C172.25 795.42 167.35 794.04 161.5 792.99C166.4 803.23 164.5 811.36 152.97 814.42C140.01 814.95 137.48 807.99 138.82 796.65C134.72 798.96 130.45 800.93 125.55 800.14C122.31 799.63 119.39 797.77 117.57 795.03C113.46 788.83 114.65 778.77 121.44 774.86C126.74 771.85 131.56 773.2 136.93 774.62C131.24 764.29 132.27 753.31 145.54 751.11Z"/><path fill="#113894" transform="scale(0.875 0.874939)" d="M597.33 768.04C610.45 766.8 614.4 772.66 613.61 785.12C617.09 782.89 620.17 781.31 624.43 781.3C635.42 781.27 639.6 795.59 631.86 802.54C627.67 806.28 623.33 805.82 618.11 805.62C624.75 816.35 619.93 823.04 608.63 825.62C598.04 824.36 595.91 820.97 595.67 810.59C592.2 813.12 588.64 815.15 584.22 815.08C580.9 815.04 577.66 813.66 575.37 811.23C570.55 806.04 570.71 797.1 576.4 792.55C581.06 788.87 585.56 789.62 591.01 790.15C585.48 780.73 586.27 772.16 597.33 768.04Z"/><path fill="#113894" transform="scale(0.875 0.874939)" d="M204.48 808.08C212.07 807.67 215.15 812.1 212.39 819.08C206.78 833.36 192.16 846.32 178.57 852.92C162.53 859.46 171.85 815.36 204.48 808.08Z"/><path fill="#113894" transform="scale(0.875 0.874939)" d="M556.64 824.51C574.02 823.87 591.72 851.46 581.29 858.12C568.65 857.07 544.24 833.67 556.64 824.51Z"/><path fill="#113894" transform="scale(0.875 0.874939)" d="M155.18 818.13C162.84 818.73 162.69 829.65 163.79 836.12C164.98 842.83 168.3 855.53 162.13 859.9C152.1 861.96 154.31 849.15 153.52 842.61C152.73 835.95 152.34 828.92 151.78 822.25C151.7 820.68 154.07 819.02 155.18 818.13Z"/><path fill="#113894" transform="scale(0.875 0.874939)" d="M597.25 828.69C605.47 828.69 602.47 837.91 601.21 843.79C599.78 850.74 600.81 860.31 593.7 862.76C588.01 861.18 587.3 856.86 588.64 851.67C590.22 845.8 592.36 832.04 597.25 828.69Z"/></svg>