<?xml version="1.0" encoding="UTF-8"?>
<svg xmlns="http://www.w3.org/2000/svg" xmlns:xlink="http://www.w3.org/1999/xlink" width="100px" height="px" viewBox="0 0 100 100" version="1.1">
<g id="surface1">
<path style=" stroke:none;fill-rule:evenodd;fill:rgb(99.607843%,99.607843%,99.607843%);fill-opacity:1;" d="M -0.0625 -0.0625 C 33.269531 -0.0625 66.605469 -0.0625 99.9375 -0.0625 C 99.9375 33.269531 99.9375 66.605469 99.9375 99.9375 C 66.605469 99.9375 33.269531 99.9375 -0.0625 99.9375 C -0.0625 66.605469 -0.0625 33.269531 -0.0625 -0.0625 Z M -0.0625 -0.0625 "/>
<path style=" stroke:none;fill-rule:evenodd;fill:rgb(6.27451%,21.960784%,58.039218%);fill-opacity:1;" d="M 15.6875 6.0625 C 20.230469 6.042969 24.769531 6.0625 29.3125 6.125 C 29.375 6.1875 29.4375 6.25 29.5 6.3125 C 29.710938 8.902344 30 11.488281 30.375 14.0625 C 30.472656 14.230469 30.617188 14.335938 30.8125 14.375 C 40.605469 14.453125 50.398438 14.453125 60.1875 14.375 C 60.964844 14.609375 61.441406 15.132812 61.625 15.9375 C 61.789062 17.101562 61.664062 18.226562 61.25 19.3125 C 61.023438 19.417969 60.792969 19.519531 60.5625 19.625 C 51.1875 19.804688 41.8125 19.867188 32.4375 19.8125 C 32.59375 20.457031 32.824219 21.082031 33.125 21.6875 C 34.207031 23.441406 35.292969 25.191406 36.375 26.9375 C 37.40625 28.289062 38.40625 29.664062 39.375 31.0625 C 40.089844 31.839844 40.839844 32.589844 41.625 33.3125 C 41.667969 33.4375 41.707031 33.5625 41.75 33.6875 C 44.738281 36.757812 47.800781 39.738281 50.9375 42.625 C 51.386719 42.78125 51.71875 43.074219 51.9375 43.5 C 52.640625 43.957031 53.308594 44.457031 53.9375 45 C 54.15625 45.425781 54.488281 45.71875 54.9375 45.875 C 55.4375 46.375 55.9375 46.875 56.4375 47.375 C 57.390625 48.144531 58.351562 48.914062 59.3125 49.6875 C 62.324219 52.386719 65.324219 55.117188 68.3125 57.875 C 75.359375 64.515625 80.402344 72.476562 83.4375 81.75 C 83.691406 83.03125 83.980469 84.300781 84.3125 85.5625 C 84.65625 88.105469 84.949219 90.648438 85.1875 93.1875 C 80.355469 93.1875 75.519531 93.1875 70.6875 93.1875 C 70.789062 90.414062 70.582031 87.664062 70.0625 84.9375 C 60.0625 84.835938 50.0625 84.773438 40.0625 84.75 C 39.269531 84.328125 38.894531 83.664062 38.9375 82.75 C 38.964844 81.789062 39.109375 80.851562 39.375 79.9375 C 39.601562 79.832031 39.832031 79.730469 40.0625 79.625 C 49.355469 79.5625 58.644531 79.542969 67.9375 79.5625 C 67.867188 79.003906 67.722656 78.464844 67.5 77.9375 C 66.875 76.765625 66.25 75.601562 65.625 74.4375 C 64.171875 72.398438 62.710938 70.355469 61.25 68.3125 C 58.996094 65.679688 56.597656 63.160156 54.0625 60.75 C 53.128906 60.085938 52.296875 59.316406 51.5625 58.4375 C 51.140625 58.144531 50.722656 57.851562 50.3125 57.5625 C 49.015625 58.480469 47.851562 59.542969 46.8125 60.75 C 46.6875 60.792969 46.5625 60.832031 46.4375 60.875 C 45.207031 62.105469 43.980469 63.332031 42.75 64.5625 C 42.707031 64.6875 42.667969 64.8125 42.625 64.9375 C 42.046875 65.425781 41.527344 65.96875 41.0625 66.5625 C 45.484375 66.628906 49.902344 66.730469 54.3125 66.875 C 54.917969 67.144531 55.230469 67.621094 55.25 68.3125 C 55.425781 69.398438 55.300781 70.441406 54.875 71.4375 C 54.621094 71.628906 54.347656 71.796875 54.0625 71.9375 C 48.222656 72.019531 42.390625 72.105469 36.5625 72.1875 C 33.480469 76.621094 31.375 81.496094 30.25 86.8125 C 29.988281 88.929688 29.882812 91.054688 29.9375 93.1875 C 25.1875 93.1875 20.4375 93.1875 15.6875 93.1875 C 15.660156 88.535156 16.410156 84.015625 17.9375 79.625 C 21.054688 71.449219 25.679688 64.367188 31.8125 58.375 C 32.019531 58.25 32.230469 58.125 32.4375 58 C 32.953125 57.390625 33.496094 56.804688 34.0625 56.25 C 36.160156 54.382812 38.285156 52.527344 40.4375 50.6875 C 41.1875 50.257812 41.230469 49.777344 40.5625 49.25 C 39.730469 48.582031 38.894531 47.917969 38.0625 47.25 C 33.726562 43.308594 29.726562 39.082031 26.0625 34.5625 C 24.765625 32.886719 23.554688 31.136719 22.4375 29.3125 C 21.496094 27.46875 20.515625 25.636719 19.5 23.8125 C 18.894531 22.367188 18.308594 20.910156 17.75 19.4375 C 17.132812 17.359375 16.613281 15.253906 16.1875 13.125 C 15.835938 10.785156 15.667969 8.429688 15.6875 6.0625 Z M 15.6875 6.0625 "/>
<path style=" stroke:none;fill-rule:evenodd;fill:rgb(6.27451%,21.960784%,58.039218%);fill-opacity:1;" d="M 71.1875 6.0625 C 75.863281 6 80.53125 6.0625 85.1875 6.25 C 84.949219 8.796875 84.65625 11.359375 84.3125 13.9375 C 83.867188 16.121094 83.285156 18.269531 82.5625 20.375 C 81.707031 22.316406 80.832031 24.253906 79.9375 26.1875 C 79.308594 27.253906 78.703125 28.339844 78.125 29.4375 C 77.507812 30.347656 76.90625 31.265625 76.3125 32.1875 C 76.1875 32.292969 76.0625 32.394531 75.9375 32.5 C 66.144531 32.582031 56.355469 32.582031 46.5625 32.5 C 46.082031 32.269531 45.726562 31.914062 45.5 31.4375 C 45.386719 30.304688 45.425781 29.179688 45.625 28.0625 C 45.957031 27.835938 46.269531 27.585938 46.5625 27.3125 C 52.394531 27.207031 58.230469 27.144531 64.0625 27.125 C 65.214844 25.679688 66.191406 24.117188 67 22.4375 C 67.117188 22.367188 67.21875 22.285156 67.3125 22.1875 C 68.5625 19.535156 69.539062 16.785156 70.25 13.9375 C 70.734375 11.328125 71.046875 8.703125 71.1875 6.0625 Z M 71.1875 6.0625 "/>
</g>
</svg>
