<?xml version="1.0" encoding="UTF-8"?>
<!DOCTYPE svg PUBLIC "-//W3C//DTD SVG 1.1//EN" "http://www.w3.org/Graphics/SVG/1.1/DTD/svg11.dtd">
<svg xmlns="http://www.w3.org/2000/svg" version="1.1" width="800px" height="800px" style="shape-rendering:geometricPrecision; text-rendering:geometricPrecision; image-rendering:optimizeQuality; fill-rule:evenodd; clip-rule:evenodd" xmlns:xlink="http://www.w3.org/1999/xlink">
<g><path style="opacity:1" fill="#fefefe" d="M -0.5,-0.5 C 266.167,-0.5 532.833,-0.5 799.5,-0.5C 799.5,266.167 799.5,532.833 799.5,799.5C 532.833,799.5 266.167,799.5 -0.5,799.5C -0.5,532.833 -0.5,266.167 -0.5,-0.5 Z"/></g>
<g><path style="opacity:1" fill="#103894" d="M 125.5,48.5 C 161.835,48.3333 198.168,48.5 234.5,49C 235,49.5 235.5,50 236,50.5C 237.673,71.2303 240.007,91.897 243,112.5C 243.772,113.849 244.939,114.682 246.5,115C 324.845,115.624 403.179,115.624 481.5,115C 487.71,116.88 491.543,121.047 493,127.5C 494.319,136.799 493.319,145.799 490,154.5C 488.184,155.329 486.351,156.163 484.5,157C 409.513,158.445 334.513,158.945 259.5,158.5C 260.746,163.67 262.58,168.67 265,173.5C 273.67,187.527 282.336,201.527 291,215.5C 299.24,226.31 307.24,237.31 315,248.5C 320.721,254.711 326.721,260.711 333,266.5C 333.333,267.5 333.667,268.5 334,269.5C 357.891,294.059 382.391,317.893 407.5,341C 411.082,342.246 413.749,344.58 415.5,348C 421.14,351.647 426.473,355.647 431.5,360C 433.251,363.42 435.918,365.754 439.5,367C 443.5,371 447.5,375 451.5,379C 459.138,385.159 466.804,391.325 474.5,397.5C 498.6,419.095 522.6,440.928 546.5,463C 602.872,516.133 643.205,579.8 667.5,654C 669.516,664.25 671.85,674.417 674.5,684.5C 677.26,704.857 679.594,725.19 681.5,745.5C 642.833,745.5 604.167,745.5 565.5,745.5C 566.308,723.302 564.641,701.302 560.5,679.5C 480.515,678.684 400.515,678.184 320.5,678C 314.145,674.63 311.145,669.297 311.5,662C 311.704,654.302 312.871,646.802 315,639.5C 316.816,638.671 318.649,637.837 320.5,637C 394.833,636.5 469.166,636.333 543.5,636.5C 542.944,632.039 541.777,627.706 540,623.5C 534.985,614.135 529.985,604.802 525,595.5C 513.365,579.19 501.699,562.857 490,546.5C 471.954,525.45 452.788,505.283 432.5,486C 425.03,480.696 418.363,474.53 412.5,467.5C 409.129,465.154 405.796,462.821 402.5,460.5C 392.138,467.852 382.804,476.352 374.5,486C 373.5,486.333 372.5,486.667 371.5,487C 361.667,496.833 351.833,506.667 342,516.5C 341.667,517.5 341.333,518.5 341,519.5C 336.382,523.407 332.215,527.741 328.5,532.5C 363.889,533.019 399.222,533.853 434.5,535C 439.339,537.149 441.839,540.983 442,546.5C 443.392,555.186 442.392,563.519 439,571.5C 436.96,573.041 434.793,574.374 432.5,575.5C 385.796,576.171 339.129,576.838 292.5,577.5C 267.829,612.98 250.996,651.98 242,694.5C 239.898,711.434 239.064,728.434 239.5,745.5C 201.5,745.5 163.5,745.5 125.5,745.5C 125.295,708.289 131.295,672.122 143.5,637C 168.447,571.59 205.447,514.923 254.5,467C 256.167,466 257.833,465 259.5,464C 263.637,459.11 267.97,454.443 272.5,450C 289.285,435.057 306.285,420.224 323.5,405.5C 329.496,402.051 329.829,398.218 324.5,394C 317.833,388.667 311.167,383.333 304.5,378C 269.802,346.476 237.802,312.642 208.5,276.5C 198.118,263.097 188.452,249.097 179.5,234.5C 171.963,219.763 164.129,205.097 156,190.5C 151.145,178.941 146.479,167.275 142,155.5C 137.074,138.874 132.907,122.041 129.5,105C 126.674,86.2727 125.341,67.4394 125.5,48.5 Z"/></g>
<g><path style="opacity:1" fill="#103894" d="M 569.5,48.5 C 606.919,48.0126 644.253,48.5126 681.5,50C 679.589,70.373 677.256,90.873 674.5,111.5C 670.951,128.98 666.284,146.146 660.5,163C 653.647,178.542 646.647,194.042 639.5,209.5C 634.457,218.045 629.624,226.711 625,235.5C 620.074,242.795 615.24,250.129 610.5,257.5C 609.5,258.333 608.5,259.167 607.5,260C 529.167,260.667 450.833,260.667 372.5,260C 368.641,258.141 365.808,255.308 364,251.5C 363.087,242.424 363.42,233.424 365,224.5C 367.644,222.69 370.144,220.69 372.5,218.5C 419.163,217.667 465.83,217.167 512.5,217C 521.709,205.426 529.543,192.926 536,179.5C 536.925,178.953 537.758,178.287 538.5,177.5C 548.487,156.282 556.32,134.282 562,111.5C 565.877,90.6298 568.377,69.6298 569.5,48.5 Z"/></g>
</svg>
