<svg xmlns="http://www.w3.org/2000/svg" xmlns:xlink="http://www.w3.org/1999/xlink" version="1.1" style="shape-rendering:geometricPrecision; text-rendering:geometricPrecision; image-rendering:optimizeQuality; fill-rule:evenodd; clip-rule:evenodd" viewBox="161.49 99.38 478.01 600.12">
<g><path style="opacity:1" fill="#113894" d="M 161.5,99.5 C 193.21,99.1742 224.877,99.5076 256.5,100.5C 257.712,119.317 260.045,137.983 263.5,156.5C 331.834,156.333 400.167,156.5 468.5,157C 474.062,158.265 477.228,161.765 478,167.5C 479.356,175.529 478.356,183.195 475,190.5C 474.097,191.701 472.931,192.535 471.5,193C 406.528,194.146 341.528,194.979 276.5,195.5C 294.643,231.454 317.476,264.121 345,293.5C 362.893,312.061 381.393,329.894 400.5,347C 439.76,380.256 478.426,414.256 516.5,449C 564.56,492.621 600.06,544.787 623,605.5C 633.141,636.011 638.641,667.345 639.5,699.5C 606.5,699.5 573.5,699.5 540.5,699.5C 540.893,680.313 539.226,661.313 535.5,642.5C 467.833,642.667 400.166,642.5 332.5,642C 326.37,641.204 322.87,637.704 322,631.5C 321.333,625.833 321.333,620.167 322,614.5C 323.089,610.814 325.255,607.981 328.5,606C 392.167,605.667 455.833,605.333 519.5,605C 520.308,604.692 520.975,604.192 521.5,603.5C 509.43,576.287 493.93,551.287 475,528.5C 452.286,501.453 427.286,476.786 400,454.5C 377.066,472.6 356.232,492.933 337.5,515.5C 366.828,516.333 396.161,516.833 425.5,517C 430.551,518.717 433.385,522.217 434,527.5C 435.113,534.715 434.446,541.715 432,548.5C 430.457,550.378 428.624,551.878 426.5,553C 386.5,553.333 346.5,553.667 306.5,554C 275.047,597.283 259.38,645.783 259.5,699.5C 226.833,699.5 194.167,699.5 161.5,699.5C 162.205,643.664 177.038,591.998 206,544.5C 225.944,510.533 250.444,480.033 279.5,453C 298.649,436.018 317.649,418.852 336.5,401.5C 306.764,375.863 278.597,348.53 252,319.5C 225.827,289.17 204.16,255.836 187,219.5C 169.717,181.246 161.217,141.246 161.5,99.5 Z"/></g>
<g><path style="opacity:1" fill="#113894" d="M 543.5,99.5 C 575.168,99.3334 606.835,99.5 638.5,100C 638.631,140.012 630.797,178.512 615,215.5C 604.327,239.025 591.494,261.192 576.5,282C 508.833,282.667 441.167,282.667 373.5,282C 369.403,279.64 366.903,276.14 366,271.5C 365.039,264.647 365.706,257.98 368,251.5C 369.663,249.083 371.829,247.25 374.5,246C 414.5,245.667 454.5,245.333 494.5,245C 526.467,201.933 542.801,153.433 543.5,99.5 Z"/></g>
</svg>