<?xml version="1.0" encoding="UTF-8"?>
<svg xmlns="http://www.w3.org/2000/svg" xmlns:xlink="http://www.w3.org/1999/xlink" width="100px" height="px" viewBox="0 0 100 125" version="1.1">
<defs>
<filter id="alpha" filterUnits="objectBoundingBox" x="0%" y="0%" width="100%" height="100%">
  <feColorMatrix type="matrix" in="SourceGraphic" values="0 0 0 0 1 0 0 0 0 1 0 0 0 0 1 0 0 0 1 0"/>
</filter>
<mask id="mask0">
  <g filter="url(#alpha)">
<rect x="0" y="0" width="100" height="125" style="fill:rgb(0%,0%,0%);fill-opacity:0.996078;stroke:none;"/>
  </g>
</mask>
<clipPath id="clip1">
  <rect x="0" y="0" width="100" height="125"/>
</clipPath>
<g id="surface5" clip-path="url(#clip1)">
<path style=" stroke:none;fill-rule:evenodd;fill:rgb(99.607843%,99.607843%,99.607843%);fill-opacity:1;" d="M 0.0117188 0.0234375 C 6.644531 -0.0429688 13.265625 0.0273438 19.882812 0.234375 C 20.136719 4.152344 20.621094 8.039062 21.34375 11.898438 C 35.636719 11.863281 49.929688 11.898438 64.222656 12 C 65.386719 12.265625 66.050781 12.996094 66.210938 14.1875 C 66.496094 15.859375 66.285156 17.457031 65.582031 18.980469 C 65.394531 19.230469 65.152344 19.402344 64.851562 19.5 C 51.261719 19.738281 37.667969 19.914062 24.066406 20.019531 C 27.859375 27.511719 32.636719 34.3125 38.390625 40.433594 C 42.136719 44.300781 46.003906 48.015625 50 51.578125 C 58.210938 58.503906 66.300781 65.585938 74.265625 72.824219 C 84.316406 81.910156 91.742188 92.773438 96.539062 105.421875 C 98.660156 111.777344 99.8125 118.300781 99.992188 125 C 93.089844 125 86.1875 125 79.285156 125 C 79.367188 121.003906 79.015625 117.046875 78.238281 113.128906 C 64.085938 113.164062 49.929688 113.128906 35.777344 113.023438 C 34.496094 112.859375 33.765625 112.128906 33.582031 110.835938 C 33.441406 109.65625 33.441406 108.476562 33.582031 107.296875 C 33.808594 106.527344 34.261719 105.9375 34.941406 105.523438 C 48.257812 105.457031 61.574219 105.386719 74.890625 105.316406 C 75.058594 105.253906 75.199219 105.148438 75.308594 105.003906 C 72.785156 99.335938 69.542969 94.128906 65.582031 89.382812 C 60.832031 83.75 55.605469 78.609375 49.894531 73.96875 C 45.097656 77.738281 40.742188 81.972656 36.824219 86.675781 C 42.957031 86.847656 49.09375 86.953125 55.230469 86.988281 C 56.285156 87.34375 56.878906 88.074219 57.007812 89.175781 C 57.242188 90.675781 57.101562 92.132812 56.589844 93.546875 C 56.265625 93.9375 55.882812 94.25 55.4375 94.484375 C 47.074219 94.554688 38.707031 94.625 30.339844 94.695312 C 23.761719 103.710938 20.484375 113.8125 20.507812 125 C 13.675781 125 6.84375 125 0.0117188 125 C 0.160156 113.371094 3.261719 102.609375 9.320312 92.714844 C 13.492188 85.640625 18.613281 79.285156 24.691406 73.65625 C 28.699219 70.117188 32.671875 66.542969 36.613281 62.929688 C 30.394531 57.589844 24.503906 51.894531 18.941406 45.847656 C 13.464844 39.53125 8.933594 32.589844 5.34375 25.019531 C 1.730469 17.050781 -0.046875 8.71875 0.0117188 0.0234375 Z M 0.0117188 0.0234375 "/>
</g>
<mask id="mask1">
  <g filter="url(#alpha)">
<rect x="0" y="0" width="100" height="125" style="fill:rgb(0%,0%,0%);fill-opacity:0.996078;stroke:none;"/>
  </g>
</mask>
<clipPath id="clip2">
  <rect x="0" y="0" width="100" height="125"/>
</clipPath>
<g id="surface8" clip-path="url(#clip2)">
<path style=" stroke:none;fill-rule:evenodd;fill:rgb(99.607843%,99.607843%,99.607843%);fill-opacity:1;" d="M 79.910156 0.0234375 C 86.535156 -0.0078125 93.160156 0.0234375 99.78125 0.128906 C 99.808594 8.464844 98.171875 16.484375 94.867188 24.1875 C 92.632812 29.085938 89.949219 33.703125 86.8125 38.039062 C 72.660156 38.175781 58.507812 38.175781 44.355469 38.039062 C 43.496094 37.546875 42.972656 36.816406 42.785156 35.851562 C 42.582031 34.421875 42.722656 33.035156 43.203125 31.683594 C 43.550781 31.183594 44.003906 30.800781 44.5625 30.539062 C 52.929688 30.46875 61.296875 30.402344 69.664062 30.332031 C 76.347656 21.359375 79.765625 11.257812 79.910156 0.0234375 Z M 79.910156 0.0234375 "/>
</g>
</defs>
<g id="surface1">
<use xlink:href="#surface5" mask="url(#mask0)"/>
<use xlink:href="#surface8" mask="url(#mask1)"/>
</g>
</svg>
